<?xml version="1.0" encoding="UTF-8" standalone="no"?>
<!-- Created with Inkscape (http://www.inkscape.org/) -->

<svg
   version="1.1"
   id="svg2"
   width="793.70135"
   height="1122.52"
   viewBox="0 0 793.70135 1122.52"
   xmlns="http://www.w3.org/2000/svg"
   xmlns:svg="http://www.w3.org/2000/svg">
  <defs
     id="defs6" />
  <g
     id="g8"
     transform="matrix(1.3333333,0,0,-1.3333333,0,1122.52)">
    <g
       id="g10"
       transform="translate(199.1,526.9)">
      <path
         d="M 0,0 V 0.5 1 L 0.1,1.5 V 2 2.3 2.6 2.7 2.8 M -3.1,3 V 2.9 2.7 2.5 2.1 L -3.2,1.7 V 1.2 0.7 0.1 M -1,-18 0,0 m -3.2,0.1 -1,-17.9 m 0,0 v -0.6 -0.5 l -0.1,-0.5 v -0.4 -0.4 -0.2 -0.2 m 3.2,-0.2 v 0 0.2 0.3 0.3 0.5 l 0.1,0.4 v 0.6 0.5 m -124.8,23.6 2.7,-2.8 2.3,-2.6 2,-2.2 1.5,-1.9 1.3,-1.6 1,-1.5 1.8,-2.8 0.6,-1.3 0.5,-1.1 0.2,-1 0.1,-0.7 0.1,-0.5 0.3,-0.3 h 0.3 0.2 0.2 l 0.2,0.1 0.3,0.2 0.3,0.3 0.6,0.5 0.6,0.6 0.6,0.6 0.6,0.6 0.6,0.6 0.6,0.6 2.7,2.7 0.6,0.6 0.6,0.6 0.9,1 1,0.9 1.1,1.2 1.3,1.3 1.5,1.5 1.6,1.6 1.6,1.6 3.3,3.3 3.2,3.2 3,2.9 2.8,2.9 2.6,2.6 2.3,2.3 1,0.9 0.8,0.8 0.7,0.8 0.3,0.3 0.1,0.1 0.1,0.1 0.1,0.1 v 0.2 L -73,23 v 0.2 m -2.5,1.6 v 0 -0.1 h -0.1 l -0.1,-0.1 -0.6,-0.6 -0.9,-0.9 -1.2,-1.2 -1.5,-1.5 -1.6,-1.6 -1.8,-1.8 -1.9,-1.9 -1.9,-1.9 -2,-2 -1.9,-1.9 -1.8,-1.8 -1.7,-1.7 -3.1,-3.1 -2.6,-2.6 -2.1,-2.1 -1.5,-1.5 -1,-1 -1.1,-1.1 -1.3,-1.3 -1.4,-1.4 -0.5,-0.5 -0.6,-0.6 -0.2,-0.2 m 0.2,-1.8 v 0 l 0.2,0.6 -0.2,0.9 -0.6,1.4 -1,1.7 -1.4,2.2 -2,2.6 -2.5,3 -3,3.4 -3.4,3.5 m 0,0 -2.8,2.7 -2.6,2.4 -2.3,2 -2,1.6 -1.7,1.3 -1.5,1.1 -1.5,1 -1.4,0.9 -1.2,0.6 -1.1,0.4 -0.8,0.1 -0.3,-0.2 m 1.8,-0.2 1.1,1.1 2.9,2.8 0.6,0.6 0.6,0.6 0.9,0.9 0.9,1 1.1,1.1 1.4,1.3 1.4,1.5 1.6,1.5 1.6,1.7 3.2,3.2 3.2,3.1 2.9,3 2.8,2.8 2.6,2.6 2.3,2.3 1,1 0.8,0.8 0.9,0.8 0.4,0.4 v 0.1 h 0.1 v 0.1 l 0.1,0.1 m -1.7,2.5 v -0.1 h -0.1 -0.1 -0.1 l -0.1,-0.1 -0.1,-0.1 -0.2,-0.1 h -0.1 V 58 l -0.5,-0.4 -0.8,-0.9 -1.1,-1.1 -1.5,-1.5 -1.6,-1.6 -1.8,-1.8 -1.9,-1.9 -2,-2 -2,-1.9 -1.9,-2 -1.9,-1.8 -1.7,-1.8 -3.2,-3.2 -2.6,-2.6 -2.1,-2.1 -1.5,-1.5 -1,-1 -1.2,-1.2 -1.3,-1.3 -1.3,-1.3 -0.6,-0.6 -0.6,-0.5 -0.5,-0.6 -0.6,-0.6 -0.6,-0.5 -0.5,-0.6 -0.4,-0.4 -0.2,-0.3 -0.1,-0.1 v -0.1 -0.1 l -0.1,-0.2 v -0.3 l 0.1,-0.2 0.3,-0.2 0.4,-0.1 0.4,-0.1 h 0.6 l 1.1,-0.3 1.4,-0.7 1.8,-1 2.1,-1.5 2.6,-1.9 2.9,-2.4 3.2,-2.9 3.5,-3.3 m 234.9,234.9 2.8,-2.8 2.6,-2.3 2.3,-2 2,-1.7 1.7,-1.3 1.5,-1.1 1.5,-1 1.4,-0.8 1.2,-0.6 1.1,-0.4 0.8,-0.1 0.3,0.2 m -1.9,0.1 -1,-1 -2.9,-2.9 -0.6,-0.6 -0.6,-0.6 -0.9,-0.9 -0.9,-0.9 -1.2,-1.2 -1.3,-1.3 -1.4,-1.4 -1.6,-1.6 -1.6,-1.6 -3.3,-3.3 -3.1,-3.1 -2.9,-2.9 -2.8,-2.8 -2.6,-2.6 -2.3,-2.3 -1,-1 -0.9,-0.9 -0.8,-0.8 -0.4,-0.4 -0.1,-0.1 m 1.7,-2.6 v 0 L 94,190 h 0.1 l 0.1,0.1 h 0.1 l 0.1,0.1 0.1,0.1 h 0.1 v 0.1 l 0.4,0.4 0.9,0.8 1.1,1.2 1.5,1.4 1.6,1.7 1.8,1.8 1.9,1.9 2,1.9 1.9,2 2,1.9 1.8,1.9 1.8,1.8 3.2,3.1 2.6,2.7 2.1,2 1.5,1.5 1,1.1 1.2,1.1 1.3,1.3 1.3,1.4 0.6,0.5 0.5,0.6 0.6,0.6 0.6,0.5 0.5,0.6 0.6,0.5 0.4,0.5 0.2,0.2 v 0.2 l 0.1,0.1 v 0.1 0.2 0.2 0.2 l -0.3,0.3 -0.4,0.1 h -0.5 l -0.5,0.1 -1.1,0.3 -1.4,0.6 -1.8,1.1 -2.1,1.4 -2.6,2 -2.9,2.4 -3.3,2.9 -3.4,3.3 m 0,0 -2.7,2.8 -2.4,2.5 -1.9,2.3 -1.6,1.9 -1.2,1.6 -1,1.5 -1.8,2.8 -0.7,1.2 -0.4,1.2 -0.2,0.9 -0.1,0.7 -0.1,0.5 -0.3,0.3 -0.3,0.1 H 96.4 L 96.2,263 H 96 l -0.3,-0.2 -0.3,-0.3 -0.6,-0.6 -0.6,-0.6 -0.6,-0.6 -0.6,-0.6 -0.6,-0.6 -0.6,-0.6 -2.7,-2.7 -0.6,-0.6 -0.6,-0.6 -0.9,-0.9 -1,-1 -1.1,-1.1 -1.4,-1.3 -1.4,-1.5 -1.6,-1.6 -1.7,-1.6 -3.3,-3.3 -3.1,-3.2 -3,-3 -2.8,-2.8 -2.6,-2.6 -2.3,-2.3 -1,-1 -0.8,-0.8 -0.7,-0.7 -0.3,-0.3 -0.1,-0.2 -0.1,-0.1 h -0.1 l -0.1,-0.2 v -0.2 m 2.5,-1.7 v 0 l 0.1,0.1 0.1,0.1 0.6,0.5 0.9,0.9 1.2,1.3 1.5,1.4 1.6,1.7 1.8,1.8 1.9,1.9 1.9,1.9 2,1.9 1.8,1.9 1.9,1.8 1.7,1.8 3.1,3.1 2.6,2.6 2,2 1.5,1.5 1.1,1.1 1.1,1.1 1.3,1.3 1.4,1.3 0.5,0.6 0.6,0.5 0.1,0.2 m -0.1,1.8 v 0 l -0.2,-0.5 0.2,-1 0.6,-1.3 1,-1.7 1.4,-2.2 2,-2.7 2.5,-3 3,-3.3 3.4,-3.5 m 2.5,-235.2 2.9,2.8 2.5,2.3 2.3,2 1.9,1.5 1.6,1.2 1.4,1.1 2.9,1.8 1.2,0.6 1.1,0.5 1,0.2 0.7,0.1 0.5,0.1 0.3,0.3 0.1,0.2 -0.1,0.3 v 0.2 l -0.1,0.2 -0.1,0.2 -0.3,0.4 -0.6,0.6 -0.6,0.6 -0.6,0.6 -0.6,0.6 -0.6,0.6 -0.6,0.5 -2.7,2.8 -0.6,0.5 -0.6,0.7 -0.9,0.9 -1,0.9 -1.1,1.2 -1.4,1.3 -1.4,1.5 -1.6,1.6 -1.7,1.6 -3.3,3.3 -3.1,3.2 -3,3 -2.8,2.8 -2.6,2.6 -2.3,2.3 -1,1 -0.8,0.8 -0.7,0.7 -0.3,0.3 -0.2,0.1 -0.1,0.1 h -0.1 l -0.1,0.1 -0.2,0.1 H 94 93.8 93.7 m -1.5,-2.1 0.1,-0.2 0.1,-0.2 h 0.1 v -0.1 l 0.2,-0.2 0.5,-0.5 0.9,-0.9 1.2,-1.2 1.5,-1.5 1.7,-1.6 1.8,-1.8 1.8,-1.9 2,-2 1.9,-1.9 1.9,-1.9 1.8,-1.8 1.8,-1.7 3.1,-3.1 2.6,-2.6 2,-2.1 1.5,-1.5 1,-1 1.2,-1.2 1.3,-1.2 1.3,-1.4 0.6,-0.5 0.5,-0.6 0.2,-0.2 m 1.8,0.2 v 0 l -0.5,0.2 -1,-0.2 -1.3,-0.6 -1.8,-1 -2.2,-1.5 -2.6,-1.9 -3,-2.5 -3.3,-3 -3.5,-3.4 m 0,0 -2.8,-2.8 -2.4,-2.6 -1.9,-2.3 -1.7,-2 -1.3,-1.7 -1.1,-1.5 -1,-1.5 -0.8,-1.4 -0.6,-1.2 -0.4,-1.1 -0.1,-0.8 0.2,-0.3 m 0.1,1.8 -1,1.1 -2.9,2.9 -0.6,0.5 -0.6,0.6 -0.9,1 -0.9,0.9 -1.2,1.1 -1.3,1.3 -1.4,1.5 -1.6,1.6 -1.6,1.6 -3.3,3.2 -3.1,3.2 -2.9,2.9 -2.8,2.8 -2.6,2.6 -2.3,2.3 -1,1 -0.9,0.8 -0.8,0.8 -0.4,0.4 v 0.1 h -0.1 l -0.1,0.1 -0.1,0.1 -0.2,0.1 m -2.2,-1.4 -0.1,-0.1 0.1,-0.3 v -0.1 -0.1 l 0.1,-0.1 v -0.1 l 0.1,-0.1 0.1,-0.2 0.1,-0.1 h 0.1 l 0.4,-0.5 0.8,-0.8 1.2,-1.2 1.4,-1.4 1.7,-1.6 1.8,-1.8 1.9,-2 1.9,-1.9 2,-2 1.9,-1.9 1.9,-1.9 1.7,-1.7 3.2,-3.2 2.6,-2.6 2.1,-2.1 1.5,-1.5 1,-1 1.2,-1.2 1.3,-1.3 1.4,-1.4 0.5,-0.5 0.6,-0.6 0.5,-0.5 0.6,-0.6 0.6,-0.6 0.5,-0.5 0.4,-0.4 0.3,-0.2 0.2,-0.1 h 0.1 L 96.8,-15 H 97 l 0.2,0.1 0.3,0.3 0.1,0.4 v 0.4 l 0.1,0.6 0.3,1.1 0.6,1.4 1,1.7 1.5,2.2 1.9,2.6 2.5,2.9 2.9,3.2 3.2,3.4 m -234.9,235 2.7,2.8 2.4,2.6 2,2.3 1.7,2 1.3,1.7 1.1,1.5 1,1.5 0.8,1.4 0.6,1.2 0.4,1.1 0.1,0.8 -0.2,0.3 m -0.2,-1.8 1.1,-1.1 2.9,-2.9 0.6,-0.5 0.6,-0.6 0.9,-1 0.9,-0.9 1.1,-1.1 1.4,-1.3 1.4,-1.5 1.6,-1.6 1.6,-1.6 3.2,-3.2 3.2,-3.2 2.9,-2.9 2.8,-2.8 2.6,-2.6 2.3,-2.3 1,-1 0.8,-0.8 0.9,-0.8 0.3,-0.4 m 2.7,1.7 -0.1,0.1 v 0.1 l -0.1,0.2 -0.1,0.1 h -0.1 l -0.4,0.5 -0.8,0.8 -1.2,1.2 -1.4,1.4 -1.7,1.6 -1.8,1.9 -1.9,1.9 -1.9,1.9 -2,2 -1.9,1.9 -1.9,1.9 -1.8,1.7 -3.1,3.2 -2.7,2.6 -2,2.1 -1.5,1.5 -1.1,1 -1.1,1.2 -1.3,1.3 -1.4,1.4 -0.6,0.5 -0.5,0.6 -0.6,0.5 -0.5,0.6 -0.6,0.6 -0.6,0.5 -0.4,0.4 -0.2,0.2 -0.2,0.1 h -0.1 -0.1 l -0.2,0.1 h -0.2 l -0.2,-0.1 -0.3,-0.2 -0.1,-0.5 v -0.4 l -0.1,-0.6 -0.3,-1.1 -0.6,-1.4 -1.1,-1.7 -1.4,-2.2 -2,-2.6 -2.4,-2.9 -2.9,-3.2 -3.3,-3.4 m 0,0 -2.8,-2.8 -2.6,-2.3 -2.2,-2 -1.9,-1.5 -1.6,-1.2 -1.5,-1.1 -2.8,-1.8 -1.2,-0.6 -1.2,-0.5 -0.9,-0.2 -0.7,-0.1 h -0.5 l -0.3,-0.4 -0.1,-0.2 v -0.3 l 0.1,-0.2 v -0.2 l 0.2,-0.2 0.3,-0.4 0.6,-0.6 0.6,-0.6 0.6,-0.6 0.6,-0.6 0.6,-0.6 0.6,-0.5 2.7,-2.8 0.5,-0.5 0.7,-0.6 0.9,-1 0.9,-0.9 1.2,-1.2 1.3,-1.3 1.5,-1.5 1.6,-1.6 1.6,-1.6 3.3,-3.3 3.2,-3.2 3,-2.9 2.8,-2.9 2.6,-2.6 2.3,-2.3 1,-1 0.8,-0.8 0.7,-0.7 0.3,-0.3 0.1,-0.1 0.1,-0.1 h 0.1 l 0.1,-0.1 m 1.8,2.7 -0.5,0.5 -1,0.9 -1.2,1.2 -1.4,1.5 -1.7,1.6 -1.8,1.8 -1.9,1.9 -1.9,2 -1.9,1.9 -1.9,1.9 -1.9,1.8 -1.7,1.7 -3.1,3.1 -2.6,2.6 -2,2.1 -1.5,1.5 -1.1,1 -1.1,1.2 -1.3,1.2 -1.4,1.4 -0.5,0.5 -0.5,0.6 -0.2,0.2 m -1.8,-0.2 v 0 l 0.5,-0.2 1,0.2 1.3,0.6 1.7,1 2.2,1.5 2.7,1.9 3,2.5 3.3,3 3.5,3.4 m 57,-217.6 -9.3,6 -8.2,6.5 -7.2,6.7 -6.1,6.7 -5.2,6.7 -4.4,6.4 -3.6,6.2 -2.9,5.7 -2.7,6 -2,5.4 -1.8,5.3 -1.5,5.4 -1.2,5.5 -1,5.6 -0.7,5.7 -0.6,10.2 0.4,10.3 1.2,10.2 2.1,10 3,9.9 3.8,9.5 4.6,9.2 5.5,8.7 6.1,8.3 6.9,7.6 7.5,7.1 8.1,6.3 8.7,5.6 9,4.8 9.5,4 9.8,3.2 10,2.3 10.2,1.4 10.3,0.6 10.3,-0.4 10.2,-1.3 10,-2.2 9.9,-3 9.5,-3.9 9.1,-4.7 8.7,-5.5 8.2,-6.2 7.6,-6.9 7,-7.6 6.3,-8.1 5.5,-8.7 4.8,-9.1 4,-9.5 3.1,-9.8 2.2,-10.1 1.4,-10.2 0.4,-10.2 -0.4,-10.3 -1.4,-10.2 -2.2,-10.1 -3.1,-9.8 -3.9,-9.5 -4.8,-9.1 -5.6,-8.7 -6.2,-8.1 -7,-7.5 -7.3,-6.8 -7.6,-5.8 -4.4,-3 L 51.8,22.7 47.4,20.2 42.8,18 37.3,15.5 30.8,13.1 23.3,10.8 15.8,9 7.5,7.7 -1.6,6.9 l -9.9,-0.1 -8.4,0.7 -8.8,1.3 -9.2,2 -9.4,3 -9.5,3.9 m -1.4,-2.9 10.6,-4.3 10.3,-3.1 9.8,-2.1 9.3,-1.2 8.6,-0.5 6.8,0.1 m 2.6,0.1 5.9,0.5 6.6,0.8 6.6,1.3 5.8,1.4 5.4,1.7 5.5,1.9 5.4,2.2 5.3,2.5 5.2,2.7 7.3,4.5 m 2.2,1.4 7.9,5.9 7.9,7 7.2,7.7 6.6,8.3 1.6,2.5 m 1.5,2.1 2.7,4.2 5,9.3 4.2,9.7 3.3,10.1 2.4,10.2 1.5,10.5 0.6,10.6 -0.3,10.5 -1.3,10.5 -2.1,10.4 -3.1,10.1 -4,9.8 -4.7,9.4 -4,6.4 m -1.7,2.6 -6.3,8.4 -7.1,7.9 -7.7,7.2 -8.3,6.5 -1.8,1.1 m -2.5,1.7 -4.6,2.9 -9.3,5 -9.8,4.1 -10,3.2 -10.3,2.4 -10.5,1.4 -10.5,0.6 -10.6,-0.4 -10.5,-1.4 -10.3,-2.2 -10.1,-3.1 -9.8,-4 -9.4,-4.9 -5.6,-3.6 m -2.7,-1.7 -0.6,-0.3 -8.4,-6.4 -7.8,-7.2 -7.2,-7.7 -6.4,-8.4 -0.7,-1.1 m -1.8,-2.7 -3.2,-5.1 -4.9,-9.4 -4.1,-9.7 -3.2,-10.1 -2.2,-10.3 -1.4,-10.1 -0.5,-9.9 0.1,-5.4 0.3,-5.4 0.6,-5.2 0.7,-5.2 1.2,-6 1.7,-6.9 2.5,-7.7 3,-7.4 3.7,-7.8 4.7,-8.1 1.1,-1.6 m 1.7,-2.5 2.9,-4.3 5.5,-6.7 6.3,-6.7 7.1,-6.5 8,-6.2 1.3,-0.8 m 2.5,-1.6 5.1,-3.3 m 11.5,-2.3 -2.2,1 -1.8,0.5 -1.3,0.1 -1.1,-0.3 -0.7,-0.3 -0.5,-0.4 -0.7,-1.1 -0.4,-1.3 v -2 l 0.3,-1.8 0.6,-2.4 1.1,-3 m 3,1.1 -0.8,2.2 -0.6,2.1 -0.4,1.9 v 1.4 0.4 l 0.1,0.1 v 0.1 h 0.1 0.1 0.1 0.3 l 0.7,-0.1 1.1,-0.4 1.5,-0.7 M -1.4,4.5 -2,4.4 -2.6,4.1 -2.9,3.6 -3.1,3 -3,2.3 -2.7,1.8 -2.2,1.4 -1.6,1.3 -1,1.4 -0.4,1.7 0,2.2 0.1,2.8 0,3.4 -0.3,3.9 -0.8,4.3 -1.4,4.5 m -2.9,-25.1 0.1,-0.7 0.3,-0.5 0.5,-0.4 0.6,-0.1 0.6,0.1 0.6,0.3 0.3,0.5 0.2,0.6 m -74.8,45.2 -0.2,-0.6 v -0.6 l 0.2,-0.6 0.4,-0.4 0.6,-0.3 h 0.6 l 0.6,0.2 0.5,0.5 0.2,0.5 v 0.7 l -0.2,0.5 -0.4,0.5 -0.6,0.2 -0.6,0.1 -0.6,-0.3 -0.5,-0.4 m -31.1,31.2 0.4,0.4 0.2,0.6 v 0.6 l -0.2,0.6 -0.5,0.4 -0.6,0.3 h -0.6 l -0.6,-0.3 -0.4,-0.4 -0.2,-0.6 v -0.7 l 0.2,-0.5 0.5,-0.5 0.6,-0.2 h 0.6 l 0.6,0.3 m 199.5,137.2 -0.4,-0.5 -0.2,-0.5 v -0.7 l 0.2,-0.5 0.5,-0.5 0.6,-0.2 h 0.6 l 0.6,0.3 0.4,0.4 0.2,0.6 v 0.6 l -0.2,0.6 -0.5,0.4 -0.6,0.3 -0.6,-0.1 -0.6,-0.2 m -31.1,31.2 0.2,0.5 v 0.7 l -0.2,0.5 -0.4,0.5 -0.6,0.2 -0.6,0.1 -0.6,-0.3 -0.5,-0.4 -0.2,-0.6 v -0.6 l 0.2,-0.6 0.4,-0.4 0.6,-0.3 h 0.6 l 0.6,0.2 0.5,0.5 M 92.8,55.3 93.4,55.1 H 94 l 0.6,0.2 0.5,0.4 0.2,0.6 v 0.6 l -0.2,0.6 -0.4,0.5 -0.6,0.2 H 93.5 L 92.9,58 92.4,57.6 92.2,57 v -0.6 l 0.2,-0.6 0.4,-0.5 M 61.7,24.1 61.2,24.6 60.6,24.8 H 60 L 59.4,24.5 59,24.1 58.8,23.5 v -0.6 l 0.2,-0.6 0.5,-0.4 0.6,-0.3 0.6,0.1 0.6,0.2 0.4,0.5 0.2,0.5 v 0.7 l -0.2,0.5 m -137.3,199.7 0.5,-0.5 0.5,-0.2 h 0.7 l 0.5,0.3 0.5,0.4 0.2,0.6 v 0.6 l -0.3,0.6 -0.4,0.4 -0.6,0.3 -0.6,-0.1 -0.6,-0.2 -0.4,-0.5 -0.3,-0.5 0.1,-0.7 0.2,-0.5 m -31.2,-31.2 -0.5,0.2 -0.7,0.1 -0.6,-0.3 -0.4,-0.4 -0.3,-0.6 V 191 l 0.3,-0.6 0.4,-0.4 0.6,-0.3 h 0.6 l 0.6,0.2 0.4,0.5 0.3,0.5 v 0.7 l -0.2,0.5 -0.5,0.5 M -57.3,16.2 v 0 l -0.1,-0.1 -0.2,-0.5 -0.2,-0.4 -0.1,-0.3 -0.1,-0.1 m 0.7,1.4 v 0 0.1 l 0.3,0.5 0.2,0.4 0.1,0.3 0.1,0.1 m -9.7,5.1 v -0.1 l -0.2,-0.3 -0.3,-0.5 -0.3,-0.5 -0.3,-0.5 -0.3,-0.5 -0.1,-0.3 -0.1,-0.1 m 4.8,-13.3 h 0.1 l 0.3,0.1 0.5,0.2 0.6,0.2 0.6,0.3 0.4,0.2 0.4,0.1 h 0.1 M -3.2,0.1 h 0.1 0.3 0.6 L -1.6,0 H -1 -0.5 -0.2 0 m -4.2,-17.8 h 0.1 0.4 l 0.5,-0.1 h 0.6 0.6 l 0.6,-0.1 h 0.3 0.1 m -122.6,25.9 -0.1,-0.1 -0.2,-0.3 -0.4,-0.3 -0.4,-0.5 -0.4,-0.4 -0.4,-0.4 -0.3,-0.2 V 5.6 m 234.9,234.9 v 0.1 l 0.3,0.2 0.4,0.4 0.4,0.4 0.4,0.5 0.4,0.3 0.2,0.3 0.1,0.1 m -1.9,-235.2 0.1,-0.1 0.2,-0.2 0.4,-0.4 0.4,-0.4 0.4,-0.5 0.4,-0.3 0.3,-0.3 V 5.3 m -234.9,235 -0.1,0.1 -0.2,0.2 -0.4,0.4 -0.4,0.4 -0.5,0.5 -0.3,0.3 -0.3,0.3 -0.1,0.1"
         style="fill:none;stroke:#000000;stroke-width:0.709;stroke-linecap:round;stroke-linejoin:round;stroke-miterlimit:10;stroke-dasharray:none;stroke-opacity:1"
         id="path12" />
    </g>
    <g
       id="g14"
       transform="translate(299,392.6)">
      <path
         d="m 0,0 v 10.4 m -3.2,0 V 0 m -0.4,11.7 v 0 l 0.1,-0.1 0.1,-0.3 0.1,-0.4 0.1,-0.4 v -0.1 m 3.2,0 v 0.7 l -0.3,1.1 -0.5,1 -0.6,0.8 -0.8,0.5 -0.8,0.3 -0.5,0.1 M -3.2,0 V -0.3 L -3.3,-0.7 -3.4,-1 -3.6,-1.2 m 0.1,-3.2 0.7,0.1 0.9,0.3 0.7,0.6 0.5,0.8 0.5,1 0.2,1.1 V 0 m -3.5,14.9 h -12 m 0,-3.3 h 12 m -12,-16 h 12 m 0,3.2 h -12 M -19,16.1 v -0.7 l 0.3,-1.1 0.5,-1 0.6,-0.8 0.8,-0.5 0.8,-0.3 0.5,-0.1 m 0.1,3.2 v 0 l -0.1,0.1 -0.1,0.3 -0.1,0.4 -0.1,0.4 v 0.1 m 0.3,-17.3 -0.7,-0.1 -0.9,-0.3 -0.7,-0.6 -0.5,-0.8 -0.5,-1 -0.2,-1.1 v -0.5 m 3.2,0 v 0.2 l 0.1,0.5 0.1,0.3 0.2,0.2 m -0.4,-17.3 v 16.1 m -3.2,0 v -11.8 m 0,-2 v -2.3 m 3.2,37.8 v 16 m -3.2,0 v -2.2 m 0,-2.1 V 16.1 M -132.5,33.6 V 23.3 14 5.8 v -7.2 -6.1 -5.1 -3.6 -4.2 -4.8 -5.6 -3 -0.7 m 0,-12.5 v -1.9 -2.2 -1.5 m 25.2,87.4 -2.7,-0.1 -2.6,-0.5 -4.7,-1.4 -3.8,-2.1 -3.1,-2.4 -2.5,-2.5 -1.9,-2.6 -1.5,-2.7 -1.1,-2.6 -0.7,-2.8 -0.5,-3.1 -0.1,-3.2 V 5.5 -1 v -6.7 -8.5 -8.4 -8.3 -2.4 -2.3 -2.2 -2.3 -2.6 -1.8 -1.8 -1.7 -1.4 -1.2 -0.6 m 3.2,-0.6 v 0 0.3 0.9 1.2 1.5 1.8 1.9 2.1 2.1 4.5 4.1 3.7 3.3 2.9 3 7.2 7.6 2.6 2.7 2.7 2.7 2.7 3 l 0.3,2.6 0.5,2.3 0.7,2 0.8,1.8 1,2 1.6,2.1 2,2.2 2.7,2.1 3.5,1.9 4.1,1.4 4.8,0.5 m -22,-84.4 v 0.9 1.1 2.6 3 2.9 2.9 2.5 4.4 1.6 m 0,52.9 v 3.9 7.7 m -3.2,-84.2 v -1.9 l 0.1,-1.2 0.1,-0.6 0.2,-0.3 0.1,-0.1 0.1,-0.1 0.1,-0.1 0.2,-0.1 0.4,-0.1 h 0.2 l 0.1,-0.1 0.2,0.1 h 0.2 l 0.4,0.2 0.4,0.4 0.3,0.5 0.1,0.8 m 44.1,86.8 V 23.2 22 m 0,-69.2 v -1.8 -2.2 -1.6 m -22.1,84.4 2.7,-0.2 2.5,-0.4 4.3,-1.5 3.5,-2.1 2.8,-2.3 2.1,-2.5 1.6,-2.5 1.1,-2.5 0.8,-2.5 0.5,-2.8 0.2,-2.9 V 7.8 6.1 0.8 v -5.4 -5.3 -8.2 -8.1 -7.9 -2.8 -2.6 -1.8 -1.9 -2.2 -1.8 -1.7 -1.6 -1.5 -1.1 -0.6 -0.1 m 3.1,0.6 v 0 0.4 0.8 l 0.1,1.3 v 1.6 1.8 2 2.2 2.2 4.6 4.2 3.7 3.2 3 3.1 7.5 7.9 6.9 3.4 3.2 l -0.2,3 -0.5,2.8 -0.7,2.4 -0.8,2.1 -1.1,2 -1.4,2.2 -1.9,2.3 -2.4,2.3 -3,2.2 -3.8,1.9 -4.4,1.3 -5.1,0.5 M -82,-52.6 v 0.8 1.1 2.6 3 3 2.8 2.5 4.4 1.1 m 0,22 v 3 3.8 3.6 3.7 3.9 4.8 5.7 6.7 7.7 m -3.2,-87.2 v -0.3 l 0.2,-0.3 0.1,-0.3 0.3,-0.2 0.5,-0.4 h 0.3 0.1 0.2 0.1 0.2 l 0.2,0.1 0.2,0.2 0.3,0.2 0.3,0.6 0.1,0.9 v 1 m -3.1,6.3 v -1.3 -1.8 -1.5 -1.3 -1.1 m 0,-0.4 0.2,-0.9 0.4,-0.6 0.5,-0.4 m 2,3 0.1,1.5 m 0,-2 v 1.5 2.2 2.7 2.9 3.2 3.2 4.8 m 0,26.2 v 4.5 m -50.5,35 v -3.2 m 0,-3.2 v -0.6 -6.1 -5 -4.1 -3.3 m 0,-53.8 v -1.3 -1.8 -1.5 -1.3 -1 M 10.3,33.6 v -3.3 m 0,-2.7 V 25.9 19.3 14 9.9 6.4 2.7 -0.9 -17 m 0,-2.7 v -1.7 -3.9 -3.8 -3.8 l 0.3,-3.1 0.6,-3 1.1,-2.8 1.4,-2.7 1.8,-2.5 2.1,-2.2 2.3,-1.8 2.6,-1.6 2.7,-1.2 2.9,-0.8 2.9,-0.5 h 2.9 l 2.9,0.3 2.7,0.6 2.7,1.1 2.5,1.3 2.3,1.6 2.1,1.9 1.8,2.1 1.6,2.5 2,4.5 1.1,4.7 1.2,4.9 1.2,5.1 1.2,5 0.9,3.9 1,3.8 0.8,3.7 0.9,3.5 0.8,3.4 0.9,3.9 0.3,1.2 0.3,1.2 0.2,1.5 v 1.5 l -0.2,1.6 -0.3,1.4 -0.8,4.6 -0.4,2.4 -0.5,2.4 -0.4,2.4 -0.4,2.3 -0.4,2.2 -0.3,1.9 -0.3,1.6 -0.3,1.2 -0.1,0.8 -0.1,0.3 m -3.2,0 0.1,-0.3 0.1,-0.7 0.2,-1.1 0.2,-1.3 0.3,-1.5 0.3,-1.6 0.6,-3.4 0.6,-3.2 0.5,-2.9 0.4,-2.3 0.4,-2.4 0.4,-2.4 0.4,-2.3 -0.3,-2.5 -0.7,-3 -0.7,-3 -1.7,-7 -2.5,-10.4 -2.5,-10.5 -0.8,-3.6 -0.9,-3.6 -0.9,-3.4 -1.1,-2.4 -1.4,-2.2 -1.7,-2.1 -1.9,-1.8 -2.3,-1.5 -2.4,-1.3 -2.6,-0.8 -2.7,-0.5 -2.7,-0.1 -2.7,0.2 -2.7,0.7 -2.5,1 -2.3,1.4 -2,1.5 -1.8,1.8 -1.4,1.8 -2.1,3.9 -1.1,4.3 -0.2,3.6 v 3.8 4.4 5.4 6.3 7.2 8.1 9.1 10 11 M 61.8,5.4 61.4,3.7 60.8,0.9 l -0.7,-3 -1.2,-5 -1.4,-5.5 -1.5,-6.3 -1.4,-6.3 -1.5,-6.2 -1.1,-4.5 M -227.3,33.6 V 26.2 20 14.8 10.6 7.3 3.9 0.4 v -9.7 -9.9 -11.3 -2.9 l -0.3,-2.7 -0.7,-2.6 -1.1,-2.6 -1.4,-2.4 -1.8,-2.2 -2.1,-1.9 -2.3,-1.6 -2.6,-1.2 -2.7,-0.8 -2.7,-0.5 h -2.7 l -2.7,0.3 -2.6,0.7 -2.4,1 -2.2,1.3 -2,1.6 -1.8,1.8 -1.5,2.1 -1.3,2.2 -1.4,4.2 -1.1,4.8 -1.2,4.9 -1.2,5.1 -1.2,4.8 -0.9,3.8 -0.8,3.6 -0.9,3.6 -0.8,3.3 -0.8,3.3 -0.9,4.1 -0.4,1.6 -0.1,1.6 0.3,1.8 0.4,2.1 0.8,4.5 0.8,4.7 0.4,2.3 0.4,2.2 0.4,2.1 0.3,1.8 0.3,1.6 0.2,1.2 0.1,0.8 0.1,0.3 m -3.2,0 -0.1,-0.2 -0.1,-0.7 -0.2,-1.1 -0.3,-1.4 -0.3,-1.6 -0.3,-1.8 -0.3,-1.7 -0.3,-1.8 -0.6,-3.3 -0.5,-2.7 -0.4,-2.4 -0.4,-2.5 -0.3,-1.7 -0.3,-1.9 V 6.3 l 0.9,-4.2 0.9,-4.1 1,-4.1 1,-4.1 5.2,-21.7 0.8,-3.6 0.9,-3.7 1.5,-3.6 1.5,-2.5 1.8,-2.3 2.1,-2.1 2.3,-1.7 2.5,-1.5 2.7,-1.1 2.8,-0.7 2.9,-0.4 h 2.9 l 2.9,0.4 2.8,0.7 2.7,1.1 2.5,1.4 2.2,1.6 1.9,1.8 1.7,2 2.5,4.3 1.6,4.8 0.4,4.6 v 4.3 5.1 3 m 0,3.2 v 0.1 7.6 8.8 10 11.3 6.2 m 0,3.2 v 3.2 m -54.7,-28.3 0.1,-0.7 0.6,-2.7 0.7,-3 0.8,-3.2 1.2,-5.3 1.4,-5.6 1.2,-5.1 1.2,-5.1 1.2,-4.9 1.1,-5 m 45.2,65.7 v 3.2 m 161.2,-3.2 h -3.2 -2.3 -1.6 -0.4 -0.3 m 0,-3.2 h 0.3 0.8 1.2 2.3 3.2 m -7.8,3.2 h -0.5 l -0.4,-0.2 -0.5,-0.3 -0.1,-0.2 -0.1,-0.1 -0.1,-0.5 v -0.2 -0.3 -0.2 l 0.2,-0.3 v -0.2 l 0.1,-0.1 0.3,-0.3 0.5,-0.2 0.6,-0.1 m -6.1,3.2 H -82 m -3.2,0 h -1.5 -6.4 m -7.5,0 h -4.7 -8.5 -0.2 m -7.4,0 h -0.3 -7.3 -0.3 m -3.2,0 h -3.3 -6.1 -6.2 -5.5 -4.7 -4.5 -4.4 -4.3 -4.2 -4.7 -4.5 -4.4 -4.2 -4.4 -4.8 -3.6 -3.7 -3.5 -3.4 -3 -2.6 -1.6 m 161.5,-3.2 h 5.1 9 8.8 8.5 8.2 4 m 3.2,0 h 0.4 5.3 4.9 4.4 3.8 3.2 2.5 1.6 M -227.3,30 v 0 l -0.4,-0.3 -0.1,-0.2 -0.1,-0.2 V 29.2 29.1 29 28.9 28.6 l 0.1,-0.3 0.3,-0.5 0.2,-0.1 m 150.8,-0.5 h 5.3 m -152.9,0 h 1.6 2.6 3 3.4 3.5 3.7 3.6 4.1 3.9 3.6 3.6 3.8 4 4 4.9 5 5.2 5.4 6.1 7.2 6.1 3.3 m 3.2,0 h 0.3 3.7 m 4.8,0 h 6.7 8.5 9.1 2.1 m 4.9,0 h 2.5 1.5 m 3.2,0 h 5.2 m 88.4,0 1,0.3 0.5,0.5 0.2,0.4 0.1,0.1 v 0.1 0.1 0.3 l -0.1,0.4 -0.5,0.7 -0.5,0.2 -0.7,0.1 m -82.8,0 h -5.3 m 86.8,0 H 8.7 6 2.2 h -4.8 -5.9 -5.1 -2.2 m -3.2,0 h -0.4 -6.4 -7 -7.6 -8.1 -8.8 -5.3 m -0.3,-47.2 h -3.2 -2.3 -1.6 -0.4 -0.3 m 0,-3.2 h 0.3 0.8 1.2 2.3 3.2 m -7.8,3.2 -0.5,-0.1 -0.4,-0.1 -0.5,-0.4 -0.1,-0.1 -0.1,-0.2 -0.1,-0.4 v -0.3 -0.2 -0.3 l 0.2,-0.3 v -0.1 l 0.1,-0.1 0.3,-0.3 0.5,-0.2 0.6,-0.1 m -6.1,3.2 H -82 m -3.2,0 h -1.5 -9.5 -9.1 -8.5 -7.9 -7.3 -0.3 m -3.2,0 h -3.3 -6.1 -6.2 -5.5 -4.7 -4.5 -4.4 -4.3 -4.2 -4.7 -4.5 -4.4 -4.2 -4.4 -4.8 -3.6 -3.7 -3.5 -3.4 -3 -2.6 -1.6 M -62.6,-20 h 5.1 9 8.8 8.5 8.2 4 m 3.2,0 h 0.4 5.3 4.9 4.4 3.8 3.2 2.5 1.6 m -237.6,2.8 v 0 l -0.4,-0.4 -0.1,-0.2 -0.1,-0.2 v -0.1 -0.1 -0.1 -0.1 -0.2 l 0.1,-0.4 0.3,-0.4 0.2,-0.1 M -76.5,-20 h 5.3 m -152.9,0 h 1.6 2.6 3 3.4 3.5 3.7 3.6 4.1 3.9 3.6 3.6 3.8 4 4 4.9 5 5.2 5.4 6.1 7.2 6.1 3.3 m 3.2,0 h 0.3 7.3 7.9 8.5 9.1 9.5 1.5 m 3.2,0 h 5.2 m 88.4,0 1,0.3 0.5,0.5 0.2,0.4 h 0.1 v 0.1 0.1 0.1 0.2 l -0.1,0.5 -0.5,0.6 -0.5,0.3 -0.7,0.1 m -82.8,0 h -5.3 m 86.8,0 H 8.7 6 2.2 h -4.8 -5.9 -5.1 -2.2 m -3.2,0 h -0.4 -6.4 -7 -7.6 -8.1 -8.8 -5.3 m 43.6,-4.9 h 0.1 0.3 0.5 0.6 0.6 0.6 0.3 0.2 M -19,32.1 h 0.1 0.3 0.5 0.6 0.6 0.6 0.3 0.2 m -113.5,1.5 v 0 m -3.2,0 v 0 h 0.3 0.4 0.6 0.7 0.5 0.5 0.2 m 44.1,0 v 0 h 0.2 0.4 0.6 0.6 0.6 0.5 0.2 0.1 m 92.3,0 h 0.1 0.2 0.5 0.5 0.7 0.5 0.5 0.2 m 44.1,-0.5 v 0.1 l 0.2,0.6 0.3,0.5 0.5,0.4 0.6,0.1 0.7,-0.1 0.5,-0.4 0.3,-0.5 0.1,-0.6 m -288.1,0.4 v 0 h 0.2 0.5 0.5 0.7 0.5 0.5 0.2 0.1 M -271.4,33 v 0.2 l -0.1,0.6 -0.4,0.5 -0.5,0.4 -0.6,0.1 -0.6,-0.1 -0.6,-0.4 -0.3,-0.5 -0.1,-0.6 m 211,-4.4 0.1,0.7 0.1,0.5 0.2,0.3 0.3,0.1 0.2,-0.1 0.2,-0.3 0.2,-0.5 v -0.7 -0.6 l -0.2,-0.5 -0.2,-0.3 -0.2,-0.2 -0.3,0.2 -0.2,0.3 -0.1,0.5 -0.1,0.6 m -13.2,1.6 v 0 l 0.1,-0.1 0.2,-0.3 v -0.5 l 0.1,-0.7 -0.1,-0.6 v -0.5 l -0.2,-0.3 -0.1,-0.2 m 13.2,-45.6 0.1,0.6 0.1,0.5 0.2,0.4 0.3,0.1 0.2,-0.1 0.2,-0.4 0.2,-0.5 v -0.6 -0.6 l -0.2,-0.5 -0.2,-0.4 -0.2,-0.1 -0.3,0.1 -0.2,0.4 -0.1,0.5 -0.1,0.6 m -13.2,1.6 v 0 l 0.1,-0.1 0.2,-0.4 v -0.5 l 0.1,-0.6 -0.1,-0.6 v -0.5 l -0.2,-0.4 -0.1,-0.1 m 73.6,30.4 h 0.1 0.3 0.5 0.6 0.6 0.6 0.4 H 0 M -3.2,0 h 0.1 0.3 0.5 0.6 0.6 0.6 0.4 0.1 m -3.5,11.6 -0.5,0.2 -0.3,0.3 -0.3,0.5 -0.1,0.6 0.1,0.7 0.3,0.5 0.3,0.3 0.5,0.2 m 0,-16.1 -0.5,-0.1 -0.3,-0.4 -0.3,-0.5 -0.1,-0.6 0.1,-0.6 0.3,-0.5 0.3,-0.4 0.5,-0.1 m -12,16 -0.5,0.2 -0.4,0.3 -0.2,0.5 -0.1,0.6 0.1,0.7 0.2,0.5 0.4,0.3 0.5,0.2 m 0,-16.1 -0.5,-0.1 -0.4,-0.4 -0.2,-0.5 -0.1,-0.6 0.1,-0.6 0.2,-0.5 0.4,-0.4 0.5,-0.1 M -19,16.1 h 0.1 0.3 0.5 0.6 0.6 0.6 0.3 0.2 M -19,-5.6 h 0.1 0.3 0.5 0.6 0.6 0.6 0.3 0.2 m -91.5,40.4 v -0.1 -0.4 -0.5 -0.6 -0.6 -0.5 -0.4 -0.1"
         style="fill:none;stroke:#000000;stroke-width:0.709;stroke-linecap:round;stroke-linejoin:round;stroke-miterlimit:10;stroke-dasharray:none;stroke-opacity:1"
         id="path16" />
    </g>
    <text
       xml:space="preserve"
       transform="matrix(1.000121,0,0,-1,207.0388,518.9773)"
       style="font-variant:normal;font-weight:normal;font-stretch:normal;font-size:11px;font-family:Verdana;-inkscape-font-specification:Verdana;writing-mode:lr-tb;fill:#000000;fill-opacity:1;fill-rule:nonzero;stroke:none"
       id="text20"><tspan
         x="0 7.5249104 11.859435 18.823277 23.157803 28.9335"
         y="0"
         id="tspan18">Stütze</tspan></text>
    <text
       xml:space="preserve"
       transform="matrix(1.000175,0,0,-1,202.0448,505.6123)"
       style="font-variant:normal;font-weight:normal;font-stretch:normal;font-size:11px;font-family:Verdana;-inkscape-font-specification:Verdana;writing-mode:lr-tb;fill:#000000;fill-opacity:1;fill-rule:nonzero;stroke:none"
       id="text24"><tspan
         x="0 4.994874 12.52019 16.85495 23.819168 28.153927 33.929935 40.487083"
         y="0"
         id="tspan22">(Stütze)</tspan></text>
    <text
       xml:space="preserve"
       transform="matrix(0.70679495,0.70679495,0.70710678,-0.70710678,254.80532,781.00222)"
       style="font-variant:normal;font-weight:normal;font-stretch:normal;font-size:11px;font-family:Verdana;-inkscape-font-specification:Verdana;writing-mode:lr-tb;fill:#000000;fill-opacity:1;fill-rule:nonzero;stroke:none"
       id="text28"><tspan
         x="0 6.3222313 12.875361 19.725361 26.278492 30.973436"
         y="0"
         id="tspan26">Feder </tspan></text>
    <text
       xml:space="preserve"
       transform="matrix(0.70710749,0.70710749,0.70710678,-0.70710678,260.71796,768.01383)"
       style="font-variant:normal;font-weight:normal;font-stretch:normal;font-size:11px;font-family:Verdana;-inkscape-font-specification:Verdana;writing-mode:lr-tb;fill:#000000;fill-opacity:1;fill-rule:nonzero;stroke:none"
       id="text32"><tspan
         x="0 4.9940214 11.319048 17.875076 24.728106 31.284134 35.981155"
         y="0"
         id="tspan30">(Feder)</tspan></text>
    <text
       xml:space="preserve"
       transform="matrix(0.99955,0,0,-1,238.43846,653.5242)"
       style="font-variant:normal;font-weight:normal;font-stretch:normal;font-size:11px;font-family:Verdana;-inkscape-font-specification:Verdana;writing-mode:lr-tb;fill:#000000;fill-opacity:1;fill-rule:nonzero;stroke:none"
       id="text36"><tspan
         x="0 7.5206141 13.249035 20.208902 26.816927 32.545349 39.505215 43.837265"
         y="0"
         id="tspan34">Schacht </tspan></text>
    <text
       xml:space="preserve"
       transform="matrix(0.999887,0,0,-1,233.4352,640.1592)"
       style="font-variant:normal;font-weight:normal;font-stretch:normal;font-size:11px;font-family:Verdana;-inkscape-font-specification:Verdana;writing-mode:lr-tb;fill:#000000;fill-opacity:1;fill-rule:nonzero;stroke:none"
       id="text40"><tspan
         x="0 4.9934359 12.516585 18.246939 25.20915 31.819405 37.549755 44.511971 48.845478"
         y="0"
         id="tspan38">(Schacht)</tspan></text>
    <text
       xml:space="preserve"
       transform="matrix(0.70643432,0.70643432,0.70710678,-0.70710678,145.93812,608.51372)"
       style="font-variant:normal;font-weight:normal;font-stretch:normal;font-size:11px;font-family:Verdana;-inkscape-font-specification:Verdana;writing-mode:lr-tb;fill:#000000;fill-opacity:1;fill-rule:nonzero;stroke:none"
       id="text44"><tspan
         x="0 7.5168691 15.989832"
         y="0"
         id="tspan42">AD </tspan></text>
    <text
       xml:space="preserve"
       transform="matrix(0.70695829,0.70695829,0.70710678,-0.70710678,151.85216,595.52673)"
       style="font-variant:normal;font-weight:normal;font-stretch:normal;font-size:11px;font-family:Verdana;-inkscape-font-specification:Verdana;writing-mode:lr-tb;fill:#000000;fill-opacity:1;fill-rule:nonzero;stroke:none"
       id="text48"><tspan
         x="0 4.9929676 12.515412 20.994659"
         y="0"
         id="tspan46">(AD)</tspan></text>
    <text
       xml:space="preserve"
       transform="matrix(0.999558,0,0,-1,39.609789,452.1914)"
       style="font-variant:normal;font-weight:normal;font-stretch:normal;font-size:11px;font-family:Verdana;-inkscape-font-specification:Verdana;writing-mode:lr-tb;fill:#000000;fill-opacity:1;fill-rule:nonzero;stroke:none"
       id="text52"><tspan
         x="0 6.3222041 12.875306 19.725277 26.278379 30.973303"
         y="0"
         id="tspan50">Feder </tspan></text>
    <text
       xml:space="preserve"
       transform="matrix(1,0,0,-1,34.6065,438.8264)"
       style="font-variant:normal;font-weight:normal;font-stretch:normal;font-size:11px;font-family:Verdana;-inkscape-font-specification:Verdana;writing-mode:lr-tb;fill:#000000;fill-opacity:1;fill-rule:nonzero;stroke:none"
       id="text56"><tspan
         x="0 4.994 11.319 17.875 24.728001 31.284 35.980999"
         y="0"
         id="tspan54">(Feder)</tspan></text>
    <text
       xml:space="preserve"
       transform="matrix(0.999048,0,0,-1,178.04281,324.8664)"
       style="font-variant:normal;font-weight:normal;font-stretch:normal;font-size:11px;font-family:Verdana;-inkscape-font-specification:Verdana;writing-mode:lr-tb;fill:#000000;fill-opacity:1;fill-rule:nonzero;stroke:none"
       id="text60"><tspan
         x="0 7.5168371 15.989763"
         y="0"
         id="tspan58">AD </tspan></text>
    <text
       xml:space="preserve"
       transform="matrix(0.999789,0,0,-1,173.0415,311.5014)"
       style="font-variant:normal;font-weight:normal;font-stretch:normal;font-size:11px;font-family:Verdana;-inkscape-font-specification:Verdana;writing-mode:lr-tb;fill:#000000;fill-opacity:1;fill-rule:nonzero;stroke:none"
       id="text64"><tspan
         x="0 4.9929461 12.515359 20.99457"
         y="0"
         id="tspan62">(AD)</tspan></text>
    <g
       id="g66"
       transform="translate(74.9,449.8)">
      <path
         d="M 0,0 9.3,1.4 V -1.5 L 0,0 m -55,0 -9.3,-1.5 V 1.4 L -55,0"
         style="fill:none;stroke:#000000;stroke-width:0.51;stroke-linecap:butt;stroke-linejoin:miter;stroke-miterlimit:10;stroke-dasharray:none;stroke-opacity:1"
         id="path68" />
    </g>
    <g
       id="g70"
       transform="translate(225.4,530)">
      <path
         d="M 0,0 -1,9.4 1.9,9.3 0,0 m -1.3,-26.8 0.9,-9.4 -2.8,0.1 1.9,9.3 m -204.2,-180.8 9.4,1.5 v -2.9 l -9.4,1.4 m 344.4,0 -9.4,-1.4 v 2.9 l 9.4,-1.5"
         style="fill:none;stroke:#000000;stroke-width:0.51;stroke-linecap:butt;stroke-linejoin:miter;stroke-miterlimit:10;stroke-dasharray:none;stroke-opacity:1"
         id="path72" />
    </g>
    <g
       id="g74"
       transform="translate(281.5,804.4)">
      <path
         d="M 0,0 5.6,7.6 7.7,5.6 0,0 m -38.6,-38.6 -5.6,-7.7 -2,2.1 7.6,5.6"
         style="fill:none;stroke:#000000;stroke-width:0.51;stroke-linecap:butt;stroke-linejoin:miter;stroke-miterlimit:10;stroke-dasharray:none;stroke-opacity:1"
         id="path76" />
    </g>
    <g
       id="g78"
       transform="translate(313.3,772.6)">
      <path
         d="m 0,0 -5.6,-7.7 -2,2.1 L 0,0 m -243,-243.1 5.6,7.6 2,-2 -7.6,-5.6"
         style="fill:none;stroke:#000000;stroke-width:0.51;stroke-linecap:butt;stroke-linejoin:miter;stroke-miterlimit:10;stroke-dasharray:none;stroke-opacity:1"
         id="path80" />
    </g>
    <g
       id="g82"
       transform="translate(51.7,651.1)">
      <path
         d="M 0,0 9.4,1.5 V -1.4 L 0,0 m 279.5,0 -9.4,-1.4 V 1.5 L 279.5,0"
         style="fill:none;stroke:#000000;stroke-width:0.51;stroke-linecap:butt;stroke-linejoin:miter;stroke-miterlimit:10;stroke-dasharray:none;stroke-opacity:1"
         id="path84" />
    </g>
    <g
       id="g86"
       transform="translate(52.6,547.2)">
      <path
         d="M 0,0 2,-2 M 0,-2 2,0 M 1,-2.4 V 0.4 M 2.4,-1 h -2.9 m 143.3,-40.6 2,-2 m -2,0 2,2 m -1,-2.4 v 2.8 m 1.4,-1.4 h -2.9 m 1.8,27.8 2,-2 m -2,0 2,2 m -1,-2.4 v 2.8 m 1.4,-1.4 h -2.8 m 60.7,220.2 2,-2 m -2,0 2,2 m -1,-2.4 v 2.9 m 1.4,-1.5 H 204 m 39,39.7 2,-2 m -2,0 2,2 m -1,-2.4 v 2.8 m 1.5,-1.4 h -2.9"
         style="fill:none;stroke:#c0c0c0;stroke-width:0.51;stroke-linecap:butt;stroke-linejoin:miter;stroke-miterlimit:10;stroke-dasharray:none;stroke-opacity:1"
         id="path88" />
    </g>
    <g
       id="g90"
       transform="translate(18.9,400.4)">
      <path
         d="M 0,0 2,-2 M 0,-2 2,0 M 1,-2.5 V 0.4 M 2.4,-1 H -0.4 M 55,0 57,-2 m -2,0 2,2 M 56,-2.5 V 0.4 M 57.4,-1 h -2.8 m 289.8,1 2,-2 m -2,0 2,2 m -1,-2.5 V 0.4 M 346.8,-1 H 344"
         style="fill:none;stroke:#c0c0c0;stroke-width:0.51;stroke-linecap:butt;stroke-linejoin:miter;stroke-miterlimit:10;stroke-dasharray:none;stroke-opacity:1"
         id="path92" />
    </g>
    <g
       id="g94"
       transform="translate(188.7385,654.3507)">
      <path
         d="M 0,0 6.947,-6.947"
         style="fill:none;stroke:#000000;stroke-width:0.51;stroke-linecap:butt;stroke-linejoin:miter;stroke-miterlimit:10;stroke-dasharray:43.2, 3.6, 3.6, 3.6;stroke-dashoffset:0;stroke-opacity:1"
         id="path96" />
    </g>
    <g
       id="g98"
       transform="translate(195.6123,654.8483)">
      <path
         d="M 0,0 -6.947,-6.947"
         style="fill:none;stroke:#000000;stroke-width:0.51;stroke-linecap:butt;stroke-linejoin:miter;stroke-miterlimit:10;stroke-dasharray:43.2, 3.6, 3.6, 3.6;stroke-dashoffset:0;stroke-opacity:1"
         id="path100" />
    </g>
    <g
       id="g102"
       transform="translate(75.0288,768.0604)">
      <path
         d="M 0,0 233.496,-233.496"
         style="fill:none;stroke:#c0c0c0;stroke-width:0.51;stroke-linecap:butt;stroke-linejoin:miter;stroke-miterlimit:10;stroke-dasharray:43.2, 3.6, 3.6, 3.6;stroke-dashoffset:18.493;stroke-opacity:1"
         id="path104" />
    </g>
    <g
       id="g106"
       transform="translate(309.9527,769.1887)">
      <path
         d="M 0,0 -234.373,-234.373"
         style="fill:none;stroke:#c0c0c0;stroke-width:0.51;stroke-linecap:butt;stroke-linejoin:miter;stroke-miterlimit:10;stroke-dasharray:43.2, 3.6, 3.6, 3.6;stroke-dashoffset:17.873;stroke-opacity:1"
         id="path108" />
    </g>
    <g
       id="g110"
       transform="translate(331.2399,790.6439)">
      <path
         d="M 0,0 V -291.129"
         style="fill:none;stroke:#c0c0c0;stroke-width:0.51;stroke-linecap:butt;stroke-linejoin:miter;stroke-miterlimit:10;stroke-dasharray:43.2, 3.6, 3.6, 3.6;stroke-dashoffset:11.036;stroke-opacity:1"
         id="path112" />
    </g>
    <g
       id="g114"
       transform="translate(51.7564,790.6439)">
      <path
         d="M 0,0 V -291.129"
         style="fill:none;stroke:#c0c0c0;stroke-width:0.51;stroke-linecap:butt;stroke-linejoin:miter;stroke-miterlimit:10;stroke-dasharray:43.2, 3.6, 3.6, 3.6;stroke-dashoffset:11.036;stroke-opacity:1"
         id="path116" />
    </g>
    <g
       id="g118"
       transform="translate(74.9,402.2)">
      <path
         d="M 0,0 V 50.4 M -55,0 V 50.4 M 0,47.6 h 18 m -18,0 h -55 m 0,0 h -18"
         style="fill:none;stroke:#000000;stroke-width:0.51;stroke-linecap:round;stroke-linejoin:round;stroke-miterlimit:10;stroke-dasharray:none;stroke-opacity:1"
         id="path120" />
    </g>
    <g
       id="g122"
       transform="translate(200.5,531.2)">
      <path
         d="m 0,0 27.7,-1.4 m -29,-25.4 27.7,-1.4 m -1.5,27 0.9,18 M 23.6,-28 22.7,-46 m 2.2,44.8 v 0 M 23.6,-28 v 0 m -204.2,-106.7 v -76.9 m 344.4,76.9 v -76.9 m -344.4,2.8 h 344.4"
         style="fill:none;stroke:#000000;stroke-width:0.51;stroke-linecap:round;stroke-linejoin:round;stroke-miterlimit:10;stroke-dasharray:none;stroke-opacity:1"
         id="path124" />
    </g>
    <g
       id="g126"
       transform="translate(294.6,791.3)">
      <path
         d="m 0,0 -15.1,15.1 m -23.5,-53.8 -15.1,15.2 m 40.6,36.6 12.8,12.7 M -13.1,13.1 -51.7,-25.5 m 0,0 -12.7,-12.8"
         style="fill:none;stroke:#000000;stroke-width:0.51;stroke-linecap:round;stroke-linejoin:round;stroke-miterlimit:10;stroke-dasharray:none;stroke-opacity:1"
         id="path128" />
    </g>
    <g
       id="g130"
       transform="translate(298.6,787.3)">
      <path
         d="m 0,0 16.8,-16.7 m -259.8,-226.4 16.7,-16.7 m 241,245.1 -243,-243.1"
         style="fill:none;stroke:#000000;stroke-width:0.51;stroke-linecap:round;stroke-linejoin:round;stroke-miterlimit:10;stroke-dasharray:none;stroke-opacity:1"
         id="path132" />
    </g>
    <g
       id="g134"
       transform="translate(51.7,651.1)">
      <path
         d="M 0,0 H 279.5"
         style="fill:none;stroke:#000000;stroke-width:0.51;stroke-linecap:round;stroke-linejoin:round;stroke-miterlimit:10;stroke-dasharray:none;stroke-opacity:1"
         id="path136" />
    </g>
    <g
       id="g138"
       transform="translate(74.9,449.8)">
      <path
         d="M 0,0 9.3,1.4 V -1.5 M -55,0 -64.3,-1.5 v 2.9"
         style="fill:#000000;fill-opacity:1;fill-rule:nonzero;stroke:none"
         id="path140" />
    </g>
    <g
       id="g142"
       transform="translate(225.4,530)">
      <path
         d="M 0,0 -1,9.4 1.9,9.3 m -3.2,-36.1 0.9,-9.4 -2.8,0.1 m -202.3,-171.5 9.4,1.5 v -2.9 m 335,1.4 -9.4,-1.4 v 2.9"
         style="fill:#000000;fill-opacity:1;fill-rule:nonzero;stroke:none"
         id="path144" />
    </g>
    <g
       id="g146"
       transform="translate(281.5,804.4)">
      <path
         d="m 0,0 5.6,7.6 2.1,-2 m -46.3,-44.2 -5.6,-7.7 -2,2.1"
         style="fill:#000000;fill-opacity:1;fill-rule:nonzero;stroke:none"
         id="path148" />
    </g>
    <g
       id="g150"
       transform="translate(313.3,772.6)">
      <path
         d="m 0,0 -5.6,-7.7 -2,2.1 m -235.4,-237.5 5.6,7.6 2,-2"
         style="fill:#000000;fill-opacity:1;fill-rule:nonzero;stroke:none"
         id="path152" />
    </g>
    <g
       id="g154"
       transform="translate(51.7,651.1)">
      <path
         d="M 0,0 9.4,1.5 V -1.4 M 279.5,0 270.1,-1.4 v 2.9"
         style="fill:#000000;fill-opacity:1;fill-rule:nonzero;stroke:none"
         id="path156" />
    </g>
  </g>
</svg>
