<?xml version="1.0" encoding="UTF-8" standalone="no"?>
<!-- Created with Inkscape (http://www.inkscape.org/) -->

<svg
   version="1.1"
   id="svg2"
   width="793.70135"
   height="1122.52"
   viewBox="0 0 793.70135 1122.52"
   xmlns="http://www.w3.org/2000/svg"
   xmlns:svg="http://www.w3.org/2000/svg">
  <defs
     id="defs6" />
  <g
     id="g8"
     transform="matrix(1.3333333,0,0,-1.3333333,0,1122.52)">
    <g
       id="g10"
       transform="translate(157.4,577.7)">
      <path
         d="m 0,0 v 0 -0.1 -0.1 -0.1 -0.2 -0.3 -0.3 -0.3 m 3.2,0 v 0.3 0.3 0.3 0.2 0.1 0.1 V 0 M 0,-1.4 v -8.7 m 3.2,0 v 8.7 M 0,-11.5 0.1,-12.2 0.5,-12.7 1,-13 l 0.6,-0.2 0.6,0.2 0.5,0.3 0.4,0.5 0.1,0.7 m 0,0 v 0 0.2 0.1 0.2 0.3 0.3 0.3 m -3.2,0 v -0.3 -0.3 -0.3 -0.2 -0.1 -0.2 m 101.5,232.8 2.3,-2.2 2,-2 1.8,-1.9 1.7,-1.6 2.6,-2.6 1.8,-1.9 1.4,-1.3 1.2,-1.2 0.7,-0.7 0.5,-0.5 0.3,-0.4 0.2,-0.1 m -0.9,0.8 -0.6,-0.5 -0.7,-0.8 -0.8,-0.7 -0.1,-0.2 -0.2,-0.1 -0.8,-0.8 -1.3,-1.3 -1.7,-1.7 -1,-1.1 -1.3,-1.2 -1.4,-1.4 -1.5,-1.6 -1.6,-1.5 -1.3,-1.4 -0.9,-0.9 -0.3,-0.2 -0.1,-0.1 m 2.3,-2.3 0.1,0.1 0.2,0.2 1,1 1.3,1.3 1.6,1.6 1.5,1.5 1.4,1.5 1.3,1.2 1,1.1 1.7,1.6 1.3,1.3 0.8,0.8 0.5,0.5 0.5,0.5 0.5,0.5 1.3,1.3 0.4,0.4 0.3,0.4 0.3,0.4 0.2,0.5 v 0.4 l -0.1,0.4 -0.2,0.3 -0.4,0.3 -0.4,0.5 -0.6,0.6 -0.7,0.7 -1.2,1.2 -1.4,1.4 -1.8,1.8 -2.6,2.6 -1.7,1.7 -1.8,1.8 -2.1,2.1 -2.2,2.2 m -1.4,-36.1 0.4,-0.1 0.5,0.2 0.5,0.3 m 0,35.7 -2.2,2.2 -2.1,2.1 -1.8,1.8 -1.6,1.6 -2.7,2.7 -1.8,1.8 -1.4,1.4 -1.2,1.2 -0.7,0.7 -0.6,0.6 -0.4,0.4 -0.4,0.4 -0.3,0.2 h -0.4 l -0.4,0.1 -0.4,-0.2 -0.5,-0.3 -0.4,-0.4 -0.3,-0.3 -1,-0.9 -0.8,-0.8 -0.8,-0.8 -0.1,-0.2 -0.2,-0.1 -0.7,-0.8 -1.4,-1.3 -1.6,-1.7 -1.1,-1 -1.2,-1.3 -1.5,-1.4 -1.5,-1.5 -1.5,-1.6 -1.4,-1.3 -1,-1 -0.2,-0.2 -0.1,-0.1 m 2.3,-2.3 0.1,0.1 0.2,0.2 1,1 1.3,1.3 1.5,1.6 1.6,1.5 1.4,1.4 1.3,1.3 1,1 1.7,1.7 1.3,1.3 0.8,0.8 0.5,0.5 0.5,0.5 0.4,0.5 1,0.9 m -0.9,0.9 v 0 l 0.1,-0.2 0.4,-0.3 0.5,-0.6 0.7,-0.6 1.2,-1.2 1.4,-1.4 1.8,-1.8 2.6,-2.7 1.6,-1.6 1.9,-1.8 2,-2 2.2,-2.3 m -31.9,-0.4 0.3,0.1 0.5,0.3 m 31.1,-199.9 -2.2,-2.2 -2,-2 L 95.4,15.3 93.8,13.7 91.2,11.1 89.4,9.3 88,7.9 86.8,6.7 86.1,6 85.6,5.5 85.2,5.1 85.1,5 M 86,5.9 85.4,6.4 84.6,7.2 83.9,8 83.7,8.1 83.6,8.2 82.8,9 l -1.3,1.4 -1.7,1.6 -1,1.1 -1.3,1.2 -1.4,1.5 -1.6,1.5 -1.5,1.5 -1.3,1.4 -1,0.9 -0.2,0.3 h -0.1 l -0.4,0.3 -0.3,0.1 m -1.6,-2.6 0.1,-0.1 0.2,-0.3 1,-0.9 1.4,-1.4 L 72.3,15 73.8,13.4 75.3,12 76.5,10.8 77.6,9.7 79.2,8 80.6,6.7 81.3,6 81.8,5.5 82.3,5 82.8,4.5 84.2,3.2 84.5,2.8 84.9,2.5 85.4,2.2 85.8,2 h 0.4 l 0.4,0.1 0.3,0.2 0.4,0.3 0.4,0.4 0.6,0.6 0.7,0.8 1.2,1.2 1.4,1.4 1.8,1.8 2.7,2.6 1.6,1.6 1.8,1.9 2.1,2 2.2,2.3 m 0,0 2.2,2.2 2.1,2 1.8,1.9 1.7,1.6 2.6,2.6 1.8,1.9 1.4,1.3 1.2,1.3 0.7,0.7 0.6,0.6 0.4,0.4 0.4,0.4 0.2,0.3 0.1,0.4 v 0.3 l -0.2,0.5 -0.3,0.4 -0.3,0.4 -0.4,0.4 -0.9,0.9 -0.8,0.9 -0.8,0.8 -0.1,0.1 -0.2,0.1 -0.8,0.8 -1.3,1.3 -1.7,1.7 -1,1 -1.3,1.3 -1.4,1.4 -1.5,1.6 -1.6,1.5 -1.3,1.4 -1,0.9 -0.2,0.3 h -0.1 m -2.3,-2.2 0.1,-0.1 0.3,-0.3 0.9,-0.9 1.3,-1.3 1.6,-1.6 1.5,-1.5 1.4,-1.4 1.3,-1.3 1,-1 1.7,-1.7 1.3,-1.3 0.8,-0.8 0.5,-0.5 0.5,-0.5 0.5,-0.5 0.9,-0.9 m 0.9,0.8 v 0 l -0.2,-0.1 -0.3,-0.3 -0.5,-0.6 -0.7,-0.6 -1.2,-1.2 -1.4,-1.4 -1.8,-1.8 -2.6,-2.6 -1.7,-1.7 -1.8,-1.8 -2,-2 -2.3,-2.3 m 2.3,33.4 -0.4,0.3 -0.4,0.2 h -0.4 -0.1 m -200.9,-33.9 -2.2,2.3 -2,2 -1.9,1.8 -1.6,1.7 -2.6,2.6 -1.8,1.8 -1.4,1.4 -1.2,1.2 -0.7,0.6 -0.5,0.6 -0.4,0.3 -0.1,0.1 m 0.9,-0.8 0.6,0.6 0.7,0.7 0.8,0.8 0.1,0.1 0.2,0.2 0.7,0.8 1.4,1.3 1.6,1.7 1.1,1 1.2,1.3 1.5,1.4 1.5,1.5 1.5,1.6 1.4,1.3 0.9,0.9 0.3,0.3 v 0.1 m -2.2,2.2 h -0.1 l -0.3,-0.3 -0.9,-0.9 -1.4,-1.4 -1.5,-1.5 -1.5,-1.6 -1.5,-1.4 -1.2,-1.3 -1.1,-1 -1.6,-1.7 -1.4,-1.3 -0.7,-0.8 -0.5,-0.4 -0.5,-0.5 -0.5,-0.6 -1.3,-1.3 -0.4,-0.4 -0.3,-0.4 -0.3,-0.4 -0.2,-0.5 v -0.3 l 0.1,-0.4 0.2,-0.3 0.3,-0.4 0.5,-0.4 0.6,-0.6 0.7,-0.7 1.2,-1.3 1.4,-1.3 1.8,-1.9 2.6,-2.6 1.6,-1.6 1.9,-1.9 2,-2 2.3,-2.2 m 1.4,36.1 h -0.4 l -0.5,-0.1 -0.5,-0.4 m 0,-35.6 2.2,-2.3 2.1,-2 1.8,-1.9 1.6,-1.6 2.6,-2.6 1.9,-1.8 1.3,-1.4 1.3,-1.2 0.7,-0.8 0.6,-0.6 0.4,-0.4 0.4,-0.3 0.3,-0.2 L -83,2 h 0.4 l 0.4,0.2 0.5,0.3 0.4,0.3 0.3,0.4 0.9,0.9 0.9,0.8 0.8,0.8 0.1,0.1 0.2,0.2 0.7,0.7 1.3,1.3 1.7,1.7 1.1,1.1 1.2,1.2 1.4,1.4 1.6,1.6 1.5,1.5 1.4,1.4 0.9,0.9 0.3,0.3 v 0.1 m -2.2,2.2 h -0.1 l -0.2,-0.3 -1,-0.9 -1.3,-1.4 -1.6,-1.5 -1.5,-1.5 -1.4,-1.5 -1.3,-1.2 -1,-1.1 -1.7,-1.6 L -79.6,9 -80.4,8.2 -80.9,7.8 -81.4,7.3 -81.9,6.8 -82.8,5.9 M -82,5 v 0 l -0.1,0.1 -0.3,0.4 -0.5,0.5 -0.7,0.7 -1.2,1.2 -1.4,1.4 -1.8,1.8 -2.6,2.6 -1.7,1.6 -1.8,1.9 -2,2 -2.3,2.2 m 31.9,0.4 h -0.2 l -0.5,-0.4 m -31.2,199.9 2.3,2.3 2,2 1.8,1.8 1.7,1.6 2.6,2.7 1.8,1.8 1.4,1.4 1.2,1.2 0.7,0.6 0.5,0.6 0.3,0.3 0.1,0.2 m -0.8,-0.9 0.6,-0.6 0.7,-0.7 0.8,-0.8 0.1,-0.1 0.2,-0.2 0.8,-0.8 1.3,-1.3 1.7,-1.7 1,-1 1.3,-1.3 1.4,-1.4 1.5,-1.5 1.6,-1.6 1.3,-1.3 1,-1 0.2,-0.2 0.1,-0.1 0.4,-0.3 0.3,-0.1 m 1.5,2.7 v 0.1 l -0.3,0.2 -0.9,1 -1.4,1.3 -1.5,1.6 -1.6,1.5 -1.4,1.4 -1.2,1.3 -1.1,1 -1.7,1.7 -1.3,1.3 -0.7,0.8 -0.5,0.5 -0.5,0.5 -0.5,0.5 -1.4,1.3 -0.3,0.3 -0.4,0.4 -0.5,0.3 -0.4,0.2 -0.4,-0.1 h -0.4 l -0.3,-0.2 -0.4,-0.4 -0.4,-0.4 -0.6,-0.6 -0.7,-0.7 -1.3,-1.2 -1.3,-1.4 -1.9,-1.8 -2.6,-2.7 -1.6,-1.6 -1.8,-1.8 -2.1,-2.1 -2.2,-2.2 m 0,0 -2.3,-2.2 -2,-2.1 -1.9,-1.8 -1.6,-1.7 -2.6,-2.6 -1.8,-1.8 -1.4,-1.4 -1.2,-1.2 -0.7,-0.7 -0.6,-0.6 -0.5,-0.5 -0.3,-0.3 -0.2,-0.3 -0.1,-0.4 v -0.4 l 0.2,-0.5 0.3,-0.4 0.3,-0.4 0.4,-0.4 0.9,-0.9 0.8,-0.8 0.8,-0.8 0.1,-0.1 0.2,-0.2 0.7,-0.8 1.4,-1.3 1.6,-1.6 1.1,-1.1 1.2,-1.2 1.5,-1.5 1.5,-1.5 1.5,-1.6 1.4,-1.3 0.9,-1 0.3,-0.2 0.1,-0.1 m 2.2,2.3 v 0.1 l -0.3,0.2 -0.9,0.9 -1.4,1.4 -1.5,1.5 -1.5,1.6 -1.5,1.4 -1.2,1.2 -1.1,1.1 -1.6,1.7 -1.4,1.3 -0.7,0.8 -0.5,0.4 -0.5,0.5 -0.5,0.5 -0.9,0.9 m -0.9,-0.8 v 0 l 0.1,0.1 0.4,0.4 0.5,0.5 0.7,0.7 1.2,1.2 1.4,1.3 1.8,1.9 2.6,2.6 1.6,1.6 1.9,1.9 2,2 2.2,2.2 m -2.2,-33.4 0.4,-0.3 0.4,-0.1 0.4,-0.1 0.2,0.1 M 62.3,17.1 l 5.4,3.4 m 2,1.3 0.3,0.2 7,5.2 6.3,5.4 5.7,5.6 4.9,5.5 5.4,6.8 1.8,2.8 m 1.4,2 1.2,1.9 3.7,6.3 3.1,5.9 2.7,6.2 2.1,5.5 1.8,5.4 1.5,5.6 1.3,5.6 1,5.8 0.7,5.9 0.6,10.4 -0.3,10.6 -1.2,10.4 -2.2,10.4 -3.1,10.1 -3.9,9.8 -4.8,9.5 -4.3,6.9 m -1.2,2 -6.4,8.5 -7.1,7.8 -7.7,7.3 -8.3,6.5 -2.1,1.3 m -1.9,1.3 -4.9,3.1 -9.3,5 -9.7,4.1 -10.1,3.3 L 23.4,240 13,241.5 2.4,242 -8.2,241.6 -18.6,240.3 -29,238.1 -39.1,235 l -9.8,-4 -9.4,-4.9 -6.2,-3.9 m -2,-1.3 -0.7,-0.4 -8.4,-6.4 -7.8,-7.1 -7.2,-7.8 -6.5,-8.3 -0.9,-1.5 m -1.2,-1.9 -3.5,-5.5 -5,-9.4 -4,-9.8 -3.2,-10 -2.3,-10.3 -1.4,-10.5 -0.5,-10.6 0.5,-10.5 1.4,-10.5 2.3,-10.3 3.2,-10.1 4,-9.8 4.9,-9.3 3.6,-5.6 m 1.2,-2 0.9,-1.3 6.5,-8.4 7.1,-7.8 7.5,-6.9 7.8,-6 1.7,-1.1 m 2,-1.4 0.8,-0.5 4.6,-2.8 4.6,-2.5 4.7,-2.4 5.6,-2.5 6.7,-2.5 7.7,-2.3 7.7,-1.8 8.6,-1.4 9.3,-0.8 4.4,-0.1 m 2.8,0 h 3 l 8.7,0.6 9,1.4 9.4,2.1 9.6,3 9.8,4.1 M 51.2,14.9 42.9,11.4 34.9,8.7 27,6.7 19.5,5.3 12.3,4.4 3.9,3.9 -3.9,4.1 -11,4.6 l -6.4,0.9 -6.5,1.2 -5.5,1.4 -5.4,1.6 -5.3,1.9 -5.2,2.1 -5.2,2.4 -5.1,2.7 -8.6,5.3 -8.3,6.1 -7.7,6.9 -7,7.5 -6.4,8 -5.7,8.6 -4.9,9.1 -4,9.4 -3.2,9.8 -2.4,10 -1.5,10.2 -0.5,10.3 0.3,10.2 1.2,10.3 2.1,10 3,9.9 3.8,9.5 4.7,9.2 5.4,8.7 6.2,8.2 6.9,7.7 7.5,7 8.1,6.3 8.7,5.6 9.1,4.8 9.4,4 9.8,3.2 10.1,2.3 10.1,1.4 10.3,0.5 10.3,-0.4 10.2,-1.3 10.1,-2.1 9.8,-3.1 9.5,-3.9 9.1,-4.7 8.7,-5.5 8.2,-6.2 7.6,-7 7,-7.5 6.3,-8.2 5.5,-8.7 4.8,-9.1 3.9,-9.5 3.1,-9.8 2.2,-10 1.4,-9.9 0.4,-9.5 v -5.3 l -0.4,-5.2 -0.5,-5.1 -0.7,-5.1 -1.2,-5.8 -1.7,-6.8 -2.4,-7.5 -2.8,-7.1 -3.7,-7.6 -4.5,-8 -5.6,-8.1 -5.3,-6.6 -6.1,-6.4 -7,-6.4 -7.8,-6 -8.6,-5.5 m -8.4,-8 2.2,1 1.3,0.2 h 0.3 L 56.2,13 v -0.1 l 0.1,-1 -0.2,-1.8 -1.6,-5.2 m 3,-1.2 1.1,3.1 0.6,2.4 0.3,1.8 v 1.9 l -0.4,1.4 -0.7,1.1 -0.5,0.4 -0.8,0.3 -1,0.2 -1.4,-0.1 -1.7,-0.5 -2.2,-1 M 1.6,1.7 2.2,1.5 2.7,1.2 3.1,0.7 3.2,0 3.1,-0.6 2.7,-1.1 2.2,-1.4 1.6,-1.6 1,-1.4 0.5,-1.1 0.1,-0.6 0,0 0.1,0.7 0.5,1.2 1,1.5 1.6,1.7 m 99.9,186.2 0.6,-0.3 0.6,-0.2 0.6,0.2 0.5,0.3 0.4,0.5 0.1,0.7 -0.1,0.6 -0.4,0.5 -0.5,0.3 -0.6,0.2 -0.6,-0.2 -0.6,-0.3 -0.3,-0.5 -0.1,-0.6 0.1,-0.7 0.3,-0.5 m -33.4,33.4 0.5,-0.3 0.7,-0.1 0.6,0.1 0.5,0.3 0.3,0.5 0.2,0.7 -0.2,0.6 -0.3,0.5 -0.5,0.3 -0.6,0.2 -0.7,-0.2 -0.5,-0.3 -0.3,-0.5 -0.1,-0.6 0.1,-0.7 0.3,-0.5 m 0,-199.9 -0.3,-0.5 -0.1,-0.6 0.1,-0.6 0.3,-0.5 0.5,-0.4 0.7,-0.1 0.6,0.1 0.5,0.4 0.3,0.5 0.2,0.6 -0.2,0.6 -0.3,0.5 -0.5,0.4 -0.6,0.1 -0.7,-0.1 -0.5,-0.4 m 33.4,33.4 -0.3,-0.5 -0.1,-0.6 0.1,-0.6 0.3,-0.5 0.6,-0.4 0.6,-0.1 0.6,0.1 0.5,0.4 0.4,0.5 0.1,0.6 -0.1,0.6 -0.4,0.5 -0.5,0.4 -0.6,0.1 -0.6,-0.1 -0.6,-0.4 m -199.9,0 -0.5,0.4 -0.6,0.1 -0.6,-0.1 -0.5,-0.4 -0.4,-0.5 -0.1,-0.6 0.1,-0.6 0.4,-0.5 0.5,-0.4 0.6,-0.1 0.6,0.1 0.5,0.4 0.4,0.5 0.1,0.6 -0.1,0.6 -0.4,0.5 m 33.4,-33.4 -0.5,0.4 -0.6,0.1 -0.6,-0.1 -0.5,-0.4 -0.4,-0.5 -0.1,-0.6 0.1,-0.6 0.4,-0.5 0.5,-0.4 0.6,-0.1 0.6,0.1 0.5,0.4 0.4,0.5 0.1,0.6 -0.1,0.6 -0.4,0.5 m 0,199.9 0.4,0.5 0.1,0.7 -0.1,0.6 -0.4,0.5 -0.5,0.3 -0.6,0.2 -0.6,-0.2 -0.5,-0.3 -0.4,-0.5 -0.1,-0.6 0.1,-0.7 0.4,-0.5 0.5,-0.3 0.6,-0.1 0.6,0.1 0.5,0.3 m -33.4,-33.4 0.4,0.5 0.1,0.7 -0.1,0.6 -0.4,0.5 -0.5,0.3 -0.6,0.2 -0.6,-0.2 -0.5,-0.3 -0.4,-0.5 -0.1,-0.6 0.1,-0.7 0.4,-0.5 0.5,-0.3 0.6,-0.2 0.6,0.2 0.5,0.3 M 62.3,17.1 l -0.1,0.1 -0.2,0.3 -0.2,0.4 -0.3,0.6 -0.3,0.5 -0.3,0.5 -0.2,0.3 v 0.1 m -8.3,-8 V 12 l -0.1,0.1 -0.2,0.3 -0.2,0.5 -0.2,0.4 v 0.1 M 51,14.8 v 0 l 0.1,-0.2 0.1,-0.3 0.2,-0.4 0.3,-0.5 M 54.5,4.9 54.6,4.8 54.9,4.7 55.4,4.5 56,4.3 56.5,4.1 57,3.9 57.4,3.8 57.5,3.7 M 3.2,-1.4 3.1,-1.7 2.7,-2 2.2,-2.2 1.6,-2.3 1,-2.2 0.5,-2 0.1,-1.7 0,-1.4 M 3.2,-10.1 3.1,-10.5 2.7,-10.7 2.2,-10.9 1.6,-11 1,-10.9 0.5,-10.7 0.1,-10.5 0,-10.1 m 101.5,231.4 v 0 l 0.1,0.1 0.3,0.3 0.3,0.3 0.5,0.5 0.4,0.4 0.4,0.4 0.2,0.2 0.1,0.1 M 101.5,21.4 v 0 l 0.1,-0.1 0.3,-0.2 0.3,-0.4 0.5,-0.4 0.4,-0.4 0.4,-0.4 0.2,-0.3 h 0.1 m -202.2,2.2 v 0 -0.1 l -0.3,-0.2 -0.4,-0.4 -0.4,-0.4 -0.4,-0.4 -0.4,-0.4 -0.2,-0.3 h -0.1 m 2.2,202.1 v 0 0.1 l -0.3,0.3 -0.4,0.3 -0.4,0.5 -0.4,0.4 -0.4,0.4 -0.2,0.2 -0.1,0.1"
         style="fill:none;stroke:#000000;stroke-width:0.709;stroke-linecap:round;stroke-linejoin:round;stroke-miterlimit:10;stroke-dasharray:none;stroke-opacity:1"
         id="path12" />
    </g>
    <g
       id="g14"
       transform="translate(253,465.9)">
      <path
         d="M 0,0 0.4,0.6 1,1.5 1.4,2.6 1.5,3.8 1.4,5 1.1,6.1 0.5,7.2 0,7.7 M -2.2,5.4 -2.1,5.3 -1.9,4.9 -1.8,4.4 -1.7,3.8 -1.8,3.3 -1.9,2.8 -2.1,2.5 -2.2,2.4 m 0,0 -6.2,-5.8 M -6.2,-5.8 0,0 M -8.4,11.2 -2.2,5.4 M 0,7.7 -6.2,13.6 M -6.7,-7.3 V -7 l 0.1,0.6 0.2,0.4 0.2,0.2 m -2.2,2.4 -0.4,-0.5 -0.6,-1 -0.4,-1.1 -0.1,-1.1 v -0.2 m 3.7,20.9 -0.1,0.1 -0.2,0.3 -0.1,0.5 -0.1,0.6 m -3.2,0 v -0.7 l 0.3,-1.2 0.5,-1.1 0.7,-0.9 M -9.9,-7.3 v -11.3 m 0,-2.3 v -1.2 m 3.2,0 v 14.8 m -3.2,37.2 v -1.3 m 0,-2.2 V 15.1 m 3.2,0 v 14.8 m 30.3,14 v -6.6 -5.5 -2.7 m 0,-3.2 V 24 20.9 17.8 14.7 -3 v -5.1 -5.1 -4.9 m 0.1,-3.2 v -2.2 l 0.6,-2.4 0.9,-2.1 1.5,-1.8 1.9,-1.6 2.3,-1.2 2.5,-0.6 h 2.5 l 2.5,0.6 2.2,1.1 1.9,1.5 1.5,1.9 1.1,2.3 0.7,4.1 0.5,4.2 0.5,4.5 0.6,4.3 0.7,6.5 0.8,6.6 0.5,3.9 0.5,4 0.4,3.9 0.2,4 v 3.5 2 2.1 2.8 3.2 3.5 1.6 1.6 1.4 1 0.7 0.3 m -3.2,0 V 43.7 43.2 42.4 41.4 39 36.5 34 31.9 30 28.1 24.7 20.9 l -0.1,-3.6 -0.4,-3.8 -0.5,-3.7 -1.1,-9.4 -1.1,-9.5 -1.2,-10 -0.3,-2.6 -0.4,-2.4 -0.7,-1.9 -1.2,-1.6 -1.6,-1.3 -2.1,-0.9 -2.4,-0.2 -2.3,0.5 -2,1.1 -1.6,1.6 -1,1.8 -0.4,2.5 -0.1,1.2 m 0,3.3 v 1.6 3.3 9.8 7.1 6.9 6.4 2.5 3.1 3.2 m 0,3.3 v 2.4 5.7 6.6 m -98.9,0 v -6.5 -5 m -22,9.9 4.5,-0.5 4,-1.2 3.6,-1.9 2.9,-2.3 2.4,-2.6 1.8,-2.7 1.3,-2.8 0.8,-2.6 0.7,-3.9 V 18.4 15.2 11.9 8.7 4.6 0.4 -3.7 -8.4 -14 v -6.3 -1.8 -1.7 -1.8 -1.7 -1.5 -1.3 -0.9 -0.5 m 0,0 0.1,-0.6 0.2,-0.5 0.5,-0.4 0.2,-0.1 0.2,-0.1 0.3,-0.1 0.3,0.1 h 0.2 l 0.3,0.1 0.3,0.2 0.3,0.3 0.2,0.4 0.1,0.7 m 0,0 v 0.8 1.5 1.8 2.1 3.5 3 2.4 2.1 2.2 8.5 15.4 3.3 3.2 3.4 l -0.8,5.1 -1.8,4.8 -2.7,4.2 -1.6,1.8 -2,2 -2.8,2 -3.7,1.9 -4.5,1.4 -2.5,0.5 -2.8,0.1 m 25.2,-26.8 v 5.8 9.2 10.2 m -50.4,0 v -6.5 -5.5 -4.4 -3.4 -3 -3.1 m 25.2,27.5 -4.9,-0.5 -4.4,-1.3 -3.9,-1.9 -3.4,-2.5 -2.7,-2.8 -2.1,-2.9 -1.6,-3 -1.1,-3 -0.9,-3.7 -0.2,-3.4 V 17.7 15.1 12.4 9.7 5.5 1.4 v -4.3 -4.7 -5.6 -6.5 -3.7 -1.8 -1.8 -1.6 -1.4 -1 -0.5 m 0,0 0.1,-0.6 0.2,-0.5 0.5,-0.4 0.2,-0.1 0.1,-0.1 0.4,-0.1 0.3,0.1 h 0.2 l 0.2,0.1 0.3,0.2 0.3,0.3 0.3,0.4 0.1,0.7 m 0,0 v 0.7 1.4 1.7 2 3.4 2.9 2.4 2.1 2 8.1 14.7 4.8 4.9 l 0.1,2.4 0.3,2.3 1.3,4.6 2.3,4 1.4,1.8 1.7,1.8 2.5,1.9 3.2,1.9 4.2,1.4 2.4,0.4 2.6,0.2 m -22,-9.8 v 1.2 10.2 m -98.9,0 V 36.8 30.9 26.3 22.8 19.5 16 -0.5 v -9.6 -10.2 -2.4 l -0.4,-2 -0.8,-1.7 -1.4,-1.6 -2,-1.3 -2.3,-0.7 -2.3,0.1 -2.2,0.7 -1.8,1.3 -1.3,1.6 -0.8,1.8 -0.5,3 -0.4,3.5 -0.4,3.6 -1,7.9 -1.6,13.4 -0.3,2.6 -0.3,2.6 -0.3,2.7 -0.3,2.5 v 2.6 2.4 2.4 1.8 2.3 2.8 3.1 3.2 1.5 1.4 1.3 0.9 0.7 0.2 m -3.3,0 v -0.2 -0.6 -0.9 -1.1 -2.6 -2.7 -2.5 -2.1 -4.2 -3.7 -4 l 0.3,-4.1 0.5,-4 0.5,-4 2.3,-20 0.6,-5.1 0.6,-5.1 0.6,-2.6 1,-2.3 1.4,-1.9 1.8,-1.5 2.2,-1.2 2.4,-0.6 2.6,-0.1 2.5,0.5 2.3,1 1.9,1.6 1.6,1.9 1.1,2.2 0.7,3.2 v 1.8 m 0,2.5 v 2.2 3.5 3.6 3.4 7.5 7.5 7 2.5 3.1 4.1 0.4 m 0,2.6 v 2 6 7 M 17.8,29.1 H 13.4 8.3 2.9 -2.8 -6.7 m -3.2,0 h -4.4 -6.6 -6.2 -5.5 -5.2 -5.4 -9.4 -9.8 -6.5 m -5.1,0 h -8.9 -10.6 -10.5 -10.2 m -5.1,0 h -5.4 -9.8 -9.1 -8.4 -7.8 -4 -4.4 -4.8 -5.2 -5.3 -5.4 -5.4 -5.1 -4.6 -3 -2.6 -1.9 -0.3 m 0,-3.2 h 0.1 1.5 2 2.4 3.5 3.9 4.1 4.9 4.7 4.5 4.2 4.5 8 8.6 9.1 9.7 10 6.8 m 4,0 h 9.9 10.5 10.3 9.7 2.1 m 3.9,0 h 3.3 8.8 4.5 5.1 5.8 6.2 6.7 6.9 7.2 4.5 m 3.2,0 h 6.6 5 4.8 4.3 3.8 m -0.2,0 h 0.8 0.9 0.5 0.5 0.5 0.6 0.6 0.6 1.4 1.5 1.6 m 0,3.2 h -2.6 -1.3 -1.2 -0.6 -0.6 -0.6 -0.5 -1.1 -1 m 0.2,-47.2 H 13.4 8.3 2.9 -2.8 -6.7 m -3.2,0 h -4.4 -6.6 -6.2 -5.5 -5.2 -5.4 -9.4 -9.8 -6.5 m -3.2,0 h -0.4 -10.4 -10.6 -10.5 -10.4 -1.7 m -3.2,0 h -5.4 -9.8 -9.1 -8.4 -7.8 -4 -4.4 -4.8 -5.2 -5.3 -5.4 -5.4 -5.1 -4.6 -3 -2.6 -1.9 -0.3 m 0,-3.2 h 0.1 1.5 2 2.4 3.5 3.9 4.1 4.9 4.7 4.5 4.2 4.5 8 8.6 9.1 9.7 10 6.8 m 3.2,0 h 0.3 10.4 10.5 10.3 9.7 2.8 m 3.2,0 h 3.3 8.8 4.5 5.1 5.8 6.2 6.7 6.9 7.2 4.5 m 3.2,0 h 6.6 5 4.8 4.3 3.8 m -0.2,0 h 0.8 0.9 0.5 0.5 0.5 0.6 0.6 0.6 1.4 1.5 1.6 m 0,3.2 H 24.5 23.2 22 21.4 20.8 20.2 19.7 18.6 17.6 M -2.2,2.4 v 0 m 0,3 v 0 m -4,-11.2 v 0 m 0,19.3 v 0.1 m -0.5,-35.7 h -0.1 -0.4 -0.5 -0.6 -0.6 -0.5 -0.4 -0.1 m 3.2,52 h -0.1 -0.4 -0.5 -0.6 -0.6 -0.5 -0.4 -0.1 m 33.5,14 h 0.2 0.3 0.5 0.6 0.7 0.5 0.3 0.1 m 20.5,0 0.1,0.6 0.3,0.5 0.5,0.4 0.7,0.1 0.6,-0.1 0.5,-0.4 0.3,-0.5 0.2,-0.6 m -122.6,0 h 0.1 0.4 0.5 0.6 0.6 0.6 0.3 0.1 m -50.4,0 h 0.1 0.4 0.5 0.6 0.6 0.5 0.4 0.1 m -98.9,0 h 0.1 0.3 0.6 0.6 0.6 0.5 0.4 0.1 m -23.6,0 -0.2,0.6 -0.3,0.5 -0.5,0.4 -0.6,0.1 -0.7,-0.1 -0.5,-0.4 -0.3,-0.5 -0.2,-0.6 m 256.4,-18 v 0 h 0.1 l 0.5,0.1 0.4,0.3 0.3,0.5 0.2,0.5 v 0.5 L 19,28.3 18.7,28.7 18.2,29 17.7,29.1 M 28.6,27.5 28.5,26.9 28.2,26.4 27.7,26 27.1,25.9 26.6,26 l -0.5,0.4 -0.3,0.5 -0.1,0.6 0.1,0.6 0.3,0.5 0.5,0.4 0.5,0.1 0.6,-0.1 0.5,-0.4 0.3,-0.5 0.1,-0.6 M 17.7,-21.3 v 0 h 0.1 l 0.5,0.1 0.4,0.3 0.3,0.4 0.2,0.5 v 0.6 l -0.2,0.5 -0.3,0.4 -0.5,0.3 -0.5,0.1 m 10.9,-1.6 -0.1,-0.6 -0.3,-0.6 -0.5,-0.3 -0.6,-0.1 -0.5,0.1 -0.5,0.3 -0.3,0.6 -0.1,0.6 0.1,0.6 0.3,0.5 0.5,0.4 0.5,0.1 0.6,-0.1 0.5,-0.4 0.3,-0.5 0.1,-0.6 M 0,0 H -0.1 L -0.5,-0.1 -1,0 -1.5,0.3 -1.9,0.7 -2.2,1.2 -2.4,1.7 v 0.5 l 0.2,0.2 M 0,7.7 -0.1,7.8 -0.5,7.9 -1,7.8 -1.5,7.5 -1.9,7.1 -2.2,6.6 -2.4,6.1 V 5.6 l 0.2,-0.2 m -4,-11.2 h -0.1 l -0.4,-0.1 -0.4,0.1 -0.5,0.3 -0.5,0.4 -0.3,0.5 -0.2,0.5 0.1,0.4 0.1,0.3 m 2.2,17 h -0.1 l -0.4,0.1 -0.4,-0.1 -0.5,-0.3 -0.5,-0.4 -0.3,-0.5 -0.2,-0.5 0.1,-0.5 0.1,-0.2 m 1.7,-18.5 h -0.1 -0.4 -0.5 -0.6 -0.6 -0.5 -0.4 -0.1 m 3.2,22.4 h -0.1 -0.4 -0.5 -0.6 -0.6 -0.5 -0.4 -0.1 m -84.2,28.8 v -0.6 -0.5 -0.4 -0.1 m 0,3.2 V 45.4 45 44.5 43.9"
         style="fill:none;stroke:#000000;stroke-width:0.709;stroke-linecap:round;stroke-linejoin:round;stroke-miterlimit:10;stroke-dasharray:none;stroke-opacity:1"
         id="path16" />
    </g>
    <text
       xml:space="preserve"
       transform="matrix(0.999986,0,0,-1,165.68885,567.6533)"
       style="font-variant:normal;font-weight:normal;font-stretch:normal;font-size:11px;font-family:Verdana;-inkscape-font-specification:Verdana;writing-mode:lr-tb;fill:#808080;fill-opacity:1;fill-rule:nonzero;stroke:none"
       id="text20"><tspan
         x="0 7.5238948 11.857834 18.820736 23.154676 28.929594 35.485504 40.479435 48.003326 52.337269 59.300171 63.634109 69.409027 75.964935 80.95887"
         y="0"
         id="tspan18">Stütze(Stütze) </tspan></text>
    <text
       xml:space="preserve"
       transform="matrix(0.70670797,0.70670797,0.70710678,-0.70710678,142.53518,685.94828)"
       style="font-variant:normal;font-weight:normal;font-stretch:normal;font-size:11px;font-family:Verdana;-inkscape-font-specification:Verdana;writing-mode:lr-tb;fill:#808080;fill-opacity:1;fill-rule:nonzero;stroke:none"
       id="text24"><tspan
         x="0 7.5197811 15.996025 20.987225 28.507006 36.98325 41.974449"
         y="0"
         id="tspan22">AD(AD) </tspan></text>
    <text
       xml:space="preserve"
       transform="matrix(0.999722,0,0,-1,49.247124,566.9973)"
       style="font-variant:normal;font-weight:normal;font-stretch:normal;font-size:11px;font-family:Verdana;-inkscape-font-specification:Verdana;writing-mode:lr-tb;fill:#808080;fill-opacity:1;fill-rule:nonzero;stroke:none"
       id="text28"><tspan
         x="0 7.5219083 13.251315 20.212379 26.821541 32.550949 39.512012 43.844807 48.837418 56.359329 62.088734 69.049797 75.658958 81.388367 88.349434 92.682228 97.674835"
         y="0"
         id="tspan26">Schacht(Schacht) </tspan></text>
    <text
       xml:space="preserve"
       transform="matrix(0.999839,0,0,-1,122.2002,790.0883)"
       style="font-variant:normal;font-weight:normal;font-stretch:normal;font-size:11px;font-family:Verdana;-inkscape-font-specification:Verdana;writing-mode:lr-tb;fill:#000000;fill-opacity:1;fill-rule:nonzero;stroke:none"
       id="text32"><tspan
         x="0 7.5227885 11.856091 18.466026 25.317923 30.311119 37.833908 42.16721 48.777145 55.629044"
         y="0"
         id="tspan30">Stab(Stab)</tspan></text>
    <text
       xml:space="preserve"
       transform="matrix(0.999785,0,0,-1,43.604368,414.2073)"
       style="font-variant:normal;font-weight:normal;font-stretch:normal;font-size:11px;font-family:Verdana;-inkscape-font-specification:Verdana;writing-mode:lr-tb;fill:#000000;fill-opacity:1;fill-rule:nonzero;stroke:none"
       id="text36"><tspan
         x="0 6.3236403 12.878231 19.729757 26.284348 30.980337 35.973263 42.296906 48.851494 55.703022 62.25761 66.953606 71.946526"
         y="0"
         id="tspan34">Feder(Feder) </tspan></text>
    <g
       id="g38"
       transform="translate(14.3,411.8)">
      <path
         d="M 0,0 9.4,2.1 V -2 L 0,0 M 26.9,0 17.5,-2 V 2.1 L 26.9,0"
         style="fill:none;stroke:#000000;stroke-width:0.51;stroke-linecap:butt;stroke-linejoin:miter;stroke-miterlimit:10;stroke-dasharray:none;stroke-opacity:1"
         id="path40" />
    </g>
    <g
       id="g42"
       transform="translate(206.1,564.5)">
      <path
         d="M 0,0 2.1,-9.3 H -2 L 0,0 m 0,14.9 -2,9.3 H 2.1 L 0,14.9 m -167.8,-14.8 9.4,2 v -4 l -9.4,2 m 241.3,0 -9.3,-2 v 4 l 9.3,-2"
         style="fill:none;stroke:#808080;stroke-width:0.51;stroke-linecap:butt;stroke-linejoin:miter;stroke-miterlimit:10;stroke-dasharray:none;stroke-opacity:1"
         id="path44" />
    </g>
    <g
       id="g46"
       transform="translate(56.8,596.9)">
      <path
         d="M 0,0 5.1,8 8,5.1 0,0 m 204.4,204.4 -5.2,-8.1 -2.9,2.9 8.1,5.2"
         style="fill:none;stroke:#808080;stroke-width:0.51;stroke-linecap:butt;stroke-linejoin:miter;stroke-miterlimit:10;stroke-dasharray:none;stroke-opacity:1"
         id="path48" />
    </g>
    <g
       id="g50"
       transform="translate(55.8,597.9)">
      <path
         d="M 0,0 2,-2 M 0,-2 2,0 M 1,-2.5 V 0.4 M 2.4,-1 h -2.8 m 204.8,205.4 2,-2 m -2,0 2,2 m -1,-2.4 v 2.8 m 1.4,-1.4 H 204 m -101.8,-101.2 2,-2 m -2,0 2,2 m -1,-2.4 v 2.8 m 1.4,-1.4 h -2.8 m 121,1 2,-2 m -2,0 2,2 m -1,-2.4 v 2.8 m 1.5,-1.4 h -2.9 m -240.9,1 2,-2 m -2,0 2,2 m -1,-2.4 v 2.8 m 1.4,-1.4 h -2.8"
         style="fill:none;stroke:#c0c0c0;stroke-width:0.51;stroke-linecap:butt;stroke-linejoin:miter;stroke-miterlimit:10;stroke-dasharray:none;stroke-opacity:1"
         id="path52" />
    </g>
    <g
       id="g54"
       transform="translate(13.3,485.7)">
      <path
         d="M 0,0 2.1,-2 M 0,-2 2.1,0 M 1,-2.4 V 0.4 M 2.5,-1 h -2.9 m 27.3,1 2,-2 m -2,0 2,2 m -1,-2.4 V 0.4 M 29.3,-1 h -2.8"
         style="fill:none;stroke:#c0c0c0;stroke-width:0.51;stroke-linecap:butt;stroke-linejoin:miter;stroke-miterlimit:10;stroke-dasharray:none;stroke-opacity:1"
         id="path56" />
    </g>
    <g
       id="g58"
       transform="translate(159.0386,579.4014)">
      <path
         d="M 0,0 V -14.807"
         style="fill:none;stroke:#c0c0c0;stroke-width:0.51;stroke-linecap:butt;stroke-linejoin:miter;stroke-miterlimit:10;stroke-dasharray:43.2, 3.6, 3.6, 3.6;stroke-dashoffset:41.197;stroke-opacity:1"
         id="path60" />
    </g>
    <g
       id="g62"
       transform="translate(56.8201,596.9067)">
      <path
         d="M 0,0 204.437,204.437"
         style="fill:none;stroke:#c0c0c0;stroke-width:0.51;stroke-linecap:butt;stroke-linejoin:miter;stroke-miterlimit:10;stroke-dasharray:43.2, 3.6, 3.6, 3.6;stroke-dashoffset:12.041;stroke-opacity:1"
         id="path64" />
    </g>
    <g
       id="g66"
       transform="translate(120.7,794.3)">
      <path
         d="M 0,0 V 0"
         style="fill:none;stroke:#000000;stroke-width:0.51;stroke-linecap:round;stroke-linejoin:round;stroke-miterlimit:10;stroke-dasharray:none;stroke-opacity:1"
         id="path68" />
    </g>
    <g
       id="g70"
       transform="translate(120.7,794.3)">
      <path
         d="M 0,0 -12.7,12.4"
         style="fill:none;stroke:#000000;stroke-width:0.51;stroke-linecap:round;stroke-linejoin:round;stroke-miterlimit:10;stroke-dasharray:none;stroke-opacity:1"
         id="path72" />
    </g>
    <g
       id="g74"
       transform="translate(14.3,481.9)">
      <path
         d="M 0,0 V -72.9 M 26.9,0 V -72.9 M 0,-70.1 h 26.9 m 0,0 h 78.2"
         style="fill:none;stroke:#000000;stroke-width:0.51;stroke-linecap:round;stroke-linejoin:round;stroke-miterlimit:10;stroke-dasharray:none;stroke-opacity:1"
         id="path76" />
    </g>
    <g
       id="g78"
       transform="translate(161.8,564.5)">
      <path
         d="M 0,0 H 47.2 M 0,14.9 H 47.2 M 44.3,0 v -18 m 0,32.9 v 18 M 44.3,0 v 0.8 m 0,14.1 V 14.1 M -123.5,131.7 V -2.7 M 117.8,131.7 V -2.7 m -241.3,2.8 h 241.3"
         style="fill:none;stroke:#808080;stroke-width:0.51;stroke-linecap:round;stroke-linejoin:round;stroke-miterlimit:10;stroke-dasharray:none;stroke-opacity:1"
         id="path80" />
    </g>
    <g
       id="g82"
       transform="translate(54.8,598.9)">
      <path
         d="m 0,0 v 0 m 204.4,204.4 v 0 M 2,-2 206.4,202.4"
         style="fill:none;stroke:#808080;stroke-width:0.51;stroke-linecap:round;stroke-linejoin:round;stroke-miterlimit:10;stroke-dasharray:none;stroke-opacity:1"
         id="path84" />
    </g>
    <g
       id="g86"
       transform="translate(38.3,699.1)">
      <path
         d="m 0,0 h 241.3 m 0,84.5 v -169 m 0,169 -36.1,36.1 M 0,84.5 v -169 m 0,0 36.2,-36.1"
         style="fill:none;stroke:#c0c0c0;stroke-width:0.51;stroke-linecap:round;stroke-linejoin:round;stroke-miterlimit:10;stroke-dasharray:none;stroke-opacity:1"
         id="path88" />
    </g>
    <g
       id="g90"
       transform="translate(107,807.7)">
      <path
         d="M 0,0 -0.1,-0.3 -0.3,-0.5 V -0.8 -1.1 -1.4 L -0.2,-1.6 0,-1.9 0.2,-2.1 0.4,-2.2 0.7,-2.3 H 1 1.2 l 0.3,0.1 0.3,0.1 0.2,0.2 0.2,0.2 0.1,0.2 0.1,0.3 v 0.3 L 2.3,-0.6 2.2,-0.4 2.1,-0.1 1.9,0.1 1.6,0.2 1.4,0.3 1.1,0.4 H 0.8 L 0.5,0.3 0.3,0.1 0,0 1,-1"
         style="fill:#000000;fill-opacity:1;fill-rule:nonzero;stroke:none"
         id="path92" />
    </g>
    <g
       id="g94"
       transform="translate(14.3,411.8)">
      <path
         d="M 0,0 9.4,2.1 V -2 m 17.5,2 -9.4,-2 v 4.1"
         style="fill:#000000;fill-opacity:1;fill-rule:nonzero;stroke:none"
         id="path96" />
    </g>
    <g
       id="g98"
       transform="translate(206.1,564.5)">
      <path
         d="M 0,0 2.1,-9.3 H -2 m 2,24.2 -2,9.3 h 4.1 m -169.9,-24.1 9.4,2 v -4 m 231.9,2 -9.3,-2 v 4"
         style="fill:#808080;fill-opacity:1;fill-rule:nonzero;stroke:none"
         id="path100" />
    </g>
    <g
       id="g102"
       transform="translate(56.8,596.9)">
      <path
         d="M 0,0 5.1,8 8,5.1 m 196.4,199.3 -5.2,-8.1 -2.9,2.9"
         style="fill:#808080;fill-opacity:1;fill-rule:nonzero;stroke:none"
         id="path104" />
    </g>
  </g>
</svg>
