<?xml version="1.0" encoding="UTF-8" standalone="no"?>
<!-- Created with Inkscape (http://www.inkscape.org/) -->

<svg
   version="1.1"
   id="svg2"
   width="793.70135"
   height="1122.52"
   viewBox="0 0 793.70135 1122.52"
   xmlns="http://www.w3.org/2000/svg"
   xmlns:svg="http://www.w3.org/2000/svg">
  <defs
     id="defs6" />
  <g
     id="g8"
     transform="matrix(1.3333333,0,0,-1.3333333,0,1122.52)">
    <g
       id="g10"
       transform="translate(367.2,514.9)">
      <path
         d="m 0,0 -3,-3.1 -2.9,-3.2 -2.7,-3.2 -2.2,-2.9 -1.6,-2.5 -1.1,-1.9 -0.4,-0.8 -0.3,-0.8 -0.2,-0.7 v -0.6 l 0.2,-0.2 0.1,-0.1 m 0.2,2.5 -0.2,0.3 -0.7,0.8 -0.8,0.8 -0.8,0.8 -0.7,0.7 -0.7,0.7 -0.6,0.6 -0.7,0.6 -0.8,0.9 -1,1 -1.4,1.4 -2.6,2.6 -3.1,3.1 -3.5,3.5 -3.7,3.6 -2.7,2.8 -3,3 -3.3,3.3 -3.5,3.5 -3.7,3.6 -3.6,3.7 -3.5,3.5 -3.4,3.4 -3.2,3.2 -2.9,2.9 -2.7,2.7 -2.3,2.3 -1.9,1.9 -1.5,1.5 -1,1 -0.5,0.4 -0.1,0.2 m -2.6,-1.7 0.2,-0.4 0.1,-0.2 0.5,-0.5 1.1,-1 1.3,-1.4 1.6,-1.6 1.8,-1.8 3.2,-3.1 3.8,-3.8 4.2,-4.2 4.2,-4.3 4.2,-4.2 4.5,-4.4 3.1,-3.2 3.3,-3.2 3.3,-3.3 3.3,-3.3 3.1,-3.1 2.8,-2.9 2.6,-2.5 2.2,-2.3 1.9,-1.8 1.5,-1.5 1.1,-1.1 0.9,-0.9 1,-1 1,-1 0.8,-0.8 0.9,-0.9 0.9,-0.9 0.9,-0.8 0.7,-0.7 0.7,-0.5 0.5,-0.4 0.4,-0.2 h 0.3 0.4 l 0.2,0.1 h 0.1 l 0.1,0.1 h 0.2 0.1 l 0.2,-0.1 h 0.2 l 0.1,0.1 -0.2,0.3 -0.1,0.4 v 1.1 l 0.3,0.9 0.4,0.8 0.9,1.7 1.4,2.2 2.2,2.8 2.6,3.1 2.9,3.2 2.9,3.1 m 0,0 3.1,3 3.2,2.8 3.1,2.7 2.9,2.1 2.2,1.4 1.6,0.9 0.8,0.4 1,0.3 h 1 l 0.4,-0.1 0.4,-0.1 v 0.1 0.1 0.2 l -0.1,0.2 0.1,0.1 v 0.1 0.1 l 0.1,0.6 v 0.2 0.1 l -0.2,0.5 -0.4,0.5 -0.6,0.7 -0.7,0.8 -0.8,0.8 -0.8,0.9 -0.8,0.8 -0.8,0.8 -1.3,1.3 -1.2,1.2 -0.8,0.8 -1.1,1.1 -1.3,1.3 -2.5,2.5 -3.1,3.1 -3.3,3.3 -3.6,3.6 -4.1,4.1 -4.7,4.7 -3.4,3.4 -3.6,3.6 -3.6,3.6 -3.5,3.5 -3.4,3.4 -3.2,3.2 -3,3 -2.7,2.7 -2.4,2.4 -2,2 -1.6,1.6 -1.3,1.3 -0.7,0.7 -0.3,0.3 -0.2,0.1 h -0.1 -0.1 m -1.7,-2.5 0.1,-0.1 0.3,-0.4 0.8,-0.7 1.2,-1.3 1.5,-1.5 1.8,-1.7 3.1,-3.1 3.7,-3.7 4.2,-4.3 4.3,-4.3 4.3,-4.2 4.4,-4.5 3.2,-3.1 3.3,-3.3 3.3,-3.4 L -4,35.1 -0.9,31.9 2,29 4.7,26.4 7,24.1 l 1.9,-2 1.6,-1.5 1.1,-1.1 0.9,-0.9 0.9,-0.9 0.9,-0.9 0.6,-0.6 0.7,-0.7 0.6,-0.6 0.6,-0.6 0.6,-0.5 m 2.5,0.2 v 0.1 l -0.3,0.2 H 19 L 18.3,14.1 17.5,13.8 16.7,13.5 14.8,12.4 12.4,10.7 9.4,8.5 6.2,5.8 3,2.9 0,0 m 0,292.5 3,-3 3.2,-2.8 3.2,-2.7 3,-2.3 2.4,-1.6 1.9,-1.1 0.8,-0.4 0.8,-0.2 0.7,-0.2 h 0.6 l 0.3,0.2 v 0.1 m -2.5,0.2 -0.2,-0.2 -0.8,-0.8 -0.9,-0.8 -0.7,-0.7 -0.8,-0.8 -0.7,-0.6 -0.6,-0.7 -0.6,-0.6 -0.8,-0.8 -1.1,-1.1 -1.4,-1.4 -2.6,-2.6 -3.1,-3.1 -3.4,-3.4 -3.7,-3.7 -2.8,-2.8 -3,-3 -3.3,-3.3 -3.5,-3.5 -3.6,-3.6 -3.6,-3.6 -3.6,-3.6 -3.4,-3.3 -3.2,-3.2 -2.9,-3 -2.6,-2.6 -2.3,-2.3 -1.9,-1.9 -1.5,-1.5 -1.1,-1 -0.4,-0.5 -0.2,-0.1 m 1.7,-2.7 0.4,0.2 0.2,0.2 0.5,0.5 1.1,1.1 1.3,1.3 1.6,1.6 1.8,1.8 3.2,3.2 3.8,3.7 4.2,4.2 4.2,4.3 4.2,4.2 4.4,4.4 3.2,3.2 3.2,3.2 3.4,3.3 3.2,3.3 3.1,3.1 2.9,2.9 2.5,2.5 2.3,2.3 1.9,1.8 1.5,1.5 1,1.1 1,0.9 0.9,1 1,1 0.9,0.9 0.8,0.8 0.9,0.9 0.8,0.9 0.7,0.8 0.5,0.6 0.4,0.5 0.2,0.5 v 0.3 0.4 l -0.1,0.2 v 0.1 0.1 l -0.1,0.1 0.1,0.2 v 0.2 0.1 0.1 l -0.4,-0.1 -0.4,-0.1 h -1 l -1,0.3 -0.8,0.3 -1.6,0.9 -2.2,1.5 -2.9,2.1 -3.1,2.6 -3.2,2.9 -3.1,3 m 0,0 -2.9,3.1 -2.9,3.2 -2.6,3.1 -2.2,2.8 -1.4,2.2 -0.9,1.6 -0.4,0.9 -0.3,0.9 v 1.1 l 0.1,0.4 0.2,0.3 -0.1,0.1 h -0.2 l -0.2,-0.1 h -0.1 -0.2 l -0.1,0.1 h -0.1 l -0.6,0.1 h -0.1 l -0.2,-0.1 -0.4,-0.2 -0.6,-0.4 -0.7,-0.5 -0.7,-0.7 -0.9,-0.8 -0.9,-0.9 -0.8,-0.8 -0.8,-0.7 -1.3,-1.4 -1.2,-1.1 -0.8,-0.8 -1,-1.1 -1.4,-1.3 -2.5,-2.6 -3,-3 -3.4,-3.4 -3.6,-3.6 -4.1,-4.1 -4.7,-4.7 -3.4,-3.4 -3.6,-3.5 -3.6,-3.6 -3.5,-3.5 -3.4,-3.4 -3.2,-3.2 -3,-3 -2.7,-2.7 -2.3,-2.4 -2.1,-2 -1.6,-1.7 -1.2,-1.2 -0.8,-0.8 -0.3,-0.3 v -0.1 l -0.1,-0.2 v -0.1 m 2.5,-1.7 0.1,0.1 0.4,0.4 0.7,0.7 1.3,1.3 1.5,1.5 1.8,1.8 3,3 3.8,3.8 4.2,4.2 4.3,4.3 4.3,4.2 4.4,4.5 3.2,3.1 3.2,3.3 3.4,3.4 3.3,3.3 3.2,3.2 2.9,2.9 2.6,2.6 2.3,2.3 2,2 1.5,1.5 1.2,1.2 0.8,0.8 0.9,0.9 1,1 0.6,0.6 0.6,0.6 0.6,0.6 0.6,0.7 0.5,0.6 m -0.2,2.5 -0.1,-0.1 -0.2,-0.3 v -0.6 l 0.2,-0.7 0.3,-0.7 0.4,-0.8 1.1,-2 1.6,-2.4 2.2,-2.9 2.7,-3.2 2.9,-3.2 3,-3.1 m -294.9,-294.8 3,-3.1 2.9,-3.2 2.6,-3.1 2.1,-2.8 1.5,-2.2 0.9,-1.7 0.3,-0.8 0.3,-0.9 0.1,-1.1 -0.2,-0.4 -0.1,-0.3 0.1,-0.1 h 0.2 l 0.1,0.1 h 0.2 0.1 l 0.1,-0.1 h 0.1 l 0.6,-0.1 h 0.2 0.2 l 0.4,0.2 0.6,0.4 0.7,0.6 0.7,0.7 0.9,0.8 0.8,0.8 0.8,0.8 0.8,0.8 1.4,1.4 1.2,1.1 0.7,0.8 1.1,1.1 1.3,1.3 2.6,2.6 3,3 3.4,3.3 3.6,3.7 4.1,4.1 4.7,4.6 3.4,3.4 3.5,3.6 3.6,3.6 3.5,3.5 3.4,3.4 3.2,3.2 3,3 2.7,2.7 2.4,2.4 2,2 1.7,1.7 1.2,1.2 0.8,0.8 0.2,0.3 0.1,0.1 0.1,0.2 m -2.6,1.7 h -0.1 l -0.3,-0.4 -0.8,-0.8 -1.2,-1.2 -1.5,-1.5 -1.8,-1.8 -3.1,-3.1 -3.7,-3.7 -4.2,-4.2 -4.3,-4.3 -4.3,-4.3 -4.4,-4.4 -3.2,-3.2 -3.3,-3.3 -3.3,-3.3 -3.4,-3.3 -3.1,-3.2 -2.9,-2.9 -2.7,-2.6 -2.3,-2.4 -1.9,-1.9 -1.6,-1.5 -1.1,-1.2 -0.9,-0.9 -0.9,-0.9 -0.9,-0.9 -0.6,-0.6 -0.6,-0.6 -0.6,-0.7 -0.7,-0.6 -0.5,-0.6 m 0.3,-2.5 0.1,0.1 0.1,0.2 0.1,0.6 -0.2,0.7 -0.3,0.8 -0.4,0.8 -1.1,1.9 -1.6,2.5 -2.3,2.9 -2.6,3.2 -2.9,3.2 -3,3.1 m 0,0 -3.1,2.9 -3.2,2.9 -3.2,2.7 -2.9,2.2 -2.4,1.7 -2,1.1 -0.8,0.3 -0.7,0.3 -0.7,0.2 h -0.6 l -0.3,-0.2 -0.1,-0.1 m 2.6,-0.2 0.2,0.2 0.8,0.8 0.8,0.8 0.8,0.7 0.7,0.7 0.7,0.7 0.7,0.7 0.6,0.6 0.8,0.8 1.1,1.1 1.4,1.4 2.6,2.5 3.1,3.1 3.4,3.5 3.7,3.7 2.7,2.7 3.1,3.1 3.2,3.2 3.5,3.5 3.7,3.7 3.6,3.6 3.5,3.5 3.4,3.4 3.2,3.2 3,3 2.6,2.6 2.3,2.3 1.9,1.9 1.5,1.5 1,1 0.5,0.5 0.2,0.1 V 78 m -1.7,2.6 -0.4,-0.2 -0.3,-0.2 -0.4,-0.5 -1.1,-1.1 -1.3,-1.3 -1.6,-1.6 -1.8,-1.8 -3.2,-3.2 -3.8,-3.8 -4.2,-4.2 -4.3,-4.2 -4.1,-4.2 -4.5,-4.4 -3.1,-3.2 -3.3,-3.2 -3.3,-3.4 -3.3,-3.2 -3.1,-3.1 -2.8,-2.9 -2.6,-2.5 -2.2,-2.3 -1.9,-1.9 -1.5,-1.5 -1.1,-1 -0.9,-1 -1,-0.9 -1,-1 -0.8,-0.9 -0.8,-0.8 -0.9,-0.9 -0.9,-0.9 -0.7,-0.8 -0.5,-0.6 -0.3,-0.6 -0.2,-0.4 -0.1,-0.3 0.1,-0.4 V 12 l 0.1,-0.1 v -0.1 -0.1 -0.2 -0.2 l -0.1,-0.1 0.1,-0.1 0.3,0.1 0.5,0.1 h 1 l 1,-0.3 0.8,-0.4 1.6,-0.9 2.2,-1.4 2.8,-2.1 3.2,-2.7 3.1,-2.8 3.1,-3 m 2.3,294.8 3,3.1 2.9,3.2 2.6,3.2 2.3,2.9 1.6,2.4 1.1,2 0.4,0.8 0.3,0.7 0.2,0.7 -0.1,0.6 -0.1,0.3 -0.1,0.1 m -0.3,-2.5 0.2,-0.3 0.8,-0.8 0.8,-0.8 0.8,-0.8 0.7,-0.7 0.7,-0.7 0.6,-0.7 0.6,-0.6 0.8,-0.8 1.1,-1 1.4,-1.4 2.6,-2.6 3.1,-3.1 3.4,-3.5 3.7,-3.7 2.8,-2.7 3,-3 3.3,-3.3 3.5,-3.5 3.6,-3.7 3.6,-3.6 3.6,-3.5 3.4,-3.4 3.2,-3.2 2.9,-2.9 2.6,-2.7 2.3,-2.3 1.9,-1.9 1.5,-1.5 1.1,-1 0.4,-0.5 0.2,-0.1 m 2.6,1.6 -0.2,0.5 -0.2,0.2 -0.5,0.5 -1,1 -1.4,1.4 -1.6,1.6 -1.7,1.8 -3.2,3.1 -3.8,3.8 -4.2,4.2 -4.3,4.3 -4.2,4.2 -4.4,4.4 -3.1,3.1 -3.3,3.3 -3.3,3.3 -3.3,3.3 -3.1,3.1 -2.8,2.8 -2.6,2.6 -2.2,2.2 -1.9,1.9 -1.5,1.5 -1.1,1.1 -0.9,0.9 -1,1 -1,1 -0.8,0.8 -0.9,0.9 -0.9,0.8 -0.9,0.9 -0.8,0.7 -0.6,0.5 -0.5,0.4 -0.4,0.1 -0.4,0.1 -0.4,-0.1 h -0.2 -0.1 l -0.1,-0.1 h -0.1 -0.2 l -0.1,0.1 h -0.2 l -0.1,-0.1 0.1,-0.3 0.2,-0.4 -0.1,-1.1 -0.3,-0.9 -0.3,-0.9 -0.9,-1.6 -1.5,-2.2 -2.1,-2.8 -2.6,-3.1 -2.9,-3.2 -3,-3.1 m 0,0 -3.1,-3 -3.1,-2.9 -3.2,-2.6 -2.8,-2.1 -2.2,-1.5 -1.6,-0.9 -0.8,-0.3 -1,-0.3 h -1 l -0.5,0.1 -0.3,0.1 -0.1,-0.1 0.1,-0.1 v -0.2 -0.2 -0.1 -0.1 l -0.1,-0.1 -0.1,-0.6 0.1,-0.2 v -0.1 l 0.2,-0.5 0.4,-0.5 0.6,-0.7 0.6,-0.8 0.8,-0.8 0.9,-0.9 0.8,-0.8 0.7,-0.8 1.4,-1.4 1.2,-1.1 0.8,-0.8 1,-1.1 1.4,-1.3 2.5,-2.5 3,-3.1 3.4,-3.3 3.6,-3.6 4.1,-4.2 4.7,-4.6 3.4,-3.4 3.6,-3.6 3.6,-3.6 3.5,-3.5 3.4,-3.4 3.2,-3.2 2.9,-3 2.7,-2.7 2.4,-2.4 2,-2 1.7,-1.6 1.2,-1.3 0.8,-0.7 0.3,-0.3 0.1,-0.1 0.2,-0.1 h 0.1 m 1.7,2.6 -0.1,0.1 -0.4,0.3 -0.7,0.8 -1.2,1.2 -1.6,1.6 -1.7,1.7 -3.1,3.1 -3.7,3.7 -4.3,4.2 -4.3,4.4 -4.2,4.2 -4.5,4.4 -3.1,3.2 -3.3,3.3 -3.4,3.4 -3.3,3.3 -3.2,3.1 -2.9,3 -2.6,2.6 -2.3,2.3 -1.9,1.9 -1.6,1.6 -1.1,1.1 -0.9,0.9 -0.9,0.9 -0.9,0.9 -0.7,0.6 -0.6,0.6 -0.6,0.7 -0.7,0.6 -0.5,0.5 m -2.6,-0.2 0.1,-0.1 0.3,-0.2 h 0.6 l 0.7,0.2 0.7,0.2 0.8,0.4 2,1.1 2.4,1.6 2.9,2.3 3.2,2.7 3.2,2.8 3.1,3 M -144.7,1.1 v 0 0.1 0.4 0.5 0.7 0.8 2.5 2.3 2.9 5.8 1.7 1.9 1.9 0.7 0.5 0.5 0.3 0.3 0.1 l -0.1,0.3 v 0.1 h -0.1 v 0.1 l -0.1,0.1 v 0.1 m -2.6,0 -0.1,-0.1 v -0.1 h -0.1 v -0.1 -0.1 l -0.1,-0.2 V 25 24.8 24.5 24.1 23.6 23.1 22 18.7 16.1 12.2 8.5 7.3 5.6 3.4 2.6 1.8 1.3 1.1 m 0,23.5 v 0 -0.2 -0.3 -0.4 -0.6 -0.7 -1.9 -1.5 m 0,-17.9 v 0 m 0,0 0.1,-0.5 0.2,-0.4 0.2,-0.3 0.2,-0.1 0.4,-0.2 0.3,-0.1 h 0.3 l 0.5,0.1 0.3,0.2 0.3,0.3 0.3,0.4 0.1,0.6 m 59.1,40.8 5,3.2 m 2.6,1.7 0.1,0.1 7,5.2 6.3,5.4 5.6,5.5 5,5.6 5.4,6.8 1.7,2.6 m 1.7,2.5 1,1.5 3.7,6.3 3.1,5.9 2.7,6.2 2.1,5.5 1.8,5.5 1.5,5.5 1.3,5.7 1,5.8 0.7,5.8 0.6,10.5 -0.3,10.5 -1.2,10.5 -2.2,10.4 -3.1,10.1 -3.9,9.8 -4.8,9.4 -4,6.5 m -1.7,2.7 -6.2,8.2 -7.1,7.9 -7.7,7.2 -8.3,6.5 -1.9,1.2 m -2.5,1.7 -4.5,2.9 -9.3,5 -9.7,4.1 -10.1,3.2 -10.3,2.4 -10.4,1.5 -10.6,0.5 -10.6,-0.4 -10.4,-1.3 -10.4,-2.2 -10.1,-3.2 -9.8,-4 -9.4,-4.8 -5.8,-3.7 m -2.6,-1.6 -0.5,-0.3 -8.4,-6.4 -7.8,-7.1 -7.2,-7.8 -6.5,-8.4 -0.7,-1.2 m -1.7,-2.6 -3.3,-5.1 -4.9,-9.3 -4,-9.8 -3.2,-10.1 -2.3,-10.3 -1.4,-10.5 -0.5,-10.5 0.5,-10.6 1.4,-10.5 2.3,-10.3 3.1,-10 4.1,-9.8 4.9,-9.4 3.3,-5.1 m 1.7,-2.6 0.7,-1.2 6.4,-8.3 7.2,-7.8 7.5,-6.9 7.8,-6 1.5,-1 m 2.6,-1.7 0.4,-0.4 4.6,-2.7 4.6,-2.6 4.7,-2.3 5.6,-2.5 6.7,-2.5 7.7,-2.4 7.7,-1.8 8.6,-1.4 9.3,-0.8 h 4.5 m 2.6,0 h 3.1 l 8.6,0.6 9.1,1.3 9.4,2.2 9.6,3 9.8,4.1 m -1.3,2.9 -8.3,-3.5 -8.1,-2.7 -7.8,-2 -7.5,-1.4 -7.2,-0.9 -8.4,-0.5 -7.8,0.1 -7.1,0.6 -6.4,0.8 -6.5,1.3 -5.5,1.4 -5.4,1.6 -5.3,1.8 -5.2,2.2 -5.2,2.4 -5.1,2.7 -8.6,5.3 -8.3,6.1 -7.7,6.8 -7.1,7.5 -6.3,8.1 -5.7,8.6 -4.9,9 -4,9.5 -3.2,9.8 -2.4,10 -1.5,10.2 -0.6,10.2 0.4,10.3 1.2,10.2 2.1,10.1 3,9.8 3.8,9.6 4.7,9.1 5.4,8.8 6.2,8.2 6.9,7.6 7.5,7.1 8.1,6.3 8.7,5.6 9.1,4.8 9.4,4 9.8,3.2 10.1,2.3 10.1,1.4 10.3,0.5 10.3,-0.4 10.2,-1.3 10.1,-2.2 9.8,-3 9.5,-3.9 9.1,-4.7 8.7,-5.5 8.2,-6.3 7.6,-6.9 7,-7.6 6.3,-8.1 5.5,-8.7 4.8,-9.1 3.9,-9.5 3.1,-9.8 2.2,-10 1.4,-9.9 0.4,-9.6 -0.1,-5.3 -0.3,-5.2 -0.5,-5 -0.7,-5.1 -1.2,-5.9 -1.7,-6.7 -2.4,-7.5 -2.8,-7.2 -3.7,-7.6 -4.5,-7.9 -5.6,-8.1 -5.4,-6.6 -6.1,-6.5 -6.9,-6.3 -7.8,-6 -8.7,-5.6 m -8.3,-8 2.2,1 1.3,0.3 0.3,-0.1 h 0.1 v -0.1 -0.1 l 0.1,-1 -0.2,-1.7 -1.6,-5.2 m 3,-1.2 1.1,3.1 0.6,2.3 0.3,1.9 v 1.9 l -0.4,1.4 -0.8,1 -0.4,0.4 -0.8,0.4 -1,0.2 -1.4,-0.1 -1.7,-0.5 -2.2,-1 m 17.1,7.4 -0.5,-0.5 -0.2,-0.6 v -0.6 l 0.3,-0.6 0.4,-0.4 0.6,-0.2 h 0.6 l 0.6,0.2 0.4,0.5 0.3,0.6 V 46 l -0.3,0.6 -0.5,0.4 -0.5,0.2 h -0.7 L -80,47 m 33,33 -0.3,-0.6 v -0.6 l 0.2,-0.6 0.5,-0.5 0.5,-0.2 h 0.7 l 0.6,0.2 0.4,0.4 0.3,0.6 v 0.6 l -0.3,0.6 -0.4,0.5 -0.6,0.2 H -46 L -46.6,80.4 -47,80 m 0,132.5 0.4,-0.4 0.6,-0.2 h 0.6 l 0.6,0.2 0.4,0.5 0.3,0.6 v 0.6 l -0.3,0.6 -0.4,0.4 -0.6,0.2 h -0.7 l -0.5,-0.2 -0.5,-0.5 -0.2,-0.6 v -0.6 l 0.3,-0.6 m -33,33 0.5,-0.2 h 0.7 l 0.5,0.2 0.5,0.4 0.3,0.6 v 0.6 l -0.3,0.6 -0.4,0.5 -0.6,0.2 h -0.6 l -0.6,-0.2 -0.4,-0.4 -0.3,-0.6 v -0.6 l 0.2,-0.6 0.5,-0.5 M -212.6,47 l -0.6,0.2 h -0.6 l -0.6,-0.2 -0.4,-0.4 -0.3,-0.6 v -0.6 l 0.2,-0.6 0.5,-0.5 0.5,-0.2 h 0.7 l 0.5,0.2 0.5,0.4 0.3,0.6 v 0.6 l -0.3,0.6 -0.4,0.5 m -33,33 -0.5,0.4 -0.5,0.2 h -0.7 l -0.5,-0.2 -0.5,-0.5 -0.2,-0.6 v -0.6 l 0.3,-0.6 0.4,-0.4 0.6,-0.2 h 0.6 l 0.6,0.2 0.4,0.5 0.3,0.6 -0.1,0.6 -0.2,0.6 m 33,165.5 0.4,0.5 0.3,0.6 v 0.6 l -0.3,0.6 -0.5,0.4 -0.5,0.2 h -0.7 l -0.5,-0.2 -0.5,-0.5 -0.2,-0.6 v -0.6 l 0.3,-0.6 0.4,-0.4 0.6,-0.2 h 0.6 l 0.6,0.2 m -33,-33 0.2,0.6 0.1,0.6 -0.3,0.6 -0.4,0.5 -0.6,0.2 h -0.6 l -0.6,-0.2 -0.4,-0.4 -0.3,-0.6 v -0.6 l 0.2,-0.6 0.5,-0.5 0.5,-0.2 h 0.7 l 0.5,0.2 0.5,0.4 m 99.3,-186.1 -0.6,-0.2 -0.6,-0.3 -0.3,-0.5 -0.1,-0.7 0.1,-0.6 0.3,-0.5 0.6,-0.3 0.6,-0.2 0.6,0.2 0.5,0.3 0.4,0.5 0.1,0.6 -0.1,0.7 -0.4,0.5 -0.5,0.3 -0.6,0.2 m 60.7,15.5 -0.1,0.2 -0.2,0.3 -0.2,0.4 -0.3,0.5 -0.4,0.6 -0.2,0.4 -0.2,0.3 -0.1,0.1 m -8.2,-7.9 v 0 l -0.1,0.2 -0.2,0.3 -0.2,0.4 -0.2,0.5 m -0.7,1.5 v -0.1 l 0.1,-0.1 0.1,-0.3 0.2,-0.5 0.3,-0.4 v -0.1 m 2.8,-8.4 0.1,-0.1 0.3,-0.1 0.5,-0.2 0.6,-0.2 0.5,-0.3 0.5,-0.1 0.4,-0.2 h 0.1 M 0,0 0.1,-0.1 0.3,-0.4 0.7,-0.7 1.1,-1.2 1.5,-1.6 1.9,-2 2.2,-2.2 V -2.3 M 0,292.5 l 0.1,0.1 0.2,0.3 0.4,0.3 0.4,0.5 0.4,0.4 0.4,0.4 0.3,0.2 v 0.1 M -292.6,0 l -0.1,-0.1 -0.2,-0.3 -0.4,-0.3 -0.4,-0.5 -0.5,-0.4 -0.3,-0.4 -0.3,-0.2 -0.1,-0.1 m 2.3,294.8 -0.1,0.1 -0.2,0.3 -0.4,0.3 -0.4,0.5 -0.5,0.4 -0.3,0.4 -0.3,0.2 -0.1,0.1"
         style="fill:none;stroke:#000000;stroke-width:0.709;stroke-linecap:round;stroke-linejoin:round;stroke-miterlimit:10;stroke-dasharray:none;stroke-opacity:1"
         id="path12" />
    </g>
    <g
       id="g14"
       transform="translate(222.5,516)">
      <path
         d="M 0,0 V 0"
         style="fill:none;stroke:#000000;stroke-width:0.709;stroke-linecap:round;stroke-linejoin:round;stroke-miterlimit:10;stroke-dasharray:none;stroke-opacity:1"
         id="path16" />
    </g>
    <g
       id="g18"
       transform="translate(337.9,431.4)">
      <path
         d="m 0,0 v -3.1 m 0,-3.2 v -2 -7.4 -6.2 -5.2 -4.2 -15.2 -3.9 m 0,-3.2 v -4 -5.6 -5.6 l 0.8,-5.7 1.3,-5.2 2,-5 2.6,-4.7 3.2,-4.4 3.6,-3.9 4.1,-3.4 4.4,-2.9 4.6,-2.3 4.8,-1.7 7.4,-1.4 7.5,-0.2 5,0.6 5.1,1.3 5.1,1.9 3.8,2 3.7,2.4 3.5,2.8 3.2,3.2 2.9,3.5 2.4,3.7 2.9,5.9 2,6.2 1.4,6 1.4,5.9 3.8,15.9 3.9,16.5 0.5,2.1 0.5,2.4 -0.1,2.7 -0.4,2.4 -0.8,4.9 -0.5,2.5 -0.4,2.4 -0.5,2.5 -0.4,2.2 -0.4,2.1 -0.3,1.9 -0.3,1.5 -0.2,1.2 -0.1,0.8 -0.1,0.3 m -3,-0.9 v -0.3 l 0.2,-0.9 0.2,-1.4 0.3,-1.7 0.4,-2 0.3,-2 0.4,-2.1 0.4,-2.1 0.7,-3.8 0.6,-3.4 0.4,-2.3 0.4,-2.3 v -2 l -0.6,-2.8 -0.7,-2.9 -0.7,-3 -1.7,-6.9 -2.9,-12.3 -1.3,-5.6 -1.4,-5.6 -1.3,-5.6 -1.4,-5.6 -1.9,-5.2 -3.4,-6.2 -4.4,-5.3 -5.1,-4.5 -5.7,-3.5 -6.2,-2.5 -6.6,-1.5 -4.8,-0.4 -4.9,0.3 -5,0.8 -5.1,1.6 -4.8,2.2 -4.4,2.8 -3.9,3.1 -3.2,3.5 -2.8,3.6 -2.2,3.7 -1.7,3.8 -1.4,4.1 -0.9,3.6 -0.5,4.2 -0.1,4.7 v 5.3 5.6 m 0,3.2 v 0.7 10.6 11.9 13 7.9 m 0,3.2 V 0 m 0,-3.1 V 0 m -98.3,-97.4 v -0.3 -2.3 -2.3 -2 -1.8 -1.2 m 3.2,-0.2 v 1.2 1.8 2.2 0.3 M -142.3,0 v -3.1 m 0,-3.2 v -6.2 -11.3 -10 -8.8 -6 -1.8 m 0,-3.2 v -0.2 -1.9 m 0,-13.3 v -1.1 -4.6 -3.7 -3.8 -4 -4 -4 -3.7 -3.4 -3 -2.3 -1.5 l 0.1,-0.5 m -0.1,0.6 0.4,-1.1 0.6,-0.4 0.4,-0.2 h 0.1 0.1 m 1.5,2.2 v 0 l 0.1,0.7 v 1.2 1.5 1.7 2.7 2.3 m 0,85.8 v 4.2 1.1 m 0,3.2 V 0 m 0,-107.3 v 1.1 1.7 2.1 0.5 M -95.1,0 v -9.3 -2.2 m 0,-90.4 v -0.5 -1.7 -1.5 -1.2 l 0.1,-0.7 m -22.1,105.5 2.8,-0.2 2.7,-0.4 2.3,-0.8 2.2,-0.9 3.4,-2.2 2.6,-2.2 1.9,-2.3 1.6,-2.6 1.3,-2.8 0.8,-3 0.3,-2.2 0.1,-2.1 v -2.4 -3.1 -3 -3 -2.9 -9.2 -5.4 -5.3 -5.2 -5.7 -6.7 -4.6 -4.7 -4.8 -4.6 -4.4 -3.7 -2.1 -1.7 -1.1 m 3.1,-1.2 0.1,0.2 v 0.3 m 0,70.8 v 0.9 11 12.2 V 0 m 0,-107.5 v 1.3 1.9 2.1 2.4 2.4 2.3 3.2 2.9 3.2 3.4 5.7 6 6 5.9 6 14.9 7.4 1.9 1.8 1.9 2 l -0.4,4 -1.1,3.9 -1.8,3.8 -2.4,3.4 -2.1,2.2 -2.5,2.1 -3,1.8 -2.6,1.2 -2.9,0.9 -3.1,0.6 -3.3,0.2 m 22,-106.8 0.1,-1.9 0.2,-1.1 0.3,-0.6 0.2,-0.2 0.1,-0.1 h 0.1 l 0.1,-0.1 h 0.1 0.1 l 0.2,-0.1 0.4,0.1 0.7,0.4 0.6,1.2 M -142.3,0 v -8.3 -7.2 -6.2 -5.2 -4.2 -3.8 -0.6 m 0,-70.5 v -0.1 -1.3 -0.9 -0.2 m 25.2,109.7 -3.9,-0.3 -3.7,-0.8 -3.4,-1.3 -3,-1.8 -2.8,-2.1 -2.4,-2.4 -2,-2.6 -1.6,-2.9 -1.2,-3 -0.8,-3 -0.4,-3.2 v -3.1 -3 -3 -2.9 -3 -4 -4 -4.7 -5.4 -6.1 -6.8 -5.5 -5.9 -5.9 -5.9 -3.6 -3.4 -3.1 -2.6 -2.1 -1.3 m 3.2,22.3 v 0.2 3.2 2.8 3.2 4.6 5.2 5.9 6.6 7.3 7 m 0,27.6 V 0 m 0,-107.3 v 1.2 1.8 2 2.3 2.3 2.2 3.2 2.8 3.1 3.2 5.6 5.7 5.8 5.8 5.7 16.3 2.6 2.6 2.6 2.7 2.7 l 0.1,3.7 0.7,3.6 1.4,3.6 2,3.3 2.8,3.1 1.8,1.5 2,1.3 2.4,1.2 2.7,1 2.9,0.6 3.2,0.2 m -25.2,-104.2 v -0.5 l 0.1,-0.1 m -0.1,-1.4 0.4,-1 0.6,-0.4 0.4,-0.1 h 0.1 0.1 0.1 0.1 l 0.6,0.4 0.6,0.9 0.2,1.9 M -237.4,0 v -8 -7.1 -6.1 -5.1 -4.2 -7.2 -7.4 -5.4 -5.4 -5.4 -5.5 l -0.4,-5.3 -1.1,-4.9 -1.6,-4.8 -2.3,-4.6 -2.9,-4.3 -3.3,-3.8 -3.9,-3.4 -4.1,-2.9 -4.4,-2.2 -4.6,-1.7 -7,-1.5 -7.2,-0.2 -4.8,0.6 -4.9,1.2 -4.8,1.9 -3.6,1.9 -3.4,2.3 -3.3,2.7 -3,3 -2.6,3.3 -2.2,3.6 -2.6,5.5 -1.7,5.8 -1.5,6 -1.3,5.9 -3.8,15.7 -3.9,16.4 -0.3,1.4 -0.4,1.4 -0.1,1.2 v 1.2 l 0.2,1.4 0.3,1.6 0.9,4.8 0.4,2.5 0.4,2.4 0.5,2.3 0.4,2.2 0.3,2.1 0.3,1.8 0.3,1.4 0.2,1.2 0.1,0.7 0.1,0.2 m -3.1,0.9 -0.1,-0.4 -0.2,-1 -0.2,-1.5 -0.4,-1.8 -0.3,-2 -0.4,-2.1 -0.4,-2.2 -0.4,-2.1 -0.4,-2.6 -0.5,-2.3 -0.4,-2.3 -0.4,-2.4 -0.4,-2.4 0.1,-2.9 0.9,-4.1 1,-4 0.9,-4.1 1,-4 3,-12.6 1.4,-5.8 1.4,-5.7 1.3,-5.7 1.5,-5.8 2.3,-5.6 2.5,-4.4 2.9,-4 3.2,-3.5 5.5,-4.6 6.1,-3.5 6.5,-2.6 7,-1.4 4.9,-0.4 5.2,0.3 5.3,0.9 5.3,1.6 5.1,2.3 4.7,2.9 4.1,3.3 3.6,3.6 3,3.9 2.5,4 1.9,4.1 1.6,4.3 0.9,3.8 0.7,4.5 0.2,4.9 v 5.3 6.4 m 0,3.2 v 10.6 12 13.3 8.2 m 0,3.2 V 0 m 0,-3.1 V 0 m 201.3,-1.4 v -2.2 m 0,-1.9 v -1.2 -4 -2.9 -2.5 -0.8 -0.8 l 0.1,-0.9 0.4,-1.2 0.6,-0.9 0.7,-0.7 0.8,-0.4 1.1,-0.1 h 1 4.4 4.3 2.1 0.4 0.2 l 0.2,-0.1 0.1,-0.1 0.1,-0.1 0.1,-0.3 0.1,-0.4 v -0.7 -0.9 -1.6 -4.4 -2.1 -0.7 -0.5 l -0.1,-0.4 -0.1,-0.2 -0.1,-0.2 v -0.1 l -0.2,-0.1 h -0.1 -0.2 -0.2 -2 -2.2 -2.1 -2.1 -1.5 -1.6 l -1.3,-0.1 -0.9,-0.3 -0.7,-0.6 -0.6,-0.8 -0.4,-1 -0.3,-1.4 v -1.6 -2.3 -3.3 -4.1 -0.8 m 0,-1.9 v -2.3 m 3.2,0 v 5.4 4.1 3 2.9 0.7 l 0.1,0.4 0.1,0.4 0.1,0.2 0.1,0.2 h 0.1 l 0.1,0.1 0.1,-0.1 h 2.1 2.2 1.6 1.7 1.7 1.8 l 1.4,0.1 1,0.1 0.6,0.3 0.3,0.3 0.4,0.3 0.4,0.5 0.4,0.7 0.2,0.8 0.2,1.7 v 1.4 1.6 3.2 3 0.5 0.5 l -0.1,0.7 -0.2,1 -0.4,0.8 -0.4,0.6 -0.4,0.4 -0.2,0.2 -0.2,0.1 -0.4,0.2 -1.2,0.3 h -1.2 -1.4 -3.3 -2.1 -2.1 -1.2 -1 -0.2 -0.1 -0.1 l -0.2,0.1 -0.1,0.2 -0.1,0.2 v 0.3 l -0.1,0.3 v 0.5 0.8 1.9 3.3 4.4 5.3 m 24.4,-49 h -4.4 -5.1 -5.4 -5.7 -3.8 m -3.2,0 h -4.5 -6.6 -6.2 -5.5 -5.3 -5.3 -9.4 -9.8 -6.5 m -3.2,0 h -0.4 -10.5 -10.5 -10.5 -10.5 -1.6 m -3.2,0 h -5.4 -9.8 -9.1 -8.5 -7.7 -4 -4.4 -4.8 -5.2 -5.3 -5.4 -5.4 -5.1 -4.6 -3 -2.6 -1.5 m 0,-3.2 h 0.9 2 2.4 3.5 3.9 4 5 4.7 4.5 4.2 4.5 8 8.6 9.1 9.7 10 6.8 m 3.2,0 h 0.3 10.4 10.5 10.3 9.7 2.8 m 3.2,0 h 3.3 8.8 4.5 5.1 5.8 6.2 6.7 6.9 7.2 4.6 m 3.2,0 h 6.5 5 4.8 4.3 3.8 m -0.2,0 h 0.8 0.9 0.5 0.5 0.5 0.6 0.6 0.6 1.4 1.5 1.6 m 0,3.2 H 1.5 0.2 -1 h -0.6 -0.6 -0.6 -0.5 -1.1 -1 m 0.2,47.3 h -4.4 -5.1 -5.4 -5.7 -3.8 m -3.2,0 h -4.5 -6.6 -6.2 -5.5 -5.3 -5.3 -9.4 -9.8 -6.5 m -3.2,0 h -0.4 -7.4 m -7.2,0 h -6.4 -7.5 m -7.3,0 h -6.2 -1.6 m -3.2,0 h -5.4 -9.8 -9.1 -8.5 -7.7 -4 -4.4 -4.8 -5.2 -5.3 -5.4 -5.4 -5.1 -4.6 -3 -2.6 -1.5 m 0,-3.2 h 0.9 2 2.4 3.5 3.9 4 5 4.7 4.5 4.2 4.5 8 8.6 9.1 9.7 10 6.8 m 3.2,0 h 0.3 3.7 m 4.8,0 h 1.9 10.5 10.3 3.7 m 4.9,0 h 1.1 2.8 m 3.2,0 h 3.3 8.8 4.5 5.1 5.8 6.2 6.7 6.9 7.2 4.6 m 3.2,0 h 6.5 5 4.8 4.3 3.8 m -0.2,0 h 0.8 0.9 0.5 0.5 0.5 0.6 0.6 0.6 1.4 1.5 1.6 m 0,3.2 H 1.5 0.2 -1 -1.6 -2.2 -2.8 -3.3 -4.4 -5.4 M 0,0 v 0 h 0.2 0.5 0.6 0.6 0.6 0.4 0.2 0.1 m 86.6,-0.8 v 0.4 l 0.1,0.7 0.4,0.5 0.5,0.3 0.6,0.1 L 92,1.1 92.5,0.8 92.9,0.3 V 0.1 M 92.9,0 93,-0.4 M -95.1,0 v 0 h 0.3 0.4 0.6 0.6 0.6 0.4 0.3 m -50.4,0 v 0 h 0.3 0.4 0.6 0.6 0.6 0.4 0.3 m -98.3,0 h 0.1 0.2 0.4 0.6 0.6 0.6 0.5 0.2 0.1 M -324,-0.8 v 0.4 l -0.1,0.7 -0.3,0.5 -0.6,0.3 -0.6,0.1 -0.6,-0.1 -0.5,-0.3 -0.4,-0.5 -0.1,-0.7 m 294.4,-1 v 0 h 0.1 0.4 0.5 0.6 0.6 0.5 0.4 0.1 m -3.2,-53.9 v 0 h 0.1 0.4 0.5 0.6 0.6 0.5 0.4 0.1 m 24.3,1.7 v 0 h 0.1 l 0.5,0.2 0.4,0.3 0.3,0.4 0.2,0.5 v 0.6 l -0.2,0.5 -0.3,0.4 -0.5,0.2 -0.5,0.1 m 10.9,-1.6 -0.1,-0.6 -0.3,-0.5 -0.5,-0.3 -0.6,-0.2 -0.5,0.2 -0.5,0.3 -0.3,0.5 -0.1,0.6 0.1,0.7 0.3,0.5 0.5,0.3 0.5,0.1 0.6,-0.1 0.5,-0.3 0.3,-0.5 0.1,-0.7 M -5.3,-6.3 v 0 h 0.1 l 0.5,0.1 0.4,0.3 0.3,0.4 0.2,0.6 v 0.5 l -0.2,0.5 -0.3,0.4 -0.5,0.3 -0.5,0.1 M 5.6,-4.7 5.5,-5.3 5.2,-5.9 4.7,-6.2 4.1,-6.3 l -0.5,0.1 -0.5,0.3 -0.3,0.6 -0.1,0.6 0.1,0.6 0.3,0.5 0.5,0.4 0.5,0.1 0.6,-0.1 0.5,-0.4 0.3,-0.5 0.1,-0.6 m -122.7,4.3 V -1 -1.5 -1.8 -2 m 0,3.2 V 1.1 0.8 0.3 -0.4"
         style="fill:none;stroke:#000000;stroke-width:0.709;stroke-linecap:round;stroke-linejoin:round;stroke-miterlimit:10;stroke-dasharray:none;stroke-opacity:1"
         id="path20" />
    </g>
    <text
       xml:space="preserve"
       transform="matrix(0.999986,0,0,-1,224.31135,523.5414)"
       style="font-variant:normal;font-weight:normal;font-stretch:normal;font-size:11px;font-family:Verdana;-inkscape-font-specification:Verdana;writing-mode:lr-tb;fill:#000000;fill-opacity:1;fill-rule:nonzero;stroke:none"
       id="text24"><tspan
         x="0 7.5238948 11.857834 18.820736 23.154676 28.929594 35.485504 40.479435 48.003326 52.337269 59.300171 63.634109 69.409027 75.964935 80.95887"
         y="0"
         id="tspan22">Stütze(Stütze) </tspan></text>
    <text
       xml:space="preserve"
       transform="matrix(0.7065846,0.70682991,0.7072295,-0.70698404,204.43699,648.00574)"
       style="font-variant:normal;font-weight:normal;font-stretch:normal;font-size:11px;font-family:Verdana;-inkscape-font-specification:Verdana;writing-mode:lr-tb;fill:#000000;fill-opacity:1;fill-rule:nonzero;stroke:none"
       id="text28"><tspan
         x="0 7.5197253 15.995907 20.98707 28.506794 36.982975 41.97414"
         y="0"
         id="tspan26">AD(AD) </tspan></text>
    <text
       xml:space="preserve"
       transform="matrix(0.999722,0,0,-1,103.20522,493.4596)"
       style="font-variant:normal;font-weight:normal;font-stretch:normal;font-size:11px;font-family:Verdana;-inkscape-font-specification:Verdana;writing-mode:lr-tb;fill:#000000;fill-opacity:1;fill-rule:nonzero;stroke:none"
       id="text32"><tspan
         x="0 7.5219083 13.251315 20.212379 26.821541 32.550949 39.512012 43.844807 48.837418 56.359329 62.088734 69.049797 75.658958 81.388367 88.349434 92.682228 97.674835"
         y="0"
         id="tspan30">Schacht(Schacht) </tspan></text>
    <text
       xml:space="preserve"
       transform="matrix(0.999839,0,0,-1,157.3373,729.0246)"
       style="font-variant:normal;font-weight:normal;font-stretch:normal;font-size:11px;font-family:Verdana;-inkscape-font-specification:Verdana;writing-mode:lr-tb;fill:#000000;fill-opacity:1;fill-rule:nonzero;stroke:none"
       id="text36"><tspan
         x="0 7.5227885 11.856091 18.466026 25.317923 30.311119 37.833908 42.16721 48.777145 55.629044"
         y="0"
         id="tspan34">Stab(Stab)</tspan></text>
    <text
       xml:space="preserve"
       transform="matrix(0.999558,0,0,-1,39.558589,296.4826)"
       style="font-variant:normal;font-weight:normal;font-stretch:normal;font-size:11px;font-family:Verdana;-inkscape-font-specification:Verdana;writing-mode:lr-tb;fill:#000000;fill-opacity:1;fill-rule:nonzero;stroke:none"
       id="text40"><tspan
         x="0 6.3222041 12.875306 19.725277 26.278379 30.973303"
         y="0"
         id="tspan38">Feder </tspan></text>
    <text
       xml:space="preserve"
       transform="matrix(1,0,0,-1,34.5553,283.1176)"
       style="font-variant:normal;font-weight:normal;font-stretch:normal;font-size:11px;font-family:Verdana;-inkscape-font-specification:Verdana;writing-mode:lr-tb;fill:#000000;fill-opacity:1;fill-rule:nonzero;stroke:none"
       id="text44"><tspan
         x="0 4.994 11.319 17.875 24.728001 31.284 35.980999"
         y="0"
         id="tspan42">(Feder)</tspan></text>
    <g
       id="g46"
       transform="translate(264.7,541.3)">
      <path
         d="M 0,0 -2,9.3 H 2.1 L 0,0 m 0,-26.9 2.1,-9.3 H -2 l 2,9.3 m -214,-23.3 9.4,2 v -4.1 l -9.4,2.1 m 340.4,0 -9.4,-2.1 v 4.1 l 9.4,-2 m -384.8,-197 9.3,2 v -4.1 l -9.3,2.1 m 97.5,0 -9.4,-2.1 v 4.1 l 9.4,-2"
         style="fill:none;stroke:#000000;stroke-width:0.51;stroke-linecap:butt;stroke-linejoin:miter;stroke-miterlimit:10;stroke-dasharray:none;stroke-opacity:1"
         id="path48" />
    </g>
    <g
       id="g50"
       transform="translate(372.5,812.8)">
      <path
         d="M 0,0 -5.2,-8 -8.1,-5.1 0,0 m -303.3,-303.3 5.2,8 2.9,-2.9 -8.1,-5.1"
         style="fill:none;stroke:#000000;stroke-width:0.51;stroke-linecap:butt;stroke-linejoin:miter;stroke-miterlimit:10;stroke-dasharray:none;stroke-opacity:1"
         id="path52" />
    </g>
    <g
       id="g54"
       transform="translate(219.9,662.1)">
      <path
         d="M 0,0 2,-2 M 0,-2 2,0 M 1,-2.4 V 0.5 M 2.4,-1 h -2.8 m -151.2,-150.6 2,-2 m -2,0 2,2 m -1,-2.5 v 2.9 m 1.4,-1.4 h -2.9 m 303.7,304.3 2,-2 m -2,0 2,2 m -1,-2.4 v 2.8 m 1.4,-1.4 h -2.8"
         style="fill:none;stroke:#c0c0c0;stroke-width:0.51;stroke-linecap:butt;stroke-linejoin:miter;stroke-miterlimit:10;stroke-dasharray:none;stroke-opacity:1"
         id="path56" />
    </g>
    <g
       id="g58"
       transform="translate(5.3,405.9)">
      <path
         d="M 0,0 2,-2 M 0,-2 2,0 M 1,-2.4 V 0.4 M 2.4,-1 h -2.9 m 97.9,1 2.1,-2 m -2.1,0 2.1,2 m -1,-2.4 V 0.4 M 99.9,-1 H 97"
         style="fill:none;stroke:#c0c0c0;stroke-width:0.51;stroke-linecap:butt;stroke-linejoin:miter;stroke-miterlimit:10;stroke-dasharray:none;stroke-opacity:1"
         id="path60" />
    </g>
    <g
       id="g62"
       transform="translate(372.5638,812.8741)">
      <path
         d="M 0,0 -303.261,-303.367"
         style="fill:none;stroke:#c0c0c0;stroke-width:0.51;stroke-linecap:butt;stroke-linejoin:miter;stroke-miterlimit:10;stroke-dasharray:43.2, 3.6, 3.6, 3.6;stroke-dashoffset:-3.875;stroke-opacity:1"
         id="path64" />
    </g>
    <g
       id="g66"
       transform="translate(220.9331,516.0757)">
      <path
         d="M 0,0 V 25.227"
         style="fill:none;stroke:#c0c0c0;stroke-width:0.51;stroke-linecap:butt;stroke-linejoin:miter;stroke-miterlimit:10;stroke-dasharray:43.2, 3.6, 3.6, 3.6;stroke-dashoffset:35.986;stroke-opacity:1"
         id="path68" />
    </g>
    <g
       id="g70"
       transform="translate(155.8,733.2)">
      <path
         d="M 0,0 V 0"
         style="fill:none;stroke:#000000;stroke-width:0.51;stroke-linecap:round;stroke-linejoin:round;stroke-miterlimit:10;stroke-dasharray:none;stroke-opacity:1"
         id="path72" />
    </g>
    <g
       id="g74"
       transform="translate(155.8,733.2)">
      <path
         d="M 0,0 -45.3,-27.7"
         style="fill:none;stroke:#000000;stroke-width:0.51;stroke-linecap:round;stroke-linejoin:round;stroke-miterlimit:10;stroke-dasharray:none;stroke-opacity:1"
         id="path76" />
    </g>
    <g
       id="g78"
       transform="translate(223.7,541.3)">
      <path
         d="M 0,0 H 43.9 M 0,-26.9 H 43.9 M 41,0 v 18 m 0,-44.9 v -18 M 41,0 v -6.8 m 0,-20.1 v 6.8 m -214,4 v -37 m 340.4,37.7 v -37.7 m -340.4,2.9 h 340.4 m -384.8,-89.1 v -110.8 m 97.5,110.8 v -110.8 m -97.5,2.9 h 97.5"
         style="fill:none;stroke:#000000;stroke-width:0.51;stroke-linecap:round;stroke-linejoin:round;stroke-miterlimit:10;stroke-dasharray:none;stroke-opacity:1"
         id="path80" />
    </g>
    <g
       id="g82"
       transform="translate(370.5,814.8)">
      <path
         d="m 0,0 v 0 m -303.3,-303.3 v 0 M 2,-2 -301.3,-305.3"
         style="fill:none;stroke:#000000;stroke-width:0.51;stroke-linecap:round;stroke-linejoin:round;stroke-miterlimit:10;stroke-dasharray:none;stroke-opacity:1"
         id="path84" />
    </g>
    <g
       id="g86"
       transform="translate(220.9,541.3)">
      <path
         d="M 0,0 V -26.9 M 170.2,253 V -12.6 m -340.4,-0.7 v 265.5"
         style="fill:none;stroke:#c0c0c0;stroke-width:0.51;stroke-linecap:round;stroke-linejoin:round;stroke-miterlimit:10;stroke-dasharray:none;stroke-opacity:1"
         id="path88" />
    </g>
    <g
       id="g90"
       transform="translate(109.3,704.8)">
      <path
         d="m 0,0 0.2,-0.3 0.2,-0.1 0.3,-0.2 0.2,-0.1 h 0.3 l 0.3,0.1 H 1.8 L 2,-0.4 2.2,-0.2 2.4,0 2.5,0.3 V 0.6 0.9 1.1 L 2.3,1.4 2.2,1.6 2,1.8 1.7,1.9 1.4,2 H 1.1 0.9 L 0.6,1.9 0.4,1.8 0.1,1.6 0,1.3 -0.1,1.1 -0.2,0.8 V 0.5 L -0.1,0.2 0,0 1.2,0.7"
         style="fill:#000000;fill-opacity:1;fill-rule:nonzero;stroke:none"
         id="path92" />
    </g>
    <g
       id="g94"
       transform="translate(264.7,541.3)">
      <path
         d="M 0,0 -2,9.3 H 2.1 M 0,-26.9 2.1,-36.2 H -2 m -212,-14 9.4,2 v -4.1 m 331,2.1 -9.4,-2.1 v 4.1 m -375.4,-199 9.3,2 v -4.1 m 88.2,2.1 -9.4,-2.1 v 4.1"
         style="fill:#000000;fill-opacity:1;fill-rule:nonzero;stroke:none"
         id="path96" />
    </g>
    <g
       id="g98"
       transform="translate(372.5,812.8)">
      <path
         d="m 0,0 -5.2,-8 -2.9,2.9 m -295.2,-298.2 5.2,8 2.9,-2.9"
         style="fill:#000000;fill-opacity:1;fill-rule:nonzero;stroke:none"
         id="path100" />
    </g>
  </g>
</svg>
