<?xml version="1.0" encoding="UTF-8" standalone="no"?>
<!-- Created with Inkscape (http://www.inkscape.org/) -->

<svg
   version="1.1"
   id="svg2"
   width="793.70135"
   height="1122.52"
   viewBox="0 0 793.70135 1122.52"
   xmlns="http://www.w3.org/2000/svg"
   xmlns:svg="http://www.w3.org/2000/svg">
  <defs
     id="defs6" />
  <g
     id="g8"
     transform="matrix(1.3333333,0,0,-1.3333333,0,1122.52)">
    <g
       id="g10"
       transform="translate(195.6,553)">
      <path
         d="m 0,0 v 0 0.1 0.4 0.5 0.7 0.8 2.6 2.2 2.9 5.8 1.8 1.8 1.9 0.7 0.5 0.5 0.3 0.3 0.1 l -0.1,0.3 v 0.1 h -0.1 v 0.1 0.1 h -0.1 v 0.1 m -2.6,0 L -3,24.5 V 24.4 H -3.1 V 24.3 24.2 L -3.2,24 V 23.9 23.7 23.4 23 22.5 22 20.9 17.6 15 11.1 7.4 6.2 4.5 2.3 1.5 0.7 0.2 0 m 0,23.5 v 0 V 23.4 23.1 22.6 22 21.3 19.4 17.9 M -3.2,0 v 0 m 0,0 0.1,-0.5 0.2,-0.4 0.2,-0.2 0.2,-0.2 0.4,-0.2 0.3,-0.1 h 0.3 l 0.5,0.1 0.3,0.2 0.3,0.3 0.3,0.4 L 0,0 m -118.5,28.3 -2.8,2.7 -2.6,2.4 -2.3,2 -2,1.6 -1.7,1.3 -1.5,1.2 -1.5,1 -1.4,0.8 -1.2,0.6 -1.1,0.4 -0.8,0.1 -0.3,-0.2 m 1.8,-0.2 1.1,1.1 2.9,2.9 0.5,0.5 0.6,0.6 1,1 0.9,0.9 1.1,1.1 1.3,1.3 1.5,1.5 1.6,1.6 1.6,1.6 3.2,3.2 3.2,3.2 2.9,2.9 2.8,2.8 2.6,2.6 2.3,2.3 1,1 0.8,0.8 0.8,0.9 0.4,0.3 0.1,0.1 0.2,0.3 0.1,0.2 v 0.1 l 0.1,0.1 v 0.1 0.1 0.1 0.1 0.1 0.2 l -0.1,0.3 -0.1,0.3 -0.3,0.3 -0.3,0.2 -0.1,0.1 h -0.1 l -0.3,0.1 h -0.3 -0.3 -0.1 l -0.1,-0.1 h -0.1 l -0.1,-0.1 h -0.1 l -0.2,-0.2 h -0.1 l -0.2,-0.3 -0.5,-0.5 -0.8,-0.8 -1.1,-1.1 -1.4,-1.3 -1.6,-1.6 -1.7,-1.8 -2,-1.9 -1.9,-2 -2,-1.9 -1.9,-2 -1.9,-1.8 -1.7,-1.8 -3.2,-3.1 -2.6,-2.7 -2.1,-2 -1.5,-1.5 -1,-1.1 -1.2,-1.1 -1.3,-1.3 -1.4,-1.4 -0.5,-0.6 -0.6,-0.5 -0.5,-0.6 -0.6,-0.6 -0.6,-0.5 -0.5,-0.6 -0.4,-0.4 -0.2,-0.3 -0.1,-0.1 v -0.1 -0.1 l -0.1,-0.2 v -0.2 l 0.1,-0.3 0.3,-0.2 0.4,-0.1 h 0.4 l 0.6,-0.1 1.1,-0.3 1.4,-0.7 1.7,-1 2.2,-1.4 2.6,-2 2.9,-2.4 3.2,-2.9 3.4,-3.3 m 0,0 2.8,-2.8 2.3,-2.6 2,-2.2 1.5,-1.9 1.2,-1.6 1.1,-1.5 1.8,-2.8 0.6,-1.3 0.5,-1.1 0.2,-0.9 0.1,-0.7 0.1,-0.5 0.3,-0.4 h 0.2 0.3 l 0.2,0.1 h 0.2 l 0.2,0.2 0.4,0.3 0.6,0.6 0.6,0.6 0.6,0.6 0.6,0.6 0.6,0.6 0.5,0.5 2.8,2.8 0.5,0.5 0.7,0.6 0.9,1 0.9,0.9 1.2,1.2 1.3,1.3 1.5,1.5 1.6,1.6 1.6,1.6 3.3,3.3 3.2,3.2 3,2.9 2.8,2.9 2.6,2.6 2.3,2.3 1,1 0.8,0.8 0.7,0.7 0.3,0.3 0.1,0.2 h 0.1 v 0.1 l 0.1,0.2 0.1,0.1 v 0.2 0.2 0.1 0.1 0.1 0.1 l -0.1,0.3 -0.2,0.4 -0.3,0.3 -0.4,0.2 H -69 l -0.1,0.1 h -0.2 -0.1 -0.2 -0.2 l -0.2,-0.1 -0.3,-0.1 -0.1,-0.1 h -0.1 v -0.1 l -0.3,-0.3 -0.6,-0.6 -0.9,-0.9 -1.2,-1.1 -1.3,-1.4 -1.6,-1.6 -1.8,-1.8 -1.9,-1.9 -2,-1.9 -1.9,-1.9 -1.9,-1.9 -1.8,-1.9 -1.7,-1.7 -3.1,-3.1 -2.6,-2.6 -2.1,-2 -1.5,-1.5 -1,-1.1 -1.2,-1.1 -1.2,-1.3 -1.4,-1.4 -0.5,-0.5 -0.6,-0.6 -0.2,-0.1 m 0.2,-1.8 v 0 l 0.2,0.5 -0.2,0.9 -0.6,1.4 -1,1.7 -1.5,2.2 -1.9,2.6 -2.5,3.1 -3,3.3 -3.4,3.5 m 0,233.7 2.8,2.9 2.3,2.5 2,2.4 1.7,1.9 1.3,1.7 1.1,1.6 1,1.5 0.8,1.3 0.6,1.3 0.4,1 0.1,0.8 -0.2,0.4 m -0.1,-1.9 1,-1 2.9,-2.9 0.6,-0.6 0.6,-0.6 0.9,-0.9 0.9,-1 1.2,-1.1 1.3,-1.3 1.4,-1.5 1.6,-1.5 1.6,-1.6 3.3,-3.3 3.1,-3.1 2.9,-2.9 2.8,-2.9 2.6,-2.6 2.3,-2.2 1,-1 0.9,-0.9 0.8,-0.8 0.4,-0.4 v -0.1 l 0.3,-0.2 0.2,-0.1 h 0.1 0.1 l 0.1,-0.1 h 0.1 0.1 0.1 0.1 0.3 l 0.3,0.1 0.2,0.2 0.4,0.3 0.1,0.2 0.1,0.1 v 0.2 l 0.1,0.3 v 0.2 0.3 0.1 l -0.1,0.1 v 0.1 0.2 l -0.1,0.1 -0.1,0.1 -0.1,0.1 -0.2,0.2 -0.5,0.6 -0.9,0.8 -1,1.1 -1.4,1.3 -1.6,1.6 -1.8,1.8 -1.9,1.9 -1.9,1.9 -2,2 -1.9,1.9 -1.9,1.9 -1.8,1.8 -3.1,3.1 -2.7,2.7 -2,2 -1.5,1.5 -1.1,1.1 -1.1,1.1 -1.3,1.3 -1.4,1.4 -0.5,0.6 -0.6,0.5 -0.6,0.6 -0.5,0.5 -0.6,0.6 -0.5,0.5 -0.4,0.4 -0.3,0.2 -0.2,0.1 h -0.1 l -0.1,0.1 h -0.2 -0.2 -0.2 l -0.3,-0.3 -0.1,-0.4 v -0.5 l -0.1,-0.6 -0.3,-1 -0.6,-1.4 -1.1,-1.8 -1.4,-2.2 -2,-2.5 -2.4,-3 -2.9,-3.2 -3.3,-3.4 m 0,0 -2.8,-2.7 -2.5,-2.4 -2.3,-1.9 -1.9,-1.6 -1.6,-1.2 -1.5,-1.1 -2.8,-1.7 -1.2,-0.7 -1.2,-0.4 -0.9,-0.3 h -0.7 l -0.5,-0.1 -0.3,-0.3 -0.1,-0.3 v -0.3 l 0.1,-0.2 0.1,-0.1 0.1,-0.3 0.3,-0.4 0.6,-0.5 0.6,-0.6 0.6,-0.6 0.6,-0.6 0.6,-0.6 0.6,-0.6 2.7,-2.7 0.6,-0.6 0.6,-0.6 0.9,-0.9 1,-1 1.1,-1.2 1.3,-1.3 1.5,-1.5 1.6,-1.6 1.7,-1.6 3.3,-3.3 3.1,-3.2 3,-2.9 2.8,-2.9 2.6,-2.6 2.3,-2.3 1,-0.9 0.8,-0.8 0.7,-0.8 0.3,-0.2 v -0.1 l 0.2,-0.1 0.1,-0.1 0.2,-0.1 h 0.2 l 0.2,-0.1 h 0.1 0.1 0.1 0.1 0.1 0.1 l 0.3,0.1 0.3,0.2 0.3,0.3 0.2,0.4 0.1,0.1 v 0.1 0.2 0.1 0.3 0.2 l -0.1,0.1 -0.1,0.3 -0.1,0.1 v 0.1 l -0.1,0.1 -0.3,0.3 -0.6,0.6 -0.9,0.9 -1.1,1.1 -1.4,1.4 -1.6,1.6 -1.8,1.8 -1.9,1.9 -1.9,1.9 -1.9,1.9 -1.9,1.9 -1.8,1.8 -1.8,1.8 -3.1,3.1 -2.6,2.6 -2,2 -1.5,1.5 -1,1 -1.2,1.2 -1.3,1.3 -1.3,1.3 -0.6,0.6 -0.5,0.5 -0.2,0.2 m -1.8,-0.2 v 0 l 0.5,-0.1 1,0.2 1.3,0.5 1.8,1 2.1,1.5 2.7,2 3,2.5 3.3,2.9 3.5,3.4 m 233.7,0 2.9,-2.7 2.6,-2.4 2.3,-2 2,-1.6 1.7,-1.3 1.5,-1.2 1.5,-0.9 1.4,-0.9 1.2,-0.6 1,-0.4 0.9,-0.1 0.3,0.2 m -1.9,0.2 -1,-1.1 -2.9,-2.9 -0.6,-0.5 -0.6,-0.6 -0.9,-1 -0.9,-0.9 -1.2,-1.1 -1.3,-1.3 -1.4,-1.5 -1.6,-1.6 -1.6,-1.6 -3.3,-3.2 -3.1,-3.2 -2.9,-2.9 -2.8,-2.8 -2.6,-2.6 -2.3,-2.3 -1,-1 -0.9,-0.8 -0.8,-0.8 -0.4,-0.4 v -0.1 l -0.2,-0.3 -0.2,-0.2 v -0.1 -0.1 -0.1 L 98,213.2 v -0.1 -0.1 -0.1 l 0.1,-0.2 0.1,-0.3 0.1,-0.3 0.3,-0.3 0.2,-0.2 0.2,-0.1 h 0.1 l 0.3,-0.1 h 0.3 0.3 l 0.1,0.1 h 0.1 0.1 l 0.1,0.1 h 0.1 l 0.2,0.2 h 0.1 l 0.2,0.3 0.5,0.5 0.8,0.8 1.1,1.1 1.3,1.3 1.6,1.6 1.8,1.8 1.9,1.9 2,2 1.9,1.9 2,2 1.8,1.8 1.8,1.8 3.2,3.2 2.6,2.6 2.1,2.1 1.5,1.5 1,1 1.1,1.1 1.3,1.3 1.4,1.4 0.6,0.6 0.5,0.5 0.6,0.6 0.6,0.6 0.5,0.5 0.6,0.6 0.4,0.4 0.2,0.3 v 0.1 l 0.1,0.1 v 0.1 0.2 0.2 0.3 l -0.3,0.2 -0.4,0.1 -0.5,0.1 H 136 l -1,0.3 -1.4,0.7 -1.8,1 -2.2,1.5 -2.5,1.9 -2.9,2.4 -3.3,2.9 -3.4,3.3 m 0,0 -2.7,2.8 -2.4,2.6 -1.9,2.2 -1.6,1.9 -1.2,1.6 -1.1,1.5 -1.7,2.8 -0.7,1.3 -0.4,1.1 -0.2,0.9 -0.1,0.8 -0.1,0.5 -0.3,0.3 h -0.3 -0.2 l -0.3,-0.1 h -0.1 l -0.3,-0.2 -0.3,-0.3 -0.6,-0.5 -0.6,-0.7 -0.6,-0.6 -0.6,-0.6 -0.6,-0.5 -0.6,-0.6 -2.7,-2.7 -0.6,-0.6 -0.6,-0.6 -0.9,-1 -1,-0.9 -1.1,-1.2 -1.4,-1.3 -1.5,-1.5 -1.5,-1.6 -1.7,-1.6 -3.3,-3.3 -3.1,-3.2 -3,-2.9 -2.8,-2.9 -2.7,-2.6 -2.2,-2.3 -1,-1 -0.8,-0.8 -0.7,-0.7 -0.3,-0.3 -0.2,-0.1 v -0.1 l -0.1,-0.1 -0.1,-0.2 v -0.1 l -0.1,-0.2 v -0.1 -0.2 -0.1 -0.1 l 0.1,-0.1 0.1,-0.3 0.2,-0.4 0.3,-0.3 0.4,-0.2 h 0.1 l 0.1,-0.1 h 0.1 0.2 0.2 0.2 l 0.2,0.1 0.2,0.1 0.2,0.1 0.1,0.1 0.3,0.3 0.6,0.6 0.9,0.9 1.1,1.1 1.4,1.4 1.6,1.6 1.8,1.8 1.9,1.9 1.9,1.9 1.9,2 1.9,1.8 1.9,1.9 1.7,1.7 3.1,3.1 2.6,2.6 2,2 1.5,1.5 1.1,1.1 1.1,1.1 1.3,1.3 1.4,1.4 0.5,0.5 0.6,0.6 0.1,0.1 m -0.2,1.8 v 0 l -0.1,-0.5 0.2,-0.9 0.6,-1.4 0.9,-1.7 1.5,-2.2 2,-2.6 2.5,-3 3,-3.4 3.3,-3.5 m 0,-233.7 -2.7,-2.8 -2.4,-2.6 -2,-2.3 -1.6,-2 -1.3,-1.7 -1.1,-1.6 -1,-1.4 -0.8,-1.4 -0.7,-1.3 -0.4,-1 V 9.4 L 101.3,9 m 0.2,1.9 -1,1 -2.9,2.9 -0.6,0.6 -0.6,0.6 -0.9,0.9 -1,1 -1.1,1.1 -1.3,1.3 -1.5,1.5 -1.5,1.5 -1.6,1.6 -3.3,3.3 -3.1,3.1 -2.9,2.9 -2.9,2.9 -2.6,2.6 -2.3,2.3 -1,1 -0.8,0.8 -0.8,0.8 -0.4,0.4 -0.1,0.1 -0.2,0.2 -0.3,0.1 h -0.1 l -0.1,0.1 H 66.5 66.4 66.3 66.2 66.1 65.9 L 65.6,45.4 65.3,45.2 65,44.9 64.8,44.7 v -0.1 l -0.1,-0.2 -0.1,-0.3 v -0.2 l 0.1,-0.3 v -0.1 -0.1 -0.1 l 0.1,-0.2 0.1,-0.1 0.1,-0.1 0.1,-0.1 0.2,-0.2 0.5,-0.5 0.8,-0.9 1.1,-1 1.4,-1.4 1.5,-1.6 1.8,-1.8 1.9,-1.9 2,-1.9 2,-2 1.9,-1.9 1.8,-1.9 1.8,-1.8 3.2,-3.1 2.6,-2.7 2.1,-2 1.5,-1.5 1,-1.1 1.2,-1.1 1.3,-1.3 1.3,-1.4 0.6,-0.5 0.6,-0.6 0.5,-0.6 0.6,-0.5 0.6,-0.6 0.5,-0.5 0.4,-0.4 0.3,-0.2 0.1,-0.1 h 0.1 l 0.1,-0.1 h 0.2 0.3 l 0.2,0.1 0.3,0.2 v 0.4 l 0.1,0.5 0.1,0.6 0.3,1 0.6,1.4 1,1.8 1.5,2.2 1.9,2.5 2.4,3 2.9,3.2 3.3,3.4 m 0,0 2.8,2.8 2.6,2.3 2.2,1.9 2,1.6 1.5,1.2 1.5,1.1 2.8,1.8 1.3,0.6 1.1,0.5 1,0.2 h 0.7 l 0.5,0.1 0.3,0.4 v 0.2 0.3 0.2 l -0.1,0.2 -0.2,0.2 -0.3,0.4 -0.5,0.5 -0.6,0.6 -0.6,0.6 -0.6,0.6 -0.6,0.6 -0.6,0.6 -2.7,2.7 -0.6,0.6 -0.6,0.6 -0.9,1 -1,0.9 -1.2,1.2 -1.3,1.3 -1.5,1.5 -1.6,1.6 -1.6,1.6 -3.3,3.3 -3.2,3.2 -2.9,2.9 -2.9,2.9 -2.6,2.6 -2.3,2.3 -0.9,0.9 -0.8,0.8 -0.8,0.8 -0.2,0.3 h -0.1 l -0.1,0.1 h -0.1 l -0.1,0.1 -0.2,0.1 h -0.1 l -0.2,0.1 H 99.8 99.6 99.5 99.4 99.3 L 99,78.8 98.6,78.6 98.3,78.3 98.1,77.9 V 77.8 77.7 L 98,77.5 v -0.1 -0.3 l 0.1,-0.2 v -0.1 l 0.2,-0.3 v -0.1 l 0.1,-0.1 v -0.1 l 0.3,-0.3 0.6,-0.6 0.9,-0.8 1.2,-1.2 1.3,-1.4 1.6,-1.6 1.8,-1.8 1.9,-1.8 1.9,-2 2,-1.9 1.9,-1.9 1.8,-1.8 1.7,-1.8 3.1,-3.1 2.6,-2.6 2.1,-2 1.5,-1.5 1,-1 1.1,-1.2 1.3,-1.3 1.4,-1.3 0.5,-0.6 0.6,-0.5 0.2,-0.2 m 1.8,0.2 v 0 l -0.6,0.1 -0.9,-0.2 -1.3,-0.5 -1.8,-1 -2.2,-1.5 -2.6,-2 -3,-2.5 -3.3,-2.9 -3.6,-3.4 m -56.1,12.6 5.5,3.5 m 1.8,1.1 0.4,0.3 7,5.2 6.3,5.4 5.6,5.5 5,5.6 5.4,6.8 1.8,2.8 m 1.2,1.7 1.4,2.1 3.7,6.4 3.1,5.9 2.7,6.1 2.1,5.5 1.8,5.5 1.5,5.5 1.3,5.7 1,5.8 0.7,5.9 0.6,10.4 -0.3,10.5 -1.2,10.5 -2.2,10.4 -3.1,10.1 -3.9,9.8 -4.8,9.4 -4.4,7.1 m -1.1,1.8 -0.1,0.1 -6.3,8.5 -7.1,7.8 -7.7,7.2 -8.3,6.5 -8.9,5.8 -9.3,5 -9.7,4.1 -10.1,3.3 -10.3,2.3 -10.4,1.5 -10.6,0.5 -10.6,-0.4 -10.5,-1.3 -10.3,-2.2 -10.1,-3.1 -9.8,-4 -9.4,-4.9 -6.4,-4 m -1.7,-1.1 -0.8,-0.5 -8.4,-6.4 -7.8,-7.1 -7.2,-7.8 -6.5,-8.4 -5.7,-8.9 -4.9,-9.3 -4,-9.8 -3.2,-10 -2.3,-10.4 -1.4,-10.4 -0.5,-10.6 0.5,-10.6 1.4,-10.4 2.3,-10.4 3.1,-10 4.1,-9.8 4.9,-9.4 3.7,-5.7 m 1,-1.7 1,-1.5 6.4,-8.3 7.2,-7.8 7.5,-6.9 7.8,-6 1.8,-1.2 m 1.7,-1.1 1,-0.7 4.6,-2.8 4.6,-2.6 4.7,-2.3 5.6,-2.5 6.7,-2.5 7.7,-2.4 7.7,-1.8 8.6,-1.4 9.3,-0.8 h 4.5 m 2.6,0 h 3.1 l 8.6,0.6 9.1,1.3 9.4,2.2 9.6,3 9.8,4.1 m -1.3,2.9 -8.3,-3.5 -8.1,-2.7 -7.8,-2 -7.5,-1.4 -7.2,-0.9 -8.4,-0.5 -7.8,0.1 -7.1,0.6 -6.4,0.9 -6.5,1.2 -5.6,1.4 -5.3,1.6 -5.3,1.8 -5.2,2.2 -5.2,2.4 -5.1,2.7 -8.6,5.3 -8.3,6.1 -7.7,6.8 -7.1,7.5 -6.3,8.1 -5.7,8.6 -4.9,9.1 -4,9.4 -3.3,9.8 -2.3,10 -1.5,10.2 -0.6,10.2 0.4,10.3 1.2,10.2 2.1,10.1 3,9.8 3.8,9.6 4.7,9.2 5.4,8.7 6.2,8.2 6.9,7.7 7.5,7 8.1,6.3 8.7,5.6 9.1,4.8 9.4,4 9.8,3.2 10,2.3 10.2,1.4 10.3,0.5 10.3,-0.4 10.2,-1.3 10.1,-2.2 9.8,-3 9.5,-3.9 9.1,-4.7 8.7,-5.5 8.2,-6.3 7.6,-6.9 7,-7.6 6.3,-8.1 5.5,-8.7 4.8,-9.1 3.9,-9.5 3.1,-9.8 2.2,-10 1.4,-9.9 0.4,-9.5 -0.1,-5.4 -0.3,-5.2 -0.5,-5 -0.7,-5.1 -1.2,-5.9 -1.7,-6.7 -2.4,-7.5 -2.8,-7.1 -3.7,-7.6 -4.5,-8 -5.6,-8.1 -5.4,-6.6 -6.1,-6.5 -6.9,-6.3 -7.8,-6 -8.7,-5.6 m -8.3,-8 2.2,1 1.3,0.3 h 0.3 V 36.8 H 53 v -0.2 l 0.1,-0.9 -0.2,-1.8 -1.6,-5.2 m 3,-1.2 1.1,3.1 0.6,2.4 0.3,1.8 v 1.9 l -0.4,1.4 -0.8,1.1 -0.4,0.3 -0.8,0.4 -1,0.2 -1.4,-0.1 -1.7,-0.5 -2.2,-1 M -1.6,25.3 -2.2,25.1 -2.8,24.8 -3.1,24.3 -3.2,23.7 -3.1,23 l 0.3,-0.5 0.6,-0.3 0.6,-0.1 0.6,0.1 0.5,0.3 0.4,0.5 0.1,0.7 -0.1,0.6 -0.4,0.5 -0.5,0.3 -0.6,0.2 M -102,76 l 0.5,0.4 0.2,0.6 v 0.7 l -0.3,0.5 -0.4,0.5 -0.6,0.2 h -0.6 l -0.6,-0.3 -0.4,-0.4 -0.3,-0.6 0.1,-0.6 0.2,-0.6 0.5,-0.4 0.5,-0.3 h 0.7 L -102,76 M -70.8,44.8 -71,44.2 v -0.6 l 0.2,-0.6 0.4,-0.4 0.6,-0.3 h 0.6 l 0.6,0.2 0.5,0.5 0.2,0.6 v 0.6 l -0.2,0.6 -0.4,0.4 -0.6,0.3 h -0.6 l -0.6,-0.2 -0.5,-0.5 m 0,200.7 0.5,-0.4 0.6,-0.3 h 0.6 l 0.6,0.3 0.4,0.4 0.2,0.6 v 0.7 l -0.2,0.5 -0.5,0.5 -0.6,0.2 h -0.6 l -0.6,-0.3 -0.4,-0.4 -0.2,-0.6 v -0.6 l 0.2,-0.6 m -31.2,-31.2 -0.5,0.3 h -0.7 l -0.5,-0.2 -0.5,-0.5 -0.2,-0.6 -0.1,-0.6 0.3,-0.6 0.4,-0.4 0.6,-0.3 h 0.6 l 0.6,0.2 0.4,0.5 0.3,0.6 v 0.6 l -0.2,0.6 -0.5,0.4 m 200.7,0 -0.4,-0.4 -0.2,-0.6 v -0.6 l 0.2,-0.6 0.5,-0.5 0.6,-0.2 h 0.6 l 0.6,0.3 0.4,0.4 0.2,0.6 v 0.6 l -0.2,0.6 -0.5,0.5 -0.6,0.2 h -0.6 l -0.6,-0.3 m -31.2,31.2 0.3,0.6 v 0.6 l -0.2,0.6 -0.5,0.4 -0.5,0.3 h -0.7 l -0.5,-0.2 -0.5,-0.5 -0.2,-0.5 -0.1,-0.7 0.3,-0.6 0.4,-0.4 0.6,-0.3 h 0.6 l 0.6,0.3 0.4,0.4 m 0,-200.7 -0.4,0.5 -0.6,0.2 h -0.6 l -0.6,-0.3 -0.4,-0.4 -0.3,-0.6 0.1,-0.6 0.2,-0.6 0.5,-0.5 0.5,-0.2 h 0.7 l 0.5,0.3 0.5,0.4 0.2,0.6 v 0.6 l -0.3,0.6 M 98.7,76 99.3,75.7 h 0.6 l 0.6,0.3 0.5,0.4 0.2,0.6 v 0.6 l -0.2,0.6 -0.4,0.4 -0.6,0.3 H 99.4 L 98.8,78.7 98.3,78.2 98.1,77.7 V 77 L 98.3,76.4 98.7,76 M 59.1,40.9 59,41 l -0.2,0.3 -0.2,0.4 -0.3,0.5 -0.4,0.6 -0.2,0.4 -0.2,0.3 -0.1,0.1 m -8.2,-7.9 v 0 l -0.1,0.2 -0.2,0.3 -0.2,0.4 -0.2,0.5 m -0.7,1.5 v 0 l 0.1,-0.2 0.1,-0.3 0.2,-0.4 0.3,-0.5 v -0.1 m 2.8,-8.4 0.1,-0.1 0.3,-0.1 0.5,-0.2 0.6,-0.2 0.5,-0.2 0.5,-0.2 0.4,-0.2 h 0.1 m -172.8,0.8 -0.1,-0.1 -0.2,-0.2 -0.4,-0.4 -0.4,-0.4 -0.5,-0.5 -0.3,-0.4 -0.3,-0.2 -0.1,-0.1 m 2.3,236 -0.1,0.1 -0.2,0.3 -0.4,0.3 -0.4,0.5 -0.5,0.4 -0.3,0.4 -0.3,0.2 -0.1,0.1 m 236,-2.3 0.1,0.1 0.3,0.3 0.3,0.3 0.5,0.5 0.4,0.4 0.4,0.4 0.2,0.2 0.1,0.1 m -2.3,-236 0.1,-0.1 0.3,-0.2 0.3,-0.4 0.5,-0.4 0.4,-0.5 0.4,-0.4 0.2,-0.2 0.1,-0.1"
         style="fill:none;stroke:#000000;stroke-width:0.709;stroke-linecap:round;stroke-linejoin:round;stroke-miterlimit:10;stroke-dasharray:none;stroke-opacity:1"
         id="path12" />
    </g>
    <g
       id="g14"
       transform="translate(195.6,553)">
      <path
         d="M 0,0 V 0"
         style="fill:none;stroke:#000000;stroke-width:0.709;stroke-linecap:round;stroke-linejoin:round;stroke-miterlimit:10;stroke-dasharray:none;stroke-opacity:1"
         id="path16" />
    </g>
    <g
       id="g18"
       transform="translate(278.2,493.1)">
      <path
         d="m 0,0 v -2.2 m 0,-1.9 v -1.2 -4 -2.9 -2.5 -0.7 -0.8 l 0.1,-1 0.4,-1.2 0.6,-0.9 0.7,-0.6 0.8,-0.4 1.1,-0.2 h 1 4.4 4.3 2.1 0.4 l 0.2,0.1 0.2,-0.1 0.1,-0.1 0.1,-0.2 0.1,-0.3 0.1,-0.4 v -0.7 -0.9 -1.6 -4.4 -2 -0.8 -0.5 l -0.1,-0.3 -0.1,-0.3 -0.1,-0.2 v -0.1 l -0.2,-0.1 h -0.1 -0.2 -0.2 l -2,0.1 H 11.5 9.4 7.3 5.8 L 4.2,-33.4 H 2.9 L 2,-33.8 1.3,-34.4 0.7,-35.2 0.3,-36.1 0,-37.6 v -1.5 -2.4 -3.2 -4.2 -0.8 m 0,-1.9 v -2.3 m 3.2,0 v 5.4 4.1 3 2.9 0.8 l 0.1,0.4 0.1,0.3 0.1,0.2 0.1,0.2 0.1,0.1 H 3.8 3.9 L 6,-36.6 h 2.2 1.6 1.7 1.7 1.8 l 1.4,0.1 1,0.2 0.6,0.2 0.3,0.3 0.4,0.3 0.4,0.5 0.4,0.7 0.2,0.8 0.2,1.8 v 1.4 1.5 3.2 3 0.5 0.5 l -0.1,0.7 -0.2,1 -0.4,0.8 -0.4,0.6 -0.4,0.4 -0.2,0.2 -0.2,0.1 -0.4,0.2 -1.2,0.3 H 15.2 13.8 10.5 8.4 6.3 5.1 4.1 3.9 3.8 3.7 l -0.2,0.1 -0.1,0.2 -0.1,0.3 -0.1,0.2 v 0.3 0.5 0.8 1.9 3.4 4.3 5.3 m -65.5,1.4 v -10.3 -1.3 m 0,-69.2 v -1.7 -2.2 -1.6 m -22,84.4 2.6,-0.2 2.5,-0.4 4.4,-1.6 3.5,-2 2.7,-2.4 2.2,-2.5 1.6,-2.5 1.1,-2.4 0.8,-2.5 0.5,-2.8 0.1,-3 v -1.6 -1.6 -5.4 -5.4 -5.3 -8.1 -8.1 -7.9 -2.8 -2.7 -1.7 -2 -2.2 -1.7 -1.8 -1.6 -1.4 -1.1 -0.7 m 3.2,0.6 v 0 0.3 0.9 1.2 1.6 1.9 2 2.2 2.2 4.5 4.2 3.7 3.3 3 3.1 7.5 7.9 6.9 3.4 3.1 l -0.1,3.1 -0.5,2.7 -0.7,2.4 -0.9,2.1 -1,2.1 -1.4,2.2 -1.9,2.3 -2.4,2.3 -3.1,2.2 -3.7,1.8 -4.5,1.4 -5,0.5 m 25.2,-87.5 v 0.9 1 2.7 2.9 3 2.9 2.5 4.4 1 m 0,22 v 3.1 3.8 3.6 3.7 3.8 4.8 5.8 6.7 7.6 m -3.2,-87.1 0.1,-0.3 0.1,-0.3 0.2,-0.3 0.2,-0.3 0.6,-0.3 0.2,-0.1 h 0.2 0.1 0.2 l 0.1,0.1 0.3,0.1 0.2,0.1 0.2,0.3 0.3,0.6 0.2,0.9 v 1 m -50.4,85.6 v -10.3 -9.2 -8.2 -7.2 -6.2 -5.1 -3.5 -4.2 -4.9 -5.5 -3 -0.7 m 0,-12.5 v -1.9 -2.2 -1.6 m 25.2,87.5 -2.8,-0.2 -2.6,-0.4 -4.6,-1.5 -3.9,-2 -3.1,-2.4 -2.4,-2.5 -2,-2.7 -1.4,-2.6 -1.1,-2.6 -0.8,-2.8 -0.4,-3.1 -0.1,-3.3 v -3.2 -6.6 -6.6 -8.5 -8.4 -8.4 -2.4 -2.3 -2.2 -2.2 -2.7 -1.7 -1.8 -1.7 -1.5 -1.1 -0.6 m 3.2,-0.7 v 0 0.4 0.8 1.2 1.6 1.7 2 2 2.2 4.4 4.2 3.7 3.3 2.9 2.9 7.2 7.7 2.6 2.7 2.7 2.7 2.6 3 l 0.2,2.6 0.5,2.4 0.7,2 0.8,1.8 1.1,1.9 1.5,2.2 2.1,2.2 2.7,2.1 3.4,1.9 4.2,1.3 4.8,0.6 m -22,-84.4 v 0.9 1 2.7 2.9 3 2.8 2.5 4.4 1.6 m 0,52.9 v 4 7.6 m -3.2,-84.1 v -2 l 0.1,-1.1 0.1,-0.6 0.1,-0.3 0.1,-0.1 h 0.1 v -0.1 h 0.1 V -87 l 0.2,-0.1 0.5,-0.2 h 0.1 0.1 0.1 0.2 l 0.2,0.1 0.4,0.1 0.4,0.4 0.2,0.6 0.2,0.8 m -99.2,86.7 v -7.3 -6.3 -5.2 -4.1 -3.4 -3.4 -3.4 -9.8 -9.8 -11.4 -2.8 l -0.3,-2.7 -0.7,-2.7 -1,-2.5 -1.5,-2.4 -1.7,-2.2 -2.1,-1.9 -2.4,-1.6 -2.5,-1.2 -2.7,-0.9 -2.8,-0.4 h -2.7 l -2.7,0.3 -2.5,0.7 -2.4,1 -2.3,1.3 -2,1.6 -1.7,1.8 -1.6,2 -1.2,2.3 -1.5,4.1 -1.1,4.8 -1.2,5 -1.2,5 -1.1,4.8 -0.9,3.8 -0.9,3.7 -0.8,3.5 -0.8,3.4 -0.8,3.3 -1,4.1 -0.3,1.6 -0.1,1.6 0.2,1.8 0.4,2.1 0.8,4.5 0.8,4.6 0.5,2.4 0.4,2.2 0.3,2 0.3,1.9 0.3,1.6 0.2,1.2 0.2,0.8 V 1.1 M -252.8,1 V 0.8 l -0.2,-0.7 -0.2,-1.1 -0.2,-1.4 -0.3,-1.6 -0.3,-1.7 -0.3,-1.8 -0.3,-1.7 -0.6,-3.3 -0.5,-2.8 -0.5,-2.4 -0.4,-2.4 -0.3,-1.7 -0.3,-1.9 v -2.1 l 0.9,-4.3 1,-4.1 1,-4.1 0.9,-4 5.2,-21.8 0.9,-3.6 0.9,-3.6 1.4,-3.7 1.5,-2.5 1.8,-2.3 2.1,-2 2.4,-1.8 2.5,-1.4 2.7,-1.1 2.8,-0.8 2.8,-0.3 h 2.9 l 2.9,0.3 2.8,0.7 2.7,1.1 2.5,1.4 2.2,1.7 2,1.8 1.7,2 2.5,4.3 1.5,4.8 0.4,4.5 v 4.4 5 3.8 m 0,1.9 v 0.7 7.6 8.8 10 11.3 7 m 0,1.9 v 3.6 m -54.7,-28.2 0.1,-0.7 0.7,-2.8 0.7,-2.9 0.7,-3.2 1.3,-5.3 1.3,-5.7 1.2,-5.1 1.2,-5 1.2,-5 1.2,-4.9 m 45.1,65.7 v 3.1 m 140,0 v -3.1 m 0,-3.2 v -0.7 -4.6 m 0,-67.7 v -1.4 -1.7 -1.6 -1.3 -1 m 0,-0.4 0.2,-0.9 0.4,-0.7 0.6,-0.3 m 2,3 v 1.5 m 0,-2.1 v 1.6 2.2 2.6 3 3.1 3.2 4.9 m 0,26.1 v 4.6 m 0,2.8 v 4.4 8.2 9.2 4 m 0,3.2 v 3.1 m -50.4,0 v -3.1 m 0,-3.2 v -0.7 -6 -5.1 -4.1 -3.3 m 0,-3.2 v -4.6 m 0,-45.9 v -1.4 -1.7 -1.6 -1.3 -1 M 33.7,1.4 v -3.1 m 0,-3.2 v -1.4 -6.5 -5.3 -4.1 -3.6 -3.6 -3.7 -15.8 m 0,-3.2 v -1.5 -3.8 -3.8 -3.9 l 0.2,-3 0.7,-3 1,-2.9 1.5,-2.6 1.7,-2.5 2.1,-2.2 2.4,-1.9 2.5,-1.6 2.8,-1.2 2.8,-0.8 2.9,-0.4 3,-0.1 2.8,0.3 2.8,0.7 2.6,1 2.5,1.3 2.4,1.7 2,1.9 1.9,2.1 1.6,2.5 1.9,4.4 1.2,4.8 1.2,4.9 1.2,5.1 1.1,4.9 1,4 0.9,3.8 0.9,3.6 0.8,3.6 0.8,3.3 0.9,4 0.3,1.1 0.3,1.3 0.2,1.4 v 1.6 l -0.2,1.6 -0.2,1.4 -0.9,4.6 -0.4,2.4 -0.4,2.4 -0.5,2.4 -0.4,2.3 -0.4,2.1 -0.3,1.9 -0.3,1.7 L 84.4,0 84.2,0.8 V 1 M 81,1.1 V 0.8 l 0.1,-0.7 0.2,-1.1 0.3,-1.3 0.2,-1.5 0.3,-1.7 0.6,-3.3 0.6,-3.3 0.5,-2.8 0.4,-2.4 0.4,-2.3 0.5,-2.4 0.3,-2.4 -0.2,-2.5 -0.8,-2.9 -0.7,-3 -1.6,-7 -2.5,-10.5 -2.5,-10.5 -0.9,-3.5 -0.8,-3.6 -1,-3.4 -1,-2.4 -1.4,-2.3 -1.7,-2 -2,-1.9 -2.2,-1.5 -2.4,-1.2 -2.6,-0.9 -2.7,-0.5 -2.7,-0.1 -2.8,0.3 -2.6,0.7 -2.6,1 -2.3,1.3 -2,1.6 -1.7,1.7 -1.4,1.9 -2.1,3.9 -1.1,4.3 -0.2,3.6 v 3.8 4.4 3.5 m 0,3.2 v 4.9 7.2 8.2 9.1 10 4.6 m 0,3.2 v 3.1 m 48.3,-28.1 -0.4,-1.8 -0.7,-2.8 -0.7,-2.9 -1.2,-5.1 -1.3,-5.5 -1.5,-6.3 -1.5,-6.2 -1.5,-6.2 -1,-4.5 M 36.9,-1.7 V 1.4 M 27.6,-48.9 H 23.2 18.1 12.7 7 3.2 m -3.2,0 h -4.5 -6.6 -6.2 -5.6 -5.2 -5.3 -9.4 -9.8 -6.5 m -3.2,0 h -0.4 -10.5 -10.5 -10.5 -10.5 -1.6 m -3.2,0 h -5.4 -9.8 -9.1 -8.5 -7.7 -4 -4.4 -4.8 -5.2 -5.3 -5.4 -5.4 -5.1 -4.6 -3 -2.6 -1.9 -0.6 m 0,-3.2 h 0.4 1.5 2 2.4 3.5 3.9 4 5 4.7 4.5 4.2 4.5 7.9 8.7 9.1 9.7 10 6.8 m 3.2,0 h 0.3 10.4 10.5 10.2 9.8 2.8 m 3.2,0 h 3.3 8.8 4.5 5.1 5.8 6.2 6.7 6.9 7.2 4.6 m 3.2,0 h 6.5 5 4.8 4.3 3.8 m -0.2,0 h 0.8 0.9 0.5 0.5 0.5 0.6 0.6 0.6 1.4 1.5 1.6 m 0,3.2 H 34.3 33 31.8 31.2 30.6 30 h -0.5 -1.1 -1 m 0.2,47.2 H 23.2 18.1 12.7 7 3.2 m -3.2,0 h -4.5 -6.6 -6.2 -5.6 -5.2 -5.3 -9.4 -9.8 -6.5 m -3.2,0 h -0.4 -7.4 m -7.5,0 h -6.1 -7.3 m -7.5,0 h -6.2 -1.6 m -3.2,0 h -5.4 -9.8 -9.1 -8.5 -7.7 -4 -4.4 -4.8 -5.2 -5.3 -5.4 -5.4 -5.1 -4.6 -3 -2.6 -1.9 -0.6 m 0,-3.2 h 0.4 1.5 2 2.4 3.5 3.9 4 5 4.7 4.5 4.2 4.5 7.9 8.7 9.1 9.7 10 6.8 m 3.2,0 h 0.3 3.6 m 4.9,0 h 1.9 10.5 10.2 3.8 m 4.8,0 h 1.2 2.8 m 3.2,0 h 3.3 8.8 4.5 5.1 5.8 6.2 6.7 6.9 7.2 4.6 m 3.2,0 h 6.5 5 4.8 4.3 3.8 m -0.2,0 h 0.8 0.9 0.5 0.5 0.5 0.6 0.6 0.6 1.4 1.5 1.6 m 0,3.2 H 34.3 33 31.8 31.2 30.6 30 29.5 28.4 27.4 M 0,0 V 0 H 0.1 0.5 1 1.6 2.2 2.7 3.1 3.2 M 0,-53.9 v 0 H 0.1 0.5 1 1.6 2.2 2.7 3.1 3.2 M -62.3,1.4 v 0 h 0.3 0.4 0.6 0.6 0.6 0.4 0.3 m -47.2,0 v 0 m -3.2,0 v 0 h 0.3 0.4 0.6 0.6 0.6 0.4 0.3 m -99.2,0 v 0 h 0.3 0.4 0.6 0.6 0.6 0.4 0.3 m -47.3,-0.5 v 0.2 l -0.1,0.6 -0.3,0.5 -0.6,0.3 -0.6,0.2 -0.6,-0.2 -0.5,-0.3 -0.4,-0.5 -0.1,-0.6 M 33.7,1.4 v 0 h 0.3 0.4 0.6 0.6 0.6 0.4 0.3 M 81,0.9 v 0.2 l 0.1,0.6 0.3,0.5 0.6,0.3 0.6,0.2 0.6,-0.2 0.5,-0.3 0.4,-0.5 0.1,-0.6 M 27.5,-52.1 v 0 h 0.1 l 0.5,0.1 0.4,0.3 0.3,0.4 0.2,0.5 v 0.6 l -0.2,0.5 -0.3,0.4 -0.5,0.3 -0.5,0.1 m 10.9,-1.6 -0.1,-0.7 -0.3,-0.5 -0.5,-0.3 -0.6,-0.1 -0.5,0.1 -0.5,0.3 -0.3,0.5 -0.1,0.7 0.1,0.6 0.3,0.5 0.5,0.3 0.5,0.2 0.6,-0.2 0.5,-0.3 0.3,-0.5 0.1,-0.6 M 27.5,-4.9 v 0 h 0.1 l 0.5,0.1 0.4,0.3 0.3,0.5 0.2,0.5 V -3 l -0.2,0.5 -0.3,0.4 -0.5,0.3 -0.5,0.1 m 10.9,-1.6 -0.1,-0.6 -0.3,-0.5 -0.5,-0.4 -0.6,-0.1 -0.5,0.1 -0.5,0.4 -0.3,0.5 -0.1,0.6 0.1,0.6 0.3,0.5 0.5,0.4 0.5,0.1 0.6,-0.1 0.5,-0.4 0.3,-0.5 0.1,-0.6 m -122.7,6 V 2.5 2.2 1.7 1.1 0.4 -0.1 -0.4 -0.5"
         style="fill:none;stroke:#000000;stroke-width:0.709;stroke-linecap:round;stroke-linejoin:round;stroke-miterlimit:10;stroke-dasharray:none;stroke-opacity:1"
         id="path20" />
    </g>
    <text
       xml:space="preserve"
       transform="matrix(0.70664787,0.70664787,0.70710678,-0.70710678,178.9046,686.3881)"
       style="font-variant:normal;font-weight:normal;font-stretch:normal;font-size:11px;font-family:Verdana;-inkscape-font-specification:Verdana;writing-mode:lr-tb;fill:#000000;fill-opacity:1;fill-rule:nonzero;stroke:none"
       id="text24"><tspan
         x="0 7.5191417 15.994665 20.985439 28.504581 36.980106 41.970879"
         y="0"
         id="tspan22">AD(AD) </tspan></text>
    <text
       xml:space="preserve"
       transform="matrix(0.99955,0,0,-1,112.71536,553.7559)"
       style="font-variant:normal;font-weight:normal;font-stretch:normal;font-size:11px;font-family:Verdana;-inkscape-font-specification:Verdana;writing-mode:lr-tb;fill:#000000;fill-opacity:1;fill-rule:nonzero;stroke:none"
       id="text28"><tspan
         x="0 7.5206141 13.249035 20.208902 26.816927 32.545349 39.505215 43.837265"
         y="0"
         id="tspan26">Schacht </tspan></text>
    <text
       xml:space="preserve"
       transform="matrix(0.999887,0,0,-1,107.7121,540.3909)"
       style="font-variant:normal;font-weight:normal;font-stretch:normal;font-size:11px;font-family:Verdana;-inkscape-font-specification:Verdana;writing-mode:lr-tb;fill:#000000;fill-opacity:1;fill-rule:nonzero;stroke:none"
       id="text32"><tspan
         x="0 4.9934359 12.516585 18.246939 25.20915 31.819405 37.549755 44.511971 48.845478"
         y="0"
         id="tspan30">(Schacht)</tspan></text>
    <text
       xml:space="preserve"
       transform="matrix(0.999986,0,0,-1,198.11005,560.5539)"
       style="font-variant:normal;font-weight:normal;font-stretch:normal;font-size:11px;font-family:Verdana;-inkscape-font-specification:Verdana;writing-mode:lr-tb;fill:#000000;fill-opacity:1;fill-rule:nonzero;stroke:none"
       id="text36"><tspan
         x="0 7.5238948 11.857834 18.820736 23.154676 28.929594 35.485504 40.479435 48.003326 52.337269 59.300171 63.634109 69.409027 75.964935 80.95887"
         y="0"
         id="tspan34">Stütze(Stütze) </tspan></text>
    <text
       xml:space="preserve"
       transform="matrix(1.000475,0,0,-1,137.4561,759.0159)"
       style="font-variant:normal;font-weight:normal;font-stretch:normal;font-size:11px;font-family:'Century Gothic';-inkscape-font-specification:CenturyGothic;writing-mode:lr-tb;fill:#000000;fill-opacity:1;fill-rule:nonzero;stroke:none"
       id="text40"><tspan
         x="0 5.4806023 9.2113733 16.727942 24.233505 28.294434 33.775036 37.505806 45.022377 52.527939"
         y="0"
         id="tspan38">Stab(Stab)</tspan></text>
    <text
       xml:space="preserve"
       transform="matrix(0.999558,0,0,-1,32.998389,389.5809)"
       style="font-variant:normal;font-weight:normal;font-stretch:normal;font-size:11px;font-family:Verdana;-inkscape-font-specification:Verdana;writing-mode:lr-tb;fill:#000000;fill-opacity:1;fill-rule:nonzero;stroke:none"
       id="text44"><tspan
         x="0 6.3222041 12.875306 19.725277 26.278379 30.973303"
         y="0"
         id="tspan42">Feder </tspan></text>
    <text
       xml:space="preserve"
       transform="matrix(1,0,0,-1,27.9951,376.2159)"
       style="font-variant:normal;font-weight:normal;font-stretch:normal;font-size:11px;font-family:Verdana;-inkscape-font-specification:Verdana;writing-mode:lr-tb;fill:#000000;fill-opacity:1;fill-rule:nonzero;stroke:none"
       id="text48"><tspan
         x="0 4.994 11.319 17.875 24.728001 31.284 35.980999"
         y="0"
         id="tspan46">(Feder)</tspan></text>
    <text
       xml:space="preserve"
       transform="matrix(0.999435,0,0,-1,172.95091,362.8509)"
       style="font-variant:normal;font-weight:normal;font-stretch:normal;font-size:11px;font-family:Verdana;-inkscape-font-specification:Verdana;writing-mode:lr-tb;fill:#000000;fill-opacity:1;fill-rule:nonzero;stroke:none"
       id="text52"><tspan
         x="0 7.5197492 15.995957 20.987135 28.506884 36.983093 41.97427"
         y="0"
         id="tspan50">AD(AD) </tspan></text>
    <g
       id="g54"
       transform="translate(238.5,578.3)">
      <path
         d="M 0,0 -2,9.3 H 2.1 L 0,0 m 0,-26.9 2.1,-9.3 H -2 l 2,9.3 m -217.5,-164.3 -9.4,-2 v 4.1 l 9.4,-2.1 m 54.9,0 9.4,2.1 v -4.1 l -9.4,2 m -54.9,-26.6 9.3,2 v -4.1 l -9.3,2.1 m 345.8,0 -9.3,-2.1 v 4.1 l 9.3,-2"
         style="fill:none;stroke:#000000;stroke-width:0.51;stroke-linecap:butt;stroke-linejoin:miter;stroke-miterlimit:10;stroke-dasharray:none;stroke-opacity:1"
         id="path56" />
    </g>
    <g
       id="g58"
       transform="translate(54.4,551.3)">
      <path
         d="M 0,0 9.3,2.1 V -2 L 0,0 m 279.6,0 -9.4,-2 V 2.1 L 279.6,0"
         style="fill:none;stroke:#000000;stroke-width:0.51;stroke-linecap:butt;stroke-linejoin:miter;stroke-miterlimit:10;stroke-dasharray:none;stroke-opacity:1"
         id="path60" />
    </g>
    <g
       id="g62"
       transform="translate(70.3,574.5)">
      <path
         d="M 0,0 5.2,8.1 8.1,5.2 0,0 m 247.3,247.3 -5.2,-8.1 -2.8,2.9 8,5.2"
         style="fill:none;stroke:#000000;stroke-width:0.51;stroke-linecap:butt;stroke-linejoin:miter;stroke-miterlimit:10;stroke-dasharray:none;stroke-opacity:1"
         id="path64" />
    </g>
    <g
       id="g66"
       transform="translate(193,699.2)">
      <path
         d="M 0,0 2,-2 M 0,-2 2,0 M 1,-2.5 V 0.4 M 2.4,-1 h -2.8 m -123.3,-122.7 2,-2 m -2,0 2,2 m -1,-2.4 v 2.8 m 1.5,-1.4 h -2.9 m 247.7,248.3 2,-2 m -2,0 2,2 m -1,-2.4 v 2.8 m 1.4,-1.4 h -2.8 m -246.9,-246.3 2,-2 m -2,0 2,2 m -1,-2.4 v 2.8 m 1.5,-1.4 h -2.9"
         style="fill:none;stroke:#c0c0c0;stroke-width:0.51;stroke-linecap:butt;stroke-linejoin:miter;stroke-miterlimit:10;stroke-dasharray:none;stroke-opacity:1"
         id="path68" />
    </g>
    <g
       id="g70"
       transform="translate(19.9,469.4)">
      <path
         d="M 0,0 2.1,-2 M 0,-2 2.1,0 m -1,-2.4 V 0.4 M 2.5,-1 h -2.9 m 346.3,1.5 2,-2 m -2,0 2,2 m -1,-2.4 v 2.8 m 1.5,-1.4 h -2.9 M 55,0 57,-2 m -2,0 2,2 M 56,-2.4 V 0.4 M 57.5,-1 h -2.9 m 236.4,1.5 2,-2 m -2,0 2,2 m -1,-2.4 v 2.8 m 1.4,-1.4 h -2.9"
         style="fill:none;stroke:#c0c0c0;stroke-width:0.51;stroke-linecap:butt;stroke-linejoin:miter;stroke-miterlimit:10;stroke-dasharray:none;stroke-opacity:1"
         id="path72" />
    </g>
    <g
       id="g74"
       transform="translate(317.6637,821.8372)">
      <path
         d="M 0,0 -247.267,-247.267"
         style="fill:none;stroke:#c0c0c0;stroke-width:0.51;stroke-linecap:butt;stroke-linejoin:miter;stroke-miterlimit:10;stroke-dasharray:43.2, 3.6, 3.6, 3.6;stroke-dashoffset:8.756;stroke-opacity:1"
         id="path76" />
    </g>
    <g
       id="g78"
       transform="translate(194.0304,578.3165)">
      <path
         d="M 0,0 V -26.834"
         style="fill:none;stroke:#c0c0c0;stroke-width:0.51;stroke-linecap:butt;stroke-linejoin:miter;stroke-miterlimit:10;stroke-dasharray:43.2, 3.6, 3.6, 3.6;stroke-dashoffset:35.183;stroke-opacity:1"
         id="path80" />
    </g>
    <g
       id="g82"
       transform="translate(135.9,763.3)">
      <path
         d="M 0,0 V 0"
         style="fill:none;stroke:#000000;stroke-width:0.51;stroke-linecap:round;stroke-linejoin:round;stroke-miterlimit:10;stroke-dasharray:none;stroke-opacity:1"
         id="path84" />
    </g>
    <g
       id="g86"
       transform="translate(135.9,763.3)">
      <path
         d="M 0,0 -53,-22.6"
         style="fill:none;stroke:#000000;stroke-width:0.51;stroke-linecap:round;stroke-linejoin:round;stroke-miterlimit:10;stroke-dasharray:none;stroke-opacity:1"
         id="path88" />
    </g>
    <g
       id="g90"
       transform="translate(196.8,578.3)">
      <path
         d="M 0,0 H 44.6 M 0,-26.9 H 44.6 M 41.7,0 v 18 m 0,-44.9 v -18 m 0,44.9 v -6.8 m 0,-20.1 v 6.8 m -217.5,-92.7 V -194 m 54.9,81.2 V -194 m -54.9,2.8 h -18 m 18,0 h 54.9 m 0,0 h 18 m -72.9,78.4 V -220.7 M 170,-112.2 v -108.5 m -345.8,2.9 H 170"
         style="fill:none;stroke:#000000;stroke-width:0.51;stroke-linecap:round;stroke-linejoin:round;stroke-miterlimit:10;stroke-dasharray:none;stroke-opacity:1"
         id="path92" />
    </g>
    <g
       id="g94"
       transform="translate(54.4,587.7)">
      <path
         d="M 0,0 V -39.2 M 279.6,12.2 V -39.2 M 0,-36.4 h 279.6"
         style="fill:none;stroke:#000000;stroke-width:0.51;stroke-linecap:round;stroke-linejoin:round;stroke-miterlimit:10;stroke-dasharray:none;stroke-opacity:1"
         id="path96" />
    </g>
    <g
       id="g98"
       transform="translate(68.3,576.5)">
      <path
         d="m 0,0 v 0 m 247.3,247.3 v 0 M 2,-2 249.3,245.3"
         style="fill:none;stroke:#000000;stroke-width:0.51;stroke-linecap:round;stroke-linejoin:round;stroke-miterlimit:10;stroke-dasharray:none;stroke-opacity:1"
         id="path100" />
    </g>
    <g
       id="g102"
       transform="translate(334,805.4)">
      <path
         d="m 0,0 v -202.7 m -247.7,-44.1 -31.9,31.9 M -32.7,32.7 0,0 m -140,-227.1 v 0 m -139.6,227 v -214.8"
         style="fill:none;stroke:#c0c0c0;stroke-width:0.51;stroke-linecap:round;stroke-linejoin:round;stroke-miterlimit:10;stroke-dasharray:none;stroke-opacity:1"
         id="path104" />
    </g>
    <g
       id="g106"
       transform="translate(81.7,740.1)">
      <path
         d="m 0,0 0.1,-0.2 0.2,-0.2 0.2,-0.2 0.3,-0.1 0.3,-0.1 h 0.3 l 0.2,0.1 0.3,0.1 0.2,0.1 0.2,0.3 L 2.5,0 2.6,0.3 V 0.5 0.8 L 2.5,1.1 2.4,1.3 2.2,1.6 1.9,1.7 1.7,1.9 H 1.4 1.1 0.8 L 0.6,1.8 0.3,1.6 0.2,1.4 0,1.1 -0.1,0.9 V 0.6 0.3 L 0,0 1.2,0.6"
         style="fill:#000000;fill-opacity:1;fill-rule:nonzero;stroke:none"
         id="path108" />
    </g>
    <g
       id="g110"
       transform="translate(238.5,578.3)">
      <path
         d="M 0,0 -2,9.3 H 2.1 M 0,-26.9 2.1,-36.2 H -2 m -215.5,-155 -9.4,-2 v 4.1 m 64.3,-2.1 9.4,2.1 v -4.1 m -64.3,-24.6 9.3,2 v -4.1 m 336.5,2.1 -9.3,-2.1 v 4.1"
         style="fill:#000000;fill-opacity:1;fill-rule:nonzero;stroke:none"
         id="path112" />
    </g>
    <g
       id="g114"
       transform="translate(54.4,551.3)">
      <path
         d="M 0,0 9.3,2.1 V -2 m 270.3,2 -9.4,-2 v 4.1"
         style="fill:#000000;fill-opacity:1;fill-rule:nonzero;stroke:none"
         id="path116" />
    </g>
    <g
       id="g118"
       transform="translate(70.3,574.5)">
      <path
         d="M 0,0 5.2,8.1 8.1,5.2 m 239.2,242.1 -5.2,-8.1 -2.8,2.9"
         style="fill:#000000;fill-opacity:1;fill-rule:nonzero;stroke:none"
         id="path120" />
    </g>
  </g>
</svg>
