<?xml version="1.0" encoding="UTF-8" standalone="no"?>
<!-- Created with Inkscape (http://www.inkscape.org/) -->

<svg
   version="1.1"
   id="svg2"
   width="793.70135"
   height="1122.52"
   viewBox="0 0 793.70135 1122.52"
   xmlns="http://www.w3.org/2000/svg"
   xmlns:svg="http://www.w3.org/2000/svg">
  <defs
     id="defs6" />
  <g
     id="g8"
     transform="matrix(1.3333333,0,0,-1.3333333,0,1122.52)">
    <g
       id="g10"
       transform="translate(241.7,788.3)">
      <path
         d="M 0,0 H 0.1 V 0.1 L 0.2,0.2 0.3,0.3 0.5,0.4 0.6,0.6 0.8,0.8 1.1,1 M -1.2,3.3 -1.4,3.1 -1.6,2.9 -1.8,2.7 -2,2.5 -2.1,2.4 -2.2,2.3 M 1.1,1 7.2,7.2 M 5,9.5 -1.2,3.3 M 8.2,8.2 8.6,8.7 8.7,9.3 8.6,10 8.2,10.5 7.7,10.8 7.1,10.9 6.5,10.8 6,10.5 m 0,0 H 5.9 V 10.4 L 5.8,10.3 5.7,10.2 5.6,10.1 5.4,9.9 5.2,9.7 5,9.5 M 7.2,7.2 7.4,7.4 7.6,7.6 7.8,7.8 8,7.9 8.1,8 8.2,8.1 v 0.1 m -96.8,-214.5 v 0 -0.1 -0.1 -0.2 -0.2 -0.2 -0.3 -0.3 m 3.2,0 v 0.3 0.3 0.2 0.2 0.2 0.1 0.1 m -3.2,-1.4 v -8.7 m 3.2,0 v 8.7 m -3.2,-10.2 0.1,-0.6 0.4,-0.5 0.5,-0.4 0.6,-0.1 0.6,0.1 0.5,0.4 0.4,0.5 0.1,0.6 m 0,0 v 0.1 0.1 0.2 0.2 0.3 0.2 0.4 m -3.2,0 v -0.4 -0.2 -0.3 -0.2 -0.2 -0.1 -0.1 M -66.4,34 v 0.1 l 0.3,0.1 0.2,0.3 0.1,0.1 0.1,0.2 0.1,0.1 v 0.1 0.1 0.1 0.1 0.2 0.4 1.4 1.5 1.4 3.5 2.6 1.1 0.3 m -3.2,-0.1 v 0 -0.1 -0.4 -1.3 -1.3 -1.2 -1.8 -2 -2.4 -0.7 -0.6 -0.4 -0.1 -0.1 h 0.1 V 35.1 35 34.9 l 0.1,-0.2 0.1,-0.1 0.1,-0.1 0.1,-0.2 m 2.7,8.3 v 3.1 1 0.8 0.3 0.1 0.1 0.1 l -0.1,0.3 v 0.1 h -0.1 v 0.1 l -0.1,0.1 v 0.1 l -0.2,0.1 -0.1,0.2 h -0.1 l -0.1,0.1 -0.3,0.1 h -0.1 -0.1 l -0.1,0.1 h -0.2 l -0.2,-0.1 h -0.1 -0.1 -0.1 l -0.1,-0.1 h -0.1 l -0.2,-0.1 -0.1,-0.1 -0.1,-0.1 -0.1,-0.1 v -0.1 h -0.1 v -0.1 l -0.1,-0.2 -0.1,-0.2 V 48 l -0.1,-0.1 V 47.8 47.7 47.4 46.1 44.6 43 m 0,-5.9 h -0.5 -1.5 -2.1 -2.6 -3.3 -3.9 -4.3 m -18.7,-2.7 0.1,0.1 0.1,0.1 0.1,0.2 0.1,0.1 v 0.1 0.1 0.1 0.1 0.2 0.4 l 0.1,1.4 v 1.5 1.4 3.5 2.6 1.1 0.3 m -3.3,-0.1 v 0 -0.1 -0.4 -1.3 -1.3 -1.2 -1.8 -2 -2.4 -0.7 -0.6 -0.4 l 0.1,-0.1 V 35.2 35.1 35 l 0.1,-0.1 v -0.2 l 0.1,-0.1 0.1,-0.1 0.2,-0.3 0.2,-0.1 h 0.1 m 20.6,3 h -4.3 -3.9 -3.3 -2.6 -2.1 -1.5 -0.5 m 0,5.6 v 3.3 1 0.4 0.3 l -0.1,0.2 v 0.1 0.1 0.1 0.1 l -0.1,0.1 v 0.1 l -0.1,0.1 v 0.1 l -0.1,0.1 -0.2,0.2 -0.2,0.1 -0.2,0.1 -0.1,0.1 h -0.2 -0.1 -0.1 v 0.1 h -0.1 -0.1 -0.1 l -0.1,-0.1 h -0.1 -0.1 l -0.3,-0.1 -0.2,-0.1 -0.1,-0.1 -0.1,-0.2 h -0.1 v -0.1 h -0.1 v -0.1 l -0.1,-0.1 v -0.1 l -0.1,-0.2 V 48 l -0.1,-0.1 V 47.8 47.5 46.8 45.9 45 43.1 m 0.8,-246.7 v 0 l -0.2,-0.2 -0.2,-0.2 -0.1,-0.2 -0.1,-0.1 -0.1,-0.2 v -0.1 -0.1 -0.1 l -0.1,-0.2 v -0.4 -1.4 -1.5 -1.5 -3.4 -2.7 -1.1 -0.2 m 3.3,0 v 0 0.2 0.3 1.3 1.3 1.2 1.8 2.1 2.3 0.7 0.6 l -0.1,0.4 v 0.1 0.1 0.1 0.1 0.1 l -0.1,0.1 v 0.1 l -0.1,0.1 -0.1,0.2 -0.1,0.1 m -2.8,-8.3 v -3.1 -0.9 -0.9 -0.2 -0.2 h 0.1 v -0.1 -0.1 l 0.1,-0.2 v -0.1 -0.1 h 0.1 v -0.1 l 0.1,-0.1 0.2,-0.2 0.1,-0.1 0.1,-0.1 h 0.1 l 0.3,-0.1 0.1,-0.1 h 0.1 0.1 0.2 0.1 0.2 0.1 v 0.1 h 0.2 l 0.1,0.1 0.1,0.1 0.2,0.1 0.1,0.1 h 0.1 v 0.1 l 0.1,0.1 0.1,0.2 0.1,0.2 v 0.2 0.2 h 0.1 v 0.1 0.3 1.3 1.6 1.5 m 0,6 h 0.5 1.5 2.1 2.6 3.3 3.9 2.7 m 20.3,2.7 -0.1,-0.1 -0.1,-0.2 -0.1,-0.1 -0.1,-0.2 v -0.1 -0.1 l -0.1,-0.1 v -0.2 -0.4 -1.4 -1.5 -1.5 -3.4 -2.7 -1.1 -0.2 m 3.2,0 v 0 0.2 0.3 1.3 1.3 1.2 1.8 2.1 2.3 0.7 0.6 0.4 0.1 0.1 0.1 0.1 0.1 l -0.1,0.1 v 0.1 l -0.1,0.1 -0.1,0.2 -0.2,0.2 -0.2,0.2 m -19.1,-3 h 2.7 3.9 3.3 2.6 2.1 1.5 0.5 m 0,-5.7 v -3.3 -0.9 -0.5 -0.3 -0.2 l 0.1,-0.1 v -0.1 -0.1 l 0.1,-0.2 v -0.1 h 0.1 v -0.1 l 0.1,-0.2 0.2,-0.1 0.1,-0.1 0.1,-0.1 0.2,-0.1 h 0.1 l 0.2,-0.1 h 0.1 0.1 0.1 0.1 0.1 0.1 0.1 l 0.1,0.1 0.3,0.1 0.1,0.1 0.2,0.1 0.1,0.1 0.1,0.1 v 0.1 h 0.1 l 0.1,0.2 v 0.1 l 0.1,0.2 v 0.1 0.2 0.1 0.2 0.7 0.9 1 1.8 m 97.7,146.6 0.2,-0.1 0.1,-0.1 0.2,-0.1 0.1,-0.1 h 0.1 0.1 0.1 0.1 0.1 0.4 1.5 1.4 1.5 3.4 2.7 1.1 0.2 m 0,3.2 v 0 h -0.2 -0.3 -1.3 -1.3 -1.2 -1.8 -2 -2.4 -0.7 -0.6 -0.4 -0.1 -0.1 l -0.1,-0.1 h -0.1 -0.1 -0.1 l -0.1,-0.1 -0.1,-0.1 -0.1,-0.1 -0.3,-0.2 -0.1,-0.2 m 2.9,-20.7 v 4.4 3.8 3.3 2.6 2.1 1.5 0.6 m 5.7,0 h 3.3 1 0.4 0.3 0.2 0.1 0.1 l 0.2,0.1 h 0.1 0.1 v 0.1 h 0.1 v 0.1 l 0.2,0.1 0.1,0.1 0.2,0.2 v 0.1 l 0.1,0.1 v 0.1 l 0.1,0.2 v 0.1 0.1 0.1 0.1 0.1 0.1 0.1 0.1 l -0.2,0.3 -0.1,0.2 v 0.1 l -0.2,0.2 h -0.1 v 0.1 h -0.1 l -0.1,0.1 h -0.1 l -0.3,0.1 -0.1,0.1 h -0.2 -0.1 -0.2 -0.7 -0.9 -1 -1.8 m -9.1,-42.1 v 0 l 0.2,-0.2 0.3,-0.3 0.1,-0.1 0.2,-0.1 h 0.1 l 0.1,-0.1 h 0.1 0.1 0.1 0.1 0.4 1.5 1.4 1.5 3.4 2.7 1.1 0.2 m 0,3.2 v 0 h -0.2 -0.3 -1.3 -1.3 -1.2 -1.8 -2 -2.4 -0.7 -0.6 -0.4 -0.1 -0.1 -0.1 v -0.1 h -0.1 -0.1 -0.1 l -0.1,-0.1 -0.1,-0.1 h -0.1 l -0.1,-0.1 m 8.2,-2.8 h 3.1 0.9 0.9 0.2 0.2 0.1 0.1 l 0.2,0.1 h 0.1 l 0.1,0.1 h 0.1 l 0.1,0.1 0.2,0.2 0.1,0.2 h 0.1 l 0.1,0.2 v 0.2 l 0.1,0.2 v 0.1 0.2 0.2 0.1 0.1 l -0.1,0.1 v 0.1 0.1 l -0.1,0.2 -0.1,0.1 -0.2,0.1 v 0.1 h -0.1 v 0.1 h -0.1 l -0.2,0.1 -0.2,0.1 -0.2,0.1 h -0.1 -0.1 -0.1 -0.3 -1.3 -1.5 -1.6 m -6,0 v 0.6 1.5 2 2.7 3.2 3.9 4.3 m -240.6,20.6 -0.1,0.1 -0.1,0.2 -0.3,0.2 -0.1,0.1 -0.2,0.1 -0.1,0.1 h -0.1 -0.1 -0.1 v 0.1 h -0.1 -0.1 -0.5 -1.4 -1.4 -1.5 -3.5 -2.6 -1.1 -0.2 -0.1 m 0.1,-3.2 v 0 h 0.2 0.3 1.3 1.3 1.2 1.8 2 2.4 0.7 0.6 0.4 0.1 0.1 0.1 0.1 0.1 v 0.1 h 0.2 l 0.1,0.1 0.1,0.1 0.2,0.2 m -8.3,2.7 h -3.1 -0.9 -0.9 -0.3 -0.1 -0.1 l -0.1,-0.1 h -0.2 l -0.1,-0.1 h -0.1 l -0.1,-0.1 h -0.1 v -0.1 l -0.2,-0.2 -0.1,-0.1 -0.1,-0.1 -0.1,-0.1 -0.1,-0.2 v -0.2 -0.1 -0.1 -0.2 -0.1 -0.1 -0.1 -0.1 l 0.1,-0.1 v -0.2 l 0.1,-0.1 0.1,-0.2 0.2,-0.1 v -0.1 h 0.1 l 0.1,-0.1 0.2,-0.1 0.2,-0.1 h 0.2 0.1 0.1 0.1 0.3 1.3 1.5 1.6 m 5.9,0 v -0.6 -1.5 -2.1 -2.6 -3.3 -3.8 -4.4 m 2.7,-18.7 -0.1,0.2 h -0.1 l -0.2,0.1 -0.1,0.1 h -0.1 -0.1 v 0.1 h -0.1 -0.1 -0.1 -0.5 -1.4 -1.4 -1.5 -3.5 -2.6 -1.1 -0.2 -0.1 m 0.1,-3.2 v 0 h 0.2 0.3 1.3 1.3 1.2 1.8 2 2.4 0.7 0.6 0.4 0.1 0.1 0.1 0.1 v 0.1 h 0.1 0.2 l 0.1,0.1 0.1,0.1 0.3,0.3 0.1,0.2 m -3,20.6 v -4.3 -3.9 -3.2 -2.7 -2 -1.5 -0.6 m -5.6,0 h -3.3 -1 -0.4 -0.3 -0.2 -0.1 -0.1 l -0.1,-0.1 h -0.1 -0.1 v -0.1 h -0.1 -0.1 v -0.1 h -0.1 l -0.1,-0.1 -0.2,-0.2 -0.1,-0.1 v -0.1 l -0.1,-0.2 -0.1,-0.1 v -0.1 -0.1 -0.1 -0.1 -0.1 -0.1 -0.1 -0.2 -0.1 l 0.2,-0.3 v -0.1 l 0.1,-0.1 0.2,-0.2 0.1,-0.1 h 0.1 v -0.1 h 0.1 l 0.1,-0.1 0.2,-0.1 h 0.2 0.1 0.1 0.3 0.7 0.9 1 1.8 m 241.4,51.4 2,-8.7 1.2,-8.4 0.6,-8.1 0.1,-7.6 -0.4,-7.3 -1,-8.3 -1.5,-7.7 -1.8,-6.9 -2,-6.1 -2.3,-6.2 -2.4,-5.2 -2.5,-5 -2.8,-4.9 -3,-4.7 -3.3,-4.7 -3.5,-4.5 -6.8,-7.6 -7.5,-7.1 -8.1,-6.3 -8.6,-5.7 -9,-4.8 -9.5,-4.1 -9.8,-3.2 -10,-2.3 -10.2,-1.5 -10.2,-0.5 -10.3,0.3 -10.2,1.3 -10.1,2.1 -9.8,3 -9.6,3.9 -9.1,4.7 -8.8,5.4 -8.2,6.2 -7.6,6.9 -7,7.6 -6.3,8.1 -5.6,8.6 -4.8,9.1 -4,9.5 -3.1,9.8 -2.3,10 -1.4,10.2 -0.5,10.3 0.5,10.3 1.3,10.2 2.2,10 3,9.9 4,9.5 4.7,9.1 5.5,8.7 6.3,8.2 6.9,7.5 7.6,7 8.2,6.3 8.6,5.5 9.2,4.7 9.5,3.9 9.8,3.1 10,2.2 10.2,1.3 10.3,0.5 9.9,-0.5 9.5,-1.2 4.6,-0.9 4.5,-1 4.3,-1.2 4.2,-1.3 4.5,-1.6 5,-2.1 5.7,-2.6 6.1,-3.3 5.2,-3.2 5.4,-3.7 5.6,-4.3 5.6,-5 5.6,-5.6 4.6,-5.3 4.5,-5.8 4.3,-6.3 4,-6.9 3.7,-7.5 3.2,-7.9 m 3.1,1.1 -3.5,8.5 -3.9,7.8 -4.2,7.1 -4.5,6.5 -4.6,5.9 -5.7,6.5 -0.8,0.7 m -1.8,1.8 -3.2,3 -5.5,4.8 -5.3,4 -5.6,3.8 -5.1,3.1 -5,2.7 -5.2,2.5 -5.4,2.2 -5.5,2 -5.6,1.8 -10.2,2.4 -10.4,1.5 -10.6,0.7 -10.5,-0.3 -10,-1.2 m -1.9,-0.3 -9,-1.9 -10.1,-3 -9.8,-3.9 -9.5,-4.8 -8.9,-5.6 -8.5,-6.3 -7.9,-7 -7.2,-7.7 -6.6,-8.4 -5.7,-8.8 -5,-9.3 -4.2,-9.7 -3.2,-10.1 -2.4,-10.3 -1.5,-10.5 -0.6,-10.5 0.4,-10.6 1.1,-9.2 m 0.3,-1.9 2.1,-9.7 3.1,-10.1 4,-9.8 4.8,-9.4 5.6,-9 6.4,-8.4 7.1,-7.8 7.7,-7.2 8.4,-6.5 8.9,-5.7 9.3,-4.9 9.8,-4.1 10.1,-3.2 10.3,-2.3 10.4,-1.4 9.6,-0.5 m 2.6,0 9,0.4 8.4,1.1 m 2,0.3 v 0 l 10.4,2.2 10,3.2 9.8,4 9.4,4.9 8.9,5.7 8.1,6.2 7.3,6.6 3.3,3.4 3.2,3.5 2.9,3.5 2.8,3.6 2.8,4 3.1,4.7 3.2,5.5 3.3,6.4 2.5,5.8 2.3,6.3 2.2,6.9 1.8,7.4 0.8,4.4 m 0.4,2 0.3,1.7 0.9,8.6 0.2,9.2 -0.4,9.6 -1.1,8.2 m -0.2,2 -2.3,10.2 m -6.4,9.8 0.9,-2.3 0.8,-1.6 0.9,-1 0.9,-0.6 0.8,-0.3 0.6,-0.1 1.3,0.3 1.2,0.7 1.4,1.3 1.1,1.5 1.2,2.1 1.4,3 m -2.9,1.3 -1,-2.1 -0.9,-1.7 -0.8,-1.2 -0.9,-1.2 -0.7,-0.6 -0.2,-0.1 h -0.1 v -0.1 l -0.1,0.1 -0.1,0.1 -0.2,0.1 -0.2,0.3 -0.4,0.7 -0.5,0.9 -0.4,1.4 M -2.2,0 -2.6,0.5 -2.7,1.1 -2.6,1.8 -2.2,2.3 -1.7,2.6 -1.1,2.7 -0.5,2.6 0,2.3 0.4,1.8 0.5,1.1 0.4,0.5 0,0 -0.5,-0.3 -1.1,-0.5 -1.7,-0.3 -2.2,0 m -84.8,-204.7 0.6,-0.1 0.5,-0.3 0.4,-0.6 0.1,-0.6 -0.1,-0.6 -0.4,-0.5 -0.5,-0.4 -0.6,-0.1 -0.6,0.1 -0.5,0.4 -0.4,0.5 -0.1,0.6 0.1,0.6 0.4,0.6 0.5,0.3 0.6,0.1 m 19.8,241.8 -0.6,-0.1 -0.5,-0.4 -0.4,-0.5 -0.1,-0.6 0.1,-0.6 0.4,-0.6 0.5,-0.3 0.6,-0.1 0.6,0.1 0.6,0.3 0.3,0.6 0.1,0.6 -0.1,0.6 -0.3,0.5 -0.6,0.4 -0.6,0.1 m -39.7,0 -0.6,-0.1 -0.5,-0.4 -0.3,-0.5 -0.2,-0.6 0.2,-0.6 0.3,-0.6 0.5,-0.3 0.6,-0.1 0.7,0.1 0.5,0.3 0.3,0.6 0.2,0.6 -0.2,0.6 -0.3,0.5 -0.5,0.4 -0.7,0.1 m 0,-243.7 0.7,0.1 0.5,0.3 0.3,0.6 0.2,0.6 -0.2,0.6 -0.3,0.5 -0.5,0.4 -0.7,0.1 -0.6,-0.1 -0.5,-0.4 -0.3,-0.5 -0.2,-0.6 0.2,-0.6 0.3,-0.6 0.5,-0.3 0.6,-0.1 m 39.7,0 0.6,0.1 0.6,0.3 0.3,0.6 0.1,0.6 -0.1,0.6 -0.3,0.5 -0.6,0.4 -0.6,0.1 -0.6,-0.1 -0.5,-0.4 -0.4,-0.5 -0.1,-0.6 0.1,-0.6 0.4,-0.6 0.5,-0.3 0.6,-0.1 m 102,141.7 -0.1,0.6 -0.3,0.5 -0.6,0.4 -0.6,0.1 -0.6,-0.1 -0.5,-0.4 -0.3,-0.5 -0.2,-0.6 0.2,-0.6 0.3,-0.6 0.5,-0.3 0.6,-0.1 0.6,0.1 0.6,0.3 0.3,0.6 0.1,0.6 m 0,-39.7 -0.1,0.6 -0.3,0.5 -0.6,0.4 -0.6,0.1 -0.6,-0.1 -0.5,-0.4 -0.3,-0.5 -0.2,-0.6 0.2,-0.6 0.3,-0.6 0.5,-0.3 0.6,-0.1 0.6,0.1 0.6,0.3 0.3,0.6 0.1,0.6 m -243.7,39.7 0.2,-0.6 0.3,-0.6 0.5,-0.3 0.6,-0.1 0.7,0.1 0.5,0.3 0.3,0.6 0.2,0.6 -0.2,0.6 -0.3,0.5 -0.5,0.4 -0.7,0.1 -0.6,-0.1 -0.5,-0.4 -0.3,-0.5 -0.2,-0.6 m 0,-39.7 0.2,-0.6 0.3,-0.6 0.5,-0.3 0.6,-0.1 0.7,0.1 0.5,0.3 0.3,0.6 0.2,0.6 -0.2,0.6 -0.3,0.5 -0.5,0.4 -0.7,0.1 -0.6,-0.1 -0.5,-0.4 -0.3,-0.5 -0.2,-0.6 m 235.4,49.8 0.2,0.1 0.3,0.1 0.5,0.1 0.6,0.2 0.6,0.1 0.5,0.1 0.3,0.1 0.1,0.1 m -4.8,10.1 v 0 h 0.1 l 0.5,0.2 0.4,0.1 0.3,0.1 0.2,0.1 m -1.5,-0.5 h -0.1 v -0.1 l -0.5,-0.1 -0.5,-0.2 -0.3,-0.1 h -0.1 m 12.4,3.2 h -0.1 l -0.3,0.2 -0.5,0.2 -0.6,0.2 -0.5,0.3 -0.5,0.2 -0.3,0.1 -0.1,0.1 m -34,43.1 0.3,0.1 h 0.5 L 0.1,3.2 0.5,2.8 0.9,2.3 1.2,1.8 V 1.3 L 1.1,1 M 5,9.5 5.3,9.6 H 5.7 L 6.2,9.3 6.7,9 7.1,8.5 7.3,8 7.4,7.5 7.2,7.2 m -92.6,-214.9 -0.1,-0.3 -0.4,-0.3 -0.5,-0.2 -0.6,-0.1 -0.6,0.1 -0.5,0.2 -0.4,0.3 -0.1,0.3 m 3.2,-8.7 -0.1,-0.4 -0.4,-0.3 -0.5,-0.2 h -0.6 -0.6 l -0.5,0.2 -0.4,0.3 -0.1,0.4 M -87,35.8 v 0.3 0.5 0.4 0.1 M 33.6,-84.8 h 0.2 0.6 0.3 0.1 m -242.4,0 h -0.3 -0.5 -0.3 -0.2"
         style="fill:none;stroke:#000000;stroke-width:0.709;stroke-linecap:round;stroke-linejoin:round;stroke-miterlimit:10;stroke-dasharray:none;stroke-opacity:1"
         id="path12" />
    </g>
    <g
       id="g14"
       transform="translate(239,511.1)">
      <path
         d="M 0,0 V -0.8 M 0,-4 v -10.9 m 3.2,0 V -4 m 0,3.2 V 0 M 0,-37.2 V -48 m 0,-3.3 V -52 m 3.2,0 v 0.7 m 0,3.3 v 10.8 m 0,0 v 0.3 l 0.1,0.5 0.2,0.5 0.2,0.2 m -2.2,2.3 -0.4,-0.4 -0.5,-0.9 -0.4,-1 -0.2,-1.1 v -0.4 m 3.7,20.8 -0.1,0.1 -0.2,0.4 -0.1,0.5 -0.1,0.5 m -3.2,0 v -0.6 l 0.3,-1.1 0.4,-1 0.6,-0.9 0.2,-0.2 m 6.2,-8.8 -6.2,-5.9 m 2.2,-2.3 6.2,5.8 m -8.4,11.2 6.2,-5.8 m 2.2,2.3 -6.2,5.8 m 6.2,-13.5 0.4,0.5 0.5,0.9 0.4,0.9 0.2,1.1 v 1.2 l -0.3,1 -0.4,1.1 -0.6,0.8 -0.2,0.2 M 7.7,-24.5 7.8,-24.6 8,-25 8.1,-25.5 8.2,-26.1 8.1,-26.6 8,-27.1 7.8,-27.5 H 7.7 m -90.4,-1.2 v 0.5 0.7 0.7 0.8 0.7 0.8 0.6 0.5 m -3.2,0 v -0.5 -0.6 -0.8 -0.7 -0.8 -0.7 -0.7 -0.5 m 0,0 v -5.8 m 3.2,0 v 5.8 m -3.2,11.2 v -5.9 m 3.2,0 v 5.9 m -3.2,2.6 v -0.4 -0.3 -0.4 -0.4 -0.3 -0.3 -0.3 -0.2 m 3.2,0 v 0.2 0.3 0.3 0.3 0.4 0.4 0.3 0.4 m -3.2,-19.6 v -0.3 -0.2 -0.3 -0.4 -0.3 -0.4 -0.4 -0.4 m 3.2,0 v 0.4 0.4 0.4 0.3 0.4 0.3 0.2 0.3 m -3.2,-2.7 V -52 m 3.2,0 v 14.8 M -85.9,0 v -14.9 m 3.2,0 V 0 m -19.8,-138.9 v 3.1 0.4 M -66.1,2.8 v -9 -8.2 -7.2 -6.3 -5.5 -4.4 -4.1 -4.1 -4.3 -4.9 -1.3 -1.2 -1.2 -0.9 -0.9 -0.9 -2 -3.7 -1.8 -1 -0.5 -0.6 -1.6 -1.7 -1.7 -3.9 -6.6 -4.4 -4.2 -4.4 -4.7 -9.7 -1.3 -1.2 -1.1 -1.5 -1.4 -1.5 -3.8 -1.1 -1 -1.1 -1.1 -1.6 -1.7 -1.6 -3.7 l -0.1,-2.1 -0.3,-2.1 -0.7,-2.2 -1.2,-2.7 -1,-1.5 -1.2,-1.6 -1.5,-1.5 -1.8,-1.4 -2.1,-1.3 -2.5,-1 -2.8,-0.7 -3,-0.3 m 0,-3.2 2.6,0.2 2.4,0.4 2.2,0.7 2,0.8 3.5,2.1 2.7,2.3 1.9,2.3 1.4,2.2 1.1,2.2 0.8,2.4 0.7,3.5 0.1,3.7 v 3.6 2.9 1.4 0.7 1.3 1.3 2 4 2 1.1 0.7 1.9 2 2 4.6 8.4 7.5 7.2 4.9 4.5 1.1 1.2 1 1.4 1.5 1.5 3.7 1.9 0.9 0.5 0.6 2 1.9 2 4.5 7.7 7.6 7 2.2 2.6 3.3 4 4.7 5.5 6.1 m -42.9,0 v -9.2 -8.3 -7.3 -6.4 -5.5 -4.5 -4.1 -4.3 -4.3 -5.1 -1.3 -0.6 -0.6 -1.1 -1 -1 -2.3 -4.1 -1 -1 -0.5 -0.6 -1.9 -1.8 -1.9 -4.3 -7.1 -5.8 -6 -6.4 -5.6 -1.5 -1.4 -1.5 -1.1 -1.2 -1.2 -1.1 -2.8 -3.5 -0.8 -1 -1.1 -2.1 -2 -2 -2.2 l 0.1,-2.3 0.4,-2.2 0.5,-2.3 1.1,-2.7 1.8,-3.1 1.2,-1.6 1.5,-1.6 1.8,-1.5 2,-1.4 2.4,-1.3 2.7,-0.9 2.9,-0.7 3.1,-0.2 m 0,3.2 -2.5,0.2 -2.3,0.5 -2.1,0.7 -1.8,0.8 -3.1,2.1 -2.2,2.2 -1.5,2.1 -1,2 -0.9,2.1 -0.6,2.3 -0.2,3.3 v 3.8 3.9 1.5 0.6 1.3 1.3 1.2 2.9 4 1.1 0.6 2.1 2.2 2 5 8.8 8 7.5 5.2 1.9 1.9 1.1 1.2 1.1 1.1 2.7 3.6 1.9 1.1 1.5 1.7 1.6 1.6 5 7.5 7.3 6.8 2.2 2.6 3.3 4 4.7 5.3 6 m 136.8,0 v -4 m 0,-2.2 v -0.6 -5.7 -4.6 -3.5 -3.1 -3.2 -3.2 -9.1 -9.5 -2.7 m 0,-2.1 v -2.6 -2.9 -0.8 l 0.1,-0.8 0.2,-1.2 0.7,-1.2 1.2,-1.3 1.4,-1.3 1.4,-1.5 4.6,-4.6 1.8,-1.7 0.5,-0.6 0.3,-0.4 0.1,-0.5 v -0.5 -0.8 -0.9 -2.1 -4.5 -7.7 -7 -7.4 -5.5 -5.1 -1.1 -1.2 -0.3 l -0.1,-0.2 -0.2,-0.5 -0.5,-0.4 -0.6,-0.6 -0.6,-0.6 -2.2,-2.2 -1.8,-1.9 -1.7,-1.7 -1.4,-1.4 -0.8,-0.8 -0.6,-0.6 -0.8,-0.8 -0.7,-1.2 -0.3,-2 v -1.8 -1.8 -1.9 -1.8 -2.4 -2.3 -2.5 -3.1 -1.6 -1.7 -1.7 -1.5 -1.4 -1.2 -0.7 -0.3 m 3.2,0 v 0.3 0.7 1.2 1.4 1.5 1.7 1.7 1.7 3.1 2.5 2.5 2.6 2.8 3 0.9 l 0.1,0.6 0.1,0.4 0.2,0.4 0.2,0.2 0.3,0.3 1.3,1.3 2,2 2.3,2.3 2.2,2.2 1.2,1.1 1,1.1 1,1.5 0.4,1.3 v 1.4 1.2 1.3 1.4 4.7 4.7 4.6 7.8 8.2 2.3 2.1 1.9 1.6 1.7 l -0.4,1.3 -1.2,1.6 -1,1.1 -1.2,1.2 -1.3,1.3 -1.4,1.4 -1.5,1.5 -1.6,1.6 -1.5,1.5 -0.5,0.5 -0.3,0.3 -0.3,0.5 -0.1,0.4 v 0.8 1.1 3.1 6.5 8.1 7.7 7.6 2.9 2.9 3.5 4.4 5.4 6.2 m -243.7,0 v -6.8 -5.7 -4.6 -3.5 -3.1 -3.2 -3.2 -6.1 -6.1 -6.4 -3.9 -3.9 -3 -0.7 -0.4 l -0.3,-0.5 -0.6,-0.6 -0.8,-0.8 -1.5,-1.5 -2.5,-2.5 -2,-2 -1.7,-1.7 -0.6,-0.6 -0.5,-0.5 -0.5,-0.5 -0.8,-1.3 -0.4,-1.3 v -1.7 -1.6 -1.9 -2.1 -2.3 -7.4 -7 -7.3 -5.5 -4.8 -2.1 -0.5 -0.7 l 0.4,-1.3 1,-1.5 1,-1.1 1.2,-1.1 2.1,-2.2 2.4,-2.3 1.9,-2 1.4,-1.3 0.3,-0.3 0.2,-0.2 0.2,-0.4 0.1,-0.4 v -0.5 -0.8 -2.2 -3.8 -2.6 -2.5 -2.5 -3.1 -1.7 -1.7 -1.7 -1.5 -1.4 -1.2 -0.7 -0.3 m 3.3,0 v 0.3 0.7 1.2 1.4 1.5 1.7 1.7 1.6 3.1 2.5 2.3 2.4 5.3 0.8 0.9 0.8 l -0.4,1.5 -0.6,1.2 -0.8,0.8 -0.5,0.6 -0.8,0.7 -0.9,1 -1.9,1.9 -2.3,2.2 -2.1,2.2 -0.7,0.6 -0.6,0.6 -0.4,0.4 -0.2,0.5 -0.1,0.5 v 0.9 1 2.5 4.9 4.8 4.6 5.2 5.3 5.8 3 2.6 2.4 0.5 0.3 l 0.1,0.5 0.3,0.4 0.6,0.7 0.8,0.7 1.8,1.8 3.6,3.7 1.2,1.1 1,1.1 0.9,0.9 1,1 0.7,1.2 0.2,1.4 0.1,1 v 1.1 1.3 1.6 1.9 m 0,2.1 v 2.7 8.1 7.7 7.6 2.9 2.9 3.5 4.4 5.4 m 0,2.1 V 2.8 M 34.3,-0.8 H 33.4 31.9 30.1 27.5 24.5 21.4 18.2 14.6 11.3 7.8 4.1 0.2 -4 h -4.4 -8.2 -8.9 -9.3 -9.6 -10 -8.5 m -3.2,0 h -8.9 -7.7 m -3.2,0 h -9.9 -6.7 m -3.3,0 h -0.3 -10.2 -9.9 -9.6 -9.2 -8.7 -8.1 -3.8 -3.7 -3.4 -3.3 -3.1 -2.9 -2.9 -3 -3.1 -3 -2.8 -2.5 -1.7 -1.3 -0.6 m 0,-3.2 h 0.6 1.3 1.7 2.5 2.8 3 3.1 3.5 3.2 3.4 3.7 3.8 4.1 4.4 8.1 8.7 9.2 9.6 9.9 10.2 0.3 m 3.3,0 h 6.7 9.9 m 3.2,0 h 7.7 8.9 m 3.2,0 h 8.5 10 9.6 9.3 8.9 8.2 3.8 3.7 3.6 3.3 3.1 3 3 3.1 3.2 3.1 3 2.6 1.8 1.5 0.9 m 0,-44 H 33.4 31.9 30.1 27.5 24.5 21.4 18.2 14.6 11.3 7.8 4.1 0.2 -4 h -4.4 -8.2 -8.9 -9.3 -9.6 -10 -8.5 m -3.2,0 h -8.9 -7.7 m -3.2,0 h -9.9 -6.7 m -3.3,0 h -0.3 -10.2 -9.9 -9.6 -9.2 -8.7 -8.1 -3.8 -3.7 -3.4 -3.3 -3.1 -2.9 -2.9 -3 -3.1 -3 -2.8 -2.5 -1.7 -1.3 -0.6 m 0,-3.3 h 0.6 1.3 1.7 2.5 2.8 3 3.1 3.5 3.2 3.4 3.7 3.8 4.1 4.4 8.1 8.7 9.2 9.6 9.9 10.2 0.3 m 3.3,0 h 6.7 9.9 m 3.2,0 h 7.7 8.9 m 3.2,0 h 8.5 10 9.6 9.3 8.9 8.2 3.8 3.7 3.6 3.3 3.1 3 3 3.1 3.2 3.1 3 2.6 1.8 1.5 0.9 M 0.5,0 H 0.1 0 M 3.2,0 H 3.1 2.7 2.2 1.6 1 0.5 m 0,-52 H 0.1 0 m 3.2,0 H 3.1 2.7 2.2 1.6 1 0.5 m 7.2,24.5 v -0.1 m 0,3.1 v 0 M -82.7,-52 h -0.1 -0.4 -0.5 -0.6 -0.6 -0.5 -0.4 -0.1 m 3.2,52 h -0.1 -0.4 -0.5 -0.6 -0.6 -0.5 -0.4 -0.1 m 21.4,2.8 h 0.6 0.6 0.3 0.1 m -3.2,0 h 0.1 0.4 0.5 0.6 m -39.7,0 h 0.7 0.5 0.3 0.2 m -3.3,0 h 0.2 0.3 0.5 0.6 m 138.5,0 h 0.2 0.3 0.5 0.6 0.6 0.6 0.3 0.1 m 0,-161.6 -0.1,-0.6 -0.3,-0.5 -0.6,-0.4 -0.6,-0.1 -0.6,0.1 -0.5,0.4 -0.3,0.5 -0.2,0.6 M -206.2,2.8 h 0.2 0.3 0.5 0.6 0.7 0.5 0.3 0.2 m -3.3,-161.6 0.2,-0.6 0.3,-0.5 0.5,-0.4 0.6,-0.1 0.7,0.1 0.5,0.4 0.3,0.5 0.2,0.6 M 38.4,-2.4 38.3,-1.8 38,-1.3 37.5,-1 m 0,-2.9 0.5,0.4 0.3,0.5 0.1,0.6 m 0,-47.3 -0.1,0.7 -0.3,0.5 -0.5,0.3 m 0,-2.9 0.5,0.3 0.3,0.5 0.1,0.6 M 0.5,-14.9 H 0.1 0 m 3.2,0 H 3.1 2.7 2.2 1.6 1 0.5 m 0,-22.3 H 0.1 0 m 3.2,0 H 3.1 2.7 2.2 1.6 1 0.5 m 1.5,4 -0.4,-0.1 -0.1,-0.1 m 2.2,-2.3 0.2,0.2 V -35 L 3.8,-34.5 3.4,-34 3,-33.6 2.5,-33.3 2,-33.2 m 0,14.3 -0.4,0.1 -0.1,0.1 m 2.2,2.3 0.2,-0.2 V -17 L 3.8,-17.5 3.4,-18 3,-18.5 2.5,-18.8 2,-18.9 m 6.2,-8.5 -0.4,-0.1 H 7.7 m 2.2,-2.4 0.1,0.3 0.1,0.4 -0.2,0.5 -0.3,0.5 -0.5,0.4 -0.5,0.3 -0.4,0.1 m 0,2.7 -0.4,0.1 -0.1,0.1 m 2.2,2.3 0.1,-0.2 0.1,-0.4 -0.2,-0.6 -0.3,-0.5 -0.5,-0.4 -0.5,-0.3 -0.4,-0.1 m -90.9,-4 -0.1,-0.5 -0.4,-0.4 -0.5,-0.3 -0.6,-0.1 -0.6,0.1 -0.5,0.3 -0.4,0.4 -0.1,0.5 m 3.2,5.3 -0.1,0.6 -0.4,0.4 -0.5,0.3 -0.6,0.1 -0.6,-0.1 -0.5,-0.3 -0.4,-0.4 -0.1,-0.6 m 3.2,-11.1 -0.1,-0.5 -0.4,-0.5 -0.5,-0.3 -0.6,-0.1 -0.6,0.1 -0.5,0.3 -0.4,0.5 -0.1,0.5 m 3.2,17 -0.1,0.5 -0.4,0.4 -0.5,0.3 -0.6,0.1 -0.6,-0.1 -0.5,-0.3 -0.4,-0.4 -0.1,-0.5 m 3.2,2.6 h -0.1 -0.4 -0.5 -0.6 -0.6 -0.5 -0.4 -0.1 m 3.2,-22.3 h -0.1 -0.4 -0.5 -0.6 -0.6 -0.5 -0.4 -0.1 m 1.6,-121.6 v -0.6 -0.5 -0.4 -0.1 m 0,3.2 v -0.1 -0.4 -0.5 -0.6"
         style="fill:none;stroke:#000000;stroke-width:0.709;stroke-linecap:round;stroke-linejoin:round;stroke-miterlimit:10;stroke-dasharray:none;stroke-opacity:1"
         id="path16" />
    </g>
    <text
       xml:space="preserve"
       transform="matrix(0.999722,0,0,-1,31.173124,553.8093)"
       style="font-variant:normal;font-weight:normal;font-stretch:normal;font-size:11px;font-family:Verdana;-inkscape-font-specification:Verdana;writing-mode:lr-tb;fill:#000000;fill-opacity:1;fill-rule:nonzero;stroke:none"
       id="text20"><tspan
         x="0 7.5219083 13.251315 20.212379 26.821541 32.550949 39.512012 43.844807 48.837418 56.359329 62.088734 69.049797 75.658958 81.388367 88.349434 92.682228 97.674835"
         y="0"
         id="tspan18">Schacht(Schacht) </tspan></text>
    <text
       xml:space="preserve"
       transform="matrix(0.999435,0,0,-1,133.75801,705.9393)"
       style="font-variant:normal;font-weight:normal;font-stretch:normal;font-size:11px;font-family:Verdana;-inkscape-font-specification:Verdana;writing-mode:lr-tb;fill:#808080;fill-opacity:1;fill-rule:nonzero;stroke:none"
       id="text24"><tspan
         x="0 7.5197492 15.995957 20.987135 28.506884 36.983093 41.97427"
         y="0"
         id="tspan22">AD(AD) </tspan></text>
    <text
       xml:space="preserve"
       transform="matrix(0.999986,0,0,-1,184.69015,572.4873)"
       style="font-variant:normal;font-weight:normal;font-stretch:normal;font-size:11px;font-family:Verdana;-inkscape-font-specification:Verdana;writing-mode:lr-tb;fill:#808080;fill-opacity:1;fill-rule:nonzero;stroke:none"
       id="text28"><tspan
         x="0 7.5238948 11.857834 18.820736 23.154676 28.929594 35.485504 40.479435 48.003326 52.337269 59.300171 63.634109 69.409027 75.964935 80.95887"
         y="0"
         id="tspan26">Stütze(Stütze) </tspan></text>
    <text
       xml:space="preserve"
       transform="matrix(0.999839,0,0,-1,85.3492,775.4923)"
       style="font-variant:normal;font-weight:normal;font-stretch:normal;font-size:11px;font-family:Verdana;-inkscape-font-specification:Verdana;writing-mode:lr-tb;fill:#000000;fill-opacity:1;fill-rule:nonzero;stroke:none"
       id="text32"><tspan
         x="0 7.5227885 11.856091 18.466026 25.317923 30.311119 37.833908 42.16721 48.777145 55.629044"
         y="0"
         id="tspan30">Stab(Stab)</tspan></text>
    <text
       xml:space="preserve"
       transform="matrix(0.999785,0,0,-1,48.509368,351.1233)"
       style="font-variant:normal;font-weight:normal;font-stretch:normal;font-size:11px;font-family:Verdana;-inkscape-font-specification:Verdana;writing-mode:lr-tb;fill:#000000;fill-opacity:1;fill-rule:nonzero;stroke:none"
       id="text36"><tspan
         x="0 6.3236403 12.878231 19.729757 26.284348 30.980337 35.973263 42.296906 48.851494 55.703022 62.25761 66.953606 71.946526"
         y="0"
         id="tspan34">Feder(Feder) </tspan></text>
    <g
       id="g38"
       transform="translate(20.6,348.7)">
      <path
         d="M 0,0 -9.4,-2 V 2.1 L 0,0 m 15.4,0 9.4,2.1 V -2 l -9.4,2"
         style="fill:none;stroke:#000000;stroke-width:0.51;stroke-linecap:butt;stroke-linejoin:miter;stroke-miterlimit:10;stroke-dasharray:none;stroke-opacity:1"
         id="path40" />
    </g>
    <g
       id="g42"
       transform="translate(20.4,551.4)">
      <path
         d="M 0,0 9.4,2.1 V -2 L 0,0 m 268.6,0 -9.4,-2 V 2.1 L 268.6,0"
         style="fill:none;stroke:#000000;stroke-width:0.51;stroke-linecap:butt;stroke-linejoin:miter;stroke-miterlimit:10;stroke-dasharray:none;stroke-opacity:1"
         id="path44" />
    </g>
    <g
       id="g46"
       transform="translate(225.1,583.6)">
      <path
         d="M 0,0 -2,9.4 H 2.1 L 0,0 m 0,-14.8 2.1,-9.3 H -2 l 2,9.3"
         style="fill:none;stroke:#808080;stroke-width:0.51;stroke-linecap:butt;stroke-linejoin:miter;stroke-miterlimit:10;stroke-dasharray:none;stroke-opacity:1"
         id="path48" />
    </g>
    <g
       id="g50"
       transform="translate(20.4,703.6)">
      <path
         d="M 0,0 9.4,2 V -2.1 L 0,0 m 268.6,0 -9.4,-2.1 V 2 l 9.4,-2"
         style="fill:none;stroke:#808080;stroke-width:0.51;stroke-linecap:butt;stroke-linejoin:miter;stroke-miterlimit:10;stroke-dasharray:none;stroke-opacity:1"
         id="path52" />
    </g>
    <g
       id="g54"
       transform="translate(153.7,704.5)">
      <path
         d="M 0,0 2,-2 M 0,-2 2,0 M 1,-2.4 V 0.4 M 2.4,-1 h -2.8 m -133.9,1 2,-2 m -2,0 2,2 m -1,-2.4 v 2.8 m 1.4,-1.4 h -2.8 m 269,1 2,-2 m -2,0 2,2 m -1,-2.4 v 2.8 m 1.4,-1.4 h -2.8 M 0,-134.7 l 2,-2 m -2,0 2,2 m -1,-2.4 v 2.8 m 1.4,-1.4 h -2.8 m 0.4,15.8 2,-2 m -2,0 2,2 m -1,-2.4 v 2.9 m 1.4,-1.5 h -2.8"
         style="fill:none;stroke:#c0c0c0;stroke-width:0.51;stroke-linecap:butt;stroke-linejoin:miter;stroke-miterlimit:10;stroke-dasharray:none;stroke-opacity:1"
         id="path56" />
    </g>
    <g
       id="g58"
       transform="translate(19.6,396.3)">
      <path
         d="M 0,0 2,-2 M 0,-2 2,0 M 1,-2.4 V 0.4 M 2.4,-1 h -2.9 m 15.9,1 2,-2 m -2,0 2,2 m -1,-2.4 V 0.4 M 17.8,-1 H 15"
         style="fill:none;stroke:#c0c0c0;stroke-width:0.51;stroke-linecap:butt;stroke-linejoin:miter;stroke-miterlimit:10;stroke-dasharray:none;stroke-opacity:1"
         id="path60" />
    </g>
    <g
       id="g62"
       transform="translate(153.7,434.1)">
      <path
         d="M 0,0 2,-2 M 0,-2 2,0 M 1,-2.4 V 0.4 M 2.4,-1 H -0.4 M 0,0 2,-2 M 0,-2 2,0 M 1,-2.4 V 0.4 M 2.4,-1 h -2.8"
         style="fill:none;stroke:#808080;stroke-width:0.51;stroke-linecap:butt;stroke-linejoin:miter;stroke-miterlimit:10;stroke-dasharray:none;stroke-opacity:1"
         id="path64" />
    </g>
    <g
       id="g66"
       transform="translate(154.7415,352.3622)">
      <path
         d="m 0,0 1.074,0.029 1.071,0.087 1.065,0.145 1.056,0.203 1.042,0.259 1.028,0.316 1.008,0.37 0.988,0.425 0.962,0.477 0.936,0.529 0.905,0.579 0.873,0.627 0.838,0.673 0.8,0.718 0.76,0.76 0.717,0.8 0.673,0.837 0.627,0.873 0.579,0.906 0.529,0.935 0.478,0.963 0.424,0.987 0.371,1.009 0.315,1.027 0.26,1.043 0.202,1.055 0.145,1.065 0.087,1.071 0.029,1.075"
         style="fill:none;stroke:#808080;stroke-width:0.51;stroke-linecap:butt;stroke-linejoin:miter;stroke-miterlimit:10;stroke-dasharray:43.2, 3.6, 3.6, 3.6;stroke-dashoffset:33.018;stroke-opacity:1"
         id="path68" />
    </g>
    <g
       id="g70"
       transform="translate(154.7415,352.3622)">
      <path
         d="m 0,0 -1.074,0.029 -1.071,0.087 -1.065,0.145 -1.056,0.203 -1.042,0.259 -1.028,0.316 -1.008,0.37 -0.988,0.425 -0.962,0.477 -0.936,0.529 -0.905,0.579 -0.873,0.627 -0.838,0.673 -0.8,0.718 -0.76,0.76 -0.717,0.8 -0.674,0.837 -0.626,0.873 -0.579,0.906 -0.529,0.935 -0.478,0.963 -0.424,0.987 -0.371,1.009 -0.315,1.027 -0.26,1.043 -0.202,1.055 -0.145,1.065 -0.087,1.071 -0.03,1.075"
         style="fill:none;stroke:#808080;stroke-width:0.51;stroke-linecap:butt;stroke-linejoin:miter;stroke-miterlimit:10;stroke-dasharray:43.2, 3.6, 3.6, 3.6;stroke-dashoffset:33.018;stroke-opacity:1"
         id="path72" />
    </g>
    <g
       id="g74"
       transform="translate(289.0223,703.576)">
      <path
         d="M 0,0 H -268.562"
         style="fill:none;stroke:#c0c0c0;stroke-width:0.51;stroke-linecap:butt;stroke-linejoin:miter;stroke-miterlimit:10;stroke-dasharray:43.2, 3.6, 3.6, 3.6;stroke-dashoffset:-4.681;stroke-opacity:1"
         id="path76" />
    </g>
    <g
       id="g78"
       transform="translate(154.7415,513.9371)">
      <path
         d="M 0,0 V -161.575"
         style="fill:none;stroke:#808080;stroke-width:0.51;stroke-linecap:butt;stroke-linejoin:miter;stroke-miterlimit:10;stroke-dasharray:43.2, 3.6, 3.6, 3.6;stroke-dashoffset:-5.187;stroke-opacity:1"
         id="path80" />
    </g>
    <g
       id="g82"
       transform="translate(174.584,372.2048)">
      <path
         d="M 0,0 V 141.732"
         style="fill:none;stroke:#808080;stroke-width:0.51;stroke-linecap:butt;stroke-linejoin:miter;stroke-miterlimit:10;stroke-dasharray:43.2, 3.6, 3.6, 3.6;stroke-dashoffset:4.734;stroke-opacity:1"
         id="path84" />
    </g>
    <g
       id="g86"
       transform="translate(154.7415,513.9371)">
      <path
         d="M 0,0 H 19.842"
         style="fill:none;stroke:#808080;stroke-width:0.51;stroke-linecap:butt;stroke-linejoin:miter;stroke-miterlimit:10;stroke-dasharray:43.2, 3.6, 3.6, 3.6;stroke-dashoffset:38.679;stroke-opacity:1"
         id="path88" />
    </g>
    <g
       id="g90"
       transform="translate(154.7415,513.9371)">
      <path
         d="M 0,0 V -161.575"
         style="fill:none;stroke:#808080;stroke-width:0.51;stroke-linecap:butt;stroke-linejoin:miter;stroke-miterlimit:10;stroke-dasharray:43.2, 3.6, 3.6, 3.6;stroke-dashoffset:-5.187;stroke-opacity:1"
         id="path92" />
    </g>
    <g
       id="g94"
       transform="translate(134.8989,372.2048)">
      <path
         d="M 0,0 V 141.732"
         style="fill:none;stroke:#808080;stroke-width:0.51;stroke-linecap:butt;stroke-linejoin:miter;stroke-miterlimit:10;stroke-dasharray:43.2, 3.6, 3.6, 3.6;stroke-dashoffset:4.734;stroke-opacity:1"
         id="path96" />
    </g>
    <g
       id="g98"
       transform="translate(154.7415,513.9371)">
      <path
         d="M 0,0 H -19.843"
         style="fill:none;stroke:#808080;stroke-width:0.51;stroke-linecap:butt;stroke-linejoin:miter;stroke-miterlimit:10;stroke-dasharray:43.2, 3.6, 3.6, 3.6;stroke-dashoffset:38.679;stroke-opacity:1"
         id="path100" />
    </g>
    <g
       id="g102"
       transform="translate(83.9,779.7)">
      <path
         d="M 0,0 V 0"
         style="fill:none;stroke:#000000;stroke-width:0.51;stroke-linecap:round;stroke-linejoin:round;stroke-miterlimit:10;stroke-dasharray:none;stroke-opacity:1"
         id="path104" />
    </g>
    <g
       id="g106"
       transform="translate(83.9,779.7)">
      <path
         d="M 0,0 -17.1,4.2"
         style="fill:none;stroke:#000000;stroke-width:0.51;stroke-linecap:round;stroke-linejoin:round;stroke-miterlimit:10;stroke-dasharray:none;stroke-opacity:1"
         id="path108" />
    </g>
    <g
       id="g110"
       transform="translate(20.6,392.5)">
      <path
         d="M 0,0 V -46.6 M 15.4,0 V -46.6 M 0,-43.8 h -18 m 18,0 h 15.4 m 0,0 h 88.3"
         style="fill:none;stroke:#000000;stroke-width:0.51;stroke-linecap:round;stroke-linejoin:round;stroke-miterlimit:10;stroke-dasharray:none;stroke-opacity:1"
         id="path112" />
    </g>
    <g
       id="g114"
       transform="translate(20.4,602.4)">
      <path
         d="M 0,0 V -53.8 M 268.6,0 V -53.8 M 0,-51 h 268.6"
         style="fill:none;stroke:#000000;stroke-width:0.51;stroke-linecap:round;stroke-linejoin:round;stroke-miterlimit:10;stroke-dasharray:none;stroke-opacity:1"
         id="path116" />
    </g>
    <g
       id="g118"
       transform="translate(157.5,583.6)">
      <path
         d="M 0,0 H 70.4 M 0,-14.8 H 70.4 M 67.6,0 v 18 m 0,-32.8 v -18 m 0,32.8 v -0.1 m 0,-14.7 v 1.3"
         style="fill:none;stroke:#808080;stroke-width:0.51;stroke-linecap:round;stroke-linejoin:round;stroke-miterlimit:10;stroke-dasharray:none;stroke-opacity:1"
         id="path120" />
    </g>
    <g
       id="g122"
       transform="translate(20.4,706.4)">
      <path
         d="M 0,0 V 0 M 268.6,0 V 0 M 0,-2.8 h 268.6"
         style="fill:none;stroke:#808080;stroke-width:0.51;stroke-linecap:round;stroke-linejoin:round;stroke-miterlimit:10;stroke-dasharray:none;stroke-opacity:1"
         id="path124" />
    </g>
    <g
       id="g126"
       transform="translate(20.4,605.3)">
      <path
         d="M 0,0 V 196.5 M 268.6,0 v 196.5"
         style="fill:none;stroke:#c0c0c0;stroke-width:0.51;stroke-linecap:round;stroke-linejoin:round;stroke-miterlimit:10;stroke-dasharray:none;stroke-opacity:1"
         id="path128" />
    </g>
    <g
       id="g130"
       transform="translate(65.5,784.2)">
      <path
         d="M 0,0 V -0.2 -0.5 L 0.1,-0.8 0.2,-1 0.4,-1.3 0.6,-1.4 0.8,-1.6 h 0.3 0.3 0.3 l 0.3,0.1 0.2,0.2 0.2,0.2 0.1,0.2 0.1,0.3 0.1,0.3 L 2.7,0 2.6,0.2 2.4,0.5 2.3,0.7 2,0.9 1.8,1 1.5,1.1 H 1.2 L 0.9,1 0.7,0.9 0.4,0.8 0.2,0.6 0.1,0.3 0,0 1.3,-0.3"
         style="fill:#000000;fill-opacity:1;fill-rule:nonzero;stroke:none"
         id="path132" />
    </g>
    <g
       id="g134"
       transform="translate(20.6,348.7)">
      <path
         d="M 0,0 -9.4,-2 V 2.1 M 15.4,0 24.8,2.1 V -2"
         style="fill:#000000;fill-opacity:1;fill-rule:nonzero;stroke:none"
         id="path136" />
    </g>
    <g
       id="g138"
       transform="translate(20.4,551.4)">
      <path
         d="M 0,0 9.4,2.1 V -2 m 259.2,2 -9.4,-2 v 4.1"
         style="fill:#000000;fill-opacity:1;fill-rule:nonzero;stroke:none"
         id="path140" />
    </g>
    <g
       id="g142"
       transform="translate(225.1,583.6)">
      <path
         d="M 0,0 -2,9.4 H 2.1 M 0,-14.8 2.1,-24.1 H -2"
         style="fill:#808080;fill-opacity:1;fill-rule:nonzero;stroke:none"
         id="path144" />
    </g>
    <g
       id="g146"
       transform="translate(20.4,703.6)">
      <path
         d="M 0,0 9.4,2 V -2.1 M 268.6,0 259.2,-2.1 V 2"
         style="fill:#808080;fill-opacity:1;fill-rule:nonzero;stroke:none"
         id="path148" />
    </g>
  </g>
</svg>
