<?xml version="1.0" encoding="UTF-8" standalone="no"?>
<!-- Created with Inkscape (http://www.inkscape.org/) -->

<svg
   version="1.1"
   id="svg2"
   width="793.70135"
   height="1122.52"
   viewBox="0 0 793.70135 1122.52"
   xmlns="http://www.w3.org/2000/svg"
   xmlns:svg="http://www.w3.org/2000/svg">
  <defs
     id="defs6" />
  <g
     id="g8"
     transform="matrix(1.3333333,0,0,-1.3333333,0,1122.52)">
    <g
       id="g10"
       transform="translate(160.3,824)">
      <path
         d="m 0,0 h 3.1 2.8 2.6 2.2 2.6 2.1 1.6 1.9 1.7 1 0.8 0.6 0.3 M 22.1,0 22,-0.5 V -1.2 -2 -2.7 -3.1 -3.5 -4.3 -4.9 -5.7 -7 -8.7 -11 v -2.6 -2.9 -1.4 -1.4 -1.1 -0.9 -0.6 -0.1 m 3.3,0 v 0.1 0.3 1.4 1.9 2.1 2.2 2.1 1.7 1.5 2.4 1.8 1.1 0.7 0.7 0.7 L 25.2,0.6 V 1.1 1.6 L 25.1,2.1 24.9,2.6 24.6,2.9 24.3,3.1 H 23.9 L 23.4,3.2 H 22.8 22 21 19.2 17.3 15.7 13.6 11 8.7 6.1 3.2 0 m 24.4,-26.7 0.1,0.1 0.4,0.3 0.2,0.5 0.2,0.6 M 0,3.2 h -3.1 -2.8 -2.6 -2.2 -2.6 -2.1 -1.6 -1.9 -1.8 -1 -0.9 -0.6 -0.6 L -24.1,3.1 -24.5,2.9 -24.8,2.7 -25,2.3 -25.1,1.8 -25.2,1.3 v -0.5 -1 -0.9 -0.9 -0.7 -0.4 -0.3 -0.9 -0.6 -0.8 -1.2 -1.8 -2.2 -2.7 -2.9 -1.4 -1.3 -1.2 -0.9 -0.6 -0.1 m 3.2,0 v 0.1 0.3 1.3 1.9 2.2 2.2 2 1.8 1.4 2.4 1.9 1.1 0.7 0.7 0.7 1.3 m -1.2,0 v 0 h 0.2 0.5 0.7 1 1.7 1.9 1.6 2.1 2.6 2.3 2.6 2.9 3.1 m -25.2,-22 0.1,-0.5 0.2,-0.4 0.2,-0.3 0.3,-0.2 0.2,-0.1 m 169,-118.1 v 3.1 2.8 2.6 2.2 2.6 2.1 1.6 1.9 1.8 1 0.9 0.6 0.6 l -0.1,0.3 -0.1,0.4 -0.2,0.2 -0.4,0.3 -0.6,0.1 -0.5,0.1 h -0.5 -1 -0.9 -0.8 -0.8 -0.3 -0.4 -0.8 -0.6 -0.8 -1.3 -1.7 -2.2 -2.7 -2.9 -1.4 -1.4 -1.1 -0.9 -0.6 -0.2 m 0,-3.2 h 0.1 0.4 1.3 1.9 2.2 2.1 2.1 1.7 1.5 2.4 1.8 1.2 0.6 0.7 0.7 1.3 m 0.1,1.2 v 0 l -0.1,-0.2 v -0.5 -0.7 -1 -1.7 -1.9 -1.6 -2.1 -2.6 -2.3 -2.6 -2.9 -3.1 m 0,0 v -3.1 -2.8 -2.6 -2.2 -2.6 -2.1 -1.6 -1.9 -1.7 -1 -0.8 -0.6 l 0.1,-0.3 m -0.1,1.2 -0.4,0.1 h -0.8 -0.7 -0.8 -0.3 -0.4 -0.8 -0.6 -0.9 -1.2 -1.8 -2.2 -2.7 -2.9 -1.4 -1.3 -1.2 -0.9 -0.5 -0.2 m 0,-3.3 h 0.1 0.4 1.3 1.9 2.2 2.2 2 1.8 1.5 2.3 1.9 1.1 0.7 0.7 0.7 l 1.9,0.1 h 0.5 0.5 l 0.5,0.1 0.5,0.2 0.2,0.3 0.2,0.3 0.1,0.4 v 0.5 0.6 0.8 1 1.8 1.9 1.6 2.1 2.6 2.3 2.6 2.9 3.2 M 0,-283.2 h -3.1 -2.8 -2.5 -2.3 -2.6 -2 -1.7 -1.9 -1.7 -1 -0.8 -0.5 l -0.3,-0.1 m 1.2,0.1 v 0.4 0.8 0.7 0.8 0.3 0.4 0.8 0.6 0.9 1.2 1.8 2.2 2.7 2.9 1.4 1.3 1.2 0.9 0.5 0.2 m -3.2,0 v -0.1 -0.4 -1.3 -1.9 -2.2 -2.2 -2 -1.8 -1.5 -2.3 -1.9 -1.1 -0.7 -0.7 -0.7 -1.9 -0.5 l 0.1,-0.5 0.1,-0.5 0.2,-0.5 0.3,-0.2 0.3,-0.2 0.3,-0.1 h 0.5 0.6 0.9 1 1.7 2 1.6 2.1 2.6 2.3 2.6 2.9 3.1 m -24.2,26.7 -0.3,-0.2 -0.3,-0.3 -0.3,-0.4 -0.1,-0.6 M 0,-286.4 h 3.1 2.9 2.5 2.3 2.6 2 1.7 1.9 1.7 1 0.9 0.7 0.6 l 0.3,0.1 0.3,0.1 0.3,0.2 0.2,0.4 0.2,0.6 v 0.5 0.5 l 0.1,1 v 0.9 0.8 0.8 0.3 0.4 0.8 0.6 0.8 1.3 1.7 2.2 2.7 2.9 1.4 1.4 1.1 0.9 0.6 0.2 m -3.3,0 v -0.1 -0.4 -1.3 -1.9 -2.2 -2.1 -2.1 -1.7 -1.5 -2.4 -1.8 -1.2 -0.6 -0.7 -0.7 l 0.1,-1.3 m 1.1,-0.1 h 0.1 l -0.2,0.1 H 22.6 21.8 20.9 19.2 17.2 15.6 13.5 11 8.7 6.1 3.2 0 m 25.3,22 -0.1,0.5 -0.2,0.4 -0.3,0.3 -0.2,0.2 -0.3,0.1 m -165.8,118.1 v 3 2.9 2.5 2.3 2.6 2 1.7 1.9 1.7 1 0.8 0.5 0.3 m 0,-1.2 h 0.5 0.7 0.8 0.7 0.4 0.4 0.8 0.6 0.8 1.3 1.7 2.2 2.7 2.9 1.4 1.4 1.1 0.9 0.6 0.1 m 0,3.2 h -0.1 -0.3 -1.4 -1.9 -2.1 -2.2 -2.1 -1.7 -1.5 -2.4 -1.8 -1.1 -0.7 -0.7 -0.7 -1.9 -0.5 l -0.5,-0.1 -0.5,-0.1 -0.5,-0.2 -0.3,-0.3 -0.2,-0.3 v -0.3 l -0.1,-0.5 v -0.6 -0.9 -1 -1.7 -2 -1.6 -2.1 -2.6 -2.3 -2.6 -2.9 -3.1 m 0,0 v -3.1 -2.9 -2.5 -2.3 -2.6 -2 -1.7 -1.9 -1.7 -1 -0.9 -0.7 -0.6 l 0.1,-0.3 0.2,-0.3 0.2,-0.3 0.4,-0.2 0.5,-0.2 h 0.5 0.5 l 1,-0.1 h 0.9 0.9 0.7 0.4 0.3 0.9 0.6 0.8 1.2 1.8 2.2 2.7 2.9 1.4 1.3 1.2 0.9 0.6 0.1 m 0,3.3 h -0.1 -0.3 -1.3 -1.9 -2.2 -2.2 -2 -1.8 -1.5 -2.3 -1.9 -1.1 -0.7 -0.7 -0.7 l -1.3,-0.1 m 0,-1.1 v -0.1 0.2 0.5 0.8 0.9 1.7 2 1.6 2.1 2.5 2.3 2.6 2.9 3.2 M 1.6,-264.5 v 0.4 0.2 0.3 0.2 0.2 0.1 0.1 m -3.2,0 v -0.1 -0.1 -0.2 -0.2 -0.3 -0.2 -0.4 m 3.2,-8.7 v 8.7 m -3.2,0 v -8.7 m 0,-1.4 0.1,-0.6 0.4,-0.6 0.5,-0.3 0.6,-0.1 0.6,0.1 0.6,0.3 0.3,0.6 0.1,0.6 m -3.2,1.4 v -0.3 -0.3 -0.2 -0.2 -0.2 -0.1 -0.1 m 3.2,0 v 0 0.1 0.1 0.2 0.2 0.2 0.3 0.3 m -31.6,245.1 8.7,2 8.5,1.2 8,0.6 7.7,0.1 7.2,-0.4 8.4,-1 7.6,-1.5 6.9,-1.8 6.2,-2 6.1,-2.4 5.3,-2.3 4.9,-2.5 4.9,-2.8 4.8,-3 4.7,-3.3 4.5,-3.5 7.6,-6.8 7,-7.5 6.4,-8.1 5.6,-8.6 4.9,-9.1 4,-9.4 3.2,-9.8 2.4,-10 1.4,-10.2 0.6,-10.3 -0.4,-10.2 -1.2,-10.3 -2.2,-10 -3,-9.9 -3.8,-9.5 -4.7,-9.2 -5.5,-8.7 -6.2,-8.2 -6.9,-7.6 -7.5,-7 -8.1,-6.3 -8.7,-5.6 -9.1,-4.8 -9.5,-4 -9.8,-3.1 -10,-2.3 -10.2,-1.4 -10.3,-0.5 -10.2,0.4 -10.2,1.4 -10.1,2.2 -9.8,3 -9.5,3.9 -9.2,4.8 -8.6,5.5 -8.2,6.2 -7.6,7 -6.9,7.6 -6.3,8.1 -5.5,8.7 -4.8,9.1 -3.9,9.6 -3.1,9.8 -2.2,10 -1.3,10.2 -0.4,10.3 0.4,9.9 1.3,9.5 1,5.2 1.2,5.1 1.4,4.9 1.6,4.8 2.2,5.6 2.8,6.3 3.8,7 3.1,5.2 3.8,5.4 4.3,5.6 4.9,5.6 5.7,5.6 5.2,4.6 5.8,4.5 6.4,4.3 6.9,4 7.4,3.7 8,3.2 m -1.1,3 -8.5,-3.4 -7.8,-3.9 -7.2,-4.3 -6.5,-4.4 -5.9,-4.6 -6.4,-5.8 -5.6,-5.7 -4.8,-5.6 -4,-5.2 -3.8,-5.6 -3,-5.1 -2.7,-5 -2.5,-5.2 -2.3,-5.4 -2,-5.5 -1.7,-5.6 -2.1,-8.7 m -0.4,-1.9 -1.5,-10 -0.6,-10.6 0.3,-10.6 1.2,-10.5 0.7,-3.1 m 0.4,-2 1.1,-5.2 3,-10.1 3.9,-9.8 4.8,-9.5 5.5,-9 6.3,-8.4 7.1,-7.9 7.7,-7.2 8.3,-6.6 8.9,-5.8 9.3,-4.9 9.7,-4.2 10,-3.3 8.2,-1.8 m 1.8,-0.5 h 0.3 l 10.5,-1.5 10.2,-0.6 m 2.8,0.1 8.1,0.3 10.5,1.3 2.4,0.5 m 2,0.4 5.9,1.3 10.2,3.1 9.7,4 9.5,4.8 8.9,5.6 8.4,6.4 7.9,7.1 7.1,7.7 6.5,8.4 5.7,8.9 5,9.3 4,9.8 3.3,10 1.6,7.3 m 0.4,1.9 0.3,1.1 1.4,10.5 0.5,10.6 -0.5,10.5 -1.3,10.5 -0.4,1.7 m -0.4,1.9 -1.5,6.7 -3.1,10.1 -4.1,9.8 -4.9,9.4 -5.6,8.8 -6.2,8.2 -6.6,7.3 -3.5,3.3 -3.4,3.2 -3.6,2.9 -3.5,2.8 -4,2.8 -4.8,3.1 -5.5,3.2 -6.4,3.2 -5.7,2.5 -6.3,2.4 -6.9,2.2 -7.5,1.8 -0.6,0.1 m -1.9,0.4 -5.5,0.9 -8.7,0.9 -9.1,0.3 -9.6,-0.4 -10.1,-1.3 -2,-0.5 m -1.9,-0.4 -6.4,-1.4 m -9.8,-6.4 2.3,0.8 1.6,0.9 1,0.9 0.6,0.9 0.2,0.7 0.1,0.7 -0.2,1.3 -0.7,1.2 -1.4,1.4 -1.5,1 -2.1,1.3 -2.9,1.4 m -1.3,-3 2.1,-1 1.6,-0.8 1.3,-0.8 1.2,-0.9 0.5,-0.7 0.2,-0.2 v -0.1 -0.1 l -0.1,-0.1 -0.2,-0.2 -0.3,-0.3 -0.6,-0.3 -1,-0.5 -1.4,-0.5 m 65.2,4.8 0.7,0.1 0.5,0.3 0.3,0.5 0.2,0.7 -0.2,0.6 -0.3,0.5 -0.5,0.3 -0.7,0.2 -0.6,-0.2 -0.5,-0.3 -0.3,-0.5 -0.2,-0.6 0.2,-0.7 0.3,-0.5 0.5,-0.3 0.6,-0.1 m -47.2,0 0.6,0.1 0.5,0.3 0.4,0.5 0.1,0.7 -0.1,0.6 -0.4,0.5 -0.5,0.3 -0.6,0.2 -0.6,-0.2 -0.5,-0.3 -0.4,-0.5 -0.1,-0.6 0.1,-0.7 0.4,-0.5 0.5,-0.3 0.6,-0.1 M 118,-118 l 0.1,-0.6 0.4,-0.5 0.5,-0.4 0.6,-0.1 0.6,0.1 0.6,0.4 0.3,0.5 0.1,0.6 -0.1,0.6 -0.3,0.5 -0.6,0.4 -0.6,0.1 -0.6,-0.1 -0.5,-0.4 -0.4,-0.5 -0.1,-0.6 m 0,-47.3 0.1,-0.6 0.4,-0.5 0.5,-0.3 0.6,-0.2 0.6,0.2 0.6,0.3 0.3,0.5 0.1,0.6 -0.1,0.7 -0.3,0.5 -0.6,0.3 -0.6,0.2 -0.6,-0.2 -0.5,-0.3 -0.4,-0.5 -0.1,-0.7 m -141.6,-94.3 -0.6,-0.1 -0.5,-0.4 -0.4,-0.5 -0.1,-0.6 0.1,-0.6 0.4,-0.6 0.5,-0.3 0.6,-0.1 0.6,0.1 0.5,0.3 0.4,0.6 0.1,0.6 -0.1,0.6 -0.4,0.5 -0.5,0.4 -0.6,0.1 m 47.2,0 -0.6,-0.1 -0.5,-0.4 -0.3,-0.5 -0.2,-0.6 0.2,-0.6 0.3,-0.6 0.5,-0.3 0.6,-0.1 0.7,0.1 0.5,0.3 0.3,0.6 0.2,0.6 -0.2,0.6 -0.3,0.5 -0.5,0.4 -0.7,0.1 M -118,-118 l -0.1,0.6 -0.3,0.5 -0.5,0.4 -0.7,0.1 -0.6,-0.1 -0.5,-0.4 -0.3,-0.5 -0.2,-0.6 0.2,-0.6 0.3,-0.5 0.5,-0.4 0.6,-0.1 0.7,0.1 0.5,0.4 0.3,0.5 0.1,0.6 m 0,-47.3 -0.1,0.7 -0.3,0.5 -0.5,0.3 -0.7,0.2 -0.6,-0.2 -0.5,-0.3 -0.3,-0.5 -0.2,-0.7 0.2,-0.6 0.3,-0.5 0.5,-0.3 0.6,-0.2 0.7,0.2 0.5,0.3 0.3,0.5 0.1,0.6 m 118,-96.1 -0.6,-0.1 -0.5,-0.4 -0.4,-0.5 -0.1,-0.6 0.1,-0.6 0.4,-0.6 0.5,-0.3 0.6,-0.1 0.6,0.1 0.6,0.3 0.3,0.6 0.1,0.6 -0.1,0.6 -0.3,0.5 -0.6,0.4 -0.6,0.1 m -30,233.3 v 0.1 l -0.1,0.4 -0.1,0.5 -0.2,0.6 -0.2,0.6 -0.1,0.5 -0.1,0.3 v 0.1 m -10.1,-4.8 v 0 l -0.1,0.1 -0.1,0.5 -0.2,0.4 -0.1,0.3 v 0.2 m 0.5,-1.5 v -0.1 -0.1 l 0.2,-0.5 0.1,-0.4 0.1,-0.3 0.1,-0.1 m -3.2,12.4 -0.1,-0.1 -0.1,-0.4 -0.2,-0.4 -0.3,-0.6 -0.2,-0.6 -0.3,-0.4 -0.1,-0.3 v -0.2 M 0,0 V 0 0.1 0.4 1 1.6 2.2 2.7 3.1 3.2 m 141.6,-144.8 v 0 h 0.2 0.3 0.5 0.6 0.7 0.5 0.3 0.1 M 0,-283.2 v 0 -0.2 -0.3 -0.5 -0.6 -0.7 -0.5 -0.3 -0.1 m -141.6,144.8 v 0 h -0.1 -0.3 -0.6 -0.6 -0.6 -0.5 -0.4 -0.1 m 143.2,-122.9 0.1,-0.3 0.4,-0.3 0.5,-0.2 H 0 0.6 l 0.6,0.2 0.3,0.3 0.1,0.3 m -3.2,-8.7 0.1,-0.3 0.4,-0.3 0.5,-0.2 0.6,-0.1 0.6,0.1 0.6,0.2 0.3,0.3 0.1,0.3"
         style="fill:none;stroke:#000000;stroke-width:0.709;stroke-linecap:round;stroke-linejoin:round;stroke-miterlimit:10;stroke-dasharray:none;stroke-opacity:1"
         id="path12" />
    </g>
    <g
       id="g14"
       transform="translate(278.3,485.4)">
      <path
         d="m 0,0 v -3.6 m 0,-2 v -1 -5.5 -4.4 -3.4 -3.1 -3.1 -3.1 -17.7 -4 -0.1 m 0,-2 v -2 -4.2 -4.1 l 0.1,-4.1 0.5,-2.4 1,-2.1 1.5,-1.8 1.9,-1.6 2.3,-1.2 2.4,-0.6 h 2.6 l 2.4,0.6 2.2,1.1 2,1.5 1.5,1.9 1,2.3 0.7,3.3 0.4,3.3 0.4,3.5 0.4,3.5 0.4,3.5 0.8,6.5 0.8,6.6 0.5,3.9 0.4,4 0.5,3.9 0.1,4 v 3.5 2 2.1 2.8 3.2 1.8 1.7 1.6 1.6 1.3 1.1 0.7 0.3 m -3.2,0 v -0.2 -0.5 -0.8 -1 -1.5 -1.7 -1.7 -2.5 -2.1 -1.9 -1.9 -3.4 -3.8 -3.6 l -0.4,-3.8 -0.5,-3.7 -1.1,-9.4 -1.1,-9.5 -1.2,-10 -0.3,-2.6 -0.4,-2.4 -0.8,-1.9 -1.1,-1.6 -1.6,-1.3 -2.1,-0.9 -2.4,-0.2 -2.3,0.5 -2.1,1.1 -1.5,1.6 -1,1.8 -0.5,2.5 v 2.9 3.2 3.3 9.8 7.1 6.9 6.4 2.5 3.1 4 4.9 5.7 V 0 M -96,0 v -6.5 -5 m -22,9.9 4.5,-0.5 4.1,-1.2 3.5,-1.9 2.9,-2.3 2.4,-2.6 1.8,-2.7 1.3,-2.8 0.9,-2.6 0.5,-3.2 0.1,-3 v -2.7 -2.7 -2.7 -2.7 -4.1 -4.2 -4.1 -4.7 -5.6 -6.4 -1.7 -1.7 -1.8 -1.7 -1.5 -1.3 -0.9 -0.5 m 0,0 0.1,-0.6 0.2,-0.5 0.5,-0.4 0.2,-0.1 0.2,-0.1 0.3,-0.1 0.3,0.1 h 0.2 l 0.3,0.1 0.3,0.1 0.3,0.4 0.2,0.4 0.2,0.7 m 0,0 v 0.8 1.5 1.8 2.1 3.5 3 2.4 2.1 2.2 8.5 15.4 3.3 3.2 l -0.1,3.4 -0.8,5.1 -1.8,4.8 -2.7,4.2 -1.6,1.8 -2,2 -2.8,2 -3.6,1.9 -2.2,0.8 -2.3,0.6 -2.6,0.5 -2.8,0.1 m 25.3,-26.9 v 5.9 9.2 V 0 m -50.5,0 v -6.5 -5.5 -4.4 -3.4 -3 -3.1 -0.3 m 25.2,27.8 -4.8,-0.5 -4.5,-1.3 -3.9,-1.9 -3.3,-2.5 -2.8,-2.8 -2.1,-2.9 -1.6,-3 -1.1,-3 -0.8,-3.7 -0.3,-3.4 v -2.8 -2.6 -2.7 -2.7 -3.3 -3.4 -3.3 -3.5 -3.8 -5.6 -6.6 -3.6 -1.8 -1.8 -1.6 -1.4 -1 -0.5 m 0,0 0.1,-0.6 0.2,-0.5 0.5,-0.4 0.2,-0.1 0.2,-0.1 0.3,-0.1 0.3,0.1 h 0.2 l 0.2,0.1 0.3,0.1 0.3,0.4 0.3,0.4 0.1,0.7 m 0,0 v 0.7 1.4 1.7 2 2.8 2.6 2.2 1.8 1.7 1.7 8.1 14.7 4.8 4.9 l 0.1,2.4 0.3,2.3 1.4,4.6 2.2,4 1.4,1.8 1.7,1.8 2.5,1.9 3.2,1.9 2,0.8 2.2,0.6 2.4,0.4 2.6,0.2 m -22,-9.8 V -10.2 0 m -99.2,0 v -6.2 -5.3 -4.3 -3.4 -2.8 -2.9 -3 -8.2 -8.3 -6.4 -6.5 -6.9 -2.4 l -0.4,-2 -0.8,-1.7 -1.3,-1.6 -2,-1.3 -2.3,-0.7 -2.4,0.1 -2.1,0.7 -1.8,1.3 -1.3,1.6 -0.9,1.8 -0.3,2.2 -0.3,2.6 -0.4,2.6 -0.3,2.7 -0.9,7.9 -0.8,6.7 -0.8,6.7 -0.3,2.6 -0.3,2.6 -0.3,2.7 -0.3,2.5 -0.1,2.6 v 2.4 2.3 1.9 2.3 2.8 3.1 1.6 1.6 1.5 1.4 1.3 0.9 0.7 0.2 m -3.2,0 v -0.2 -0.6 -0.9 -1.1 -1.7 -1.8 -1.8 -2.5 -2.1 -4.2 -3.7 -4 l 0.3,-4.1 0.4,-4 0.5,-4 2.4,-20 0.6,-5.1 0.6,-5.1 0.5,-2.6 1.1,-2.4 1.4,-1.8 1.8,-1.5 2.1,-1.2 2.5,-0.6 2.5,-0.1 2.5,0.5 2.3,1 2,1.6 1.6,1.9 1.1,2.2 0.6,3.2 v 3.1 3.4 3.5 3.6 0.2 m 0,1.9 v 1.3 7.5 7.5 7 2.1 2.5 3.2 3.9 4.6 5.4 0.3 m 0,2 V 0 m 116.4,-25.7 v -0.5 -0.6 -0.8 -0.7 -0.8 -0.8 -0.6 -0.5 m 3.2,0 v 0.5 0.6 0.8 0.8 0.7 0.8 0.6 0.5 m 0,-11.1 v 5.8 m -3.2,0 v -5.8 m 3.2,11.1 v 5.9 m -3.2,0 v -5.9 m 3.2,-13.8 v 0.4 0.4 0.3 0.4 0.3 0.3 0.3 0.3 m -3.2,0 v -0.3 -0.3 -0.3 -0.3 -0.4 -0.3 -0.4 -0.4 m 3.2,19.7 v 0.2 0.3 0.3 0.3 0.4 0.3 0.4 0.4 m -3.2,0 v -0.4 -0.4 -0.3 -0.4 -0.3 -0.3 -0.3 -0.2 m 3.2,-34.5 v 14.8 m -3.2,0 v -14.8 m 3.2,37.1 v 14.8 m -3.2,0 V -17.2 M 0,-3.1 h -1.2 -1.6 -2.5 -2.8 -3 -3 -3.4 -3.3 -3.4 -3.6 -3.8 -4.1 -4.3 -8.1 -8.7 -9.2 -9.5 -9.9 -7.3 m -3.3,0 h -7.4 m -6.7,0 h -6.2 -0.1 m -3.2,0 h -6.3 m -6.6,0 h -4.6 -2.9 m -3.2,0 h -4.1 -10 -9.7 -9.3 -8.9 -8.2 -3.9 -3.7 -3.5 -3.4 -3.2 -3 -2.9 -3.2 -3.2 -3.1 -3 -2.7 -1.9 -1.4 -0.5 m 0,-3.2 h 0.5 1.4 1.9 2.7 3 3.1 3.2 3.6 3.4 3.5 3.7 4 4.2 4.4 8.2 8.9 9.3 9.7 10 4.1 m 3.2,0 h 2.9 0.9 m 4.7,0 h 4.7 7.2 m 3.2,0 h 0.1 10.4 1.4 m 4.9,0 h 3.6 m 3.3,0 h 7.3 9.9 9.5 9.2 8.7 8.1 3.8 3.6 3.4 3.3 3 2.9 2.9 3 3 3 2.8 2.5 1.6 1.2 m 0,-44.1 h -1.2 -1.6 -2.5 -2.8 -3 -3 -3.4 -3.3 -3.4 -3.6 -3.8 -4.1 -4.3 -8.1 -8.7 -9.2 -9.5 -9.9 -7.3 m -3.3,0 h -9.9 -10.4 -0.1 m -3.2,0 h -7.2 -10.3 -2.9 m -3.2,0 h -4.1 -10 -9.7 -9.3 -8.9 -8.2 -3.9 -3.7 -3.5 -3.4 -3.2 -3 -2.9 -3.2 -3.2 -3.1 -3 -2.7 -1.9 -1.4 -0.5 m 0,-3.2 h 0.5 1.4 1.9 2.7 3 3.1 3.2 3.6 3.4 3.5 3.7 4 4.2 4.4 8.2 8.9 9.3 9.7 10 4.1 m 3.2,0 h 2.9 10.3 7.2 m 3.2,0 h 0.1 10.4 9.9 m 3.3,0 h 7.3 9.9 9.5 9.2 8.7 8.1 3.8 3.6 3.4 3.3 3 2.9 2.9 3 3 3 2.8 2.5 1.6 H 0 M 0,0 H 0.1 0.5 1 1.6 2.2 2.8 3.1 3.2 m 20.4,0 0.2,0.6 0.3,0.5 0.5,0.4 0.6,0.1 L 25.9,1.5 26.4,1.1 26.7,0.6 26.8,0 M -96,0 h 0.2 0.3 0.5 0.6 0.7 0.5 0.3 0.2 m -50.5,0 h 0.1 0.4 0.5 0.6 0.6 0.5 0.4 0.1 m -99.2,0 h 0.2 0.3 0.5 0.6 0.7 0.5 0.3 0.1 m -23.6,0 -0.1,0.6 -0.3,0.5 -0.6,0.4 -0.6,0.1 -0.6,-0.1 -0.5,-0.4 -0.4,-0.5 -0.1,-0.6 m 143.2,-54.3 h 0.1 0.4 0.5 0.6 0.6 0.6 0.3 0.1 m -3.2,51.9 h 0.1 0.4 0.5 0.6 0.6 0.6 0.3 0.1 M -118,0 v -0.6 -0.5 -0.4 -0.1 m 0,3.2 V 1.5 1.1 0.6 0 m -1.6,-25.7 0.1,0.5 0.4,0.5 0.5,0.3 0.6,0.1 0.6,-0.1 0.6,-0.3 0.3,-0.5 0.1,-0.5 m -3.2,-5.3 0.1,-0.5 0.4,-0.5 0.5,-0.3 0.6,-0.1 0.6,0.1 0.6,0.3 0.3,0.5 0.1,0.5 m -3.2,-5.8 0.1,-0.5 0.4,-0.5 0.5,-0.3 0.6,-0.1 0.6,0.1 0.6,0.3 0.3,0.5 0.1,0.5 m -3.2,17 0.1,0.5 0.4,0.4 0.5,0.3 0.6,0.1 0.6,-0.1 0.6,-0.3 0.3,-0.4 0.1,-0.5 m -3.2,-19.7 h 0.1 0.4 0.5 0.6 0.6 0.6 0.3 0.1 m -3.2,22.3 h 0.1 0.4 0.5 0.6 0.6 0.6 0.3 0.1"
         style="fill:none;stroke:#000000;stroke-width:0.709;stroke-linecap:round;stroke-linejoin:round;stroke-miterlimit:10;stroke-dasharray:none;stroke-opacity:1"
         id="path16" />
    </g>
    <text
       xml:space="preserve"
       transform="matrix(0.999435,0,0,-1,139.39041,685.2468)"
       style="font-variant:normal;font-weight:normal;font-stretch:normal;font-size:11px;font-family:Verdana;-inkscape-font-specification:Verdana;writing-mode:lr-tb;fill:#808080;fill-opacity:1;fill-rule:nonzero;stroke:none"
       id="text20"><tspan
         x="0 7.5197492 15.995957 20.987135 28.506884 36.983093 41.97427"
         y="0"
         id="tspan18">AD(AD) </tspan></text>
    <text
       xml:space="preserve"
       transform="matrix(0.999722,0,0,-1,32.075524,529.6738)"
       style="font-variant:normal;font-weight:normal;font-stretch:normal;font-size:11px;font-family:Verdana;-inkscape-font-specification:Verdana;writing-mode:lr-tb;fill:#808080;fill-opacity:1;fill-rule:nonzero;stroke:none"
       id="text24"><tspan
         x="0 7.5219083 13.251315 20.212379 26.821541 32.550949 39.512012 43.844807 48.837418 56.359329 62.088734 69.049797 75.658958 81.388367 88.349434 92.682228 97.674835"
         y="0"
         id="tspan22">Schacht(Schacht) </tspan></text>
    <text
       xml:space="preserve"
       transform="matrix(0.999986,0,0,-1,192.03855,552.1248)"
       style="font-variant:normal;font-weight:normal;font-stretch:normal;font-size:11px;font-family:Verdana;-inkscape-font-specification:Verdana;writing-mode:lr-tb;fill:#808080;fill-opacity:1;fill-rule:nonzero;stroke:none"
       id="text28"><tspan
         x="0 7.5238948 11.857834 18.820736 23.154676 28.929594 35.485504 40.479435 48.003326 52.337269 59.300171 63.634109 69.409027 75.964935 80.95887"
         y="0"
         id="tspan26">Stütze(Stütze) </tspan></text>
    <text
       xml:space="preserve"
       transform="matrix(1.000475,0,0,-1,235.5326,805.2678)"
       style="font-variant:normal;font-weight:normal;font-stretch:normal;font-size:11px;font-family:'Century Gothic';-inkscape-font-specification:CenturyGothic;writing-mode:lr-tb;fill:#000000;fill-opacity:1;fill-rule:nonzero;stroke:none"
       id="text32"><tspan
         x="0 5.4806023 9.2113733 16.727942 24.233505 28.294434 33.775036 37.505806 45.022377 52.527939"
         y="0"
         id="tspan30">Stab(Stab)</tspan></text>
    <text
       xml:space="preserve"
       transform="matrix(0.999785,0,0,-1,49.796768,405.3078)"
       style="font-variant:normal;font-weight:normal;font-stretch:normal;font-size:11px;font-family:Verdana;-inkscape-font-specification:Verdana;writing-mode:lr-tb;fill:#000000;fill-opacity:1;fill-rule:nonzero;stroke:none"
       id="text36"><tspan
         x="0 6.3236403 12.878231 19.729757 26.284348 30.980337 35.973263 42.296906 48.851494 55.703022 62.25761 66.953606 71.946526"
         y="0"
         id="tspan34">Feder(Feder) </tspan></text>
    <g
       id="g38"
       transform="translate(15.5,402.9)">
      <path
         d="M 0,0 9.4,2.1 V -2 L 0,0 M 26.8,0 17.5,-2 V 2.1 L 26.8,0"
         style="fill:none;stroke:#000000;stroke-width:0.51;stroke-linecap:butt;stroke-linejoin:miter;stroke-miterlimit:10;stroke-dasharray:none;stroke-opacity:1"
         id="path40" />
    </g>
    <g
       id="g42"
       transform="translate(232.5,562.6)">
      <path
         d="M 0,0 -2.1,9.3 H 2 L 0,0 m 0,-14.8 2,-9.4 h -4.1 l 2.1,9.4"
         style="fill:none;stroke:#808080;stroke-width:0.51;stroke-linecap:butt;stroke-linejoin:miter;stroke-miterlimit:10;stroke-dasharray:none;stroke-opacity:1"
         id="path44" />
    </g>
    <g
       id="g46"
       transform="translate(15.5,682.9)">
      <path
         d="M 0,0 9.4,2 V -2.1 L 0,0 m 289.6,0 -9.3,-2.1 V 2 l 9.3,-2 M 0,-155.6 l 9.4,2 v -4.1 l -9.4,2.1 m 289.6,0 -9.3,-2.1 v 4.1 l 9.3,-2"
         style="fill:none;stroke:#808080;stroke-width:0.51;stroke-linecap:butt;stroke-linejoin:miter;stroke-miterlimit:10;stroke-dasharray:none;stroke-opacity:1"
         id="path48" />
    </g>
    <g
       id="g50"
       transform="translate(14.5,683.4)">
      <path
         d="M 0,0 2,-2 M 0,-2 2,0 M 1,-2.4 V 0.4 M 2.4,-1 h -2.8 m 290,1 2,-2 m -2,0 2,2 m -1,-2.4 v 2.8 m 1.5,-1.4 h -2.9"
         style="fill:none;stroke:#c0c0c0;stroke-width:0.51;stroke-linecap:butt;stroke-linejoin:miter;stroke-miterlimit:10;stroke-dasharray:none;stroke-opacity:1"
         id="path52" />
    </g>
    <g
       id="g54"
       transform="translate(14.5,461.9)">
      <path
         d="M 0,0 2,-2 M 0,-2 2,0 M 1,-2.4 V 0.4 M 2.4,-1 h -2.8 m 27.2,1 2,-2 m -2,0 2,2 m -1,-2.4 V 0.4 M 29.3,-1 h -2.9"
         style="fill:none;stroke:#c0c0c0;stroke-width:0.51;stroke-linecap:butt;stroke-linejoin:miter;stroke-miterlimit:10;stroke-dasharray:none;stroke-opacity:1"
         id="path56" />
    </g>
    <g
       id="g58"
       transform="translate(160.3775,562.6295)">
      <path
         d="M 0,0 V -14.807"
         style="fill:none;stroke:#c0c0c0;stroke-width:0.51;stroke-linecap:butt;stroke-linejoin:miter;stroke-miterlimit:10;stroke-dasharray:43.2, 3.6, 3.6, 3.6;stroke-dashoffset:41.197;stroke-opacity:1"
         id="path60" />
    </g>
    <g
       id="g62"
       transform="translate(234,809.5)">
      <path
         d="M 0,0 V 0"
         style="fill:none;stroke:#000000;stroke-width:0.51;stroke-linecap:round;stroke-linejoin:round;stroke-miterlimit:10;stroke-dasharray:none;stroke-opacity:1"
         id="path64" />
    </g>
    <g
       id="g66"
       transform="translate(234,809.5)">
      <path
         d="M 0,0 -23,-19.4"
         style="fill:none;stroke:#000000;stroke-width:0.51;stroke-linecap:round;stroke-linejoin:round;stroke-miterlimit:10;stroke-dasharray:none;stroke-opacity:1"
         id="path68" />
    </g>
    <g
       id="g70"
       transform="translate(15.5,458.1)">
      <path
         d="M 0,0 V -58 M 26.8,0 V -58 M 0,-55.2 h 26.8 m 0,0 h 83.3"
         style="fill:none;stroke:#000000;stroke-width:0.51;stroke-linecap:round;stroke-linejoin:round;stroke-miterlimit:10;stroke-dasharray:none;stroke-opacity:1"
         id="path72" />
    </g>
    <g
       id="g74"
       transform="translate(163.2,562.6)">
      <path
         d="M 0,0 H 72.1 M 0,-14.8 H 72.1 M 69.3,0 v 18 m 0,-32.8 v -18 m 0,18 v 1.9"
         style="fill:none;stroke:#808080;stroke-width:0.51;stroke-linecap:round;stroke-linejoin:round;stroke-miterlimit:10;stroke-dasharray:none;stroke-opacity:1"
         id="path76" />
    </g>
    <g
       id="g78"
       transform="translate(232.5,562.6)">
      <path
         d="M 0,0 V 0"
         style="fill:none;stroke:#808080;stroke-width:0.51;stroke-linecap:round;stroke-linejoin:round;stroke-miterlimit:10;stroke-dasharray:none;stroke-opacity:1"
         id="path80" />
    </g>
    <g
       id="g82"
       transform="translate(15.5,685.2)">
      <path
         d="M 0,0 V 0.5 M 289.6,0 V 0.5 M 0,-2.3 H 289.6 M 0,-5.7 v -155 m 289.6,155 v -155 M 0,-157.9 h 289.6"
         style="fill:none;stroke:#808080;stroke-width:0.51;stroke-linecap:round;stroke-linejoin:round;stroke-miterlimit:10;stroke-dasharray:none;stroke-opacity:1"
         id="path84" />
    </g>
    <g
       id="g86"
       transform="translate(210,789.3)">
      <path
         d="M 0,0 0.2,-0.2 0.4,-0.4 0.7,-0.5 H 1 1.3 l 0.2,0.1 0.3,0.1 0.2,0.2 0.2,0.2 0.1,0.3 0.1,0.3 V 0.9 L 2.3,1.2 2.2,1.5 2.1,1.7 1.9,1.9 1.6,2.1 1.3,2.2 H 1.1 0.8 L 0.5,2.1 0.3,2 0,1.8 -0.1,1.6 -0.3,1.3 V 1 0.7 0.5 L -0.2,0.2 0,0 1,0.8"
         style="fill:#000000;fill-opacity:1;fill-rule:nonzero;stroke:none"
         id="path88" />
    </g>
    <g
       id="g90"
       transform="translate(15.5,402.9)">
      <path
         d="M 0,0 9.4,2.1 V -2 m 17.4,2 -9.3,-2 v 4.1"
         style="fill:#000000;fill-opacity:1;fill-rule:nonzero;stroke:none"
         id="path92" />
    </g>
    <g
       id="g94"
       transform="translate(232.5,562.6)">
      <path
         d="M 0,0 -2.1,9.3 H 2 m -2,-24.1 2,-9.4 h -4.1"
         style="fill:#808080;fill-opacity:1;fill-rule:nonzero;stroke:none"
         id="path96" />
    </g>
    <g
       id="g98"
       transform="translate(15.5,682.9)">
      <path
         d="M 0,0 9.4,2 V -2.1 M 289.6,0 280.3,-2.1 V 2 M 0,-155.6 l 9.4,2 v -4.1 m 280.2,2.1 -9.3,-2.1 v 4.1"
         style="fill:#808080;fill-opacity:1;fill-rule:nonzero;stroke:none"
         id="path100" />
    </g>
  </g>
</svg>
