<?xml version="1.0" encoding="UTF-8" standalone="no"?>
<!-- Created with Inkscape (http://www.inkscape.org/) -->

<svg
   version="1.1"
   id="svg2"
   width="793.70135"
   height="1122.52"
   viewBox="0 0 793.70135 1122.52"
   xmlns="http://www.w3.org/2000/svg"
   xmlns:svg="http://www.w3.org/2000/svg">
  <defs
     id="defs6" />
  <g
     id="g8"
     transform="matrix(1.3333333,0,0,-1.3333333,0,1122.52)">
    <g
       id="g10"
       transform="translate(225.5,537.4)">
      <path
         d="M 0,0 1.4,2.1 2.6,3.9 3,4.4 3.3,4.8 3.6,5.3 4,6.3 4.2,7.2 V 8 L 4.1,8.6 3.7,9.4 3.2,10.2 2.4,10.9 1.5,11.3 0.5,11.6 -0.5,11.5 -1.8,11.1 -3,10.7 -4.4,10.3 -8.5,9 l -4.4,-1.1 -4.3,-1 -7.5,-1.2 -7.2,-0.8 -8.5,-0.3 -8.4,0.4 -8.3,0.9 -11.2,2.2 -11,3.3 -10.8,4.5 -8,4.1 -8,5 -2.6,1.9 -2.5,1.8 -1.9,1.5 -0.7,0.6 -0.7,0.6 -0.9,0.4 -0.6,0.2 h -0.9 l -1,-0.2 -1,-0.5 -1.1,-0.9 -1,-0.9 -1,-0.9 -1.1,-0.9 -3.4,-3.2 -6.9,-6.3 -6.4,-5.8 -6.7,-6.2 -3.6,-3.2 -3.1,-2.9 -1.5,-1.3 v -0.1 h -0.1 l -0.1,-0.1 -0.3,-0.1 -0.3,0.1 -0.2,0.1 -0.2,0.1 -0.1,0.1 -1.3,1.3 -2.4,2.3 -2,2.1 -0.5,0.5 -0.4,0.4 -0.1,0.2 -0.1,0.1 v 0.3 0.2 l 0.1,0.2 0.1,0.1 v 0.1 l 2.2,2.4 2.7,2.9 3.4,3.7 3.3,3.7 3.2,3.5 3.2,3.5 3.2,3.5 3.3,3.6 3.3,3.6 2.8,3.1 1.1,1.2 1.1,1.4 0.3,0.8 0.1,0.9 v 0.9 l -0.3,1 -1,1.4 -1,1.2 -1,1.3 -1.1,1.4 -1.8,2.5 -1.9,2.9 -3.4,5.5 -3,5.4 -3.7,8.1 -3.1,8 -2.4,8.3 -1.8,8.4 -1.5,11.4 -0.3,11.4 0.8,11.5 1.9,11.3 3.1,11.1 4.1,10.8 4,8 4.7,8 1.7,2.6 1.9,2.7 1.8,2.4 1.2,1.5 0.9,1.2 0.4,0.5 0.4,0.7 0.4,1.3 v 0.9 l -0.2,1 -1.1,1.6 -1.1,1.2 -1.2,1.3 -2.9,3.2 -5.7,6.2 -11.1,12.2 -3.5,3.8 -3.2,3.5 -2.7,3 -0.3,0.3 -0.2,0.3 -0.2,0.2 v 0.3 0.3 l 0.2,0.3 0.1,0.1 1.3,1.3 1.5,1.5 2.2,2.2 1,1 0.5,0.5 0.1,0.1 0.1,0.1 0.2,0.1 h 0.1 l 0.2,0.1 0.3,-0.1 0.2,-0.1 h 0.1 v -0.1 l 1.3,-1.1 1.5,-1.4 6,-5.5 5.8,-5.3 5.6,-5.1 5.6,-5.2 5.7,-5.1 2.9,-2.7 2.3,-2 0.2,-0.3 0.4,-0.3 1,-0.5 1,-0.2 1.1,0.1 1.1,0.4 1.2,0.9 0.8,0.8 2,2.1 2.4,2.4 2.8,2.7 2.9,2.3 3.3,1.9 8.2,4.2 7.9,3.4 8.2,2.8 8.3,2.1 11.3,1.9 11.5,0.8 11.4,-0.3 11.4,-1.5 11.2,-2.6 10.9,-3.7 9,-3.9 8.9,-4.9 3.5,-2.3 3.5,-2.4 3.2,-2.4 2.4,-1.8 0.5,-0.5 0.7,-0.5 0.8,-0.3 0.9,-0.2 h 1 l 1,0.3 1.6,1.2 1.2,1.1 1.4,1.2 1.4,1.4 2.6,2.3 2.8,2.5 10.6,9.7 5,4.6 4.7,4.3 4.3,3.9 0.7,0.7 0.2,0.1 0.1,0.1 0.3,0.1 0.4,-0.1 0.2,-0.2 h 0.1 l 0.1,-0.1 1.1,-1.2 1.4,-1.3 2.1,-2.1 1,-1.1 0.6,-0.5 0.2,-0.3 0.2,-0.1 0.1,-0.2 0.1,-0.2 v -0.2 -0.2 l -0.2,-0.3 -0.2,-0.3 -0.3,-0.3 -3.3,-3.6 -4.1,-4.5 -4.5,-4.9 -4.5,-4.9 -4.5,-5 -4.3,-4.6 -2,-2.2 -1.8,-2.1 -1.7,-1.8 -1,-1.1 -0.3,-0.4 -0.2,-0.3 -0.4,-0.7 -0.1,-0.7 -0.1,-0.9 0.2,-1 0.9,-1.6 0.9,-1.1 1,-1.2 2.5,-3.4 2.6,-3.7 2.5,-3.9 4.5,-8.2 3.6,-8 2.9,-8 2.4,-8.3 2.2,-11.3 1.1,-11.4 -0.1,-11.5 -1.2,-11.4 -2.3,-11.2 -3.4,-11 -1.5,-4.1 -1.8,-4 -1.9,-4 -2,-3.9 -2.3,-4 -2.5,-4 -2.8,-4 -2.6,-3.5 -1.9,-2.4 -0.3,-0.4 -0.3,-0.4 -0.3,-0.8 -0.1,-0.9 0.1,-1 0.4,-1 1,-1.4 1,-1.1 1.1,-1.2 1.2,-1.2 4.1,-4.6 4.3,-4.6 4.2,-4.7 4.6,-5 4.5,-4.9 L 79.5,9.6 80.9,8 81.6,7.3 82,6.9 82.2,6.6 82.4,6.3 V 6 L 82.3,5.7 82.2,5.6 V 5.5 L 82,5.4 80.2,3.6 78.2,1.5 76.1,-0.6 75.5,-1.1 75.4,-1.3 h -0.1 l -0.2,-0.1 -0.2,-0.1 h -0.2 l -0.2,0.1 -0.2,0.1 -0.4,0.4 -0.4,0.4 -1.1,1 -2.2,2 -4,3.6 -4.4,4 -4.2,3.9 -4.2,3.8 -4.1,3.8 -6.9,6.3 -1.7,1.5 -1.7,1.6 -1.5,1.3 -0.3,0.3 -0.5,0.4 -1.1,0.5 -1,0.1 h -0.8 l -0.7,-0.2 -0.4,-0.2 -1,-0.7 -0.9,-0.9 -1.2,-1.2 -1.6,-1.5 -1.9,-2 -2.3,-2.3 -2.4,-2.3 -3.6,-2.2 -4.2,-2.3 m 14.2,6.3 1.3,1.3 1.9,1.8 1.1,1.2 0.9,0.9 0.6,0.6 0.2,0.2 0.2,0.1 0.2,0.2 h 0.3 0.3 l 0.2,-0.1 0.1,-0.1 0.1,-0.1 3.5,-3.2 3.6,-3.3 3.5,-3.1 3.4,-3.2 14.5,-13.2 3.4,-3.2 2.8,-2.5 0.6,-0.6 0.6,-0.5 0.5,-0.5 0.5,-0.4 0.9,-0.7 1,-0.3 1.1,-0.1 1.1,0.2 1,0.5 1,1 0.9,0.9 1.2,1.1 1.4,1.5 1.3,1.3 1.3,1.2 0.6,0.8 0.5,0.9 0.2,0.9 v 1 l -0.3,1 -1,1.5 -1,1.1 -1.1,1.2 -2.8,3.1 -2.9,3.2 -3.2,3.4 -4.6,5.1 -4.6,5 -4.6,5 -3,3.4 -2.7,2.9 -1.1,1.2 -0.2,0.2 -0.1,0.1 v 0.1 l -0.1,0.1 -0.1,0.3 -0.1,0.3 0.2,0.3 0.5,0.7 0.6,0.8 4.2,5.6 4.3,6.4 3.8,6.8 3.2,6.6 2.7,6.4 3.6,11.1 2.6,11.3 1.4,11.5 0.3,11.6 -0.9,11.6 -1.9,11.5 -2.2,8.4 -2.8,8.3 -3.5,8.1 -4.1,8.2 -1.6,2.7 -1.7,2.8 -1.9,2.8 -2,2.8 -2.1,2.9 -2,2.5 -0.3,0.4 -0.2,0.2 v 0.1 l -0.1,0.2 -0.1,0.3 0.1,0.2 v 0.2 l 0.2,0.1 0.1,0.2 2.1,2.2 2.5,2.8 2.6,2.9 2.8,3 2.8,3.1 2.9,3.2 2.9,3.1 3.9,4.3 3.8,4.2 3.1,3.4 2.5,2.7 0.2,0.2 0.3,0.5 0.5,0.9 0.2,1.1 -0.1,1 -0.3,1.1 -1.1,1.3 -1,1 -2.1,2.1 -1.9,1.9 -0.7,0.8 -0.7,0.6 -1.1,0.8 -0.9,0.3 -0.9,0.1 -1,-0.2 -1,-0.4 -1.2,-1 -1.1,-0.9 -1.1,-1.1 -1.2,-1.1 -4.3,-3.9 -4.9,-4.5 -5.1,-4.6 -5,-4.6 -3.8,-3.4 -3.4,-3.2 -2.9,-2.6 -1.5,-1.4 -0.5,-0.4 -0.2,-0.1 -0.3,-0.1 -0.4,0.1 h -0.1 l -0.3,0.3 -4.9,3.7 -5.5,3.9 -6.1,3.7 -6.1,3.2 -5.9,2.8 -10.9,4 -11.2,3 -11.5,1.9 -11.6,0.7 -11.6,-0.3 -11.5,-1.5 -8.5,-1.8 -8.3,-2.5 -8.2,-3.1 -8.2,-3.8 -2.7,-1.4 -2.7,-1.5 -2.8,-1.6 -2.9,-2.1 -2.3,-2.3 -2.3,-2.4 -3.5,-3.5 -0.4,-0.3 -0.2,-0.2 -0.2,-0.2 -0.1,-0.1 -0.2,-0.1 -0.3,-0.1 -0.3,0.1 -0.2,0.1 -0.2,0.1 -0.2,0.3 -2.1,1.8 -2.7,2.5 -3.3,3 -3.2,3 -3.3,3 -3.2,2.9 -7.3,6.7 -7.5,6.8 -1.7,1.6 -1.4,1.3 -0.6,0.5 -0.8,0.6 -0.8,0.4 -0.8,0.2 -0.7,0.1 -0.8,-0.1 -1,-0.4 -1.4,-1.1 -1.1,-1.2 -1.4,-1.3 -1.8,-1.8 -1.6,-1.6 -0.3,-0.3 -0.4,-0.5 -0.5,-0.9 -0.3,-0.8 v -0.9 l 0.1,-0.9 0.4,-1 1,-1.2 0.9,-1 1,-1.1 1.1,-1.2 4,-4.4 4,-4.4 4.1,-4.4 7,-7.8 6.6,-7.2 2.8,-3.1 0.3,-0.2 V 198 l 0.1,-0.3 v -0.3 l -0.1,-0.2 -0.1,-0.1 -2.7,-3.4 -3,-4.1 -3.2,-5 -3.1,-5.1 -2.6,-5.1 -3.7,-8.1 -3,-8.1 -2.4,-8.4 -1.7,-8.6 -1.4,-11.5 -0.3,-11.6 0.9,-11.6 1.9,-11.4 3.1,-11.2 4.2,-11 4,-8.1 4.7,-8.1 1.8,-2.8 1.9,-2.7 2,-2.7 2.5,-3.2 0.2,-0.2 0.1,-0.1 v -0.3 -0.2 l -0.1,-0.2 v -0.2 h -0.1 l -0.1,-0.2 -2.3,-2.5 -3,-3.2 -3,-3.4 -3,-3.2 -2.9,-3.2 -5.5,-6 -5.6,-6.1 -2.1,-2.4 -2.2,-2.4 -1.8,-1.9 -0.4,-0.4 -0.3,-0.4 -0.4,-0.6 -0.4,-0.9 -0.2,-0.7 V 5.9 l 0.1,-0.8 0.4,-1 0.3,-0.5 0.4,-0.5 1.3,-1.3 1.6,-1.5 1.8,-1.9 1.6,-1.6 0.3,-0.3 0.5,-0.4 0.9,-0.5 0.8,-0.2 0.9,-0.1 0.9,0.2 1,0.4 1.1,0.9 0.9,0.8 1,0.9 1,0.9 3.8,3.5 3.9,3.6 3.9,3.6 7,6.3 6.7,6.2 3.4,3 3.1,2.9 0.2,0.1 0.1,0.1 0.4,0.1 0.3,-0.1 h 0.1 l 0.2,-0.2 0.4,-0.3 0.8,-0.6 1.6,-1.3 4.5,-3.3 5.5,-3.6 5.7,-3.3 8.3,-4.1 8,-3.3 8.3,-2.7 8.5,-2.1 8.6,-1.4 8.6,-0.9 8.7,-0.2 8.9,0.5 6.1,0.7 6.4,1.1 6.3,1.4 4.5,1.2 4.2,1.3 1.8,0.6 0.2,0.1 h 0.1 L 0,8.4 H 0.3 L 0.4,8.3 0.6,8.2 0.7,8.1 0.8,8 0.9,7.8 1,7.6 V 7.3 L 0.9,7.1 0.7,6.8 -0.1,5.6 -2.6,1.7 M 9.5,15.7 8.9,15.4 6.1,13.9 5.5,13.6 4.9,13.3 4.5,13.1 4.2,12.9 3.9,12.7 3.7,12.6 3.6,12.5 H 3.5 V 12.4 L 3.4,12.3 3.3,12.2 3.2,12 3.1,11.8 V 11.2 L 3.2,10.7 3.4,10.3 3.7,10.1 4,9.9 4.2,9.8 H 4.3 4.4 4.5 4.7 5 l 0.5,0.2 1,0.5 1.2,0.6 1.2,0.6 2.7,1.5 4.6,2.4 5.8,3 2.8,1.4 1.3,0.7 0.3,0.2 0.2,0.1 h 0.2 0.1 0.1 l 0.3,-0.1 0.2,-0.2 0.2,-0.3 0.3,-0.5 1.1,-1.4 1.2,-1.5 2,-2.6 2.5,-3.3 2.9,-3.8 m 2.5,1.9 -2.9,3.9 -2.5,3.3 -2,2.5 -1.1,1.5 -0.9,1.3 -0.5,0.5 -0.5,0.7 -0.7,0.6 -0.7,0.4 -1.3,0.3 h -0.6 l -0.8,-0.1 -1.4,-0.7 -1.4,-0.7 -1.6,-0.9 -3.9,-2 -3.8,-2 L 9.5,15.7 5.3,13.5 4.7,13.1 4.5,13 H 4.4 m -7,-11.3 h 0.1 L -2.3,1.5 -1.8,1.2 -1.3,0.8 -0.8,0.5 -0.4,0.2 -0.1,0 H 0 m 37.7,7.3 0.1,0.1 0.2,0.2 0.4,0.3 0.5,0.4 0.5,0.4 0.4,0.3 0.3,0.2 h 0.1 V 9.1 L 39.9,8.9 39.5,8.6 39,8.2 38.5,7.8 38.1,7.5 37.8,7.3 h -0.1"
         style="fill:none;stroke:#000000;stroke-width:0.709;stroke-linecap:round;stroke-linejoin:round;stroke-miterlimit:10;stroke-dasharray:none;stroke-opacity:1"
         id="path12" />
    </g>
    <g
       id="g14"
       transform="translate(224.2,416.2)">
      <path
         d="m 0,0 h 1.2 1.2 1.2 0.2 0.1 m 11.8,0 h 3.5 3.2 2.8 2.3 2.2 2.9 1 1 0.7 0.8 0.6 1.2 1 1 2 3.7 6.6 13.1 2.3 2.7 3.1 1.3 0.8 0.9 0.9 1.1 1 3 1.6 0.8 0.3 0.2 m -248.4,3.2 h -0.5 L -164,3 l -0.3,-0.3 -0.2,-0.2 -0.2,-0.4 V 1.8 1.5 l 0.1,-0.5 0.1,-0.3 0.3,-0.3 0.5,-0.3 0.6,-0.1 m 0,3.2 h -0.5 L -164,3 l -0.3,-0.3 -0.2,-0.2 -0.2,-0.4 V 1.8 1.5 l 0.1,-0.5 0.1,-0.3 0.3,-0.3 0.5,-0.3 0.6,-0.1 m 167,3.2 v 0 H 3.8 3.2 2.4 1.2 0 m -0.3,0 h -1.2 -2.4 -3.6 -6.3 -10.9 -9.5 -9.3 -11.2 -11.1 -10.8 -10.5 -10.4 -9.9 -4.7 -1 -1.1 -0.6 -0.6 -0.7 -0.6 -1.1 -1.1 -1.8 -3.5 -4.4 -4.7 -4.8 -4.8 -3.1 -2.8 -2.3 -0.8 -0.8 -0.7 -0.7 -0.9 -0.8 -1.6 -1.8 -2.2 -1.1 -0.5 -0.1 M 4.2,0 h 2.1 6.6 2.4 m -178.4,0 h 0.1 0.5 1.2 1.1 1.5 2 0.8 0.8 0.5 0.6 0.5 0.6 1.2 1.2 2 3.8 6.7 11.7 4.3 4.1 1 0.5 0.6 0.7 0.5 1.3 1.1 1.2 3.1 3.1 3.4 6.1 6 10.3 10.6 10.9 11 11.1 11.4 3.9 3.9 4.2 3.6 3.9 4.1 0.1 m 4,0 0.5,0.1 0.4,0.1 0.6,0.4 0.1,0.3 0.1,0.2 0.1,0.4 V 1.8 L 5.5,2 5.4,2.2 5.2,2.5 4.9,2.9 4.4,3.1 3.7,3.2 M 85.3,0 l 0.5,0.1 0.4,0.2 0.3,0.3 0.2,0.2 0.1,0.4 0.1,0.3 v 0.3 l -0.1,0.4 -0.2,0.3 -0.3,0.3 -0.4,0.3 -0.6,0.1 m 0,-3.2 0.5,0.1 0.4,0.2 0.3,0.3 0.2,0.2 0.1,0.4 0.1,0.3 v 0.3 l -0.1,0.4 -0.2,0.3 -0.3,0.3 -0.4,0.3 -0.6,0.1 m 0,0 H 85.1 84.1 83 81.9 79.4 78 77.3 76.4 75.5 74.7 73.1 71.6 69.5 66.3 61.2 52.2 49 45.7 42.5 39.2 38.3 37.3 36.7 36.1 35.3 34.6 33.3 32 29.7 27.5 25.2 22.4 19.2 15.7 m -0.4,0 H 14.5 8.1 m -3.6,0 H 4.2 m 11.5,0 H 12.8 10.6 8.8 8.5 8.4 8.3 8.2 8.1 L 7.9,3.3 7.8,3.4 7.7,3.5 7.6,3.7 v 0.2 0.2 0.2 0.2 l 0.1,0.2 0.1,0.1 0.4,0.3 0.8,0.4 1.1,0.7 2,1.1 3.3,1.9 5.7,3.2 5.1,2.9 1.4,0.8 0.6,0.3 0.6,0.3 0.5,0.2 0.4,0.1 0.7,0.2 h 0.7 l 0.9,0.1 1.8,0.1 1.8,0.2 2.2,0.2 2.6,0.2 m -0.3,3.2 -3,-0.3 -2.5,-0.2 -2,-0.1 -1.2,-0.2 h -1 L 29.7,20.3 28.8,20.1 28.2,19.9 27.5,19.7 26.7,19.3 25.2,18.5 23.8,17.6 21.5,16.3 17.4,14 11,10.4 9.8,9.7 8.5,8.9 7.2,8.2 6.1,7.6 5.4,6.9 4.9,6.3 4.4,4.9 V 4 L 4.5,3.1 M 5.4,1.3 6,0.7 7.1,0.2 7.9,0.1 h 0.6 l 3,-0.1 h 4.2 M -1.3,1.6 -1.2,2.2 -1,2.8 -0.5,3.1 0,3.2 0.5,3.1 0.9,2.8 1.2,2.2 1.3,1.6 1.2,1 0.9,0.5 0.5,0.1 0,0 -0.5,0.1 -1,0.5 -1.2,1 -1.3,1.6 m 17.7,0 -0.1,0.6 -0.1,0.6 -0.3,0.3 -0.2,0.1 m 0,-3.2 v 0 l 0.2,0.1 0.3,0.4 0.1,0.5 0.1,0.6 M 16.3,1 16.2,0.5 15.9,0.1 15.7,0 m 0,3.2 v 0 L 16,3.1 16.2,2.7 16.4,2.2 V 1.6 L 16.3,1 m 22.7,18.6 0.1,0.6 0.2,0.5 0.4,0.4 0.5,0.1 0.5,-0.1 0.4,-0.4 0.3,-0.5 0.1,-0.6 V 19 L 41.2,18.4 40.8,18.1 40.3,18 39.8,18.1 39.4,18.4 39.1,19 39,19.6"
         style="fill:none;stroke:#000000;stroke-width:0.709;stroke-linecap:round;stroke-linejoin:round;stroke-miterlimit:10;stroke-dasharray:none;stroke-opacity:1"
         id="path16" />
    </g>
    <text
       xml:space="preserve"
       transform="matrix(0.999785,0,0,-1,87.378768,526.1073)"
       style="font-variant:normal;font-weight:normal;font-stretch:normal;font-size:11px;font-family:Verdana;-inkscape-font-specification:Verdana;writing-mode:lr-tb;fill:#000000;fill-opacity:1;fill-rule:nonzero;stroke:none"
       id="text20"><tspan
         x="0 6.3236403 12.878231 19.729757 26.284348 30.980337 35.973263 42.296906 48.851494 55.703022 62.25761 66.953606 71.946526"
         y="0"
         id="tspan18">Feder(Feder) </tspan></text>
    <text
       xml:space="preserve"
       transform="matrix(0.70670797,0.70670797,0.70710678,-0.70710678,168.83048,645.42118)"
       style="font-variant:normal;font-weight:normal;font-stretch:normal;font-size:11px;font-family:Verdana;-inkscape-font-specification:Verdana;writing-mode:lr-tb;fill:#808080;fill-opacity:1;fill-rule:nonzero;stroke:none"
       id="text24"><tspan
         x="0 7.5197811 15.996025 20.987225 28.507006 36.98325 41.974449"
         y="0"
         id="tspan22">AD(AD) </tspan></text>
    <text
       xml:space="preserve"
       transform="matrix(0.999722,0,0,-1,110.99782,725.444)"
       style="font-variant:normal;font-weight:normal;font-stretch:normal;font-size:11px;font-family:Verdana;-inkscape-font-specification:Verdana;writing-mode:lr-tb;fill:#000000;fill-opacity:1;fill-rule:nonzero;stroke:none"
       id="text28"><tspan
         x="0 7.5219083 13.251315 20.212379 26.821541 32.550949 39.512012 43.844807 48.837418 56.359329 62.088734 69.049797 75.658958 81.388367 88.349434 92.682228 97.674835"
         y="0"
         id="tspan26">Schacht(Schacht) </tspan></text>
    <g
       id="g30"
       transform="translate(134.1,541.2)">
      <path
         d="M 0,0 5.2,8 8,5.2 0,0 m -36.6,-36.6 -5.1,-8 -2.9,2.9 8,5.1"
         style="fill:none;stroke:#000000;stroke-width:0.51;stroke-linecap:butt;stroke-linejoin:miter;stroke-miterlimit:10;stroke-dasharray:none;stroke-opacity:1"
         id="path32" />
    </g>
    <g
       id="g34"
       transform="translate(48.4,723.1)">
      <path
         d="M 0,0 9.3,2 V -2.1 L 0,0 m 273.8,0 -9.4,-2.1 V 2 l 9.4,-2"
         style="fill:none;stroke:#000000;stroke-width:0.51;stroke-linecap:butt;stroke-linejoin:miter;stroke-miterlimit:10;stroke-dasharray:none;stroke-opacity:1"
         id="path36" />
    </g>
    <g
       id="g38"
       transform="translate(64,537.3)">
      <path
         d="M 0,0 5.2,8 8,5.1 0,0 m 242.6,242.6 -5.2,-8.1 -2.9,2.9 8.1,5.2"
         style="fill:none;stroke:#808080;stroke-width:0.51;stroke-linecap:butt;stroke-linejoin:miter;stroke-miterlimit:10;stroke-dasharray:none;stroke-opacity:1"
         id="path40" />
    </g>
    <g
       id="g42"
       transform="translate(108.1,567.1)">
      <path
         d="M 0,0 2,-2 M 0,-2 2,0 M 1,-2.4 V 0.4 M 2.4,-1 h -2.8 m -36.1,-35.5 2,-2 m -2,0 2,2 m -1,-2.4 v 2.8 m 1.4,-1.4 h -2.8 m 113.1,130 2,-2.1 m -2,0 2,2.1 m -1,-2.5 v 2.9 m 1.4,-1.5 h -2.8 m 0.4,1.1 2,-2.1 m -2,0 2,2.1 m -1,-2.5 v 2.9 m 1.4,-1.5 h -2.8 m -136.5,1.1 2,-2.1 m -2,0 2,2.1 m -1,-2.5 v 2.9 m 1.4,-1.5 h -2.9 m 274.3,1.1 2,-2.1 m -2,0 2,2.1 m -1,-2.5 v 2.9 m 1.4,-1.5 h -2.8"
         style="fill:none;stroke:#c0c0c0;stroke-width:0.51;stroke-linecap:butt;stroke-linejoin:miter;stroke-miterlimit:10;stroke-dasharray:none;stroke-opacity:1"
         id="path44" />
    </g>
    <g
       id="g46"
       transform="translate(306.6292,779.8932)">
      <path
         d="M 0,0 -242.59,-242.59"
         style="fill:none;stroke:#c0c0c0;stroke-width:0.51;stroke-linecap:butt;stroke-linejoin:miter;stroke-miterlimit:10;stroke-dasharray:43.2, 3.6, 3.6, 3.6;stroke-dashoffset:12.063;stroke-opacity:1"
         id="path48" />
    </g>
    <g
       id="g50"
       transform="translate(111.1,564.1)">
      <path
         d="m 0,0 25,-24.9 m -61.5,-11.6 24.9,-25 M 23,-22.9 35.7,-10.2 M -13.6,-59.5 -26.3,-72.2 M 23,-22.9 18.9,-27 m -32.5,-32.5 19.1,19.1"
         style="fill:none;stroke:#000000;stroke-width:0.51;stroke-linecap:round;stroke-linejoin:round;stroke-miterlimit:10;stroke-dasharray:none;stroke-opacity:1"
         id="path52" />
    </g>
    <g
       id="g54"
       transform="translate(48.4,723.1)">
      <path
         d="M 0,0 H 273.8"
         style="fill:none;stroke:#000000;stroke-width:0.51;stroke-linecap:round;stroke-linejoin:round;stroke-miterlimit:10;stroke-dasharray:none;stroke-opacity:1"
         id="path56" />
    </g>
    <g
       id="g58"
       transform="translate(62,539.3)">
      <path
         d="m 0,0 v 0 m 242.6,242.5 v 0.1 M 2,-2 244.6,240.6"
         style="fill:none;stroke:#808080;stroke-width:0.51;stroke-linecap:round;stroke-linejoin:round;stroke-miterlimit:10;stroke-dasharray:none;stroke-opacity:1"
         id="path60" />
    </g>
    <g
       id="g62"
       transform="translate(48.4,552.7)">
      <path
         d="m 0,0 v 211.7 m 0,0 36.3,36.4 M 273.8,211.7 V 0 m 0,0 -36.3,-36.4"
         style="fill:none;stroke:#c0c0c0;stroke-width:0.51;stroke-linecap:round;stroke-linejoin:round;stroke-miterlimit:10;stroke-dasharray:none;stroke-opacity:1"
         id="path64" />
    </g>
    <g
       id="g66"
       transform="translate(134.1,541.2)">
      <path
         d="M 0,0 5.2,8 8,5.2 m -44.6,-41.8 -5.1,-8 -2.9,2.9"
         style="fill:#000000;fill-opacity:1;fill-rule:nonzero;stroke:none"
         id="path68" />
    </g>
    <g
       id="g70"
       transform="translate(48.4,723.1)">
      <path
         d="M 0,0 9.3,2 V -2.1 M 273.8,0 264.4,-2.1 V 2"
         style="fill:#000000;fill-opacity:1;fill-rule:nonzero;stroke:none"
         id="path72" />
    </g>
    <g
       id="g74"
       transform="translate(64,537.3)">
      <path
         d="M 0,0 5.2,8 8,5.1 m 234.6,237.5 -5.2,-8.1 -2.9,2.9"
         style="fill:#808080;fill-opacity:1;fill-rule:nonzero;stroke:none"
         id="path76" />
    </g>
  </g>
</svg>
