<?xml version="1.0" encoding="UTF-8" standalone="no"?>
<!-- Created with Inkscape (http://www.inkscape.org/) -->

<svg
   version="1.1"
   id="svg2"
   width="793.70135"
   height="1122.52"
   viewBox="0 0 793.70135 1122.52"
   xmlns="http://www.w3.org/2000/svg"
   xmlns:svg="http://www.w3.org/2000/svg">
  <defs
     id="defs6" />
  <g
     id="g8"
     transform="matrix(1.3333333,0,0,-1.3333333,0,1122.52)">
    <g
       id="g10"
       transform="translate(185.8,510)">
      <path
         d="M 0,0 V 0 0.4 1 1.7 2.4 5 v 2.2 3 5.7 1.8 1.8 1.9 0.7 0.6 0.4 0.3 0.3 l -0.1,0.1 v 0.3 l -0.1,0.1 -0.1,0.2 -0.1,0.2 M -3,24.5 v 0 -0.1 L -3.1,24.3 V 24.2 L -3.2,24.1 V 24 23.9 23.8 L -3.3,23.7 V 23.6 23.3 22.9 22.3 21.7 20.2 18.9 17.7 15 11.1 7.4 6.1 4.4 2.3 1.4 0.6 0.1 0 m 0,0 v 0 m 0,0 0.1,-0.5 0.2,-0.4 0.3,-0.3 0.2,-0.2 0.4,-0.2 h 0.3 0.3 l 0.4,0.1 0.3,0.1 0.4,0.3 0.2,0.5 L 0,0 m -166.5,145.1 -0.1,4 -0.2,3.5 -0.2,3 -0.2,2.6 -0.3,2.1 -0.3,1.9 -0.3,1.8 -0.4,1.5 -0.5,1.3 -0.4,1 -0.6,0.7 -0.3,0.1 m 1.2,-1.4 h 1.5 4 0.9 0.8 1.3 1.3 1.6 1.9 2.1 2.2 2.2 4.6 4.5 4.1 4 3.7 3.2 1.4 1.2 1.2 0.5 0.1 0.3 l 0.3,0.1 m 0.5,2.6 v 0 l -0.3,0.2 -0.1,0.1 -0.1,0.1 h -0.2 -0.1 l -0.2,0.1 h -0.1 -0.3 -0.8 -1.1 -1.5 -2 -2.2 -2.5 -2.7 -2.8 -2.8 -2.7 -2.6 -2.5 -4.5 -3.7 -2.9 -2.2 -1.4 -1.7 -1.8 -1.9 -0.8 -0.8 -0.8 -0.8 -0.8 -0.8 -0.5 l -0.4,-0.1 -0.1,-0.1 h -0.1 -0.1 l -0.2,-0.2 -0.2,-0.1 -0.1,-0.2 v -0.4 l 0.3,-0.4 0.3,-0.3 0.3,-0.5 0.5,-0.9 0.6,-1.5 0.5,-2 0.5,-2.5 0.5,-3.2 0.3,-3.8 0.3,-4.3 v -4.8 m 0,0 v -3.9 l -0.2,-3.5 -0.2,-2.9 -0.2,-2.5 -0.3,-2 -0.3,-1.8 -0.7,-3.2 -0.4,-1.3 -0.5,-1.2 -0.5,-0.8 -0.5,-0.5 -0.3,-0.4 v -0.5 l 0.2,-0.2 0.2,-0.2 0.1,-0.1 0.2,-0.1 h 0.3 l 0.5,-0.1 h 0.8 0.8 0.9 0.8 0.9 0.8 3.8 0.9 0.8 1.3 1.4 1.6 1.9 2.1 2.3 2.3 4.6 4.5 4.2 4 3.7 3.2 1.4 1.1 1.1 0.4 0.2 0.1 l 0.1,0.1 h 0.2 l 0.1,0.1 0.2,0.1 0.1,0.1 0.1,0.1 0.1,0.1 m -0.6,2.5 -0.2,0.1 h -0.2 -0.1 -0.5 -0.8 -1.3 -1.6 -1.9 -2.3 -2.5 -2.7 -2.7 -2.8 -2.6 -2.6 -2.5 -4.4 -3.6 -2.9 -2.1 -1.5 -1.6 -1.8 -2 -0.7 -0.8 -0.3 m -1.1,-1.4 v 0 l 0.5,0.3 0.5,0.8 0.5,1.3 0.6,2 0.5,2.6 0.5,3.2 0.3,3.9 0.3,4.5 0.1,4.8 m 333,0 v 4 l 0.2,3.4 0.2,3 0.2,2.5 0.3,1.9 0.3,1.8 0.7,3.3 0.4,1.3 0.5,1.1 0.5,0.9 0.5,0.5 0.3,0.4 v 0.5 l -0.2,0.2 -0.2,0.2 -0.2,0.1 -0.1,0.1 h -0.3 l -0.5,0.1 h -0.8 -0.8 -0.9 -0.8 -0.9 -0.8 -3.8 -0.9 -0.8 -1.3 -1.4 -1.6 -1.9 -2.1 -2.3 -2.3 -4.6 -4.5 -4.2 -4 -3.7 -3.2 -1.4 -1.1 -1.1 -0.4 -0.2 l -0.1,-0.1 h -0.1 l -0.2,-0.1 h -0.1 l -0.2,-0.1 -0.1,-0.1 -0.1,-0.1 v -0.1 h -0.1 m 0.6,-2.5 0.2,-0.1 h 0.2 0.1 0.5 0.8 1.3 1.6 1.9 2.3 2.5 2.7 2.7 2.8 2.6 2.6 2.5 4.4 3.6 2.9 2.1 1.5 1.6 1.8 2 0.7 0.8 0.3 m 1.1,1.4 v 0 l -0.5,-0.3 -0.5,-0.8 -0.5,-1.4 -0.6,-1.9 -0.5,-2.6 -0.5,-3.2 -0.3,-3.9 -0.3,-4.5 -0.1,-4.9 m 0,0 0.1,-3.9 0.2,-3.5 0.2,-3.1 0.2,-2.5 0.3,-2.1 0.3,-1.9 0.3,-1.8 0.4,-1.5 0.5,-1.3 0.4,-1.1 0.6,-0.6 0.3,-0.1 m -1.2,1.4 h -1.5 -4 -0.9 -0.8 -1.3 -1.3 -1.6 -1.9 -2.1 -2.2 -2.2 -4.6 -4.5 -4.1 -4 -3.7 -3.2 -1.4 -1.2 -1.2 -0.5 -0.1 -0.3 l -0.3,-0.1 m -0.6,-2.5 0.1,-0.1 0.3,-0.2 0.1,-0.1 0.1,-0.1 h 0.2 0.1 l 0.2,-0.1 h 0.1 0.3 0.7 1.2 1.5 1.9 2.3 2.5 2.7 2.8 2.8 2.7 2.6 2.5 4.5 3.7 2.9 2.2 1.4 1.7 1.8 1.9 0.8 0.8 0.8 0.8 0.8 0.8 0.5 l 0.4,0.1 h 0.1 l 0.1,0.1 h 0.1 l 0.2,0.2 0.2,0.1 0.1,0.2 v 0.4 l -0.3,0.4 -0.3,0.3 -0.3,0.5 -0.5,0.9 -0.6,1.5 -0.5,1.9 -0.5,2.6 -0.5,3.2 -0.3,3.8 -0.3,4.3 v 4.7 M -1.7,-19.8 h -3.9 l -3.5,-0.2 -3.1,-0.2 -2.5,-0.2 -2.1,-0.3 -1.9,-0.3 -1.8,-0.4 -1.5,-0.3 -1.3,-0.5 -1,-0.4 -0.7,-0.6 -0.1,-0.3 m 1.4,1.2 v 1.5 4 0.9 0.8 1.3 1.3 1.6 1.9 2.1 2.2 2.2 4.6 4.5 4.1 4 3.7 3.2 1.4 1.2 1.2 0.5 0.1 0.3 l -0.1,0.2 m -2.6,0.6 v 0 l -0.2,-0.3 -0.1,-0.1 v -0.1 h -0.1 v -0.2 -0.1 l -0.1,-0.2 V 26 25.7 24.9 23.8 22.3 20.3 18.1 15.6 12.9 10.1 7.3 4.6 2 -0.5 -5 v -3.7 -3 -2.1 -1.4 -1.7 -1.8 -2 -0.7 -0.8 -0.8 -0.8 -0.8 -0.8 -0.5 l 0.1,-0.4 v -0.1 l 0.1,-0.1 v -0.1 l 0.2,-0.2 0.1,-0.2 0.2,-0.1 h 0.4 l 0.4,0.2 0.3,0.3 0.5,0.4 0.9,0.5 1.5,0.6 1.9,0.5 2.6,0.5 3.2,0.5 3.8,0.3 4.3,0.3 h 4.7 m 0,0 h 4 l 3.5,-0.2 2.9,-0.2 2.5,-0.2 2,-0.3 1.7,-0.3 3.3,-0.7 1.3,-0.5 1.2,-0.4 0.8,-0.6 0.5,-0.4 0.4,-0.3 h 0.5 l 0.2,0.2 0.2,0.2 0.1,0.1 0.1,0.2 v 0.3 l 0.1,0.5 v 0.8 0.8 0.9 0.8 0.9 0.8 3.8 0.9 0.8 1.3 1.4 1.6 1.9 2.1 2.2 2.4 4.6 4.5 4.2 4 3.7 3.2 1.4 1.1 1.1 0.4 0.2 l -0.1,0.1 v 0.1 l -0.1,0.2 v 0.1 L 23.3,26.9 23.2,27 23.1,27.1 23,27.2 M 20.5,26.6 20.4,26.4 V 26.2 26.1 26 25.6 24.8 23.5 21.9 20 17.7 15.2 12.5 9.8 7 4.4 1.8 v -2.5 -4.4 -3.6 -2.9 -2.1 -1.5 -1.6 -1.8 -2 -0.7 -0.8 -0.3 m 1.4,-1.1 v 0 l -0.3,0.5 -0.8,0.5 -1.3,0.5 -2,0.6 -2.6,0.5 -3.2,0.4 -3.9,0.4 -4.5,0.3 h -4.9 m 0,329.8 4,0.1 3.5,0.2 3.1,0.2 2.5,0.2 2.1,0.3 1.9,0.3 1.8,0.3 1.5,0.4 1.3,0.5 1,0.4 0.7,0.6 0.1,0.3 m -1.4,-1.2 v -1.5 -4 -0.9 -0.8 -1.3 -1.3 -1.6 -1.9 -2.1 -2.2 -2.2 -4.6 -4.5 -4.1 -4 -3.7 -3.2 -1.4 -1.2 -1.2 -0.5 -0.1 -0.3 l 0.1,-0.3 v -0.1 m 2.6,-0.4 v 0 l 0.2,0.3 0.1,0.1 0.1,0.1 v 0.2 0.1 l 0.1,0.2 v 0.1 0.3 0.7 1.2 1.5 1.9 2.3 2.5 2.7 2.8 2.8 2.7 2.6 2.5 4.5 3.7 2.9 2.2 1.4 1.6 1.9 1.9 0.8 0.8 0.8 0.8 0.8 0.8 0.5 l -0.1,0.4 -0.1,0.1 v 0.1 0.1 l -0.2,0.2 -0.1,0.2 -0.2,0.1 h -0.4 l -0.4,-0.3 -0.3,-0.3 -0.5,-0.3 -0.9,-0.6 -1.5,-0.5 -2,-0.5 -2.5,-0.5 -3.2,-0.5 -3.8,-0.3 -4.3,-0.3 h -4.8 m 0,0 h -3.9 l -3.5,0.2 -2.9,0.2 -2.5,0.2 -2,0.3 -1.7,0.3 -3.3,0.7 -1.3,0.4 -1.2,0.5 -0.8,0.5 -0.5,0.5 -0.4,0.3 h -0.5 l -0.2,-0.2 -0.2,-0.2 -0.1,-0.2 -0.1,-0.1 v -0.3 l -0.1,-0.5 v -0.8 -0.8 -0.9 -0.8 -0.9 -0.8 -3.8 -0.9 -0.8 -1.3 -1.4 -1.6 -1.9 -2.1 -2.3 -2.3 -4.6 -4.5 -4.2 -4 -3.7 -3.2 -1.4 -1.1 -1.1 -0.4 -0.2 l 0.1,-0.1 v -0.1 -0.2 l 0.1,-0.1 0.1,-0.2 0.1,-0.1 0.1,-0.1 v -0.1 h 0.1 m 2.5,0.6 0.1,0.2 v 0.2 0.1 0.5 0.8 1.3 1.6 1.9 2.3 2.5 2.7 2.7 2.8 2.6 2.6 2.5 4.4 3.6 2.9 2.1 1.5 1.6 1.8 2 0.7 0.8 0.3 m -1.4,1.1 v 0 l 0.3,-0.5 0.8,-0.5 1.3,-0.6 2,-0.5 2.6,-0.5 3.2,-0.5 3.9,-0.3 4.5,-0.3 4.8,-0.1 m -30,-51.3 10.9,2.3 10.4,1.3 9.7,0.3 9.1,-0.4 8.4,-1.1 7.7,-1.5 6.9,-1.7 6.1,-2 6.1,-2.4 5.3,-2.3 4.9,-2.5 4.9,-2.8 4.8,-3 4.7,-3.3 4.5,-3.6 7.6,-6.7 7,-7.5 6.4,-8.1 5.6,-8.6 4.9,-9.1 4,-9.4 3.3,-9.8 2.3,-10 1.4,-10.2 0.6,-10.3 -0.4,-10.3 -1.2,-10.2 -2.1,-10 -3.1,-9.9 -3.8,-9.5 -4.7,-9.2 L 95.1,78.5 88.8,70.3 82,62.7 74.4,55.7 66.3,49.3 57.6,43.8 48.5,39 39.1,35 29.3,31.8 19.2,29.6 9,28.2 -1.2,27.7 l -10.3,0.4 -10.2,1.3 -10.1,2.2 -9.8,3.1 -9.5,3.9 -9.1,4.7 -8.7,5.6 -8.2,6.2 -7.6,7 -6.9,7.5 -6.3,8.2 -5.5,8.7 -4.7,9.1 -4,9.5 -3,9.8 -2.3,10.1 -1.3,10.2 -0.4,10.2 0.4,10 1.3,9.5 1,5.2 1.2,5.1 1.4,4.8 1.6,4.9 2.2,5.6 2.9,6.3 3.7,7 4,6.5 5,6.8 5.8,7 7,7.1 6.4,5.5 7.1,5.3 8,5 8.7,4.5 9.5,4 m -1.1,3 -10.5,-4.4 -9.5,-5 -8.4,-5.5 -7.4,-5.7 -6.5,-5.8 -5.6,-5.7 -4.7,-5.6 -4,-5.3 -3.8,-5.6 -3.1,-5 -2.7,-5.1 -2.5,-5.2 -2.2,-5.3 -2.1,-5.5 -1.7,-5.7 -2,-8.2 m -0.5,-2.6 -1.5,-9.8 -0.6,-10.5 0.3,-10.6 1.2,-10.5 0.6,-2.9 m 0.6,-2.5 1,-4.9 3,-10.2 3.9,-9.8 4.8,-9.4 5.5,-9 6.4,-8.5 7,-7.8 7.7,-7.3 8.3,-6.5 8.9,-5.8 9.3,-5 9.7,-4.1 10.1,-3.3 7.6,-1.8 m 2.6,-0.6 h 0.1 L -13.3,25 -2.9,24.5 m 2.5,0.1 8.2,0.3 10.5,1.3 2.2,0.4 m 2.5,0.6 5.7,1.2 10.1,3.1 9.8,3.9 9.4,4.9 8.9,5.6 8.5,6.3 7.8,7.1 7.2,7.8 6.4,8.4 5.8,8.8 4.9,9.4 4.1,9.7 3.2,10.1 1.5,7 m 0.6,2.5 0.2,0.8 1.4,10.5 0.5,10.5 -0.4,10.6 -1.4,10.5 -0.3,1.4 m -0.6,2.5 -1.4,6.4 -3.1,10.1 -4.1,9.8 -4.8,9.3 -5.7,8.9 -6.2,8.1 -6.6,7.3 -3.9,3.8 -4,3.6 -4.1,3.3 -4.2,3.1 -5.1,3.5 -6.1,3.6 -7.2,3.7 -7.3,3.1 -8.2,2.9 -9,2.5 -2.2,0.4 m -2.6,0.4 -5.2,1 -8.6,0.9 -9.2,0.3 -9.6,-0.5 -10,-1.2 -1.7,-0.4 m -2.5,-0.6 -6.2,-1.3 m -9.8,-6.4 2.3,0.8 1.6,0.9 1,0.9 0.6,0.9 0.3,0.7 v 0.6 l -0.2,1.3 -0.7,1.3 -1.4,1.3 -1.4,1.1 -2.2,1.2 -2.9,1.5 m -1.3,-3 2.1,-1 1.9,-1 1.6,-1.1 1,-1 0.3,-0.3 v -0.1 -0.1 -0.1 l -0.1,-0.1 -0.2,-0.2 -0.7,-0.4 -1,-0.5 -1.6,-0.6 M -1.7,25.2 -2.3,25.1 -2.8,24.7 -3.1,24.2 -3.3,23.6 -3.1,23 l 0.3,-0.5 0.5,-0.4 0.6,-0.1 0.7,0.1 0.5,0.4 0.3,0.5 0.2,0.6 -0.2,0.6 -0.3,0.5 -0.5,0.4 -0.7,0.1 m -119.4,142 h 0.6 l 0.6,0.2 0.4,0.5 0.2,0.6 v 0.6 l -0.2,0.6 -0.5,0.4 -0.6,0.2 h -0.6 l -0.6,-0.2 -0.4,-0.5 -0.2,-0.6 v -0.6 l 0.2,-0.6 0.5,-0.4 0.6,-0.2 m 0,-44.1 -0.6,-0.2 -0.5,-0.5 -0.2,-0.5 v -0.7 l 0.2,-0.5 0.4,-0.5 0.6,-0.2 0.6,-0.1 0.6,0.3 0.5,0.4 0.2,0.6 v 0.6 l -0.2,0.6 -0.4,0.4 -0.6,0.3 h -0.6 m 238.9,44.1 0.6,0.2 0.5,0.4 0.2,0.6 v 0.6 l -0.2,0.6 -0.4,0.5 -0.6,0.2 h -0.6 l -0.6,-0.2 -0.5,-0.4 -0.2,-0.6 v -0.6 l 0.2,-0.6 0.4,-0.5 0.6,-0.2 h 0.6 m 0,-44.1 h -0.6 l -0.6,-0.3 -0.4,-0.4 -0.2,-0.6 v -0.6 l 0.2,-0.6 0.5,-0.4 0.6,-0.3 0.6,0.1 0.6,0.2 0.4,0.5 0.2,0.5 v 0.7 l -0.2,0.5 -0.5,0.5 -0.6,0.2 M -23.7,25.7 v 0.6 l -0.3,0.6 -0.4,0.4 -0.6,0.2 h -0.6 l -0.6,-0.2 -0.4,-0.5 -0.3,-0.6 0.1,-0.6 0.2,-0.6 0.5,-0.4 0.5,-0.2 h 0.7 l 0.5,0.2 0.5,0.5 0.2,0.6 m 44.1,0 0.2,-0.6 0.5,-0.5 0.5,-0.2 h 0.7 l 0.5,0.2 0.5,0.4 0.2,0.6 0.1,0.6 -0.3,0.6 -0.4,0.5 -0.6,0.2 h -0.6 l -0.6,-0.2 -0.4,-0.4 -0.3,-0.6 v -0.6 m 0,238.9 V 264 l 0.3,-0.6 0.4,-0.4 0.6,-0.2 h 0.6 l 0.6,0.2 0.4,0.5 0.3,0.6 -0.1,0.6 -0.2,0.6 -0.5,0.4 -0.5,0.2 h -0.7 l -0.5,-0.2 -0.5,-0.5 -0.2,-0.6 m -44.1,0 -0.2,0.6 -0.5,0.5 -0.5,0.2 h -0.7 l -0.5,-0.2 -0.5,-0.4 -0.2,-0.6 -0.1,-0.6 0.3,-0.6 0.4,-0.5 0.6,-0.2 h 0.6 l 0.6,0.2 0.4,0.4 0.3,0.6 v 0.6 m -8,-5.9 v 0.1 l -0.1,0.3 -0.1,0.6 -0.2,0.5 -0.1,0.6 -0.2,0.5 -0.1,0.4 v 0.1 m -10.1,-4.9 v 0.1 0.1 l -0.2,0.5 -0.2,0.4 -0.1,0.3 v 0.1 m 0.5,-1.5 v 0 -0.1 l 0.2,-0.5 0.2,-0.4 0.1,-0.3 v -0.2 m -3.2,12.5 -0.1,-0.2 -0.1,-0.3 -0.2,-0.5 -0.3,-0.5 -0.2,-0.6 -0.2,-0.5 -0.2,-0.3 v -0.1 M -166.5,145.1 h -0.2 -0.3 -0.5 -0.7 -0.6 -0.5 -0.3 -0.2 m 333,0 h 0.2 0.3 0.5 0.7 0.6 0.5 0.3 0.2 M -1.7,-19.8 v -0.1 -0.3 -0.5 -0.7 -0.6 -0.5 -0.3 -0.2 m 0,333 v 0.2 0.3 0.5 0.6 0.7 0.5 0.3 0.2"
         style="fill:none;stroke:#000000;stroke-width:0.709;stroke-linecap:round;stroke-linejoin:round;stroke-miterlimit:10;stroke-dasharray:none;stroke-opacity:1"
         id="path12" />
    </g>
    <g
       id="g14"
       transform="translate(185.8,510)">
      <path
         d="M 0,0 V 0"
         style="fill:none;stroke:#000000;stroke-width:0.709;stroke-linecap:round;stroke-linejoin:round;stroke-miterlimit:10;stroke-dasharray:none;stroke-opacity:1"
         id="path16" />
    </g>
    <g
       id="g18"
       transform="translate(185.7,406.3)">
      <path
         d="m 0,0 0.1,0.1 v 0.4 0.5 0.7 1.6 1.6 1.8 3.8 2.2 1 0.6 0.4 0.4 0.3 0.3 m -3.3,0.1 v 0 V 15.3 14.7 13.8 12 10.2 6.6 2.7 1.7 0.8 0.5 0.2 0.1 h 0.1 m -0.1,34 v -4.2 -3.8 -2.6 -2.8 -1.6 -0.8 -0.9 -0.7 -0.5 l 0.1,-0.4 M 0,15.7 v 0.1 0.5 0.6 0.9 l 0.1,1.7 v 1.8 2 5.3 5.5 m 0,-53.2 v 4.9 3.8 2.7 2.7 1.6 0.9 0.8 0.7 0.6 L 0,0 v 0.1 m -3.1,0 v -0.2 -0.4 -0.7 l -0.1,-0.9 v -1.7 -1.8 -1.9 -5.4 -6.2 M -122.3,36.2 V 28.9 22.6 17.4 13.3 9.9 6.5 3 -6.7 -16.5 -27.9 l -0.1,-2.8 -0.3,-2.7 -0.7,-2.7 -1,-2.5 -1.4,-2.4 -1.8,-2.2 -2.1,-1.9 -2.3,-1.6 -2.6,-1.2 -2.7,-0.9 -2.7,-0.4 -2.8,-0.1 -2.6,0.4 -2.6,0.7 -2.4,1 -2.2,1.3 -2,1.6 -1.8,1.8 -1.5,2 -1.3,2.3 -1.4,4.1 -1.2,4.8 -1.1,5 -1.2,5 -1.2,4.8 -0.9,3.8 -0.9,3.7 -0.8,3.5 -0.8,3.4 -0.8,3.3 -1,4.1 -0.3,1.6 -0.1,1.5 0.3,1.8 0.3,2.2 0.8,4.5 0.9,4.6 0.4,2.3 0.4,2.3 0.3,2 0.4,1.9 0.3,1.5 0.2,1.3 0.1,0.7 0.1,0.3 m -3.3,0 v -0.2 l -0.1,-0.7 -0.2,-1.1 -0.3,-1.4 -0.3,-1.6 -0.3,-1.7 -0.3,-1.8 -0.3,-1.7 -0.6,-3.3 -0.5,-2.8 -0.4,-2.4 -0.5,-2.4 -0.3,-1.7 -0.3,-1.9 V 9 l 0.9,-4.3 1,-4.1 1,-4.1 1,-4 5.1,-21.8 0.9,-3.6 0.9,-3.6 1.5,-3.7 1.5,-2.5 1.8,-2.3 2.1,-2 2.3,-1.8 2.5,-1.4 2.7,-1.1 2.8,-0.8 2.9,-0.4 h 2.9 l 2.8,0.4 2.9,0.7 2.6,1.1 2.5,1.4 2.3,1.6 1.9,1.9 1.7,2 2.5,4.3 1.5,4.8 0.5,4.5 v 4.4 5 3.2 m 0,2.9 v 0.2 7.7 8.8 10 11.3 6.6 m 0,2.6 v 3.3 m -3.2,0 V 24.8 14.5 10.2 m 3.2,22.9 v 3.1 m 235.1,0 V 33 m 0,-2.7 V 28.5 22 16.7 12.5 9 5.4 1.7 -14.4 m 0,-2.7 v -1.7 -3.8 -3.9 -3.8 l 0.3,-3.1 0.7,-2.9 1,-2.9 1.4,-2.7 1.8,-2.4 2.1,-2.2 2.3,-1.9 2.6,-1.6 2.8,-1.2 2.8,-0.8 2.9,-0.4 2.9,-0.1 2.9,0.3 2.8,0.7 2.6,1 2.5,1.3 2.3,1.7 2.1,1.8 1.8,2.2 1.6,2.4 2,4.5 1.2,4.8 1.1,4.9 1.2,5.1 1.2,4.9 1,4 0.9,3.8 0.8,3.6 0.9,3.5 0.8,3.4 0.9,4 0.3,1.1 0.3,1.2 0.2,1.5 v 1.6 l -0.2,1.5 -0.3,1.5 -0.8,4.6 -0.4,2.3 -0.5,2.5 -0.4,2.3 -0.4,2.4 -0.4,2.1 -0.3,1.9 -0.3,1.6 -0.2,1.3 -0.2,0.8 v 0.2 m -3.3,0 0.1,-0.2 0.1,-0.8 0.2,-1 0.2,-1.3 0.3,-1.5 0.3,-1.7 0.6,-3.4 0.6,-3.2 0.5,-2.8 0.4,-2.4 0.4,-2.3 0.4,-2.4 0.4,-2.4 -0.3,-2.5 -0.7,-3 -0.7,-2.9 -1.7,-7 -2.4,-10.5 -2.5,-10.5 -0.9,-3.5 -0.9,-3.6 -0.9,-3.4 -1.1,-2.4 -1.3,-2.3 -1.7,-2 -2,-1.9 -2.2,-1.5 -2.5,-1.2 -2.6,-0.9 -2.6,-0.5 -2.8,-0.1 -2.7,0.3 -2.7,0.7 -2.5,1 -2.3,1.3 -2,1.6 -1.8,1.7 -1.4,1.9 -2,3.9 -1.2,4.3 -0.2,3.5 v 3.9 4.4 5.3 6.3 7.2 8.2 9 10.1 10.9 m 48.3,-28.1 -0.4,-1.8 -0.6,-2.8 -0.7,-2.9 -1.2,-5.1 -1.3,-5.5 -1.5,-6.3 -1.5,-6.2 -1.5,-6.2 -1.1,-4.5 M 20.5,36.2 V 25.9 24.6 m 0,-69.2 v -1.7 -2.2 -1.6 m -22.1,84.3 2.7,-0.1 2.5,-0.5 4.3,-1.5 3.6,-2 2.7,-2.4 2.1,-2.5 1.6,-2.5 1.1,-2.4 0.8,-2.6 0.5,-2.7 0.2,-3 V 10.4 8.8 3.4 -2 v -5.3 -8.1 -8.1 -7.9 -2.8 -2.7 -1.7 -2 -2.2 -1.7 -1.8 -1.6 -1.4 -1.1 -0.7 m 3.1,0.6 v -0.1 l 0.1,0.4 v 0.9 1.2 1.6 1.9 2 2.1 2.3 4.5 4.2 3.7 3.3 3 3 7.6 7.9 6.9 3.3 3.2 l -0.2,3.1 -0.5,2.7 -0.7,2.4 -0.8,2.1 -1,2 -1.5,2.3 -1.9,2.3 -2.4,2.3 -3,2.2 -3.8,1.8 -4.4,1.3 -5.1,0.6 M 23.7,-50 v 0.9 1 2.7 2.9 3 2.8 2.5 4.4 1.1 m 0,22 v 3.1 3.8 3.6 3.7 3.8 4.8 5.8 6.7 7.6 m -3.2,-87.1 v -0.3 l 0.2,-0.3 0.2,-0.3 0.2,-0.3 0.5,-0.3 0.3,-0.1 h 0.1 0.2 0.1 l 0.2,0.1 0.2,0.1 0.3,0.1 0.2,0.3 0.3,0.6 0.1,0.9 0.1,0.9 M -26.8,36.2 V 25.9 16.7 8.5 1.3 -4.9 -10 v -3.5 -4.2 -4.9 -5.5 -3 -0.7 m 0,-12.5 v -2 -2.1 -1.6 m 25.2,87.5 -2.7,-0.2 -2.6,-0.4 -4.7,-1.5 -3.8,-2 -3.1,-2.4 -2.5,-2.5 -1.9,-2.7 -1.5,-2.6 -1,-2.6 -0.8,-2.8 -0.5,-3.1 -0.1,-3.3 V 8.2 1.6 -5 v -8.6 -8.4 -8.3 -2.4 -2.3 -2.2 -2.2 -2.7 -1.7 -1.8 -1.7 -1.5 -1.1 -0.6 m 3.2,-0.7 v 0 0.4 0.8 1.2 1.5 1.8 2 2 2.2 4.4 4.2 3.7 3.3 2.9 2.9 7.2 7.7 2.6 2.7 2.7 2.7 2.6 3 l 0.3,2.6 0.5,2.3 0.7,2.1 0.8,1.8 1.1,1.9 1.5,2.2 2.1,2.2 2.7,2.1 3.4,1.9 4.1,1.3 4.8,0.5 m -22,-84.3 v 0.9 1 2.7 2.9 3 2.8 2.5 4.4 1.6 m 0,52.9 v 3.9 7.7 m -3.2,-84.1 v -2 l 0.1,-1.1 0.1,-0.6 0.2,-0.3 0.1,-0.1 v -0.1 h 0.1 l 0.1,-0.1 0.2,-0.1 0.4,-0.2 h 0.2 0.1 0.2 0.2 l 0.4,0.2 0.4,0.4 0.3,0.6 0.1,0.8 m 44.1,0 0.2,-0.9 0.4,-0.7 0.5,-0.3 m 2.1,2.9 v 1.6 m 0,-2.1 v 1.6 2.1 2.7 3 3.1 3.2 4.9 m 0,26.1 v 4.6 m 0,2.8 v 4.4 8.2 9.2 4 m 0,3.2 v 3.1 M 116,-14.1 h -0.4 -2 -2.5 -2.8 -3 -3 -3.4 -3.3 -3.3 -3.6 -3.9 -4.1 -4.3 -8.1 -8.7 -9.1 -9.6 -9.9 -7.3 m -3.2,0 H 10.5 0.1 m -3.3,0 h -7.1 -10.4 -2.9 m -3.2,0 h -4.1 -10 -9.7 -9.3 -8.8 -8.3 -4.4 -4.2 -4 -3.7 -3.5 -3.4 -3.6 -3.2 -3.1 -3 -2.7 -1.9 -1.4 m 236.1,-3.3 0.9,0.2 0.6,0.3 0.3,0.3 0.2,0.2 v 0.2 l 0.1,0.1 v 0.1 0.1 0.1 0.3 l -0.1,0.3 -0.3,0.4 -0.7,0.5 -1,0.2 m -236.1,-3.3 v 0 h 1.4 1.9 2.7 3 3.1 3.2 3.6 3.4 3.5 3.7 4 4.2 4.4 8.3 8.8 9.3 9.7 10 4.1 m 3.2,0 h 2.9 10.4 7.1 m 3.3,0 v 0 h 10.4 10 m 3.2,0 h 7.3 9.9 9.6 9.1 8.7 8.1 4.3 4.1 3.9 3.6 3.3 3.3 3.4 3 3 2.8 2.5 2 0.4 m -236.4,3.3 -1,-0.3 -0.6,-0.5 -0.1,-0.4 -0.1,-0.1 v -0.1 -0.1 -0.3 l 0.1,-0.4 0.5,-0.7 0.5,-0.2 0.7,-0.2 M 116,33.1 h -0.4 -2 -2.5 -2.8 -3 -3 -3.4 -3.3 -3.3 -3.6 -3.9 -4.1 -4.3 -8.1 -8.7 -9.1 -9.6 -9.9 -7.3 m -3.2,0 h -7.9 m -7.5,0 h -5 m -3.3,0 h -5.1 m -7.5,0 h -4.9 -2.9 m -3.2,0 h -4.1 -10 -9.7 -9.3 -8.8 -8.3 -4.4 -4.2 -4 -3.7 -3.5 -3.4 -3.6 -3.2 -3.1 -3 -2.7 -1.9 -1.4 m 236.1,-3.2 0.9,0.1 0.6,0.3 0.3,0.3 0.2,0.3 V 31 l 0.1,0.1 v 0.1 0.1 0.1 0.1 0.2 l -0.1,0.4 -0.3,0.4 -0.7,0.4 -1,0.2 m -236.1,-3.2 v 0 h 1.4 1.9 2.7 3 3.1 3.2 3.6 3.4 3.5 3.7 4 4.2 4.4 8.3 8.8 9.3 9.7 10 4.1 m 3.2,0 h 2.9 1.1 m 4.9,0 h 4.4 7.1 m 3.3,0 v 0 h 10.4 1.2 m 4.8,0 h 4 m 3.2,0 h 7.3 9.9 9.6 9.1 8.7 8.1 4.3 4.1 3.9 3.6 3.3 3.3 3.4 3 3 2.8 2.5 2 0.4 m -236.4,3.2 -1,-0.3 -0.6,-0.5 -0.1,-0.4 h -0.1 v -0.1 -0.1 -0.1 -0.2 l 0.1,-0.5 0.5,-0.6 0.5,-0.3 0.7,-0.1 m 117.2,-49 h 0.2 0.3 0.5 0.6 0.7 0.5 0.3 0.2 m -122.4,55.3 v 0 h 0.2 0.4 0.6 0.6 0.6 0.5 0.2 0.1 m -47.4,-0.5 0.1,0.1 -0.2,0.7 -0.3,0.5 -0.5,0.3 -0.7,0.2 -0.6,-0.2 -0.5,-0.3 -0.3,-0.5 -0.2,-0.7 M 116,36.2 h 0.1 0.2 0.5 0.6 0.6 0.6 0.4 0.2 m 44.2,-0.5 -0.1,0.1 0.2,0.7 0.3,0.5 0.5,0.3 0.7,0.2 0.6,-0.2 0.5,-0.3 0.3,-0.5 0.2,-0.7 M 20.5,36.2 v 0 h 0.2 0.5 0.5 0.7 0.5 0.5 0.2 0.1 m -47.3,0 v 0 m -3.2,0 h 0.1 0.2 0.5 0.5 0.7 0.5 0.5 0.2 m 22,1.3 V 37.3 37 36.5 35.8 35.2 34.7 34.4 34.2"
         style="fill:none;stroke:#000000;stroke-width:0.709;stroke-linecap:round;stroke-linejoin:round;stroke-miterlimit:10;stroke-dasharray:none;stroke-opacity:1"
         id="path20" />
    </g>
    <text
       xml:space="preserve"
       transform="matrix(0.999599,0,0,-1,25.19317,484.8503)"
       style="font-variant:normal;font-weight:normal;font-stretch:normal;font-size:13.2283px;font-family:'Century Gothic';-inkscape-font-specification:CenturyGothic;writing-mode:lr-tb;fill:#000000;fill-opacity:1;fill-rule:nonzero;stroke:none"
       id="text24"><tspan
         x="0 6.5850515 15.140329 23.206358 32.237663 40.792942 48.858967 53.341564 58.220848 64.805901 73.361176 81.427208 90.458511 99.013786 107.07982 111.56242 116.4417"
         y="0"
         id="tspan22">Schacht(Schacht) </tspan></text>
    <text
       xml:space="preserve"
       transform="matrix(0.999762,0,0,-1,214.60979,516.8231)"
       style="font-variant:normal;font-weight:normal;font-stretch:normal;font-size:13.2283px;font-family:'Century Gothic';-inkscape-font-specification:CenturyGothic;writing-mode:lr-tb;fill:#000000;fill-opacity:1;fill-rule:nonzero;stroke:none"
       id="text28"><tspan
         x="0 6.5861254 11.069452 19.110344 23.59367 29.214359 37.810707 42.690788 49.276917 53.760242 61.801132 66.284462 71.905151 80.501495 85.381577"
         y="0"
         id="tspan26">Stütze(Stütze) </tspan></text>
    <text
       xml:space="preserve"
       transform="matrix(0.999609,0,0,-1,159.69856,658.2204)"
       style="font-variant:normal;font-weight:normal;font-stretch:normal;font-size:13.2283px;font-family:'Century Gothic';-inkscape-font-specification:CenturyGothic;writing-mode:lr-tb;fill:#808080;fill-opacity:1;fill-rule:nonzero;stroke:none"
       id="text32"><tspan
         x="0 9.7851143 19.623121 24.502455 34.287571 44.125576 49.00491"
         y="0"
         id="tspan30">AD(AD) </tspan></text>
    <text
       xml:space="preserve"
       transform="matrix(1.000475,0,0,-1,251.791,779.0889)"
       style="font-variant:normal;font-weight:normal;font-stretch:normal;font-size:11px;font-family:'Century Gothic';-inkscape-font-specification:CenturyGothic;writing-mode:lr-tb;fill:#000000;fill-opacity:1;fill-rule:nonzero;stroke:none"
       id="text36"><tspan
         x="0 5.4806023 9.2113733 16.727942 24.233505 28.294434 33.775036 37.505806 45.022377 52.527939"
         y="0"
         id="tspan34">Stab(Stab)</tspan></text>
    <text
       xml:space="preserve"
       transform="matrix(0.999902,0,0,-1,68.82808,348.5522)"
       style="font-variant:normal;font-weight:normal;font-stretch:normal;font-size:13.2283px;font-family:'Century Gothic';-inkscape-font-specification:CenturyGothic;writing-mode:lr-tb;fill:#000000;fill-opacity:1;fill-rule:nonzero;stroke:none"
       id="text40"><tspan
         x="0 6.4150968 15.01265 24.073147 32.6707 36.652027 41.532791 47.947887 56.545441 65.605942 74.203491 78.184822 83.065582"
         y="0"
         id="tspan38">Feder(Feder) </tspan></text>
    <g
       id="g42"
       transform="translate(257.3,535.2)">
      <path
         d="M 0,0 -2.1,9.4 H 2 L 0,0 m 0,-26.8 2,-9.4 h -4.1 l 2.1,9.4 m -245.7,-162.8 9.4,2.1 v -4.1 l -9.4,2 m 55,0 -9.4,-2 v 4.1 l 9.4,-2.1"
         style="fill:none;stroke:#000000;stroke-width:0.51;stroke-linecap:butt;stroke-linejoin:miter;stroke-miterlimit:10;stroke-dasharray:none;stroke-opacity:1"
         id="path44" />
    </g>
    <g
       id="g46"
       transform="translate(12.1,481.9)">
      <path
         d="M 0,0 9.4,2.1 V -2 L 0,0 m 344.1,0 -9.4,-2 V 2.1 L 344.1,0"
         style="fill:none;stroke:#000000;stroke-width:0.51;stroke-linecap:butt;stroke-linejoin:miter;stroke-miterlimit:10;stroke-dasharray:none;stroke-opacity:1"
         id="path48" />
    </g>
    <g
       id="g50"
       transform="translate(12.1,655.3)">
      <path
         d="M 0,0 9.4,2 V -2 L 0,0 m 344.1,0 -9.4,-2 v 4 l 9.4,-2"
         style="fill:none;stroke:#808080;stroke-width:0.51;stroke-linecap:butt;stroke-linejoin:miter;stroke-miterlimit:10;stroke-dasharray:none;stroke-opacity:1"
         id="path52" />
    </g>
    <g
       id="g54"
       transform="translate(183.1,656.1)">
      <path
         d="M 0,0 2.1,-2 M 0,-2 2.1,0 M 1,-2.4 V 0.5 M 2.5,-1 h -2.9"
         style="fill:none;stroke:#c0c0c0;stroke-width:0.51;stroke-linecap:butt;stroke-linejoin:miter;stroke-miterlimit:10;stroke-dasharray:none;stroke-opacity:1"
         id="path56" />
    </g>
    <g
       id="g58"
       transform="translate(10.6,416.7)">
      <path
         d="M 0,0 2,-2 M 0,-2 2,0 M 1,-2.4 V 0.4 M 2.4,-1 H -0.4 M 55,0 57,-2 m -2,0 2,2 M 56,-2.4 V 0.4 M 57.4,-1 h -2.9"
         style="fill:none;stroke:#c0c0c0;stroke-width:0.51;stroke-linecap:butt;stroke-linejoin:miter;stroke-miterlimit:10;stroke-dasharray:none;stroke-opacity:1"
         id="path60" />
    </g>
    <g
       id="g62"
       transform="translate(184.1996,535.2423)">
      <path
         d="M 0,0 V -26.835"
         style="fill:none;stroke:#c0c0c0;stroke-width:0.51;stroke-linecap:butt;stroke-linejoin:miter;stroke-miterlimit:10;stroke-dasharray:43.2, 3.6, 3.6, 3.6;stroke-dashoffset:35.183;stroke-opacity:1"
         id="path64" />
    </g>
    <g
       id="g66"
       transform="translate(250.2,783.3)">
      <path
         d="M 0,0 V 0"
         style="fill:none;stroke:#000000;stroke-width:0.51;stroke-linecap:round;stroke-linejoin:round;stroke-miterlimit:10;stroke-dasharray:none;stroke-opacity:1"
         id="path68" />
    </g>
    <g
       id="g70"
       transform="translate(250.2,783.3)">
      <path
         d="M 0,0 -18.8,-19"
         style="fill:none;stroke:#000000;stroke-width:0.51;stroke-linecap:round;stroke-linejoin:round;stroke-miterlimit:10;stroke-dasharray:none;stroke-opacity:1"
         id="path72" />
    </g>
    <g
       id="g74"
       transform="translate(187,535.2)">
      <path
         d="M 0,0 H 73.1 M 0,-26.8 H 73.1 M 70.3,0 v 18 m 0,-44.8 v -18 m 0,44.8 v -5.6 m 0,-21.2 v 5.5 m -245.7,-101 v -70.1 m 55,70.1 v -70.1 m -55,2.8 h 55 m 0,0 h 88.9"
         style="fill:none;stroke:#000000;stroke-width:0.51;stroke-linecap:round;stroke-linejoin:round;stroke-miterlimit:10;stroke-dasharray:none;stroke-opacity:1"
         id="path76" />
    </g>
    <g
       id="g78"
       transform="translate(12.1,652.3)">
      <path
         d="M 0,0 V -173.2 M 344.1,0 V -173.2 M 0,-170.4 h 344.1"
         style="fill:none;stroke:#000000;stroke-width:0.51;stroke-linecap:round;stroke-linejoin:round;stroke-miterlimit:10;stroke-dasharray:none;stroke-opacity:1"
         id="path80" />
    </g>
    <g
       id="g82"
       transform="translate(12.1,658)">
      <path
         d="M 0,0 V 0.1 M 344.1,0 V 0.1 M 0,-2.7 h 344.1"
         style="fill:none;stroke:#808080;stroke-width:0.51;stroke-linecap:round;stroke-linejoin:round;stroke-miterlimit:10;stroke-dasharray:none;stroke-opacity:1"
         id="path84" />
    </g>
    <g
       id="g86"
       transform="translate(356.2,655.1)">
      <path
         d="M 0,0 H -344.1"
         style="fill:none;stroke:#c0c0c0;stroke-width:0.51;stroke-linecap:round;stroke-linejoin:round;stroke-miterlimit:10;stroke-dasharray:none;stroke-opacity:1"
         id="path88" />
    </g>
    <g
       id="g90"
       transform="translate(230.4,763.4)">
      <path
         d="m 0,0 0.3,-0.2 0.2,-0.1 0.3,-0.1 h 0.3 0.3 l 0.2,0.1 0.3,0.2 0.2,0.2 0.1,0.2 0.1,0.3 0.1,0.3 -0.1,0.3 V 1.4 L 2.1,1.7 2,1.9 1.7,2.1 1.5,2.2 1.2,2.3 H 0.9 0.6 L 0.4,2.2 0.1,2 -0.1,1.8 -0.2,1.6 -0.3,1.3 -0.4,1 -0.3,0.7 V 0.5 L -0.1,0.2 0,0 1,0.9"
         style="fill:#000000;fill-opacity:1;fill-rule:nonzero;stroke:none"
         id="path92" />
    </g>
    <g
       id="g94"
       transform="translate(257.3,535.2)">
      <path
         d="M 0,0 -2.1,9.4 H 2 m -2,-36.2 2,-9.4 h -4.1 m -243.6,-153.4 9.4,2.1 v -4.1 m 45.6,2 -9.4,-2 v 4.1"
         style="fill:#000000;fill-opacity:1;fill-rule:nonzero;stroke:none"
         id="path96" />
    </g>
    <g
       id="g98"
       transform="translate(12.1,481.9)">
      <path
         d="M 0,0 9.4,2.1 V -2 m 334.7,2 -9.4,-2 v 4.1"
         style="fill:#000000;fill-opacity:1;fill-rule:nonzero;stroke:none"
         id="path100" />
    </g>
    <g
       id="g102"
       transform="translate(12.1,655.3)">
      <path
         d="m 0,0 9.4,2 v -4 m 334.7,2 -9.4,-2 v 4"
         style="fill:#808080;fill-opacity:1;fill-rule:nonzero;stroke:none"
         id="path104" />
    </g>
  </g>
</svg>
