<?xml version="1.0" encoding="UTF-8" standalone="no"?>
<!-- Created with Inkscape (http://www.inkscape.org/) -->

<svg
   version="1.1"
   id="svg2"
   width="793.70135"
   height="1122.52"
   viewBox="0 0 793.70135 1122.52"
   xmlns="http://www.w3.org/2000/svg"
   xmlns:svg="http://www.w3.org/2000/svg">
  <defs
     id="defs6" />
  <g
     id="g8"
     transform="matrix(1.3333333,0,0,-1.3333333,0,1122.52)">
    <g
       id="g10"
       transform="translate(303.4,686.7)">
      <path
         d="M 0,0 -2.2,1.4 -4,2.6 -4.5,2.9 -4.9,3.2 -5.4,3.5 -6.4,4 -7.3,4.1 H -8.1 L -8.6,4 -9.5,3.7 l -0.8,-0.6 -0.6,-0.7 -0.5,-1 -0.3,-1 0.1,-1 0.4,-1.3 0.4,-1.2 0.4,-1.4 1.3,-4.1 1.1,-4.4 1,-4.3 1.2,-7.4 0.8,-7.3 0.3,-8.4 -0.3,-8.4 -1,-8.3 -2.2,-11.3 -3.3,-11 -4.5,-10.8 -4.1,-8 -5,-7.9 -1.9,-2.7 -1.8,-2.4 -1.5,-1.9 -0.6,-0.7 -0.6,-0.8 -0.4,-0.8 -0.1,-0.7 -0.1,-0.9 0.2,-1 0.5,-1 0.9,-1.1 0.9,-1 0.9,-1 1,-1 3.1,-3.5 6.3,-6.8 5.9,-6.5 6.1,-6.7 3.2,-3.6 2.9,-3.1 1.3,-1.4 0.1,-0.1 v -0.1 l 0.1,-0.1 0.1,-0.3 v -0.2 l -0.2,-0.3 -0.1,-0.2 -1.4,-1.4 -2.3,-2.3 -2.1,-2.1 -0.5,-0.5 -0.4,-0.4 -0.1,-0.1 -0.2,-0.1 h -0.2 -0.3 l -0.2,0.1 -0.1,0.1 h -0.1 l -2.3,2.2 -3,2.7 -3.7,3.4 -3.7,3.3 -3.5,3.3 -3.5,3.1 -3.5,3.3 -3.6,3.2 -3.6,3.3 -3.1,2.8 -1.2,1.1 -1.4,1.1 -0.8,0.3 -0.9,0.2 -0.9,-0.1 -1,-0.3 -1.4,-1 -1.2,-0.9 -1.3,-1.1 -1.4,-1 -2.5,-1.8 -2.8,-2 -5.6,-3.4 -5.4,-3 -8.1,-3.7 -8,-3 -8.3,-2.5 -8.4,-1.8 -11.4,-1.4 -11.4,-0.4 -11.5,0.9 -11.3,1.9 -11.1,3 -10.8,4.2 -8,3.9 -8,4.7 -2.6,1.8 -2.6,1.8 -2.5,1.9 -1.5,1.1 -1.2,0.9 -0.5,0.5 -0.6,0.4 -1.4,0.4 h -0.9 l -1,-0.3 -1.6,-1.1 -1.2,-1.1 -1.3,-1.1 -3.2,-2.9 -6.2,-5.8 -12.2,-11.1 -3.8,-3.5 -3.5,-3.1 -3,-2.8 -0.3,-0.3 -0.3,-0.2 -0.2,-0.1 -0.3,-0.1 h -0.3 l -0.2,0.2 -0.1,0.1 h -0.1 l -1.3,1.3 -1.5,1.6 -2.2,2.2 -1,0.9 -0.5,0.5 -0.1,0.1 v 0.1 h -0.1 l -0.1,0.2 v 0.2 l -0.1,0.2 0.1,0.2 0.1,0.2 v 0.1 l 0.1,0.1 1.1,1.2 1.4,1.5 5.5,6 5.3,5.8 5.1,5.6 5.2,5.7 5.2,5.6 2.6,3 2.1,2.2 0.2,0.3 0.3,0.4 0.5,0.9 0.2,1.1 -0.1,1.1 -0.4,1 -0.9,1.2 -0.8,0.9 -2.1,2 -2.3,2.4 -2.8,2.7 -2.3,2.9 -1.9,3.4 -4.2,8.1 -3.4,7.9 -2.8,8.2 -2.1,8.3 -1.9,11.4 -0.8,11.4 0.3,11.5 1.5,11.4 2.6,11.1 3.7,10.9 4,9 4.9,8.9 2.2,3.5 2.4,3.6 2.4,3.2 1.8,2.3 0.5,0.6 0.5,0.7 0.3,0.8 0.2,0.8 v 1 l -0.3,1 -1.2,1.6 -1.1,1.3 -1.2,1.3 -1.4,1.5 -2.3,2.5 -2.5,2.8 -9.7,10.6 -4.6,5 -4.3,4.7 -3.9,4.3 -0.7,0.7 -0.1,0.2 -0.1,0.2 -0.1,0.3 0.1,0.3 0.2,0.3 0.1,0.1 1.2,1.2 1.3,1.3 2.1,2.1 1.1,1.1 0.5,0.5 0.3,0.3 0.1,0.1 0.2,0.2 h 0.2 0.2 0.2 l 0.3,-0.2 0.3,-0.2 0.3,-0.3 3.6,-3.2 4.5,-4.2 4.9,-4.5 4.9,-4.5 5,-4.5 4.6,-4.2 2.2,-2 2.1,-1.9 1.8,-1.7 1.1,-1 0.4,-0.3 0.3,-0.2 0.7,-0.3 0.8,-0.2 h 0.8 l 1,0.1 1.6,1 1.1,0.9 1.2,0.9 3.4,2.6 3.7,2.5 3.9,2.5 8.2,4.5 8,3.6 8,3 8.3,2.3 11.3,2.2 11.4,1.1 h 11.5 l 11.4,-1.2 11.2,-2.3 11,-3.4 4.1,-1.6 4,-1.7 4,-1.9 3.9,-2.1 4,-2.3 4,-2.5 4,-2.7 3.5,-2.7 2.4,-1.9 0.4,-0.3 0.4,-0.2 0.8,-0.3 0.9,-0.1 1,0.1 1,0.3 1.4,1.1 1.1,1 1.2,1 1.2,1.2 4.6,4.2 4.6,4.2 4.7,4.3 5,4.5 4.9,4.5 4.5,4.1 1.6,1.5 0.8,0.7 0.3,0.3 0.3,0.2 0.3,0.2 h 0.3 l 0.3,-0.1 h 0.2 v -0.1 l 0.2,-0.1 1.7,-1.8 2.1,-2 L 0.5,76 1,75.5 1.2,75.3 V 75.2 L 1.3,75 1.4,74.8 V 74.6 L 1.3,74.5 1.2,74.2 0.8,73.8 0.4,73.4 l -1,-1.1 -2,-2.2 -3.6,-4 -4,-4.3 -3.9,-4.3 -3.8,-4.2 -3.8,-4.1 -6.3,-6.9 -1.5,-1.7 -1.6,-1.7 -1.3,-1.4 -0.3,-0.4 -0.4,-0.5 -0.5,-1.1 -0.1,-1 v -0.8 l 0.2,-0.6 0.2,-0.5 0.7,-0.9 0.9,-0.9 1.2,-1.3 1.6,-1.5 1.9,-2 2.3,-2.3 2.4,-2.4 2.1,-3.6 2.3,-4.2 m -6.2,14.2 -1.4,1.3 -1.8,1.9 -1.2,1.2 -0.9,0.8 -0.6,0.6 -0.2,0.3 -0.1,0.1 -0.2,0.2 v 0.3 l 0.1,0.4 v 0.1 l 0.1,0.1 0.1,0.2 3.2,3.4 3.3,3.6 3.2,3.5 3.1,3.4 13.2,14.5 3.2,3.5 2.5,2.8 0.6,0.6 0.5,0.5 0.5,0.5 0.5,0.6 0.6,0.9 0.3,1 0.1,1 -0.1,0.4 M -5.6,85.5 h -0.1 -1 l -1,-0.2 -1.5,-1.1 -1.1,-1 -1.2,-1 -3.1,-2.9 -3.2,-2.9 -3.4,-3.2 -5.1,-4.6 -5,-4.6 -5,-4.5 -3.4,-3.1 -2.8,-2.6 -1.3,-1.2 -0.2,-0.2 h -0.1 v -0.1 h -0.1 l -0.1,-0.1 -0.3,-0.1 h -0.3 l -0.3,0.1 -0.7,0.5 -0.8,0.7 -5.6,4.2 -6.4,4.2 -6.7,3.8 -6.7,3.3 -6.4,2.7 -11.1,3.6 -11.3,2.5 -11.5,1.4 -11.6,0.3 -11.6,-0.8 -11.5,-2 -8.4,-2.2 -8.2,-2.8 -8.2,-3.4 -8.1,-4.2 -2.8,-1.6 -2.8,-1.7 -2.8,-1.9 -2.8,-1.9 -2.9,-2.2 -2.5,-2 -0.4,-0.3 -0.2,-0.1 -0.1,-0.1 -0.2,-0.1 h -0.3 -0.2 l -0.1,0.1 -0.2,0.1 -0.1,0.1 -2.3,2.1 -2.8,2.5 -2.9,2.7 -3,2.7 -3.1,2.9 -3.2,2.8 -3.1,2.9 -4.3,3.9 -4.1,3.8 -3.5,3.2 -2.7,2.4 -0.2,0.3 -0.5,0.3 -0.9,0.4 -1,0.2 h -1 m -10,-10.1 -0.1,-0.7 0.2,-0.9 0.4,-1 1,-1.3 0.9,-1 1.1,-1.2 1.1,-1.2 3.9,-4.3 4.5,-4.9 4.6,-5 4.6,-5.1 3.5,-3.8 3.1,-3.4 2.6,-2.9 1.4,-1.4 0.4,-0.5 0.2,-0.3 v -0.3 l -0.1,-0.3 v -0.2 l -0.3,-0.2 -3.7,-4.9 -3.9,-5.6 -3.7,-6.1 -3.2,-6 -2.8,-6 -4,-10.9 -3,-11.2 -1.9,-11.4 -0.7,-11.6 0.3,-11.6 1.5,-11.5 1.9,-8.6 2.4,-8.3 3.1,-8.2 3.8,-8.2 1.4,-2.7 1.5,-2.7 1.6,-2.7 2.1,-2.9 2.3,-2.3 2.4,-2.4 3.5,-3.5 0.4,-0.4 0.1,-0.2 0.2,-0.1 0.1,-0.2 0.1,-0.1 0.1,-0.4 -0.1,-0.3 -0.1,-0.2 -0.1,-0.1 -0.2,-0.3 -1.9,-2 -2.5,-2.7 -3,-3.3 -3,-3.3 -2.9,-3.2 -3,-3.2 -6.7,-7.4 -6.8,-7.5 -1.6,-1.7 -1.3,-1.4 -0.5,-0.6 -0.6,-0.7 -0.4,-0.9 -0.2,-0.8 v -0.2 m 11.1,-11.1 0.6,0.1 1,0.4 1.2,1 1,0.9 1.1,1 1.2,1.1 4.4,4 4.5,4.1 4.3,4 7.8,7.1 7.2,6.5 3.1,2.9 0.2,0.2 0.2,0.1 0.3,0.1 0.3,-0.1 h 0.2 l 0.1,-0.1 3.4,-2.7 4.2,-3 4.9,-3.3 5.2,-3 5,-2.7 8.1,-3.6 8.2,-3 8.3,-2.4 8.6,-1.8 11.5,-1.4 11.6,-0.3 11.6,0.9 11.4,2 11.2,3 11,4.2 8.1,4 8.2,4.8 2.7,1.8 2.7,1.9 2.7,1.9 3.2,2.6 0.2,0.1 0.1,0.1 0.3,0.1 h 0.2 l 0.3,-0.1 0.1,-0.1 0.2,-0.2 2.5,-2.3 3.2,-2.9 3.4,-3.1 3.2,-2.9 3.2,-2.9 6,-5.6 6.1,-5.5 2.4,-2.2 2.4,-2.2 1.9,-1.8 0.4,-0.3 0.4,-0.4 0.6,-0.4 0.9,-0.4 0.7,-0.2 h 0.1 m 11.1,11.2 -0.1,0.7 -0.4,0.9 -0.9,1.1 -0.8,0.9 -0.9,1 -0.9,1 -3.5,3.8 -3.6,3.9 -3.6,4 -6.3,6.9 -6.2,6.8 -3,3.3 -2.8,3.1 -0.2,0.2 -0.1,0.2 -0.1,0.3 0.1,0.3 v 0.2 l 0.2,0.2 0.3,0.3 0.7,0.9 1.2,1.5 3.3,4.5 3.6,5.5 3.3,5.7 4.1,8.3 3.3,8.1 2.7,8.3 2.1,8.4 1.4,8.6 0.9,8.7 0.2,8.7 -0.5,8.8 -0.7,6.2 -1.1,6.3 -1.4,6.3 -1.2,4.5 -1.3,4.2 -0.6,1.8 -0.1,0.2 v 0.1 l -0.1,0.1 v 0.3 l 0.1,0.1 0.1,0.2 0.1,0.1 0.1,0.2 0.2,0.1 h 0.2 0.3 l 0.3,-0.1 0.2,-0.2 1.2,-0.8 3.9,-2.5 m -14,12.1 0.3,-0.6 1.5,-2.8 0.3,-0.6 0.3,-0.5 0.2,-0.4 0.2,-0.4 0.2,-0.3 0.1,-0.2 0.1,-0.1 V 3.4 h 0.1 l 0.1,-0.1 0.2,-0.1 0.1,-0.1 h 0.3 l 0.5,-0.1 0.5,0.1 0.4,0.3 0.2,0.2 0.2,0.3 0.1,0.2 v 0.2 0.1 h 0.1 l -0.1,0.2 v 0.3 l -0.2,0.5 -0.5,1 -0.6,1.2 -0.6,1.2 -1.5,2.8 -2.3,4.5 -3.1,5.8 -1.4,2.8 -0.7,1.4 -0.2,0.3 -0.1,0.2 v 0.1 0.2 0.1 l 0.2,0.2 0.1,0.2 0.3,0.2 0.5,0.4 1.4,1 1.5,1.2 2.7,2 3.2,2.5 3.8,2.9 m -1.9,2.6 -3.9,-3 -3.3,-2.5 -2.5,-1.9 -1.5,-1.2 -1.3,-0.9 -0.5,-0.4 -0.6,-0.5 -0.7,-0.7 -0.4,-0.8 -0.3,-1.2 v -0.7 l 0.1,-0.7 0.7,-1.4 0.7,-1.4 0.9,-1.7 2,-3.9 2,-3.8 2.1,-4 2.2,-4.2 0.4,-0.7 0.1,-0.2 m -240.5,-152.8 23.7,-23.7 m 0,0 h 217.3 m 0,0 23.6,23.7 m 0,0 V 68.9 m 0,0 -23.6,23.6 m 0,0 h -217.3 m 0,0 -23.7,-23.6 m 0,0 v -217.3 m -28.3,-52 H 39.4 M -281.9,120.8 V -200.4 M 39.4,120.8 H -281.9 M 39.4,-200.4 V 120.8 M -1.8,-2.7 l 0.1,0.1 0.1,0.3 0.3,0.4 0.4,0.5 0.3,0.5 0.3,0.5 0.2,0.3 L 0,0 m -7.4,37.6 -0.1,0.1 -0.2,0.3 -0.3,0.4 -0.4,0.5 -0.4,0.4 -0.3,0.5 -0.2,0.3 v 0.1 l 0.1,-0.1 0.2,-0.3 0.3,-0.4 0.4,-0.5 0.4,-0.4 0.3,-0.5 0.2,-0.3 v -0.1"
         style="fill:none;stroke:#000000;stroke-width:0.709;stroke-linecap:round;stroke-linejoin:round;stroke-miterlimit:10;stroke-dasharray:none;stroke-opacity:1"
         id="path12" />
    </g>
    <text
       xml:space="preserve"
       transform="matrix(0.99955,0,0,-1,160.25876,826.5948)"
       style="font-variant:normal;font-weight:normal;font-stretch:normal;font-size:11px;font-family:Verdana;-inkscape-font-specification:Verdana;writing-mode:lr-tb;fill:#808080;fill-opacity:1;fill-rule:nonzero;stroke:none"
       id="text16"><tspan
         x="0 7.5206141 13.249035 20.208902 26.816927 32.545349 39.505215 43.837265"
         y="0"
         id="tspan14">Schacht </tspan></text>
    <text
       xml:space="preserve"
       transform="matrix(0.999887,0,0,-1,155.2555,813.2298)"
       style="font-variant:normal;font-weight:normal;font-stretch:normal;font-size:11px;font-family:Verdana;-inkscape-font-specification:Verdana;writing-mode:lr-tb;fill:#808080;fill-opacity:1;fill-rule:nonzero;stroke:none"
       id="text20"><tspan
         x="0 4.9934359 12.516585 18.246939 25.20915 31.819405 37.549755 44.511971 48.845478"
         y="0"
         id="tspan18">(Schacht)</tspan></text>
    <text
       xml:space="preserve"
       transform="matrix(0.999715,0,0,-1,78.122396,519.6398)"
       style="font-variant:normal;font-weight:normal;font-stretch:normal;font-size:11px;font-family:Verdana;-inkscape-font-specification:Verdana;writing-mode:lr-tb;fill:#000000;fill-opacity:1;fill-rule:nonzero;stroke:none"
       id="text24"><tspan
         x="0 6.3231974 12.877329 19.728376 26.282507 30.978168 34.849064 39.84164 46.164841 52.718971 59.570019 66.124146 70.819809 75.812386"
         y="0"
         id="tspan22">Feder (Feder) </tspan></text>
    <text
       xml:space="preserve"
       transform="matrix(0.70643432,0.70643432,0.70710678,-0.70710678,202.72192,670.35322)"
       style="font-variant:normal;font-weight:normal;font-stretch:normal;font-size:11px;font-family:Verdana;-inkscape-font-specification:Verdana;writing-mode:lr-tb;fill:#000000;fill-opacity:1;fill-rule:nonzero;stroke:none"
       id="text28"><tspan
         x="0 7.5168691 15.989832"
         y="0"
         id="tspan26">AD </tspan></text>
    <text
       xml:space="preserve"
       transform="matrix(0.70695829,0.70695829,0.70710678,-0.70710678,208.63596,657.36623)"
       style="font-variant:normal;font-weight:normal;font-stretch:normal;font-size:11px;font-family:Verdana;-inkscape-font-specification:Verdana;writing-mode:lr-tb;fill:#000000;fill-opacity:1;fill-rule:nonzero;stroke:none"
       id="text32"><tspan
         x="0 4.9929676 12.515412 20.994659"
         y="0"
         id="tspan30">(AD)</tspan></text>
    <g
       id="g34"
       transform="translate(49.8,824.2)">
      <path
         d="M 0,0 9.4,2 V -2.1 L 0,0 m 264.6,0 -9.3,-2.1 V 2 l 9.3,-2"
         style="fill:none;stroke:#808080;stroke-width:0.51;stroke-linecap:butt;stroke-linejoin:miter;stroke-miterlimit:10;stroke-dasharray:none;stroke-opacity:1"
         id="path36" />
    </g>
    <g
       id="g38"
       transform="translate(89,497)">
      <path
         d="M 0,0 -5.2,-8.1 -8,-5.2 0,0 m 37.1,37 5.1,8.1 2.9,-2.9 -8,-5.2"
         style="fill:none;stroke:#000000;stroke-width:0.51;stroke-linecap:butt;stroke-linejoin:miter;stroke-miterlimit:10;stroke-dasharray:none;stroke-opacity:1"
         id="path40" />
    </g>
    <g
       id="g42"
       transform="translate(60.8,525.1)">
      <path
         d="M 0,0 5.2,8.1 8.1,5.2 0,0 m 242.6,242.6 -5.1,-8 -2.9,2.9 8,5.1"
         style="fill:none;stroke:#000000;stroke-width:0.51;stroke-linecap:butt;stroke-linejoin:miter;stroke-miterlimit:10;stroke-dasharray:none;stroke-opacity:1"
         id="path44" />
    </g>
    <g
       id="g46"
       transform="translate(236.8621,749.253)">
      <path
         d="m 0,0 -2.709,1.395 -2.745,1.324 -2.779,1.252 -2.81,1.179 -2.84,1.104 -2.869,1.03 -2.894,0.954 -2.918,0.878 -2.94,0.802 -2.96,0.724 -2.979,0.647 -2.994,0.568 -3.007,0.49 -3.02,0.411 -3.03,0.332 -3.037,0.252 -3.042,0.173 -3.046,0.093 -3.048,0.014 -3.047,-0.067 -3.044,-0.146 -3.039,-0.226 -3.032,-0.305 -3.023,-0.385 -3.012,-0.464 -2.999,-0.542 -2.984,-0.62 -2.966,-0.699 -2.947,-0.776 -2.926,-0.853 -2.902,-0.929 -2.877,-1.004 -2.85,-1.08 -2.821,-1.154 -2.789,-1.227 -2.756,-1.3 -2.722,-1.372 -2.684,-1.442 -2.646,-1.513 -2.606,-1.581 -2.563,-1.648 -2.519,-1.715 -2.473,-1.781 -2.426,-1.845 -2.376,-1.907 -2.326,-1.969 -2.274,-2.029 -2.22,-2.089 -2.164,-2.145 -2.107,-2.201 -2.049,-2.256 -1.99,-2.309 -1.928,-2.36 -1.866,-2.41 -1.802,-2.457 -1.737,-2.504 -1.671,-2.549 -1.603,-2.591 -1.536,-2.633 -1.465,-2.672 -1.396,-2.709 -1.324,-2.745 -1.251,-2.778 -1.179,-2.811 -1.104,-2.84 -1.03,-2.868 -0.955,-2.894 -0.878,-2.919 -0.801,-2.94 -0.725,-2.96 -0.646,-2.978 -0.569,-2.994 -0.49,-3.008 -0.411,-3.02 -0.331,-3.029 -0.253,-3.037 -0.173,-3.043 -0.093,-3.046 -0.013,-3.047 0.067,-3.047 0.146,-3.044 0.226,-3.039 0.305,-3.032 0.385,-3.023 0.463,-3.013 0.542,-2.998 0.621,-2.984 0.698,-2.966 0.776,-2.948 0.853,-2.925 0.929,-2.903 1.005,-2.877 1.08,-2.85 1.154,-2.82 1.227,-2.79 1.3,-2.756 1.372,-2.721 1.442,-2.685 1.512,-2.646 1.581,-2.605 1.649,-2.563 1.715,-2.519 1.781,-2.473 1.844,-2.426 1.908,-2.377 1.969,-2.326 2.029,-2.274 2.088,-2.219 2.146,-2.165 2.201,-2.107 2.256,-2.049 2.309,-1.989 2.359,-1.928 2.41,-1.866 2.458,-1.802 2.504,-1.737 2.548,-1.671 2.592,-1.604 2.632,-1.535 2.672,-1.466 2.709,-1.395 2.745,-1.324 2.779,-1.252 2.81,-1.178 2.841,-1.105 2.868,-1.03 2.894,-0.954 2.918,-0.878 2.94,-0.802 2.961,-0.724 2.978,-0.647 2.994,-0.568 3.008,-0.49 3.019,-0.411 3.03,-0.332 3.037,-0.252 3.042,-0.173 3.046,-0.093 3.048,-0.013 3.047,0.066 3.044,0.146 3.039,0.226 3.032,0.305 3.023,0.385 3.012,0.464 2.999,0.542 2.984,0.62 2.966,0.699 2.947,0.776 2.926,0.853 2.902,0.929 2.877,1.004 2.85,1.08 2.821,1.154 2.789,1.227 2.757,1.3 2.721,1.372 2.685,1.443 2.645,1.512 2.606,1.581 2.563,1.648 2.519,1.715 2.473,1.781 2.426,1.845 2.377,1.907 2.326,1.969 2.273,2.03 2.22,2.088 2.164,2.145 2.108,2.201 2.049,2.256 1.989,2.309 1.928,2.36 1.866,2.41 1.802,2.457 1.737,2.504 1.671,2.549 1.603,2.591 1.536,2.633 1.466,2.672 1.395,2.709 1.324,2.745 1.252,2.778 1.178,2.811 1.105,2.84 1.029,2.868 0.955,2.895 0.878,2.918 0.802,2.94 0.724,2.96 0.647,2.978 0.568,2.994 0.49,3.008 0.411,3.02 0.332,3.029 0.252,3.037 0.173,3.043 0.093,3.046 0.013,3.047 -0.066,3.047 -0.147,3.044 -0.225,3.039 -0.306,3.032 -0.384,3.024 -0.464,3.012 -0.542,2.999 -0.621,2.983 -0.698,2.967 -0.776,2.947 -0.853,2.925 -0.929,2.903 -1.005,2.877 -1.08,2.85 -1.153,2.82 -1.228,2.79 -1.3,2.756 -1.372,2.721 -1.442,2.685 -1.512,2.646 -1.581,2.605 -1.649,2.563 -1.715,2.519 -1.78,2.474 -1.845,2.425 -1.908,2.377 -1.969,2.326 -2.029,2.274 -2.088,2.219 -2.145,2.165 -2.202,2.107 -2.256,2.049 -2.308,1.989 -2.36,1.929 -2.41,1.865 -2.458,1.802 -2.504,1.737 L 7.896,-4.605 5.304,-3.001 2.672,-1.466 0,0"
         style="fill:none;stroke:#c0c0c0;stroke-width:0.51;stroke-linecap:butt;stroke-linejoin:miter;stroke-miterlimit:10;stroke-dasharray:43.2, 3.6, 3.6, 3.6;stroke-dashoffset:6.9;stroke-opacity:1"
         id="path48" />
    </g>
    <g
       id="g50"
       transform="translate(58,770.6)">
      <path
         d="M 0,0 2,-2 M 0,-2 2,0 M 1,-2.4 V 0.4 M 2.4,-1 h -2.8 m 123.6,-122.2 2,-2 m -2,0 2,2 m -1,-2.4 v 2.8 m 1.4,-1.4 h -2.9"
         style="fill:none;stroke:#c0c0c0;stroke-width:0.51;stroke-linecap:butt;stroke-linejoin:miter;stroke-miterlimit:10;stroke-dasharray:none;stroke-opacity:1"
         id="path52" />
    </g>
    <g
       id="g54"
       transform="translate(63.1876,765.4931)">
      <path
         d="M 0,0 238.047,-238.047"
         style="fill:none;stroke:#c0c0c0;stroke-width:0.51;stroke-linecap:butt;stroke-linejoin:miter;stroke-miterlimit:10;stroke-dasharray:43.2, 3.6, 3.6, 3.6;stroke-dashoffset:15.275;stroke-opacity:1"
         id="path56" />
    </g>
    <g
       id="g58"
       transform="translate(63.1876,527.446)">
      <path
         d="M 0,0 238.047,238.047"
         style="fill:none;stroke:#c0c0c0;stroke-width:0.51;stroke-linecap:butt;stroke-linejoin:miter;stroke-miterlimit:10;stroke-dasharray:43.2, 3.6, 3.6, 3.6;stroke-dashoffset:15.275;stroke-opacity:1"
         id="path60" />
    </g>
    <g
       id="g62"
       transform="translate(49.8,758.4)">
      <path
         d="M 0,0 V 68.6 M 264.6,0 V 68.6 M 0,65.8 h 264.6"
         style="fill:none;stroke:#808080;stroke-width:0.51;stroke-linecap:round;stroke-linejoin:round;stroke-miterlimit:10;stroke-dasharray:none;stroke-opacity:1"
         id="path64" />
    </g>
    <g
       id="g66"
       transform="translate(85.6,500.4)">
      <path
         d="m 0,0 5.4,-5.4 m 32.3,41.8 4.8,-4.8 M 3.4,-3.4 -9.3,-16.2 M 40.5,33.6 53.2,46.3 M 3.4,-3.4 23.7,16.8 m 16.8,16.8 -3.4,-3.4"
         style="fill:none;stroke:#000000;stroke-width:0.51;stroke-linecap:round;stroke-linejoin:round;stroke-miterlimit:10;stroke-dasharray:none;stroke-opacity:1"
         id="path68" />
    </g>
    <g
       id="g70"
       transform="translate(71.1,514.9)">
      <path
         d="m 0,0 -12.3,12.2 m 243,242.2 -0.4,0.4 M -10.3,10.2 232.3,252.8"
         style="fill:none;stroke:#000000;stroke-width:0.51;stroke-linecap:round;stroke-linejoin:round;stroke-miterlimit:10;stroke-dasharray:none;stroke-opacity:1"
         id="path72" />
    </g>
    <g
       id="g74"
       transform="translate(106.2,553.9)">
      <path
         d="m 0,0 15.1,-15.1 m -58.7,-15.4 21,-21 m 220.2,264.9 23,-23"
         style="fill:none;stroke:#c0c0c0;stroke-width:0.51;stroke-linecap:round;stroke-linejoin:round;stroke-miterlimit:10;stroke-dasharray:none;stroke-opacity:1"
         id="path76" />
    </g>
    <g
       id="g78"
       transform="translate(49.8,824.2)">
      <path
         d="M 0,0 9.4,2 V -2.1 M 264.6,0 255.3,-2.1 V 2"
         style="fill:#808080;fill-opacity:1;fill-rule:nonzero;stroke:none"
         id="path80" />
    </g>
    <g
       id="g82"
       transform="translate(89,497)">
      <path
         d="M 0,0 -5.2,-8.1 -8,-5.2 m 45.1,42.2 5.1,8.1 2.9,-2.9"
         style="fill:#000000;fill-opacity:1;fill-rule:nonzero;stroke:none"
         id="path84" />
    </g>
    <g
       id="g86"
       transform="translate(60.8,525.1)">
      <path
         d="M 0,0 5.2,8.1 8.1,5.2 m 234.5,237.4 -5.1,-8 -2.9,2.9"
         style="fill:#000000;fill-opacity:1;fill-rule:nonzero;stroke:none"
         id="path88" />
    </g>
  </g>
</svg>
