<?xml version="1.0" encoding="iso-8859-1"?>
<!-- Uploaded to: SVG Repo, www.svgrepo.com, Generator: SVG Repo Mixer Tools -->
<!DOCTYPE svg PUBLIC "-//W3C//DTD SVG 1.1//EN" "http://www.w3.org/Graphics/SVG/1.1/DTD/svg11.dtd">
<svg fill="#8A2BE2" version="1.1" id="Capa_1" xmlns="http://www.w3.org/2000/svg" xmlns:xlink="http://www.w3.org/1999/xlink" 
	 width="12px" height="12px" viewBox="0 0 425.832 425.833"
	 xml:space="preserve">
<g>
	<path d="M377.763,83.169l-86.238-80.33c-1.957-1.83-4.54-2.839-7.21-2.839H55.291c-5.855,0-10.597,4.742-10.597,10.59v404.647
		c0,5.843,4.742,10.595,10.597,10.595H370.54c5.854,0,10.599-4.74,10.599-10.595V90.92
		C381.134,87.979,379.915,85.172,377.763,83.169z M284.668,25.396l69.428,64.668h-69.428V25.396z M80.801,290.908H65.874v-26.823
		H80.79c-0.112,3.217-0.162,7.535-0.162,13.061C80.628,282.962,80.677,287.509,80.801,290.908z M65.874,315.571h16.799
		c6.019,48.951,24.632,78.73,55.367,89.078H65.874V315.571z M359.959,404.654H193.626c30.942-9.866,48.717-37.39,52.836-82.354
		l0.323-3.535H207.33l-0.273,2.933c-3.581,37.357-17.372,55.52-42.137,55.52c-23.562,0-37.516-20.181-42.587-61.646h50.375
		l6.915-24.657h-59.205c-0.128-3.344-0.187-7.957-0.187-13.761c0-5.533,0.058-9.912,0.175-13.063h53.382l6.915-24.657h-58.387
		c5.032-41.819,19.361-63.018,42.597-63.018c11.78,0,21.114,4.293,28.521,13.113c7.507,8.936,12.082,21.659,13.617,37.812
		l0.273,2.933h39.58l-0.457-3.639c-3.241-25.855-11.92-46.145-25.787-60.314c-13.999-14.285-32.757-21.535-55.748-21.535
		c-47.333,0-75,31.839-82.269,94.648H65.867V21.182h197.632v79.47c0,5.844,4.736,10.585,10.581,10.585h85.879V404.654z"/>
</g>
</svg>