<?xml version="1.0" encoding="iso-8859-1"?>
<!-- Uploaded to: SVG Repo, www.svgrepo.com, Generator: SVG Repo Mixer Tools -->
<svg fill="#f4ce46" height="12px" width="12px" version="1.1" id="Layer_1" xmlns="http://www.w3.org/2000/svg" xmlns:xlink="http://www.w3.org/1999/xlink" 
	 viewBox="0 0 512.001 512.001" xml:space="preserve">
<g>
	<g>
		<path d="M495.817,239.818H392.092V52.156c0-8.937-7.246-16.183-16.183-16.183H136.091c-8.938,0-16.183,7.246-16.183,16.183
			v187.661H16.183C7.246,239.817,0,247.063,0,256.001v203.844c0,8.937,7.246,16.183,16.183,16.183h239.817h239.817
			c8.937,0,16.183-7.246,16.183-16.183V256.001C512,247.064,504.755,239.818,495.817,239.818z M239.817,443.663H32.366V272.185
			h103.725h103.726V443.663z M152.275,239.817V68.34h87.543v21.709c0,8.938,7.246,16.183,16.183,16.183s16.183-7.246,16.183-16.183
			V68.34h87.543v171.478H256.001H152.275z M479.635,443.663h-0.001h-207.45V272.185H375.91h103.725V443.663z"/>
	</g>
</g>
</svg>